G75*
%MOIN*%
%OFA0B0*%
%FSLAX25Y25*%
%IPPOS*%
%LPD*%
%AMOC8*
5,1,8,0,0,1.08239X$1,22.5*
%
%ADD10C,0.00000*%
%ADD11C,0.00800*%
%ADD12C,0.00394*%
%ADD13C,0.00400*%
%ADD14C,0.00900*%
%ADD15C,0.00500*%
%ADD16C,0.00200*%
%ADD17C,0.00600*%
%ADD18C,0.01000*%
%ADD19R,0.02000X0.02000*%
D10*
X0038933Y0038933D02*
X0038933Y0418933D01*
X0353933Y0418933D01*
X0353933Y0038933D01*
X0038933Y0038933D01*
D11*
X0053027Y0058933D02*
X0053029Y0059086D01*
X0053035Y0059240D01*
X0053045Y0059393D01*
X0053059Y0059545D01*
X0053077Y0059698D01*
X0053099Y0059849D01*
X0053124Y0060000D01*
X0053154Y0060151D01*
X0053188Y0060301D01*
X0053225Y0060449D01*
X0053266Y0060597D01*
X0053311Y0060743D01*
X0053360Y0060889D01*
X0053413Y0061033D01*
X0053469Y0061175D01*
X0053529Y0061316D01*
X0053593Y0061456D01*
X0053660Y0061594D01*
X0053731Y0061730D01*
X0053806Y0061864D01*
X0053883Y0061996D01*
X0053965Y0062126D01*
X0054049Y0062254D01*
X0054137Y0062380D01*
X0054228Y0062503D01*
X0054322Y0062624D01*
X0054420Y0062742D01*
X0054520Y0062858D01*
X0054624Y0062971D01*
X0054730Y0063082D01*
X0054839Y0063190D01*
X0054951Y0063295D01*
X0055065Y0063396D01*
X0055183Y0063495D01*
X0055302Y0063591D01*
X0055424Y0063684D01*
X0055549Y0063773D01*
X0055676Y0063860D01*
X0055805Y0063942D01*
X0055936Y0064022D01*
X0056069Y0064098D01*
X0056204Y0064171D01*
X0056341Y0064240D01*
X0056480Y0064305D01*
X0056620Y0064367D01*
X0056762Y0064425D01*
X0056905Y0064480D01*
X0057050Y0064531D01*
X0057196Y0064578D01*
X0057343Y0064621D01*
X0057491Y0064660D01*
X0057640Y0064696D01*
X0057790Y0064727D01*
X0057941Y0064755D01*
X0058092Y0064779D01*
X0058245Y0064799D01*
X0058397Y0064815D01*
X0058550Y0064827D01*
X0058703Y0064835D01*
X0058856Y0064839D01*
X0059010Y0064839D01*
X0059163Y0064835D01*
X0059316Y0064827D01*
X0059469Y0064815D01*
X0059621Y0064799D01*
X0059774Y0064779D01*
X0059925Y0064755D01*
X0060076Y0064727D01*
X0060226Y0064696D01*
X0060375Y0064660D01*
X0060523Y0064621D01*
X0060670Y0064578D01*
X0060816Y0064531D01*
X0060961Y0064480D01*
X0061104Y0064425D01*
X0061246Y0064367D01*
X0061386Y0064305D01*
X0061525Y0064240D01*
X0061662Y0064171D01*
X0061797Y0064098D01*
X0061930Y0064022D01*
X0062061Y0063942D01*
X0062190Y0063860D01*
X0062317Y0063773D01*
X0062442Y0063684D01*
X0062564Y0063591D01*
X0062683Y0063495D01*
X0062801Y0063396D01*
X0062915Y0063295D01*
X0063027Y0063190D01*
X0063136Y0063082D01*
X0063242Y0062971D01*
X0063346Y0062858D01*
X0063446Y0062742D01*
X0063544Y0062624D01*
X0063638Y0062503D01*
X0063729Y0062380D01*
X0063817Y0062254D01*
X0063901Y0062126D01*
X0063983Y0061996D01*
X0064060Y0061864D01*
X0064135Y0061730D01*
X0064206Y0061594D01*
X0064273Y0061456D01*
X0064337Y0061316D01*
X0064397Y0061175D01*
X0064453Y0061033D01*
X0064506Y0060889D01*
X0064555Y0060743D01*
X0064600Y0060597D01*
X0064641Y0060449D01*
X0064678Y0060301D01*
X0064712Y0060151D01*
X0064742Y0060000D01*
X0064767Y0059849D01*
X0064789Y0059698D01*
X0064807Y0059545D01*
X0064821Y0059393D01*
X0064831Y0059240D01*
X0064837Y0059086D01*
X0064839Y0058933D01*
X0064837Y0058780D01*
X0064831Y0058626D01*
X0064821Y0058473D01*
X0064807Y0058321D01*
X0064789Y0058168D01*
X0064767Y0058017D01*
X0064742Y0057866D01*
X0064712Y0057715D01*
X0064678Y0057565D01*
X0064641Y0057417D01*
X0064600Y0057269D01*
X0064555Y0057123D01*
X0064506Y0056977D01*
X0064453Y0056833D01*
X0064397Y0056691D01*
X0064337Y0056550D01*
X0064273Y0056410D01*
X0064206Y0056272D01*
X0064135Y0056136D01*
X0064060Y0056002D01*
X0063983Y0055870D01*
X0063901Y0055740D01*
X0063817Y0055612D01*
X0063729Y0055486D01*
X0063638Y0055363D01*
X0063544Y0055242D01*
X0063446Y0055124D01*
X0063346Y0055008D01*
X0063242Y0054895D01*
X0063136Y0054784D01*
X0063027Y0054676D01*
X0062915Y0054571D01*
X0062801Y0054470D01*
X0062683Y0054371D01*
X0062564Y0054275D01*
X0062442Y0054182D01*
X0062317Y0054093D01*
X0062190Y0054006D01*
X0062061Y0053924D01*
X0061930Y0053844D01*
X0061797Y0053768D01*
X0061662Y0053695D01*
X0061525Y0053626D01*
X0061386Y0053561D01*
X0061246Y0053499D01*
X0061104Y0053441D01*
X0060961Y0053386D01*
X0060816Y0053335D01*
X0060670Y0053288D01*
X0060523Y0053245D01*
X0060375Y0053206D01*
X0060226Y0053170D01*
X0060076Y0053139D01*
X0059925Y0053111D01*
X0059774Y0053087D01*
X0059621Y0053067D01*
X0059469Y0053051D01*
X0059316Y0053039D01*
X0059163Y0053031D01*
X0059010Y0053027D01*
X0058856Y0053027D01*
X0058703Y0053031D01*
X0058550Y0053039D01*
X0058397Y0053051D01*
X0058245Y0053067D01*
X0058092Y0053087D01*
X0057941Y0053111D01*
X0057790Y0053139D01*
X0057640Y0053170D01*
X0057491Y0053206D01*
X0057343Y0053245D01*
X0057196Y0053288D01*
X0057050Y0053335D01*
X0056905Y0053386D01*
X0056762Y0053441D01*
X0056620Y0053499D01*
X0056480Y0053561D01*
X0056341Y0053626D01*
X0056204Y0053695D01*
X0056069Y0053768D01*
X0055936Y0053844D01*
X0055805Y0053924D01*
X0055676Y0054006D01*
X0055549Y0054093D01*
X0055424Y0054182D01*
X0055302Y0054275D01*
X0055183Y0054371D01*
X0055065Y0054470D01*
X0054951Y0054571D01*
X0054839Y0054676D01*
X0054730Y0054784D01*
X0054624Y0054895D01*
X0054520Y0055008D01*
X0054420Y0055124D01*
X0054322Y0055242D01*
X0054228Y0055363D01*
X0054137Y0055486D01*
X0054049Y0055612D01*
X0053965Y0055740D01*
X0053883Y0055870D01*
X0053806Y0056002D01*
X0053731Y0056136D01*
X0053660Y0056272D01*
X0053593Y0056410D01*
X0053529Y0056550D01*
X0053469Y0056691D01*
X0053413Y0056833D01*
X0053360Y0056977D01*
X0053311Y0057123D01*
X0053266Y0057269D01*
X0053225Y0057417D01*
X0053188Y0057565D01*
X0053154Y0057715D01*
X0053124Y0057866D01*
X0053099Y0058017D01*
X0053077Y0058168D01*
X0053059Y0058321D01*
X0053045Y0058473D01*
X0053035Y0058626D01*
X0053029Y0058780D01*
X0053027Y0058933D01*
X0089329Y0057338D02*
X0093533Y0057338D01*
X0093533Y0055937D02*
X0093533Y0058739D01*
X0092832Y0060541D02*
X0093533Y0061242D01*
X0093533Y0062643D01*
X0092832Y0063343D01*
X0090030Y0063343D01*
X0089329Y0062643D01*
X0089329Y0061242D01*
X0090030Y0060541D01*
X0090731Y0060541D01*
X0091431Y0061242D01*
X0091431Y0063343D01*
X0090030Y0065145D02*
X0089329Y0065845D01*
X0089329Y0067247D01*
X0090030Y0067947D01*
X0092832Y0065145D01*
X0093533Y0065845D01*
X0093533Y0067247D01*
X0092832Y0067947D01*
X0090030Y0067947D01*
X0090030Y0065145D02*
X0092832Y0065145D01*
X0089329Y0057338D02*
X0090731Y0055937D01*
X0089329Y0054135D02*
X0093533Y0051333D01*
X0093533Y0054135D02*
X0089329Y0051333D01*
X0070247Y0269333D02*
X0068845Y0269333D01*
X0068145Y0270034D01*
X0068145Y0271435D02*
X0069546Y0272135D01*
X0070247Y0272135D01*
X0070947Y0271435D01*
X0070947Y0270034D01*
X0070247Y0269333D01*
X0068145Y0271435D02*
X0068145Y0273537D01*
X0070947Y0273537D01*
X0066343Y0272836D02*
X0063541Y0270034D01*
X0064242Y0269333D01*
X0065643Y0269333D01*
X0066343Y0270034D01*
X0066343Y0272836D01*
X0065643Y0273537D01*
X0064242Y0273537D01*
X0063541Y0272836D01*
X0063541Y0270034D01*
X0061739Y0269333D02*
X0058937Y0269333D01*
X0060338Y0269333D02*
X0060338Y0273537D01*
X0058937Y0272135D01*
X0057135Y0273537D02*
X0054333Y0269333D01*
X0057135Y0269333D02*
X0054333Y0273537D01*
X0054333Y0359333D02*
X0057135Y0363537D01*
X0058937Y0362135D02*
X0060338Y0363537D01*
X0060338Y0359333D01*
X0058937Y0359333D02*
X0061739Y0359333D01*
X0063541Y0360034D02*
X0066343Y0362836D01*
X0066343Y0360034D01*
X0065643Y0359333D01*
X0064242Y0359333D01*
X0063541Y0360034D01*
X0063541Y0362836D01*
X0064242Y0363537D01*
X0065643Y0363537D01*
X0066343Y0362836D01*
X0068145Y0362836D02*
X0068145Y0362135D01*
X0068845Y0361435D01*
X0070247Y0361435D01*
X0070947Y0360734D01*
X0070947Y0360034D01*
X0070247Y0359333D01*
X0068845Y0359333D01*
X0068145Y0360034D01*
X0068145Y0360734D01*
X0068845Y0361435D01*
X0070247Y0361435D02*
X0070947Y0362135D01*
X0070947Y0362836D01*
X0070247Y0363537D01*
X0068845Y0363537D01*
X0068145Y0362836D01*
X0057135Y0359333D02*
X0054333Y0363537D01*
X0076833Y0384333D02*
X0076833Y0389137D01*
X0076833Y0386735D02*
X0080036Y0386735D01*
X0081989Y0386735D02*
X0081989Y0385134D01*
X0082790Y0384333D01*
X0084392Y0384333D01*
X0085192Y0385134D01*
X0085192Y0386735D01*
X0084392Y0387536D01*
X0082790Y0387536D01*
X0081989Y0386735D01*
X0080036Y0389137D02*
X0080036Y0384333D01*
X0087146Y0385134D02*
X0087146Y0386735D01*
X0087947Y0387536D01*
X0090349Y0387536D01*
X0092302Y0386735D02*
X0093103Y0387536D01*
X0094704Y0387536D01*
X0095505Y0386735D01*
X0095505Y0384333D01*
X0097459Y0384333D02*
X0099861Y0384333D01*
X0100661Y0385134D01*
X0099861Y0385934D01*
X0098259Y0385934D01*
X0097459Y0386735D01*
X0098259Y0387536D01*
X0100661Y0387536D01*
X0102615Y0386735D02*
X0102615Y0385134D01*
X0103416Y0384333D01*
X0105818Y0384333D01*
X0107771Y0384333D02*
X0107771Y0389137D01*
X0108572Y0387536D02*
X0110173Y0387536D01*
X0110974Y0386735D01*
X0110974Y0384333D01*
X0112928Y0385134D02*
X0113729Y0384333D01*
X0116131Y0384333D01*
X0116131Y0387536D01*
X0118084Y0389137D02*
X0118885Y0389137D01*
X0118885Y0384333D01*
X0118084Y0384333D02*
X0119686Y0384333D01*
X0121522Y0385134D02*
X0121522Y0386735D01*
X0122323Y0387536D01*
X0123924Y0387536D01*
X0124725Y0386735D01*
X0124725Y0385934D01*
X0121522Y0385934D01*
X0121522Y0385134D02*
X0122323Y0384333D01*
X0123924Y0384333D01*
X0126561Y0391132D02*
X0127361Y0391132D01*
X0128162Y0391932D01*
X0128162Y0395936D01*
X0124959Y0395936D02*
X0124959Y0393534D01*
X0125760Y0392733D01*
X0128162Y0392733D01*
X0131835Y0389137D02*
X0133436Y0387536D01*
X0135037Y0389137D01*
X0135037Y0384333D01*
X0136991Y0385134D02*
X0137792Y0385934D01*
X0140194Y0385934D01*
X0140194Y0386735D02*
X0140194Y0384333D01*
X0137792Y0384333D01*
X0136991Y0385134D01*
X0137792Y0387536D02*
X0139393Y0387536D01*
X0140194Y0386735D01*
X0142147Y0387536D02*
X0144549Y0387536D01*
X0145350Y0386735D01*
X0145350Y0384333D01*
X0147304Y0384333D02*
X0147304Y0387536D01*
X0149706Y0387536D01*
X0150507Y0386735D01*
X0150507Y0384333D01*
X0152460Y0384333D02*
X0152460Y0389137D01*
X0153261Y0387536D02*
X0154862Y0387536D01*
X0155663Y0386735D01*
X0155663Y0384333D01*
X0157617Y0385134D02*
X0157617Y0386735D01*
X0158417Y0387536D01*
X0160019Y0387536D01*
X0160819Y0386735D01*
X0160819Y0385934D01*
X0157617Y0385934D01*
X0157617Y0385134D02*
X0158417Y0384333D01*
X0160019Y0384333D01*
X0162773Y0384333D02*
X0164374Y0384333D01*
X0163574Y0384333D02*
X0163574Y0387536D01*
X0162773Y0387536D01*
X0163574Y0389137D02*
X0163574Y0389938D01*
X0164492Y0392733D02*
X0166894Y0392733D01*
X0167695Y0393534D01*
X0166894Y0394334D01*
X0165293Y0394334D01*
X0164492Y0395135D01*
X0165293Y0395936D01*
X0167695Y0395936D01*
X0169648Y0395936D02*
X0171250Y0395936D01*
X0170449Y0396736D02*
X0170449Y0393534D01*
X0171250Y0392733D01*
X0173086Y0392733D02*
X0174687Y0392733D01*
X0173887Y0392733D02*
X0173887Y0395936D01*
X0173086Y0395936D01*
X0173887Y0397537D02*
X0173887Y0398338D01*
X0174746Y0401133D02*
X0173945Y0401934D01*
X0173945Y0403535D01*
X0174746Y0404336D01*
X0177148Y0404336D01*
X0177148Y0405937D02*
X0177148Y0401133D01*
X0174746Y0401133D01*
X0171992Y0401934D02*
X0171992Y0403535D01*
X0171191Y0404336D01*
X0169590Y0404336D01*
X0168789Y0403535D01*
X0168789Y0401934D01*
X0169590Y0401133D01*
X0171191Y0401133D01*
X0171992Y0401934D01*
X0166835Y0401133D02*
X0166835Y0405937D01*
X0165234Y0404336D01*
X0163632Y0405937D01*
X0163632Y0401133D01*
X0161679Y0403535D02*
X0158476Y0403535D01*
X0156522Y0404336D02*
X0154120Y0404336D01*
X0153320Y0403535D01*
X0153320Y0401934D01*
X0154120Y0401133D01*
X0156522Y0401133D01*
X0156522Y0405937D01*
X0151483Y0401133D02*
X0149882Y0401133D01*
X0150683Y0401133D02*
X0150683Y0405937D01*
X0149882Y0405937D01*
X0147928Y0403535D02*
X0147928Y0402734D01*
X0144726Y0402734D01*
X0144726Y0401934D02*
X0144726Y0403535D01*
X0145526Y0404336D01*
X0147128Y0404336D01*
X0147928Y0403535D01*
X0147128Y0401133D02*
X0145526Y0401133D01*
X0144726Y0401934D01*
X0142889Y0401133D02*
X0141288Y0401133D01*
X0142089Y0401133D02*
X0142089Y0404336D01*
X0141288Y0404336D01*
X0142089Y0405937D02*
X0142089Y0406738D01*
X0139334Y0403535D02*
X0139334Y0401133D01*
X0139334Y0403535D02*
X0138534Y0404336D01*
X0136932Y0404336D01*
X0136132Y0403535D01*
X0134178Y0402734D02*
X0134178Y0401934D01*
X0133377Y0401133D01*
X0131776Y0401133D01*
X0130975Y0401934D01*
X0131776Y0403535D02*
X0133377Y0403535D01*
X0134178Y0402734D01*
X0134178Y0405136D02*
X0133377Y0405937D01*
X0131776Y0405937D01*
X0130975Y0405136D01*
X0130975Y0404336D01*
X0131776Y0403535D01*
X0129022Y0403535D02*
X0129022Y0401934D01*
X0128221Y0401133D01*
X0126620Y0401133D01*
X0125819Y0401934D01*
X0125819Y0403535D01*
X0126620Y0404336D01*
X0128221Y0404336D01*
X0129022Y0403535D01*
X0123865Y0403535D02*
X0123865Y0401133D01*
X0123865Y0403535D02*
X0123064Y0404336D01*
X0120662Y0404336D01*
X0120662Y0401133D01*
X0118826Y0401133D02*
X0117225Y0401133D01*
X0118026Y0401133D02*
X0118026Y0404336D01*
X0117225Y0404336D01*
X0118026Y0405937D02*
X0118026Y0406738D01*
X0115271Y0404336D02*
X0115271Y0401133D01*
X0112869Y0401133D01*
X0112068Y0401934D01*
X0112068Y0404336D01*
X0110115Y0404336D02*
X0107713Y0404336D01*
X0106912Y0403535D01*
X0106912Y0401934D01*
X0107713Y0401133D01*
X0110115Y0401133D01*
X0110115Y0405937D01*
X0105017Y0404336D02*
X0104216Y0404336D01*
X0102615Y0402734D01*
X0102615Y0401133D02*
X0102615Y0404336D01*
X0100661Y0404336D02*
X0100661Y0401133D01*
X0100661Y0403535D02*
X0097459Y0403535D01*
X0097459Y0404336D02*
X0099060Y0405937D01*
X0100661Y0404336D01*
X0097459Y0404336D02*
X0097459Y0401133D01*
X0095505Y0403535D02*
X0092302Y0403535D01*
X0090349Y0405937D02*
X0087146Y0405937D01*
X0088747Y0405937D02*
X0088747Y0401133D01*
X0085427Y0397537D02*
X0087028Y0395936D01*
X0087028Y0394334D01*
X0085427Y0392733D01*
X0083473Y0393534D02*
X0082673Y0392733D01*
X0081071Y0392733D01*
X0080271Y0393534D01*
X0080271Y0396736D01*
X0081071Y0397537D01*
X0082673Y0397537D01*
X0083473Y0396736D01*
X0081989Y0401133D02*
X0081989Y0405937D01*
X0085192Y0405937D01*
X0083591Y0403535D02*
X0081989Y0403535D01*
X0080036Y0403535D02*
X0076833Y0403535D01*
X0076833Y0401133D02*
X0076833Y0405937D01*
X0080036Y0405937D02*
X0080036Y0401133D01*
X0078434Y0397537D02*
X0076833Y0395936D01*
X0076833Y0394334D01*
X0078434Y0392733D01*
X0087146Y0385134D02*
X0087947Y0384333D01*
X0090349Y0384333D01*
X0092302Y0384333D02*
X0092302Y0389137D01*
X0094021Y0392733D02*
X0097224Y0395936D01*
X0097224Y0396736D01*
X0096423Y0397537D01*
X0094822Y0397537D01*
X0094021Y0396736D01*
X0094021Y0392733D02*
X0097224Y0392733D01*
X0099177Y0393534D02*
X0102380Y0396736D01*
X0102380Y0393534D01*
X0101580Y0392733D01*
X0099978Y0392733D01*
X0099177Y0393534D01*
X0099177Y0396736D01*
X0099978Y0397537D01*
X0101580Y0397537D01*
X0102380Y0396736D01*
X0104334Y0395936D02*
X0105935Y0397537D01*
X0105935Y0392733D01*
X0104334Y0392733D02*
X0107537Y0392733D01*
X0109490Y0393534D02*
X0109490Y0394334D01*
X0110291Y0395135D01*
X0111892Y0395135D01*
X0112693Y0394334D01*
X0112693Y0393534D01*
X0111892Y0392733D01*
X0110291Y0392733D01*
X0109490Y0393534D01*
X0110291Y0395135D02*
X0109490Y0395936D01*
X0109490Y0396736D01*
X0110291Y0397537D01*
X0111892Y0397537D01*
X0112693Y0396736D01*
X0112693Y0395936D01*
X0111892Y0395135D01*
X0112928Y0387536D02*
X0112928Y0385134D01*
X0108572Y0387536D02*
X0107771Y0386735D01*
X0105818Y0387536D02*
X0103416Y0387536D01*
X0102615Y0386735D01*
X0119803Y0392733D02*
X0122205Y0392733D01*
X0123006Y0393534D01*
X0123006Y0395135D01*
X0122205Y0395936D01*
X0119803Y0395936D01*
X0119803Y0397537D02*
X0119803Y0392733D01*
X0131835Y0389137D02*
X0131835Y0384333D01*
X0135272Y0392733D02*
X0135272Y0397537D01*
X0135272Y0395135D02*
X0138475Y0395135D01*
X0140429Y0395135D02*
X0142030Y0395135D01*
X0140429Y0392733D02*
X0140429Y0397537D01*
X0143631Y0397537D01*
X0145585Y0397537D02*
X0148788Y0397537D01*
X0147186Y0397537D02*
X0147186Y0392733D01*
X0150741Y0395135D02*
X0153944Y0395135D01*
X0155898Y0392733D02*
X0157499Y0392733D01*
X0156699Y0392733D02*
X0156699Y0397537D01*
X0157499Y0397537D02*
X0155898Y0397537D01*
X0159335Y0395936D02*
X0161737Y0395936D01*
X0162538Y0395135D01*
X0162538Y0392733D01*
X0159335Y0392733D02*
X0159335Y0395936D01*
X0153261Y0387536D02*
X0152460Y0386735D01*
X0142147Y0387536D02*
X0142147Y0384333D01*
X0138475Y0392733D02*
X0138475Y0397537D01*
X0136132Y0401133D02*
X0136132Y0405937D01*
X0166211Y0387536D02*
X0166211Y0384333D01*
X0167812Y0384333D02*
X0167812Y0386735D01*
X0168613Y0387536D01*
X0169413Y0386735D01*
X0169413Y0384333D01*
X0171367Y0382732D02*
X0172968Y0384333D01*
X0172168Y0384333D01*
X0172168Y0385134D01*
X0172968Y0385134D01*
X0172968Y0384333D01*
X0179961Y0385134D02*
X0179961Y0388336D01*
X0180762Y0389137D01*
X0182363Y0389137D01*
X0183164Y0388336D01*
X0183164Y0386735D02*
X0181562Y0386735D01*
X0183164Y0386735D02*
X0183164Y0385134D01*
X0182363Y0384333D01*
X0180762Y0384333D01*
X0179961Y0385134D01*
X0185117Y0385134D02*
X0185117Y0386735D01*
X0185918Y0387536D01*
X0187519Y0387536D01*
X0188320Y0386735D01*
X0188320Y0385934D01*
X0185117Y0385934D01*
X0185117Y0385134D02*
X0185918Y0384333D01*
X0187519Y0384333D01*
X0190274Y0384333D02*
X0190274Y0387536D01*
X0191875Y0387536D02*
X0192676Y0387536D01*
X0191875Y0387536D02*
X0190274Y0385934D01*
X0194571Y0384333D02*
X0194571Y0387536D01*
X0195371Y0387536D01*
X0196172Y0386735D01*
X0196973Y0387536D01*
X0197774Y0386735D01*
X0197774Y0384333D01*
X0196172Y0384333D02*
X0196172Y0386735D01*
X0199727Y0385134D02*
X0200528Y0385934D01*
X0202930Y0385934D01*
X0202930Y0386735D02*
X0202930Y0384333D01*
X0200528Y0384333D01*
X0199727Y0385134D01*
X0200528Y0387536D02*
X0202129Y0387536D01*
X0202930Y0386735D01*
X0204884Y0387536D02*
X0207286Y0387536D01*
X0208086Y0386735D01*
X0208086Y0384333D01*
X0210040Y0385134D02*
X0210841Y0384333D01*
X0213243Y0384333D01*
X0213243Y0383532D02*
X0212442Y0382732D01*
X0211641Y0382732D01*
X0213243Y0383532D02*
X0213243Y0387536D01*
X0210040Y0387536D02*
X0210040Y0385134D01*
X0204884Y0384333D02*
X0204884Y0387536D01*
X0204766Y0401133D02*
X0204766Y0405937D01*
X0203165Y0404336D01*
X0201211Y0402734D02*
X0201211Y0405937D01*
X0201211Y0402734D02*
X0199610Y0401133D01*
X0198008Y0402734D01*
X0198008Y0405937D01*
X0203165Y0401133D02*
X0206368Y0401133D01*
X0208321Y0401133D02*
X0209122Y0401133D01*
X0209122Y0401934D01*
X0208321Y0401934D01*
X0208321Y0401133D01*
X0210899Y0401934D02*
X0214102Y0405136D01*
X0214102Y0401934D01*
X0213301Y0401133D01*
X0211700Y0401133D01*
X0210899Y0401934D01*
X0210899Y0405136D01*
X0211700Y0405937D01*
X0213301Y0405937D01*
X0214102Y0405136D01*
X0190898Y0403535D02*
X0190898Y0402734D01*
X0187696Y0402734D01*
X0187696Y0401934D02*
X0187696Y0403535D01*
X0188496Y0404336D01*
X0190098Y0404336D01*
X0190898Y0403535D01*
X0190098Y0401133D02*
X0188496Y0401133D01*
X0187696Y0401934D01*
X0185859Y0401133D02*
X0184258Y0401133D01*
X0185059Y0401133D02*
X0185059Y0405937D01*
X0184258Y0405937D01*
X0182304Y0404336D02*
X0182304Y0401133D01*
X0179902Y0401133D01*
X0179102Y0401934D01*
X0179102Y0404336D01*
X0177324Y0396736D02*
X0177324Y0393534D01*
X0178125Y0392733D01*
X0179961Y0393534D02*
X0180762Y0392733D01*
X0183164Y0392733D01*
X0183164Y0395936D01*
X0185117Y0395936D02*
X0186719Y0395936D01*
X0185918Y0396736D02*
X0185918Y0393534D01*
X0186719Y0392733D01*
X0188555Y0391132D02*
X0190156Y0392733D01*
X0189356Y0392733D01*
X0189356Y0393534D01*
X0190156Y0393534D01*
X0190156Y0392733D01*
X0179961Y0393534D02*
X0179961Y0395936D01*
X0178125Y0395936D02*
X0176523Y0395936D01*
X0167812Y0386735D02*
X0167011Y0387536D01*
X0166211Y0387536D01*
X0189333Y0364037D02*
X0192135Y0359833D01*
X0193937Y0359833D02*
X0196739Y0362635D01*
X0196739Y0363336D01*
X0196039Y0364037D01*
X0194638Y0364037D01*
X0193937Y0363336D01*
X0192135Y0364037D02*
X0189333Y0359833D01*
X0193937Y0359833D02*
X0196739Y0359833D01*
X0198541Y0360534D02*
X0201343Y0363336D01*
X0201343Y0360534D01*
X0200643Y0359833D01*
X0199242Y0359833D01*
X0198541Y0360534D01*
X0198541Y0363336D01*
X0199242Y0364037D01*
X0200643Y0364037D01*
X0201343Y0363336D01*
X0203145Y0362635D02*
X0204546Y0364037D01*
X0204546Y0359833D01*
X0203145Y0359833D02*
X0205947Y0359833D01*
X0254833Y0394333D02*
X0257635Y0398537D01*
X0259437Y0397135D02*
X0260838Y0398537D01*
X0260838Y0394333D01*
X0259437Y0394333D02*
X0262239Y0394333D01*
X0264041Y0395034D02*
X0264742Y0394333D01*
X0266143Y0394333D01*
X0266843Y0395034D01*
X0266843Y0397836D01*
X0264041Y0395034D01*
X0264041Y0397836D01*
X0264742Y0398537D01*
X0266143Y0398537D01*
X0266843Y0397836D01*
X0268645Y0398537D02*
X0271447Y0398537D01*
X0271447Y0397836D01*
X0268645Y0395034D01*
X0268645Y0394333D01*
X0257635Y0394333D02*
X0254833Y0398537D01*
X0328027Y0398933D02*
X0328029Y0399086D01*
X0328035Y0399240D01*
X0328045Y0399393D01*
X0328059Y0399545D01*
X0328077Y0399698D01*
X0328099Y0399849D01*
X0328124Y0400000D01*
X0328154Y0400151D01*
X0328188Y0400301D01*
X0328225Y0400449D01*
X0328266Y0400597D01*
X0328311Y0400743D01*
X0328360Y0400889D01*
X0328413Y0401033D01*
X0328469Y0401175D01*
X0328529Y0401316D01*
X0328593Y0401456D01*
X0328660Y0401594D01*
X0328731Y0401730D01*
X0328806Y0401864D01*
X0328883Y0401996D01*
X0328965Y0402126D01*
X0329049Y0402254D01*
X0329137Y0402380D01*
X0329228Y0402503D01*
X0329322Y0402624D01*
X0329420Y0402742D01*
X0329520Y0402858D01*
X0329624Y0402971D01*
X0329730Y0403082D01*
X0329839Y0403190D01*
X0329951Y0403295D01*
X0330065Y0403396D01*
X0330183Y0403495D01*
X0330302Y0403591D01*
X0330424Y0403684D01*
X0330549Y0403773D01*
X0330676Y0403860D01*
X0330805Y0403942D01*
X0330936Y0404022D01*
X0331069Y0404098D01*
X0331204Y0404171D01*
X0331341Y0404240D01*
X0331480Y0404305D01*
X0331620Y0404367D01*
X0331762Y0404425D01*
X0331905Y0404480D01*
X0332050Y0404531D01*
X0332196Y0404578D01*
X0332343Y0404621D01*
X0332491Y0404660D01*
X0332640Y0404696D01*
X0332790Y0404727D01*
X0332941Y0404755D01*
X0333092Y0404779D01*
X0333245Y0404799D01*
X0333397Y0404815D01*
X0333550Y0404827D01*
X0333703Y0404835D01*
X0333856Y0404839D01*
X0334010Y0404839D01*
X0334163Y0404835D01*
X0334316Y0404827D01*
X0334469Y0404815D01*
X0334621Y0404799D01*
X0334774Y0404779D01*
X0334925Y0404755D01*
X0335076Y0404727D01*
X0335226Y0404696D01*
X0335375Y0404660D01*
X0335523Y0404621D01*
X0335670Y0404578D01*
X0335816Y0404531D01*
X0335961Y0404480D01*
X0336104Y0404425D01*
X0336246Y0404367D01*
X0336386Y0404305D01*
X0336525Y0404240D01*
X0336662Y0404171D01*
X0336797Y0404098D01*
X0336930Y0404022D01*
X0337061Y0403942D01*
X0337190Y0403860D01*
X0337317Y0403773D01*
X0337442Y0403684D01*
X0337564Y0403591D01*
X0337683Y0403495D01*
X0337801Y0403396D01*
X0337915Y0403295D01*
X0338027Y0403190D01*
X0338136Y0403082D01*
X0338242Y0402971D01*
X0338346Y0402858D01*
X0338446Y0402742D01*
X0338544Y0402624D01*
X0338638Y0402503D01*
X0338729Y0402380D01*
X0338817Y0402254D01*
X0338901Y0402126D01*
X0338983Y0401996D01*
X0339060Y0401864D01*
X0339135Y0401730D01*
X0339206Y0401594D01*
X0339273Y0401456D01*
X0339337Y0401316D01*
X0339397Y0401175D01*
X0339453Y0401033D01*
X0339506Y0400889D01*
X0339555Y0400743D01*
X0339600Y0400597D01*
X0339641Y0400449D01*
X0339678Y0400301D01*
X0339712Y0400151D01*
X0339742Y0400000D01*
X0339767Y0399849D01*
X0339789Y0399698D01*
X0339807Y0399545D01*
X0339821Y0399393D01*
X0339831Y0399240D01*
X0339837Y0399086D01*
X0339839Y0398933D01*
X0339837Y0398780D01*
X0339831Y0398626D01*
X0339821Y0398473D01*
X0339807Y0398321D01*
X0339789Y0398168D01*
X0339767Y0398017D01*
X0339742Y0397866D01*
X0339712Y0397715D01*
X0339678Y0397565D01*
X0339641Y0397417D01*
X0339600Y0397269D01*
X0339555Y0397123D01*
X0339506Y0396977D01*
X0339453Y0396833D01*
X0339397Y0396691D01*
X0339337Y0396550D01*
X0339273Y0396410D01*
X0339206Y0396272D01*
X0339135Y0396136D01*
X0339060Y0396002D01*
X0338983Y0395870D01*
X0338901Y0395740D01*
X0338817Y0395612D01*
X0338729Y0395486D01*
X0338638Y0395363D01*
X0338544Y0395242D01*
X0338446Y0395124D01*
X0338346Y0395008D01*
X0338242Y0394895D01*
X0338136Y0394784D01*
X0338027Y0394676D01*
X0337915Y0394571D01*
X0337801Y0394470D01*
X0337683Y0394371D01*
X0337564Y0394275D01*
X0337442Y0394182D01*
X0337317Y0394093D01*
X0337190Y0394006D01*
X0337061Y0393924D01*
X0336930Y0393844D01*
X0336797Y0393768D01*
X0336662Y0393695D01*
X0336525Y0393626D01*
X0336386Y0393561D01*
X0336246Y0393499D01*
X0336104Y0393441D01*
X0335961Y0393386D01*
X0335816Y0393335D01*
X0335670Y0393288D01*
X0335523Y0393245D01*
X0335375Y0393206D01*
X0335226Y0393170D01*
X0335076Y0393139D01*
X0334925Y0393111D01*
X0334774Y0393087D01*
X0334621Y0393067D01*
X0334469Y0393051D01*
X0334316Y0393039D01*
X0334163Y0393031D01*
X0334010Y0393027D01*
X0333856Y0393027D01*
X0333703Y0393031D01*
X0333550Y0393039D01*
X0333397Y0393051D01*
X0333245Y0393067D01*
X0333092Y0393087D01*
X0332941Y0393111D01*
X0332790Y0393139D01*
X0332640Y0393170D01*
X0332491Y0393206D01*
X0332343Y0393245D01*
X0332196Y0393288D01*
X0332050Y0393335D01*
X0331905Y0393386D01*
X0331762Y0393441D01*
X0331620Y0393499D01*
X0331480Y0393561D01*
X0331341Y0393626D01*
X0331204Y0393695D01*
X0331069Y0393768D01*
X0330936Y0393844D01*
X0330805Y0393924D01*
X0330676Y0394006D01*
X0330549Y0394093D01*
X0330424Y0394182D01*
X0330302Y0394275D01*
X0330183Y0394371D01*
X0330065Y0394470D01*
X0329951Y0394571D01*
X0329839Y0394676D01*
X0329730Y0394784D01*
X0329624Y0394895D01*
X0329520Y0395008D01*
X0329420Y0395124D01*
X0329322Y0395242D01*
X0329228Y0395363D01*
X0329137Y0395486D01*
X0329049Y0395612D01*
X0328965Y0395740D01*
X0328883Y0395870D01*
X0328806Y0396002D01*
X0328731Y0396136D01*
X0328660Y0396272D01*
X0328593Y0396410D01*
X0328529Y0396550D01*
X0328469Y0396691D01*
X0328413Y0396833D01*
X0328360Y0396977D01*
X0328311Y0397123D01*
X0328266Y0397269D01*
X0328225Y0397417D01*
X0328188Y0397565D01*
X0328154Y0397715D01*
X0328124Y0397866D01*
X0328099Y0398017D01*
X0328077Y0398168D01*
X0328059Y0398321D01*
X0328045Y0398473D01*
X0328035Y0398626D01*
X0328029Y0398780D01*
X0328027Y0398933D01*
X0270247Y0291037D02*
X0268845Y0291037D01*
X0268145Y0290336D01*
X0268145Y0287534D01*
X0270947Y0290336D01*
X0270947Y0287534D01*
X0270247Y0286833D01*
X0268845Y0286833D01*
X0268145Y0287534D01*
X0266343Y0286833D02*
X0263541Y0286833D01*
X0264942Y0286833D02*
X0264942Y0291037D01*
X0263541Y0289635D01*
X0261739Y0286833D02*
X0258937Y0286833D01*
X0260338Y0286833D02*
X0260338Y0291037D01*
X0258937Y0289635D01*
X0257135Y0291037D02*
X0254333Y0286833D01*
X0257135Y0286833D02*
X0254333Y0291037D01*
X0270247Y0291037D02*
X0270947Y0290336D01*
X0324329Y0252747D02*
X0324329Y0251345D01*
X0325030Y0250645D01*
X0325030Y0248843D02*
X0327832Y0246041D01*
X0328533Y0246742D01*
X0328533Y0248143D01*
X0327832Y0248843D01*
X0325030Y0248843D01*
X0324329Y0248143D01*
X0324329Y0246742D01*
X0325030Y0246041D01*
X0327832Y0246041D01*
X0327832Y0244239D02*
X0327132Y0244239D01*
X0326431Y0243539D01*
X0326431Y0242838D01*
X0326431Y0243539D02*
X0325731Y0244239D01*
X0325030Y0244239D01*
X0324329Y0243539D01*
X0324329Y0242138D01*
X0325030Y0241437D01*
X0324329Y0239635D02*
X0328533Y0236833D01*
X0328533Y0239635D02*
X0324329Y0236833D01*
X0327832Y0241437D02*
X0328533Y0242138D01*
X0328533Y0243539D01*
X0327832Y0244239D01*
X0328533Y0250645D02*
X0325731Y0253447D01*
X0325030Y0253447D01*
X0324329Y0252747D01*
X0328533Y0253447D02*
X0328533Y0250645D01*
X0328533Y0138447D02*
X0328533Y0135645D01*
X0328533Y0137046D02*
X0324329Y0137046D01*
X0325731Y0135645D01*
X0325030Y0133843D02*
X0327832Y0131041D01*
X0328533Y0131742D01*
X0328533Y0133143D01*
X0327832Y0133843D01*
X0325030Y0133843D01*
X0324329Y0133143D01*
X0324329Y0131742D01*
X0325030Y0131041D01*
X0327832Y0131041D01*
X0327832Y0129239D02*
X0328533Y0128539D01*
X0328533Y0127138D01*
X0327832Y0126437D01*
X0328533Y0124635D02*
X0324329Y0121833D01*
X0324329Y0124635D02*
X0328533Y0121833D01*
X0325030Y0126437D02*
X0324329Y0127138D01*
X0324329Y0128539D01*
X0325030Y0129239D01*
X0325731Y0129239D01*
X0326431Y0128539D01*
X0327132Y0129239D01*
X0327832Y0129239D01*
X0326431Y0128539D02*
X0326431Y0127838D01*
X0328027Y0058933D02*
X0328029Y0059086D01*
X0328035Y0059240D01*
X0328045Y0059393D01*
X0328059Y0059545D01*
X0328077Y0059698D01*
X0328099Y0059849D01*
X0328124Y0060000D01*
X0328154Y0060151D01*
X0328188Y0060301D01*
X0328225Y0060449D01*
X0328266Y0060597D01*
X0328311Y0060743D01*
X0328360Y0060889D01*
X0328413Y0061033D01*
X0328469Y0061175D01*
X0328529Y0061316D01*
X0328593Y0061456D01*
X0328660Y0061594D01*
X0328731Y0061730D01*
X0328806Y0061864D01*
X0328883Y0061996D01*
X0328965Y0062126D01*
X0329049Y0062254D01*
X0329137Y0062380D01*
X0329228Y0062503D01*
X0329322Y0062624D01*
X0329420Y0062742D01*
X0329520Y0062858D01*
X0329624Y0062971D01*
X0329730Y0063082D01*
X0329839Y0063190D01*
X0329951Y0063295D01*
X0330065Y0063396D01*
X0330183Y0063495D01*
X0330302Y0063591D01*
X0330424Y0063684D01*
X0330549Y0063773D01*
X0330676Y0063860D01*
X0330805Y0063942D01*
X0330936Y0064022D01*
X0331069Y0064098D01*
X0331204Y0064171D01*
X0331341Y0064240D01*
X0331480Y0064305D01*
X0331620Y0064367D01*
X0331762Y0064425D01*
X0331905Y0064480D01*
X0332050Y0064531D01*
X0332196Y0064578D01*
X0332343Y0064621D01*
X0332491Y0064660D01*
X0332640Y0064696D01*
X0332790Y0064727D01*
X0332941Y0064755D01*
X0333092Y0064779D01*
X0333245Y0064799D01*
X0333397Y0064815D01*
X0333550Y0064827D01*
X0333703Y0064835D01*
X0333856Y0064839D01*
X0334010Y0064839D01*
X0334163Y0064835D01*
X0334316Y0064827D01*
X0334469Y0064815D01*
X0334621Y0064799D01*
X0334774Y0064779D01*
X0334925Y0064755D01*
X0335076Y0064727D01*
X0335226Y0064696D01*
X0335375Y0064660D01*
X0335523Y0064621D01*
X0335670Y0064578D01*
X0335816Y0064531D01*
X0335961Y0064480D01*
X0336104Y0064425D01*
X0336246Y0064367D01*
X0336386Y0064305D01*
X0336525Y0064240D01*
X0336662Y0064171D01*
X0336797Y0064098D01*
X0336930Y0064022D01*
X0337061Y0063942D01*
X0337190Y0063860D01*
X0337317Y0063773D01*
X0337442Y0063684D01*
X0337564Y0063591D01*
X0337683Y0063495D01*
X0337801Y0063396D01*
X0337915Y0063295D01*
X0338027Y0063190D01*
X0338136Y0063082D01*
X0338242Y0062971D01*
X0338346Y0062858D01*
X0338446Y0062742D01*
X0338544Y0062624D01*
X0338638Y0062503D01*
X0338729Y0062380D01*
X0338817Y0062254D01*
X0338901Y0062126D01*
X0338983Y0061996D01*
X0339060Y0061864D01*
X0339135Y0061730D01*
X0339206Y0061594D01*
X0339273Y0061456D01*
X0339337Y0061316D01*
X0339397Y0061175D01*
X0339453Y0061033D01*
X0339506Y0060889D01*
X0339555Y0060743D01*
X0339600Y0060597D01*
X0339641Y0060449D01*
X0339678Y0060301D01*
X0339712Y0060151D01*
X0339742Y0060000D01*
X0339767Y0059849D01*
X0339789Y0059698D01*
X0339807Y0059545D01*
X0339821Y0059393D01*
X0339831Y0059240D01*
X0339837Y0059086D01*
X0339839Y0058933D01*
X0339837Y0058780D01*
X0339831Y0058626D01*
X0339821Y0058473D01*
X0339807Y0058321D01*
X0339789Y0058168D01*
X0339767Y0058017D01*
X0339742Y0057866D01*
X0339712Y0057715D01*
X0339678Y0057565D01*
X0339641Y0057417D01*
X0339600Y0057269D01*
X0339555Y0057123D01*
X0339506Y0056977D01*
X0339453Y0056833D01*
X0339397Y0056691D01*
X0339337Y0056550D01*
X0339273Y0056410D01*
X0339206Y0056272D01*
X0339135Y0056136D01*
X0339060Y0056002D01*
X0338983Y0055870D01*
X0338901Y0055740D01*
X0338817Y0055612D01*
X0338729Y0055486D01*
X0338638Y0055363D01*
X0338544Y0055242D01*
X0338446Y0055124D01*
X0338346Y0055008D01*
X0338242Y0054895D01*
X0338136Y0054784D01*
X0338027Y0054676D01*
X0337915Y0054571D01*
X0337801Y0054470D01*
X0337683Y0054371D01*
X0337564Y0054275D01*
X0337442Y0054182D01*
X0337317Y0054093D01*
X0337190Y0054006D01*
X0337061Y0053924D01*
X0336930Y0053844D01*
X0336797Y0053768D01*
X0336662Y0053695D01*
X0336525Y0053626D01*
X0336386Y0053561D01*
X0336246Y0053499D01*
X0336104Y0053441D01*
X0335961Y0053386D01*
X0335816Y0053335D01*
X0335670Y0053288D01*
X0335523Y0053245D01*
X0335375Y0053206D01*
X0335226Y0053170D01*
X0335076Y0053139D01*
X0334925Y0053111D01*
X0334774Y0053087D01*
X0334621Y0053067D01*
X0334469Y0053051D01*
X0334316Y0053039D01*
X0334163Y0053031D01*
X0334010Y0053027D01*
X0333856Y0053027D01*
X0333703Y0053031D01*
X0333550Y0053039D01*
X0333397Y0053051D01*
X0333245Y0053067D01*
X0333092Y0053087D01*
X0332941Y0053111D01*
X0332790Y0053139D01*
X0332640Y0053170D01*
X0332491Y0053206D01*
X0332343Y0053245D01*
X0332196Y0053288D01*
X0332050Y0053335D01*
X0331905Y0053386D01*
X0331762Y0053441D01*
X0331620Y0053499D01*
X0331480Y0053561D01*
X0331341Y0053626D01*
X0331204Y0053695D01*
X0331069Y0053768D01*
X0330936Y0053844D01*
X0330805Y0053924D01*
X0330676Y0054006D01*
X0330549Y0054093D01*
X0330424Y0054182D01*
X0330302Y0054275D01*
X0330183Y0054371D01*
X0330065Y0054470D01*
X0329951Y0054571D01*
X0329839Y0054676D01*
X0329730Y0054784D01*
X0329624Y0054895D01*
X0329520Y0055008D01*
X0329420Y0055124D01*
X0329322Y0055242D01*
X0329228Y0055363D01*
X0329137Y0055486D01*
X0329049Y0055612D01*
X0328965Y0055740D01*
X0328883Y0055870D01*
X0328806Y0056002D01*
X0328731Y0056136D01*
X0328660Y0056272D01*
X0328593Y0056410D01*
X0328529Y0056550D01*
X0328469Y0056691D01*
X0328413Y0056833D01*
X0328360Y0056977D01*
X0328311Y0057123D01*
X0328266Y0057269D01*
X0328225Y0057417D01*
X0328188Y0057565D01*
X0328154Y0057715D01*
X0328124Y0057866D01*
X0328099Y0058017D01*
X0328077Y0058168D01*
X0328059Y0058321D01*
X0328045Y0058473D01*
X0328035Y0058626D01*
X0328029Y0058780D01*
X0328027Y0058933D01*
X0053027Y0398933D02*
X0053029Y0399086D01*
X0053035Y0399240D01*
X0053045Y0399393D01*
X0053059Y0399545D01*
X0053077Y0399698D01*
X0053099Y0399849D01*
X0053124Y0400000D01*
X0053154Y0400151D01*
X0053188Y0400301D01*
X0053225Y0400449D01*
X0053266Y0400597D01*
X0053311Y0400743D01*
X0053360Y0400889D01*
X0053413Y0401033D01*
X0053469Y0401175D01*
X0053529Y0401316D01*
X0053593Y0401456D01*
X0053660Y0401594D01*
X0053731Y0401730D01*
X0053806Y0401864D01*
X0053883Y0401996D01*
X0053965Y0402126D01*
X0054049Y0402254D01*
X0054137Y0402380D01*
X0054228Y0402503D01*
X0054322Y0402624D01*
X0054420Y0402742D01*
X0054520Y0402858D01*
X0054624Y0402971D01*
X0054730Y0403082D01*
X0054839Y0403190D01*
X0054951Y0403295D01*
X0055065Y0403396D01*
X0055183Y0403495D01*
X0055302Y0403591D01*
X0055424Y0403684D01*
X0055549Y0403773D01*
X0055676Y0403860D01*
X0055805Y0403942D01*
X0055936Y0404022D01*
X0056069Y0404098D01*
X0056204Y0404171D01*
X0056341Y0404240D01*
X0056480Y0404305D01*
X0056620Y0404367D01*
X0056762Y0404425D01*
X0056905Y0404480D01*
X0057050Y0404531D01*
X0057196Y0404578D01*
X0057343Y0404621D01*
X0057491Y0404660D01*
X0057640Y0404696D01*
X0057790Y0404727D01*
X0057941Y0404755D01*
X0058092Y0404779D01*
X0058245Y0404799D01*
X0058397Y0404815D01*
X0058550Y0404827D01*
X0058703Y0404835D01*
X0058856Y0404839D01*
X0059010Y0404839D01*
X0059163Y0404835D01*
X0059316Y0404827D01*
X0059469Y0404815D01*
X0059621Y0404799D01*
X0059774Y0404779D01*
X0059925Y0404755D01*
X0060076Y0404727D01*
X0060226Y0404696D01*
X0060375Y0404660D01*
X0060523Y0404621D01*
X0060670Y0404578D01*
X0060816Y0404531D01*
X0060961Y0404480D01*
X0061104Y0404425D01*
X0061246Y0404367D01*
X0061386Y0404305D01*
X0061525Y0404240D01*
X0061662Y0404171D01*
X0061797Y0404098D01*
X0061930Y0404022D01*
X0062061Y0403942D01*
X0062190Y0403860D01*
X0062317Y0403773D01*
X0062442Y0403684D01*
X0062564Y0403591D01*
X0062683Y0403495D01*
X0062801Y0403396D01*
X0062915Y0403295D01*
X0063027Y0403190D01*
X0063136Y0403082D01*
X0063242Y0402971D01*
X0063346Y0402858D01*
X0063446Y0402742D01*
X0063544Y0402624D01*
X0063638Y0402503D01*
X0063729Y0402380D01*
X0063817Y0402254D01*
X0063901Y0402126D01*
X0063983Y0401996D01*
X0064060Y0401864D01*
X0064135Y0401730D01*
X0064206Y0401594D01*
X0064273Y0401456D01*
X0064337Y0401316D01*
X0064397Y0401175D01*
X0064453Y0401033D01*
X0064506Y0400889D01*
X0064555Y0400743D01*
X0064600Y0400597D01*
X0064641Y0400449D01*
X0064678Y0400301D01*
X0064712Y0400151D01*
X0064742Y0400000D01*
X0064767Y0399849D01*
X0064789Y0399698D01*
X0064807Y0399545D01*
X0064821Y0399393D01*
X0064831Y0399240D01*
X0064837Y0399086D01*
X0064839Y0398933D01*
X0064837Y0398780D01*
X0064831Y0398626D01*
X0064821Y0398473D01*
X0064807Y0398321D01*
X0064789Y0398168D01*
X0064767Y0398017D01*
X0064742Y0397866D01*
X0064712Y0397715D01*
X0064678Y0397565D01*
X0064641Y0397417D01*
X0064600Y0397269D01*
X0064555Y0397123D01*
X0064506Y0396977D01*
X0064453Y0396833D01*
X0064397Y0396691D01*
X0064337Y0396550D01*
X0064273Y0396410D01*
X0064206Y0396272D01*
X0064135Y0396136D01*
X0064060Y0396002D01*
X0063983Y0395870D01*
X0063901Y0395740D01*
X0063817Y0395612D01*
X0063729Y0395486D01*
X0063638Y0395363D01*
X0063544Y0395242D01*
X0063446Y0395124D01*
X0063346Y0395008D01*
X0063242Y0394895D01*
X0063136Y0394784D01*
X0063027Y0394676D01*
X0062915Y0394571D01*
X0062801Y0394470D01*
X0062683Y0394371D01*
X0062564Y0394275D01*
X0062442Y0394182D01*
X0062317Y0394093D01*
X0062190Y0394006D01*
X0062061Y0393924D01*
X0061930Y0393844D01*
X0061797Y0393768D01*
X0061662Y0393695D01*
X0061525Y0393626D01*
X0061386Y0393561D01*
X0061246Y0393499D01*
X0061104Y0393441D01*
X0060961Y0393386D01*
X0060816Y0393335D01*
X0060670Y0393288D01*
X0060523Y0393245D01*
X0060375Y0393206D01*
X0060226Y0393170D01*
X0060076Y0393139D01*
X0059925Y0393111D01*
X0059774Y0393087D01*
X0059621Y0393067D01*
X0059469Y0393051D01*
X0059316Y0393039D01*
X0059163Y0393031D01*
X0059010Y0393027D01*
X0058856Y0393027D01*
X0058703Y0393031D01*
X0058550Y0393039D01*
X0058397Y0393051D01*
X0058245Y0393067D01*
X0058092Y0393087D01*
X0057941Y0393111D01*
X0057790Y0393139D01*
X0057640Y0393170D01*
X0057491Y0393206D01*
X0057343Y0393245D01*
X0057196Y0393288D01*
X0057050Y0393335D01*
X0056905Y0393386D01*
X0056762Y0393441D01*
X0056620Y0393499D01*
X0056480Y0393561D01*
X0056341Y0393626D01*
X0056204Y0393695D01*
X0056069Y0393768D01*
X0055936Y0393844D01*
X0055805Y0393924D01*
X0055676Y0394006D01*
X0055549Y0394093D01*
X0055424Y0394182D01*
X0055302Y0394275D01*
X0055183Y0394371D01*
X0055065Y0394470D01*
X0054951Y0394571D01*
X0054839Y0394676D01*
X0054730Y0394784D01*
X0054624Y0394895D01*
X0054520Y0395008D01*
X0054420Y0395124D01*
X0054322Y0395242D01*
X0054228Y0395363D01*
X0054137Y0395486D01*
X0054049Y0395612D01*
X0053965Y0395740D01*
X0053883Y0395870D01*
X0053806Y0396002D01*
X0053731Y0396136D01*
X0053660Y0396272D01*
X0053593Y0396410D01*
X0053529Y0396550D01*
X0053469Y0396691D01*
X0053413Y0396833D01*
X0053360Y0396977D01*
X0053311Y0397123D01*
X0053266Y0397269D01*
X0053225Y0397417D01*
X0053188Y0397565D01*
X0053154Y0397715D01*
X0053124Y0397866D01*
X0053099Y0398017D01*
X0053077Y0398168D01*
X0053059Y0398321D01*
X0053045Y0398473D01*
X0053035Y0398626D01*
X0053029Y0398780D01*
X0053027Y0398933D01*
D12*
X0329555Y0371217D02*
X0329486Y0370476D01*
X0329555Y0369734D01*
X0329762Y0369018D01*
X0330097Y0368354D01*
X0330551Y0367763D01*
X0331107Y0367267D01*
X0331745Y0366883D01*
X0332444Y0366625D01*
X0333178Y0366501D01*
X0333923Y0366516D01*
X0333923Y0367756D01*
X0333333Y0367731D01*
X0332752Y0367834D01*
X0332206Y0368057D01*
X0331721Y0368392D01*
X0331318Y0368823D01*
X0331016Y0369330D01*
X0330829Y0369889D01*
X0330766Y0370476D01*
X0330829Y0371062D01*
X0331016Y0371622D01*
X0331318Y0372128D01*
X0331721Y0372559D01*
X0332206Y0372894D01*
X0332752Y0373118D01*
X0333333Y0373220D01*
X0333923Y0373196D01*
X0333923Y0374436D01*
X0333178Y0374450D01*
X0332444Y0374326D01*
X0331745Y0374068D01*
X0331107Y0373684D01*
X0330551Y0373188D01*
X0330097Y0372597D01*
X0329762Y0371933D01*
X0329555Y0371217D01*
X0329548Y0371137D02*
X0330854Y0371137D01*
X0330795Y0370745D02*
X0329511Y0370745D01*
X0329497Y0370352D02*
X0330779Y0370352D01*
X0330821Y0369960D02*
X0329534Y0369960D01*
X0329603Y0369568D02*
X0330936Y0369568D01*
X0331108Y0369176D02*
X0329716Y0369176D01*
X0329880Y0368783D02*
X0331355Y0368783D01*
X0331722Y0368391D02*
X0330079Y0368391D01*
X0330370Y0367999D02*
X0332348Y0367999D01*
X0331909Y0366822D02*
X0333923Y0366822D01*
X0333923Y0367215D02*
X0331194Y0367215D01*
X0330726Y0367607D02*
X0333923Y0367607D01*
X0336634Y0368783D02*
X0338096Y0368783D01*
X0338089Y0368791D02*
X0337773Y0369287D01*
X0337563Y0369836D01*
X0339883Y0369836D01*
X0339883Y0371076D01*
X0337643Y0371076D01*
X0337794Y0371573D01*
X0338039Y0372031D01*
X0338370Y0372432D01*
X0338772Y0372762D01*
X0339230Y0373006D01*
X0339728Y0373157D01*
X0340245Y0373207D01*
X0340763Y0373156D01*
X0340763Y0374476D01*
X0340011Y0374498D01*
X0339267Y0374380D01*
X0338559Y0374126D01*
X0337911Y0373745D01*
X0337345Y0373250D01*
X0336880Y0372658D01*
X0336534Y0371989D01*
X0336319Y0371269D01*
X0336241Y0370520D01*
X0336304Y0369771D01*
X0336505Y0369046D01*
X0336837Y0368371D01*
X0337290Y0367770D01*
X0337846Y0367263D01*
X0338487Y0366869D01*
X0339190Y0366601D01*
X0339930Y0366468D01*
X0340683Y0366476D01*
X0340683Y0367676D01*
X0340095Y0367680D01*
X0339519Y0367800D01*
X0338979Y0368033D01*
X0338496Y0368367D01*
X0338089Y0368791D01*
X0337844Y0369176D02*
X0336469Y0369176D01*
X0336360Y0369568D02*
X0337665Y0369568D01*
X0338473Y0368391D02*
X0336827Y0368391D01*
X0337117Y0367999D02*
X0339057Y0367999D01*
X0338609Y0366822D02*
X0340683Y0366822D01*
X0340683Y0367215D02*
X0337925Y0367215D01*
X0337469Y0367607D02*
X0340683Y0367607D01*
X0339883Y0369960D02*
X0336288Y0369960D01*
X0336255Y0370352D02*
X0339883Y0370352D01*
X0339883Y0370745D02*
X0336264Y0370745D01*
X0336305Y0371137D02*
X0337661Y0371137D01*
X0337781Y0371529D02*
X0336397Y0371529D01*
X0336514Y0371921D02*
X0337981Y0371921D01*
X0338272Y0372313D02*
X0336702Y0372313D01*
X0336918Y0372706D02*
X0338703Y0372706D01*
X0339533Y0373098D02*
X0337226Y0373098D01*
X0337619Y0373490D02*
X0340763Y0373490D01*
X0340763Y0373882D02*
X0338144Y0373882D01*
X0338973Y0374274D02*
X0340763Y0374274D01*
X0333923Y0374274D02*
X0332303Y0374274D01*
X0331436Y0373882D02*
X0333923Y0373882D01*
X0333923Y0373490D02*
X0330889Y0373490D01*
X0330482Y0373098D02*
X0332704Y0373098D01*
X0331933Y0372706D02*
X0330181Y0372706D01*
X0329954Y0372313D02*
X0331491Y0372313D01*
X0331194Y0371921D02*
X0329758Y0371921D01*
X0329645Y0371529D02*
X0330985Y0371529D01*
D13*
X0308901Y0378935D02*
X0306499Y0378935D01*
X0308301Y0380736D01*
X0308301Y0377133D01*
X0305218Y0377133D02*
X0302816Y0377133D01*
X0304017Y0377133D02*
X0304017Y0380736D01*
X0302816Y0379535D01*
X0301535Y0380136D02*
X0301535Y0377734D01*
X0300935Y0377133D01*
X0299133Y0377133D01*
X0299133Y0380736D01*
X0300935Y0380736D01*
X0301535Y0380136D01*
X0300935Y0387133D02*
X0301535Y0387734D01*
X0301535Y0390136D01*
X0300935Y0390736D01*
X0299133Y0390736D01*
X0299133Y0387133D01*
X0300935Y0387133D01*
X0302816Y0387133D02*
X0305218Y0387133D01*
X0304017Y0387133D02*
X0304017Y0390736D01*
X0302816Y0389535D01*
X0306499Y0388935D02*
X0307700Y0389535D01*
X0308301Y0389535D01*
X0308901Y0388935D01*
X0308901Y0387734D01*
X0308301Y0387133D01*
X0307100Y0387133D01*
X0306499Y0387734D01*
X0306499Y0388935D02*
X0306499Y0390736D01*
X0308901Y0390736D01*
X0308301Y0360736D02*
X0306499Y0360736D01*
X0306499Y0357133D01*
X0308301Y0357133D01*
X0308901Y0357734D01*
X0308901Y0360136D01*
X0308301Y0360736D01*
X0305218Y0360736D02*
X0305218Y0357133D01*
X0302816Y0360736D01*
X0302816Y0357133D01*
X0301535Y0357734D02*
X0301535Y0358935D01*
X0300334Y0358935D01*
X0299133Y0360136D02*
X0299133Y0357734D01*
X0299734Y0357133D01*
X0300935Y0357133D01*
X0301535Y0357734D01*
X0301535Y0360136D02*
X0300935Y0360736D01*
X0299734Y0360736D01*
X0299133Y0360136D01*
X0299133Y0350736D02*
X0300935Y0350736D01*
X0301535Y0350136D01*
X0301535Y0347734D01*
X0300935Y0347133D01*
X0299133Y0347133D01*
X0299133Y0350736D01*
X0302816Y0349535D02*
X0304017Y0350736D01*
X0304017Y0347133D01*
X0302816Y0347133D02*
X0305218Y0347133D01*
X0306499Y0347734D02*
X0307100Y0347133D01*
X0308301Y0347133D01*
X0308901Y0347734D01*
X0308901Y0348334D01*
X0308301Y0348935D01*
X0307700Y0348935D01*
X0308301Y0348935D02*
X0308901Y0349535D01*
X0308901Y0350136D01*
X0308301Y0350736D01*
X0307100Y0350736D01*
X0306499Y0350136D01*
X0307100Y0340736D02*
X0306499Y0340136D01*
X0307100Y0340736D02*
X0308301Y0340736D01*
X0308901Y0340136D01*
X0308901Y0339535D01*
X0306499Y0337133D01*
X0308901Y0337133D01*
X0305218Y0337133D02*
X0302816Y0337133D01*
X0304017Y0337133D02*
X0304017Y0340736D01*
X0302816Y0339535D01*
X0301535Y0340136D02*
X0301535Y0337734D01*
X0300935Y0337133D01*
X0299133Y0337133D01*
X0299133Y0340736D01*
X0300935Y0340736D01*
X0301535Y0340136D01*
X0300935Y0330736D02*
X0299133Y0330736D01*
X0299133Y0327133D01*
X0300935Y0327133D01*
X0301535Y0327734D01*
X0301535Y0330136D01*
X0300935Y0330736D01*
X0302816Y0329535D02*
X0304017Y0330736D01*
X0304017Y0327133D01*
X0302816Y0327133D02*
X0305218Y0327133D01*
X0306499Y0327133D02*
X0308901Y0327133D01*
X0307700Y0327133D02*
X0307700Y0330736D01*
X0306499Y0329535D01*
X0307100Y0320736D02*
X0306499Y0320136D01*
X0306499Y0317734D01*
X0308901Y0320136D01*
X0308901Y0317734D01*
X0308301Y0317133D01*
X0307100Y0317133D01*
X0306499Y0317734D01*
X0305218Y0317133D02*
X0302816Y0317133D01*
X0304017Y0317133D02*
X0304017Y0320736D01*
X0302816Y0319535D01*
X0301535Y0320136D02*
X0300935Y0320736D01*
X0299133Y0320736D01*
X0299133Y0317133D01*
X0300935Y0317133D01*
X0301535Y0317734D01*
X0301535Y0320136D01*
X0307100Y0320736D02*
X0308301Y0320736D01*
X0308901Y0320136D01*
X0304618Y0310736D02*
X0303417Y0310736D01*
X0302816Y0310136D01*
X0302816Y0309535D01*
X0303417Y0308935D01*
X0305218Y0308935D01*
X0305218Y0307734D02*
X0305218Y0310136D01*
X0304618Y0310736D01*
X0305218Y0307734D02*
X0304618Y0307133D01*
X0303417Y0307133D01*
X0302816Y0307734D01*
X0301535Y0307734D02*
X0301535Y0310136D01*
X0300935Y0310736D01*
X0299133Y0310736D01*
X0299133Y0307133D01*
X0300935Y0307133D01*
X0301535Y0307734D01*
X0300935Y0300736D02*
X0299133Y0300736D01*
X0299133Y0297133D01*
X0300935Y0297133D01*
X0301535Y0297734D01*
X0301535Y0300136D01*
X0300935Y0300736D01*
X0302816Y0300136D02*
X0302816Y0299535D01*
X0303417Y0298935D01*
X0304618Y0298935D01*
X0305218Y0298334D01*
X0305218Y0297734D01*
X0304618Y0297133D01*
X0303417Y0297133D01*
X0302816Y0297734D01*
X0302816Y0298334D01*
X0303417Y0298935D01*
X0304618Y0298935D02*
X0305218Y0299535D01*
X0305218Y0300136D01*
X0304618Y0300736D01*
X0303417Y0300736D01*
X0302816Y0300136D01*
X0302816Y0285736D02*
X0305218Y0285736D01*
X0305218Y0285136D01*
X0302816Y0282734D01*
X0302816Y0282133D01*
X0301535Y0282734D02*
X0301535Y0285136D01*
X0300935Y0285736D01*
X0299133Y0285736D01*
X0299133Y0282133D01*
X0300935Y0282133D01*
X0301535Y0282734D01*
X0300935Y0275736D02*
X0299133Y0275736D01*
X0299133Y0272133D01*
X0300935Y0272133D01*
X0301535Y0272734D01*
X0301535Y0275136D01*
X0300935Y0275736D01*
X0302816Y0273935D02*
X0304618Y0273935D01*
X0305218Y0273334D01*
X0305218Y0272734D01*
X0304618Y0272133D01*
X0303417Y0272133D01*
X0302816Y0272734D01*
X0302816Y0273935D01*
X0304017Y0275136D01*
X0305218Y0275736D01*
X0305218Y0265736D02*
X0302816Y0265736D01*
X0302816Y0263935D01*
X0304017Y0264535D01*
X0304618Y0264535D01*
X0305218Y0263935D01*
X0305218Y0262734D01*
X0304618Y0262133D01*
X0303417Y0262133D01*
X0302816Y0262734D01*
X0301535Y0262734D02*
X0301535Y0265136D01*
X0300935Y0265736D01*
X0299133Y0265736D01*
X0299133Y0262133D01*
X0300935Y0262133D01*
X0301535Y0262734D01*
X0300935Y0255736D02*
X0299133Y0255736D01*
X0299133Y0252133D01*
X0300935Y0252133D01*
X0301535Y0252734D01*
X0301535Y0255136D01*
X0300935Y0255736D01*
X0302816Y0253935D02*
X0305218Y0253935D01*
X0304618Y0255736D02*
X0302816Y0253935D01*
X0304618Y0255736D02*
X0304618Y0252133D01*
X0304618Y0245736D02*
X0305218Y0245136D01*
X0305218Y0244535D01*
X0304618Y0243935D01*
X0305218Y0243334D01*
X0305218Y0242734D01*
X0304618Y0242133D01*
X0303417Y0242133D01*
X0302816Y0242734D01*
X0301535Y0242734D02*
X0301535Y0245136D01*
X0300935Y0245736D01*
X0299133Y0245736D01*
X0299133Y0242133D01*
X0300935Y0242133D01*
X0301535Y0242734D01*
X0302816Y0245136D02*
X0303417Y0245736D01*
X0304618Y0245736D01*
X0304618Y0243935D02*
X0304017Y0243935D01*
X0303417Y0235736D02*
X0302816Y0235136D01*
X0303417Y0235736D02*
X0304618Y0235736D01*
X0305218Y0235136D01*
X0305218Y0234535D01*
X0302816Y0232133D01*
X0305218Y0232133D01*
X0301535Y0232734D02*
X0301535Y0235136D01*
X0300935Y0235736D01*
X0299133Y0235736D01*
X0299133Y0232133D01*
X0300935Y0232133D01*
X0301535Y0232734D01*
X0300935Y0225736D02*
X0299133Y0225736D01*
X0299133Y0222133D01*
X0300935Y0222133D01*
X0301535Y0222734D01*
X0301535Y0225136D01*
X0300935Y0225736D01*
X0302816Y0224535D02*
X0304017Y0225736D01*
X0304017Y0222133D01*
X0302816Y0222133D02*
X0305218Y0222133D01*
X0304618Y0215736D02*
X0305218Y0215136D01*
X0302816Y0212734D01*
X0303417Y0212133D01*
X0304618Y0212133D01*
X0305218Y0212734D01*
X0305218Y0215136D01*
X0304618Y0215736D02*
X0303417Y0215736D01*
X0302816Y0215136D01*
X0302816Y0212734D01*
X0301535Y0212734D02*
X0301535Y0215136D01*
X0300935Y0215736D01*
X0299133Y0215736D01*
X0299133Y0212133D01*
X0300935Y0212133D01*
X0301535Y0212734D01*
X0271000Y0212133D02*
X0268598Y0215736D01*
X0267317Y0215136D02*
X0267317Y0213935D01*
X0266717Y0213334D01*
X0264915Y0213334D01*
X0264915Y0212133D02*
X0264915Y0215736D01*
X0266717Y0215736D01*
X0267317Y0215136D01*
X0266116Y0213334D02*
X0267317Y0212133D01*
X0268598Y0212133D02*
X0271000Y0215736D01*
X0271000Y0222133D02*
X0268598Y0225736D01*
X0267317Y0225736D02*
X0264915Y0225736D01*
X0266116Y0225736D02*
X0266116Y0222133D01*
X0268598Y0222133D02*
X0271000Y0225736D01*
X0263634Y0221533D02*
X0261232Y0221533D01*
X0259951Y0222133D02*
X0259951Y0224535D01*
X0258750Y0225736D01*
X0257549Y0224535D01*
X0257549Y0222133D01*
X0256268Y0221533D02*
X0253866Y0221533D01*
X0251384Y0222133D02*
X0251384Y0225736D01*
X0250183Y0225736D02*
X0252585Y0225736D01*
X0248901Y0225136D02*
X0248901Y0223935D01*
X0248301Y0223334D01*
X0246499Y0223334D01*
X0246499Y0222133D02*
X0246499Y0225736D01*
X0248301Y0225736D01*
X0248901Y0225136D01*
X0247700Y0223334D02*
X0248901Y0222133D01*
X0249439Y0220736D02*
X0250040Y0220136D01*
X0250040Y0219535D01*
X0249439Y0218935D01*
X0248238Y0218935D01*
X0247638Y0219535D01*
X0247638Y0220136D01*
X0248238Y0220736D01*
X0249439Y0220736D01*
X0249439Y0218935D02*
X0250040Y0218334D01*
X0250040Y0217734D01*
X0249439Y0217133D01*
X0248238Y0217133D01*
X0247638Y0217734D01*
X0247638Y0218334D01*
X0248238Y0218935D01*
X0246357Y0219535D02*
X0243955Y0217133D01*
X0246357Y0217133D01*
X0246499Y0215736D02*
X0248301Y0215736D01*
X0248901Y0215136D01*
X0248901Y0213935D01*
X0248301Y0213334D01*
X0246499Y0213334D01*
X0246499Y0212133D02*
X0246499Y0215736D01*
X0245218Y0214535D02*
X0244017Y0215736D01*
X0242816Y0214535D01*
X0242816Y0212133D01*
X0241535Y0212734D02*
X0241535Y0215736D01*
X0242674Y0216533D02*
X0240272Y0216533D01*
X0239133Y0215736D02*
X0239133Y0212734D01*
X0239734Y0212133D01*
X0240935Y0212133D01*
X0241535Y0212734D01*
X0242816Y0213935D02*
X0245218Y0213935D01*
X0245218Y0214535D02*
X0245218Y0212133D01*
X0243301Y0210736D02*
X0243901Y0210136D01*
X0243901Y0207734D01*
X0243301Y0207133D01*
X0241499Y0207133D01*
X0241499Y0210736D01*
X0243301Y0210736D01*
X0240218Y0210736D02*
X0240218Y0207133D01*
X0237816Y0210736D01*
X0237816Y0207133D01*
X0237816Y0205736D02*
X0239618Y0205736D01*
X0240218Y0205136D01*
X0240218Y0203935D01*
X0239618Y0203334D01*
X0237816Y0203334D01*
X0237816Y0202133D02*
X0237816Y0205736D01*
X0236535Y0205136D02*
X0235935Y0205736D01*
X0234734Y0205736D01*
X0234133Y0205136D01*
X0234133Y0202734D01*
X0234734Y0202133D01*
X0235935Y0202133D01*
X0236535Y0202734D01*
X0236535Y0203935D01*
X0235334Y0203935D01*
X0234734Y0207133D02*
X0235935Y0207133D01*
X0236535Y0207734D01*
X0236535Y0208935D01*
X0235334Y0208935D01*
X0234133Y0210136D02*
X0234734Y0210736D01*
X0235935Y0210736D01*
X0236535Y0210136D01*
X0234133Y0210136D02*
X0234133Y0207734D01*
X0234734Y0207133D01*
X0241499Y0205736D02*
X0242700Y0205736D01*
X0242100Y0205736D02*
X0242100Y0202133D01*
X0242700Y0202133D02*
X0241499Y0202133D01*
X0243955Y0202734D02*
X0244555Y0202133D01*
X0245756Y0202133D01*
X0246357Y0202734D01*
X0246357Y0205136D01*
X0245756Y0205736D01*
X0244555Y0205736D01*
X0243955Y0205136D01*
X0243955Y0202734D01*
X0247638Y0202133D02*
X0250040Y0202133D01*
X0248839Y0202133D02*
X0248839Y0205736D01*
X0247638Y0204535D01*
X0251321Y0205136D02*
X0251922Y0205736D01*
X0253123Y0205736D01*
X0253723Y0205136D01*
X0253723Y0204535D01*
X0251321Y0202133D01*
X0253723Y0202133D01*
X0253866Y0211533D02*
X0256268Y0211533D01*
X0257549Y0212133D02*
X0257549Y0214535D01*
X0258750Y0215736D01*
X0259951Y0214535D01*
X0259951Y0212133D01*
X0261232Y0211533D02*
X0263634Y0211533D01*
X0259951Y0213935D02*
X0257549Y0213935D01*
X0252585Y0215736D02*
X0250183Y0215736D01*
X0251384Y0215736D02*
X0251384Y0212133D01*
X0248901Y0212133D02*
X0247700Y0213334D01*
X0246357Y0219535D02*
X0246357Y0220136D01*
X0245756Y0220736D01*
X0244555Y0220736D01*
X0243955Y0220136D01*
X0242816Y0222133D02*
X0242816Y0224535D01*
X0244017Y0225736D01*
X0245218Y0224535D01*
X0245218Y0222133D01*
X0245218Y0223935D02*
X0242816Y0223935D01*
X0241535Y0222734D02*
X0241535Y0225736D01*
X0239133Y0225736D02*
X0239133Y0222734D01*
X0239734Y0222133D01*
X0240935Y0222133D01*
X0241535Y0222734D01*
X0239017Y0220736D02*
X0237816Y0220736D01*
X0238417Y0220736D02*
X0238417Y0217133D01*
X0239017Y0217133D02*
X0237816Y0217133D01*
X0236535Y0218935D02*
X0235935Y0218334D01*
X0234133Y0218334D01*
X0234133Y0217133D02*
X0234133Y0220736D01*
X0235935Y0220736D01*
X0236535Y0220136D01*
X0236535Y0218935D01*
X0235935Y0232133D02*
X0234734Y0232133D01*
X0234133Y0232734D01*
X0234133Y0235136D01*
X0234734Y0235736D01*
X0235935Y0235736D01*
X0236535Y0235136D01*
X0236535Y0233935D02*
X0235334Y0233935D01*
X0236535Y0233935D02*
X0236535Y0232734D01*
X0235935Y0232133D01*
X0237816Y0232133D02*
X0237816Y0235736D01*
X0239618Y0235736D01*
X0240218Y0235136D01*
X0240218Y0233935D01*
X0239618Y0233334D01*
X0237816Y0233334D01*
X0241499Y0232133D02*
X0242700Y0232133D01*
X0242100Y0232133D02*
X0242100Y0235736D01*
X0242700Y0235736D02*
X0241499Y0235736D01*
X0243955Y0235136D02*
X0243955Y0232734D01*
X0244555Y0232133D01*
X0245756Y0232133D01*
X0246357Y0232734D01*
X0246357Y0235136D01*
X0245756Y0235736D01*
X0244555Y0235736D01*
X0243955Y0235136D01*
X0247638Y0235136D02*
X0248238Y0235736D01*
X0249439Y0235736D01*
X0250040Y0235136D01*
X0247638Y0232734D01*
X0248238Y0232133D01*
X0249439Y0232133D01*
X0250040Y0232734D01*
X0250040Y0235136D01*
X0251321Y0235736D02*
X0253723Y0235736D01*
X0253723Y0235136D01*
X0251321Y0232734D01*
X0251321Y0232133D01*
X0247638Y0232734D02*
X0247638Y0235136D01*
X0248238Y0242133D02*
X0247638Y0242734D01*
X0250040Y0245136D01*
X0250040Y0242734D01*
X0249439Y0242133D01*
X0248238Y0242133D01*
X0247638Y0242734D02*
X0247638Y0245136D01*
X0248238Y0245736D01*
X0249439Y0245736D01*
X0250040Y0245136D01*
X0251321Y0245136D02*
X0251321Y0244535D01*
X0251922Y0243935D01*
X0253123Y0243935D01*
X0253723Y0243334D01*
X0253723Y0242734D01*
X0253123Y0242133D01*
X0251922Y0242133D01*
X0251321Y0242734D01*
X0251321Y0243334D01*
X0251922Y0243935D01*
X0253123Y0243935D02*
X0253723Y0244535D01*
X0253723Y0245136D01*
X0253123Y0245736D01*
X0251922Y0245736D01*
X0251321Y0245136D01*
X0254133Y0245736D02*
X0254133Y0242133D01*
X0254133Y0243334D02*
X0255935Y0243334D01*
X0256535Y0243935D01*
X0256535Y0245136D01*
X0255935Y0245736D01*
X0254133Y0245736D01*
X0257816Y0245736D02*
X0257816Y0242133D01*
X0259017Y0243334D01*
X0260218Y0242133D01*
X0260218Y0245736D01*
X0261499Y0245736D02*
X0262700Y0244535D01*
X0263901Y0245736D01*
X0263901Y0242133D01*
X0265183Y0241533D02*
X0267585Y0241533D01*
X0268866Y0242734D02*
X0269466Y0242133D01*
X0270667Y0242133D01*
X0271268Y0242734D01*
X0271268Y0243334D01*
X0270667Y0243935D01*
X0270067Y0243935D01*
X0270667Y0243935D02*
X0271268Y0244535D01*
X0271268Y0245136D01*
X0270667Y0245736D01*
X0269466Y0245736D01*
X0268866Y0245136D01*
X0261499Y0245736D02*
X0261499Y0242133D01*
X0250040Y0252133D02*
X0247638Y0252133D01*
X0250040Y0254535D01*
X0250040Y0255136D01*
X0249439Y0255736D01*
X0248238Y0255736D01*
X0247638Y0255136D01*
X0246357Y0255136D02*
X0245756Y0255736D01*
X0244555Y0255736D01*
X0243955Y0255136D01*
X0246357Y0255136D02*
X0246357Y0254535D01*
X0243955Y0252133D01*
X0246357Y0252133D01*
X0242674Y0251533D02*
X0240272Y0251533D01*
X0239017Y0252133D02*
X0237816Y0252133D01*
X0238417Y0252133D02*
X0238417Y0255736D01*
X0239017Y0255736D02*
X0237816Y0255736D01*
X0236535Y0255136D02*
X0236535Y0253935D01*
X0235935Y0253334D01*
X0234133Y0253334D01*
X0234133Y0252133D02*
X0234133Y0255736D01*
X0235935Y0255736D01*
X0236535Y0255136D01*
X0235935Y0262133D02*
X0234734Y0262133D01*
X0234133Y0262734D01*
X0234133Y0265136D01*
X0234734Y0265736D01*
X0235935Y0265736D01*
X0236535Y0265136D01*
X0236535Y0263935D02*
X0235334Y0263935D01*
X0236535Y0263935D02*
X0236535Y0262734D01*
X0235935Y0262133D01*
X0237816Y0262133D02*
X0237816Y0265736D01*
X0240218Y0262133D01*
X0240218Y0265736D01*
X0241499Y0265736D02*
X0243301Y0265736D01*
X0243901Y0265136D01*
X0243901Y0262734D01*
X0243301Y0262133D01*
X0241499Y0262133D01*
X0241499Y0265736D01*
X0242674Y0271533D02*
X0240272Y0271533D01*
X0239017Y0272133D02*
X0237816Y0272133D01*
X0238417Y0272133D02*
X0238417Y0275736D01*
X0239017Y0275736D02*
X0237816Y0275736D01*
X0236535Y0275136D02*
X0236535Y0273935D01*
X0235935Y0273334D01*
X0234133Y0273334D01*
X0234133Y0272133D02*
X0234133Y0275736D01*
X0235935Y0275736D01*
X0236535Y0275136D01*
X0237816Y0282133D02*
X0239017Y0282133D01*
X0238417Y0282133D02*
X0238417Y0285736D01*
X0239017Y0285736D02*
X0237816Y0285736D01*
X0236535Y0285136D02*
X0236535Y0283935D01*
X0235935Y0283334D01*
X0234133Y0283334D01*
X0234133Y0282133D02*
X0234133Y0285736D01*
X0235935Y0285736D01*
X0236535Y0285136D01*
X0240272Y0281533D02*
X0242674Y0281533D01*
X0243955Y0282133D02*
X0246357Y0282133D01*
X0245156Y0282133D02*
X0245156Y0285736D01*
X0243955Y0284535D01*
X0247638Y0283935D02*
X0249439Y0283935D01*
X0250040Y0283334D01*
X0250040Y0282734D01*
X0249439Y0282133D01*
X0248238Y0282133D01*
X0247638Y0282734D01*
X0247638Y0283935D01*
X0248839Y0285136D01*
X0250040Y0285736D01*
X0243301Y0292133D02*
X0243901Y0292734D01*
X0243901Y0295136D01*
X0243301Y0295736D01*
X0241499Y0295736D01*
X0241499Y0292133D01*
X0243301Y0292133D01*
X0240218Y0292133D02*
X0240218Y0295736D01*
X0237816Y0295736D02*
X0240218Y0292133D01*
X0237816Y0292133D02*
X0237816Y0295736D01*
X0236535Y0295136D02*
X0235935Y0295736D01*
X0234734Y0295736D01*
X0234133Y0295136D01*
X0234133Y0292734D01*
X0234734Y0292133D01*
X0235935Y0292133D01*
X0236535Y0292734D01*
X0236535Y0293935D01*
X0235334Y0293935D01*
X0234734Y0302133D02*
X0235935Y0302133D01*
X0236535Y0302734D01*
X0236535Y0303935D01*
X0235334Y0303935D01*
X0234133Y0305136D02*
X0234133Y0302734D01*
X0234734Y0302133D01*
X0234133Y0305136D02*
X0234734Y0305736D01*
X0235935Y0305736D01*
X0236535Y0305136D01*
X0237816Y0305736D02*
X0239618Y0305736D01*
X0240218Y0305136D01*
X0240218Y0303935D01*
X0239618Y0303334D01*
X0237816Y0303334D01*
X0237816Y0302133D02*
X0237816Y0305736D01*
X0241499Y0305736D02*
X0242700Y0305736D01*
X0242100Y0305736D02*
X0242100Y0302133D01*
X0242700Y0302133D02*
X0241499Y0302133D01*
X0243955Y0302734D02*
X0243955Y0305136D01*
X0244555Y0305736D01*
X0245756Y0305736D01*
X0246357Y0305136D01*
X0246357Y0302734D01*
X0245756Y0302133D01*
X0244555Y0302133D01*
X0243955Y0302734D01*
X0247638Y0302133D02*
X0250040Y0302133D01*
X0248839Y0302133D02*
X0248839Y0305736D01*
X0247638Y0304535D01*
X0251321Y0304535D02*
X0251321Y0305136D01*
X0251922Y0305736D01*
X0253123Y0305736D01*
X0253723Y0305136D01*
X0253723Y0304535D01*
X0253123Y0303935D01*
X0251922Y0303935D01*
X0251321Y0304535D01*
X0251922Y0303935D02*
X0251321Y0303334D01*
X0251321Y0302734D01*
X0251922Y0302133D01*
X0253123Y0302133D01*
X0253723Y0302734D01*
X0253723Y0303334D01*
X0253123Y0303935D01*
X0253123Y0312133D02*
X0251922Y0312133D01*
X0251321Y0312734D01*
X0251321Y0313935D02*
X0252522Y0314535D01*
X0253123Y0314535D01*
X0253723Y0313935D01*
X0253723Y0312734D01*
X0253123Y0312133D01*
X0251321Y0313935D02*
X0251321Y0315736D01*
X0253723Y0315736D01*
X0248839Y0315736D02*
X0248839Y0312133D01*
X0247638Y0312133D02*
X0250040Y0312133D01*
X0247638Y0314535D02*
X0248839Y0315736D01*
X0246357Y0315136D02*
X0246357Y0312734D01*
X0245756Y0312133D01*
X0244555Y0312133D01*
X0243955Y0312734D01*
X0243955Y0315136D01*
X0244555Y0315736D01*
X0245756Y0315736D01*
X0246357Y0315136D01*
X0242700Y0315736D02*
X0241499Y0315736D01*
X0242100Y0315736D02*
X0242100Y0312133D01*
X0242700Y0312133D02*
X0241499Y0312133D01*
X0240218Y0313935D02*
X0239618Y0313334D01*
X0237816Y0313334D01*
X0237816Y0312133D02*
X0237816Y0315736D01*
X0239618Y0315736D01*
X0240218Y0315136D01*
X0240218Y0313935D01*
X0236535Y0313935D02*
X0236535Y0312734D01*
X0235935Y0312133D01*
X0234734Y0312133D01*
X0234133Y0312734D01*
X0234133Y0315136D01*
X0234734Y0315736D01*
X0235935Y0315736D01*
X0236535Y0315136D01*
X0236535Y0313935D02*
X0235334Y0313935D01*
X0234734Y0322133D02*
X0235935Y0322133D01*
X0236535Y0322734D01*
X0236535Y0323935D01*
X0235334Y0323935D01*
X0234133Y0325136D02*
X0234133Y0322734D01*
X0234734Y0322133D01*
X0234133Y0325136D02*
X0234734Y0325736D01*
X0235935Y0325736D01*
X0236535Y0325136D01*
X0237816Y0325736D02*
X0239618Y0325736D01*
X0240218Y0325136D01*
X0240218Y0323935D01*
X0239618Y0323334D01*
X0237816Y0323334D01*
X0237816Y0322133D02*
X0237816Y0325736D01*
X0241499Y0325736D02*
X0242700Y0325736D01*
X0242100Y0325736D02*
X0242100Y0322133D01*
X0242700Y0322133D02*
X0241499Y0322133D01*
X0243955Y0322734D02*
X0244555Y0322133D01*
X0245756Y0322133D01*
X0246357Y0322734D01*
X0246357Y0325136D01*
X0245756Y0325736D01*
X0244555Y0325736D01*
X0243955Y0325136D01*
X0243955Y0322734D01*
X0247638Y0322133D02*
X0250040Y0322133D01*
X0248839Y0322133D02*
X0248839Y0325736D01*
X0247638Y0324535D01*
X0251321Y0323935D02*
X0253723Y0323935D01*
X0253123Y0325736D02*
X0251321Y0323935D01*
X0253123Y0325736D02*
X0253123Y0322133D01*
X0243301Y0332133D02*
X0243901Y0332734D01*
X0243901Y0335136D01*
X0243301Y0335736D01*
X0241499Y0335736D01*
X0241499Y0332133D01*
X0243301Y0332133D01*
X0243901Y0332734D01*
X0243901Y0335136D01*
X0243301Y0335736D01*
X0241499Y0335736D01*
X0241499Y0332133D01*
X0243301Y0332133D01*
X0240218Y0332133D02*
X0240218Y0335736D01*
X0240218Y0332133D01*
X0237816Y0335736D01*
X0237816Y0332133D01*
X0237816Y0335736D01*
X0240218Y0332133D01*
X0236535Y0332734D02*
X0236535Y0333935D01*
X0235334Y0333935D01*
X0236535Y0333935D01*
X0236535Y0332734D01*
X0235935Y0332133D01*
X0234734Y0332133D01*
X0234133Y0332734D01*
X0234133Y0335136D01*
X0234734Y0335736D01*
X0235935Y0335736D01*
X0236535Y0335136D01*
X0235935Y0335736D01*
X0234734Y0335736D01*
X0234133Y0335136D01*
X0234133Y0332734D01*
X0234734Y0332133D01*
X0235935Y0332133D01*
X0236535Y0332734D01*
X0238417Y0342133D02*
X0237816Y0342734D01*
X0238417Y0342133D02*
X0239618Y0342133D01*
X0240218Y0342734D01*
X0240218Y0343935D01*
X0239618Y0344535D01*
X0239017Y0344535D01*
X0237816Y0343935D01*
X0237816Y0345736D01*
X0240218Y0345736D01*
X0241499Y0345736D02*
X0241499Y0343334D01*
X0242700Y0342133D01*
X0243901Y0343334D01*
X0243901Y0345736D01*
X0245183Y0345136D02*
X0245783Y0345736D01*
X0246984Y0345736D01*
X0247585Y0345136D01*
X0245183Y0342734D01*
X0245783Y0342133D01*
X0246984Y0342133D01*
X0247585Y0342734D01*
X0247585Y0345136D01*
X0245183Y0345136D02*
X0245183Y0342734D01*
X0236535Y0343935D02*
X0234133Y0343935D01*
X0235334Y0345136D02*
X0235334Y0342734D01*
X0238417Y0352133D02*
X0237816Y0352734D01*
X0238417Y0352133D01*
X0239618Y0352133D01*
X0240218Y0352734D01*
X0240218Y0353935D01*
X0239618Y0354535D01*
X0239017Y0354535D01*
X0237816Y0353935D01*
X0237816Y0355736D01*
X0240218Y0355736D01*
X0237816Y0355736D01*
X0237816Y0353935D01*
X0239017Y0354535D01*
X0239618Y0354535D01*
X0240218Y0353935D01*
X0240218Y0352734D01*
X0239618Y0352133D01*
X0238417Y0352133D01*
X0236535Y0353935D02*
X0234133Y0353935D01*
X0236535Y0353935D01*
X0235334Y0355136D02*
X0235334Y0352734D01*
X0235334Y0355136D01*
X0241499Y0355736D02*
X0241499Y0353334D01*
X0242700Y0352133D01*
X0243901Y0353334D01*
X0243901Y0355736D01*
X0243901Y0353334D01*
X0242700Y0352133D01*
X0241499Y0353334D01*
X0241499Y0355736D01*
X0245183Y0355136D02*
X0245783Y0355736D01*
X0246984Y0355736D01*
X0247585Y0355136D01*
X0245183Y0352734D01*
X0245783Y0352133D01*
X0246984Y0352133D01*
X0247585Y0352734D01*
X0247585Y0355136D01*
X0245183Y0352734D01*
X0245183Y0355136D01*
X0245783Y0355736D01*
X0246984Y0355736D01*
X0247585Y0355136D01*
X0247585Y0352734D01*
X0246984Y0352133D01*
X0245783Y0352133D01*
X0245183Y0352734D01*
X0245183Y0355136D01*
X0208723Y0345136D02*
X0208123Y0345736D01*
X0206922Y0345736D01*
X0206321Y0345136D01*
X0205040Y0345136D02*
X0202638Y0342734D01*
X0203238Y0342133D01*
X0204439Y0342133D01*
X0205040Y0342734D01*
X0205040Y0345136D01*
X0204439Y0345736D01*
X0203238Y0345736D01*
X0202638Y0345136D01*
X0202638Y0342734D01*
X0201357Y0342734D02*
X0201357Y0345136D01*
X0200756Y0345736D01*
X0199555Y0345736D01*
X0198955Y0345136D01*
X0198955Y0342734D01*
X0199555Y0342133D01*
X0200756Y0342133D01*
X0201357Y0342734D01*
X0197700Y0342133D02*
X0196499Y0342133D01*
X0197100Y0342133D02*
X0197100Y0345736D01*
X0197700Y0345736D02*
X0196499Y0345736D01*
X0195218Y0345136D02*
X0195218Y0343935D01*
X0194618Y0343334D01*
X0192816Y0343334D01*
X0192816Y0342133D02*
X0192816Y0345736D01*
X0194618Y0345736D01*
X0195218Y0345136D01*
X0191535Y0345136D02*
X0190935Y0345736D01*
X0189734Y0345736D01*
X0189133Y0345136D01*
X0189133Y0342734D01*
X0189734Y0342133D01*
X0190935Y0342133D01*
X0191535Y0342734D01*
X0191535Y0343935D01*
X0190334Y0343935D01*
X0189734Y0335736D02*
X0189133Y0335136D01*
X0189133Y0332734D01*
X0189734Y0332133D01*
X0190935Y0332133D01*
X0191535Y0332734D01*
X0191535Y0333935D01*
X0190334Y0333935D01*
X0191535Y0333935D01*
X0191535Y0332734D01*
X0190935Y0332133D01*
X0189734Y0332133D01*
X0189133Y0332734D01*
X0189133Y0335136D01*
X0189734Y0335736D01*
X0190935Y0335736D01*
X0191535Y0335136D01*
X0190935Y0335736D01*
X0189734Y0335736D01*
X0192816Y0335736D02*
X0194618Y0335736D01*
X0195218Y0335136D01*
X0195218Y0333935D01*
X0194618Y0333334D01*
X0192816Y0333334D01*
X0194618Y0333334D01*
X0195218Y0333935D01*
X0195218Y0335136D01*
X0194618Y0335736D01*
X0192816Y0335736D01*
X0192816Y0332133D01*
X0192816Y0335736D01*
X0196499Y0335736D02*
X0197700Y0335736D01*
X0196499Y0335736D01*
X0197100Y0335736D02*
X0197100Y0332133D01*
X0197100Y0335736D01*
X0198955Y0335136D02*
X0198955Y0332734D01*
X0199555Y0332133D01*
X0200756Y0332133D01*
X0201357Y0332734D01*
X0201357Y0335136D01*
X0200756Y0335736D01*
X0199555Y0335736D01*
X0198955Y0335136D01*
X0198955Y0332734D01*
X0199555Y0332133D01*
X0200756Y0332133D01*
X0201357Y0332734D01*
X0201357Y0335136D01*
X0200756Y0335736D01*
X0199555Y0335736D01*
X0198955Y0335136D01*
X0197700Y0332133D02*
X0196499Y0332133D01*
X0197700Y0332133D01*
X0202638Y0332734D02*
X0205040Y0335136D01*
X0205040Y0332734D01*
X0204439Y0332133D01*
X0203238Y0332133D01*
X0202638Y0332734D01*
X0202638Y0335136D01*
X0203238Y0335736D01*
X0204439Y0335736D01*
X0205040Y0335136D01*
X0202638Y0332734D01*
X0203238Y0332133D01*
X0204439Y0332133D01*
X0205040Y0332734D01*
X0205040Y0335136D01*
X0204439Y0335736D01*
X0203238Y0335736D01*
X0202638Y0335136D01*
X0202638Y0332734D01*
X0206321Y0332734D02*
X0206922Y0332133D01*
X0208123Y0332133D01*
X0208723Y0332734D01*
X0208723Y0333334D01*
X0208123Y0333935D01*
X0207522Y0333935D01*
X0208123Y0333935D01*
X0208723Y0334535D01*
X0208723Y0335136D01*
X0208123Y0335736D01*
X0206922Y0335736D01*
X0206321Y0335136D01*
X0206922Y0335736D01*
X0208123Y0335736D01*
X0208723Y0335136D01*
X0208723Y0334535D01*
X0208123Y0333935D01*
X0208723Y0333334D01*
X0208723Y0332734D01*
X0208123Y0332133D01*
X0206922Y0332133D01*
X0206321Y0332734D01*
X0206321Y0342133D02*
X0208723Y0344535D01*
X0208723Y0345136D01*
X0208723Y0342133D02*
X0206321Y0342133D01*
X0201984Y0352133D02*
X0200783Y0352133D01*
X0200183Y0352734D01*
X0198901Y0353334D02*
X0198901Y0355736D01*
X0200183Y0355136D02*
X0200783Y0355736D01*
X0201984Y0355736D01*
X0202585Y0355136D01*
X0202585Y0354535D01*
X0201984Y0353935D01*
X0202585Y0353334D01*
X0202585Y0352734D01*
X0201984Y0352133D01*
X0201984Y0353935D02*
X0201384Y0353935D01*
X0198901Y0353334D02*
X0197700Y0352133D01*
X0196499Y0353334D01*
X0196499Y0355736D01*
X0195218Y0355136D02*
X0195218Y0354535D01*
X0194618Y0353935D01*
X0195218Y0353334D01*
X0195218Y0352734D01*
X0194618Y0352133D01*
X0193417Y0352133D01*
X0192816Y0352734D01*
X0194017Y0353935D02*
X0194618Y0353935D01*
X0195218Y0355136D02*
X0194618Y0355736D01*
X0193417Y0355736D01*
X0192816Y0355136D01*
X0191535Y0353935D02*
X0189133Y0353935D01*
X0190334Y0355136D02*
X0190334Y0352734D01*
X0194734Y0310736D02*
X0194133Y0310136D01*
X0194133Y0307734D01*
X0194734Y0307133D01*
X0195935Y0307133D01*
X0196535Y0307734D01*
X0196535Y0308935D01*
X0195334Y0308935D01*
X0196535Y0310136D02*
X0195935Y0310736D01*
X0194734Y0310736D01*
X0197816Y0310736D02*
X0200218Y0307133D01*
X0200218Y0310736D01*
X0201499Y0310736D02*
X0203301Y0310736D01*
X0203901Y0310136D01*
X0203901Y0307734D01*
X0203301Y0307133D01*
X0201499Y0307133D01*
X0201499Y0310736D01*
X0197816Y0310736D02*
X0197816Y0307133D01*
X0200156Y0305736D02*
X0200156Y0302133D01*
X0198955Y0302133D02*
X0201357Y0302133D01*
X0202638Y0302133D02*
X0205040Y0302133D01*
X0203839Y0302133D02*
X0203839Y0305736D01*
X0202638Y0304535D01*
X0200156Y0305736D02*
X0198955Y0304535D01*
X0197674Y0301533D02*
X0195272Y0301533D01*
X0194017Y0302133D02*
X0192816Y0302133D01*
X0193417Y0302133D02*
X0193417Y0305736D01*
X0194017Y0305736D02*
X0192816Y0305736D01*
X0191535Y0305136D02*
X0191535Y0303935D01*
X0190935Y0303334D01*
X0189133Y0303334D01*
X0189133Y0302133D02*
X0189133Y0305736D01*
X0190935Y0305736D01*
X0191535Y0305136D01*
X0190935Y0295736D02*
X0191535Y0295136D01*
X0191535Y0293935D01*
X0190935Y0293334D01*
X0189133Y0293334D01*
X0189133Y0292133D02*
X0189133Y0295736D01*
X0190935Y0295736D01*
X0192816Y0295736D02*
X0194017Y0295736D01*
X0193417Y0295736D02*
X0193417Y0292133D01*
X0194017Y0292133D02*
X0192816Y0292133D01*
X0195272Y0291533D02*
X0197674Y0291533D01*
X0198955Y0292133D02*
X0201357Y0292133D01*
X0200156Y0292133D02*
X0200156Y0295736D01*
X0198955Y0294535D01*
X0202638Y0295136D02*
X0203238Y0295736D01*
X0204439Y0295736D01*
X0205040Y0295136D01*
X0205040Y0294535D01*
X0204439Y0293935D01*
X0205040Y0293334D01*
X0205040Y0292734D01*
X0204439Y0292133D01*
X0203238Y0292133D01*
X0202638Y0292734D01*
X0203839Y0293935D02*
X0204439Y0293935D01*
X0205040Y0285736D02*
X0202638Y0285736D01*
X0202638Y0283935D01*
X0203839Y0284535D01*
X0204439Y0284535D01*
X0205040Y0283935D01*
X0205040Y0282734D01*
X0204439Y0282133D01*
X0203238Y0282133D01*
X0202638Y0282734D01*
X0201357Y0282133D02*
X0198955Y0282133D01*
X0200156Y0282133D02*
X0200156Y0285736D01*
X0198955Y0284535D01*
X0197674Y0281533D02*
X0195272Y0281533D01*
X0194017Y0282133D02*
X0192816Y0282133D01*
X0193417Y0282133D02*
X0193417Y0285736D01*
X0194017Y0285736D02*
X0192816Y0285736D01*
X0191535Y0285136D02*
X0191535Y0283935D01*
X0190935Y0283334D01*
X0189133Y0283334D01*
X0189133Y0282133D02*
X0189133Y0285736D01*
X0190935Y0285736D01*
X0191535Y0285136D01*
X0193417Y0275736D02*
X0192816Y0275136D01*
X0193417Y0275736D02*
X0194618Y0275736D01*
X0195218Y0275136D01*
X0195218Y0274535D01*
X0194618Y0273935D01*
X0195218Y0273334D01*
X0195218Y0272734D01*
X0194618Y0272133D01*
X0193417Y0272133D01*
X0192816Y0272734D01*
X0194017Y0273935D02*
X0194618Y0273935D01*
X0196499Y0273334D02*
X0197700Y0272133D01*
X0198901Y0273334D01*
X0198901Y0275736D01*
X0200183Y0275136D02*
X0200783Y0275736D01*
X0201984Y0275736D01*
X0202585Y0275136D01*
X0202585Y0274535D01*
X0201984Y0273935D01*
X0202585Y0273334D01*
X0202585Y0272734D01*
X0201984Y0272133D01*
X0200783Y0272133D01*
X0200183Y0272734D01*
X0201384Y0273935D02*
X0201984Y0273935D01*
X0196499Y0273334D02*
X0196499Y0275736D01*
X0191535Y0273935D02*
X0189133Y0273935D01*
X0190334Y0275136D02*
X0190334Y0272734D01*
X0189734Y0265736D02*
X0189133Y0265136D01*
X0189133Y0262734D01*
X0189734Y0262133D01*
X0190935Y0262133D01*
X0191535Y0262734D01*
X0191535Y0263935D01*
X0190334Y0263935D01*
X0191535Y0265136D02*
X0190935Y0265736D01*
X0189734Y0265736D01*
X0192816Y0265736D02*
X0194618Y0265736D01*
X0195218Y0265136D01*
X0195218Y0263935D01*
X0194618Y0263334D01*
X0192816Y0263334D01*
X0192816Y0262133D02*
X0192816Y0265736D01*
X0196499Y0265736D02*
X0197700Y0265736D01*
X0197100Y0265736D02*
X0197100Y0262133D01*
X0197700Y0262133D02*
X0196499Y0262133D01*
X0198955Y0262734D02*
X0199555Y0262133D01*
X0200756Y0262133D01*
X0201357Y0262734D01*
X0201357Y0265136D01*
X0200756Y0265736D01*
X0199555Y0265736D01*
X0198955Y0265136D01*
X0198955Y0262734D01*
X0202638Y0262133D02*
X0205040Y0262133D01*
X0203839Y0262133D02*
X0203839Y0265736D01*
X0202638Y0264535D01*
X0206321Y0265136D02*
X0206922Y0265736D01*
X0208123Y0265736D01*
X0208723Y0265136D01*
X0206321Y0262734D01*
X0206922Y0262133D01*
X0208123Y0262133D01*
X0208723Y0262734D01*
X0208723Y0265136D01*
X0206321Y0265136D02*
X0206321Y0262734D01*
X0206922Y0255736D02*
X0206321Y0255136D01*
X0206321Y0254535D01*
X0206922Y0253935D01*
X0208723Y0253935D01*
X0208723Y0255136D02*
X0208123Y0255736D01*
X0206922Y0255736D01*
X0208723Y0255136D02*
X0208723Y0252734D01*
X0208123Y0252133D01*
X0206922Y0252133D01*
X0206321Y0252734D01*
X0205040Y0252734D02*
X0205040Y0255136D01*
X0202638Y0252734D01*
X0203238Y0252133D01*
X0204439Y0252133D01*
X0205040Y0252734D01*
X0205040Y0255136D02*
X0204439Y0255736D01*
X0203238Y0255736D01*
X0202638Y0255136D01*
X0202638Y0252734D01*
X0201357Y0252734D02*
X0201357Y0255136D01*
X0200756Y0255736D01*
X0199555Y0255736D01*
X0198955Y0255136D01*
X0198955Y0252734D01*
X0199555Y0252133D01*
X0200756Y0252133D01*
X0201357Y0252734D01*
X0197700Y0252133D02*
X0196499Y0252133D01*
X0197100Y0252133D02*
X0197100Y0255736D01*
X0197700Y0255736D02*
X0196499Y0255736D01*
X0195218Y0255136D02*
X0195218Y0253935D01*
X0194618Y0253334D01*
X0192816Y0253334D01*
X0192816Y0252133D02*
X0192816Y0255736D01*
X0194618Y0255736D01*
X0195218Y0255136D01*
X0191535Y0255136D02*
X0190935Y0255736D01*
X0189734Y0255736D01*
X0189133Y0255136D01*
X0189133Y0252734D01*
X0189734Y0252133D01*
X0190935Y0252133D01*
X0191535Y0252734D01*
X0191535Y0253935D01*
X0190334Y0253935D01*
X0189734Y0245736D02*
X0189133Y0245136D01*
X0189133Y0242734D01*
X0189734Y0242133D01*
X0190935Y0242133D01*
X0191535Y0242734D01*
X0191535Y0243935D01*
X0190334Y0243935D01*
X0191535Y0243935D01*
X0191535Y0242734D01*
X0190935Y0242133D01*
X0189734Y0242133D01*
X0189133Y0242734D01*
X0189133Y0245136D01*
X0189734Y0245736D01*
X0190935Y0245736D01*
X0191535Y0245136D01*
X0190935Y0245736D01*
X0189734Y0245736D01*
X0192816Y0245736D02*
X0194618Y0245736D01*
X0195218Y0245136D01*
X0195218Y0243935D01*
X0194618Y0243334D01*
X0192816Y0243334D01*
X0194618Y0243334D01*
X0195218Y0243935D01*
X0195218Y0245136D01*
X0194618Y0245736D01*
X0192816Y0245736D01*
X0192816Y0242133D01*
X0192816Y0245736D01*
X0196499Y0245736D02*
X0197700Y0245736D01*
X0196499Y0245736D01*
X0197100Y0245736D02*
X0197100Y0242133D01*
X0197100Y0245736D01*
X0198955Y0245136D02*
X0198955Y0242734D01*
X0199555Y0242133D01*
X0200756Y0242133D01*
X0201357Y0242734D01*
X0201357Y0245136D01*
X0200756Y0245736D01*
X0199555Y0245736D01*
X0198955Y0245136D01*
X0198955Y0242734D01*
X0199555Y0242133D01*
X0200756Y0242133D01*
X0201357Y0242734D01*
X0201357Y0245136D01*
X0200756Y0245736D01*
X0199555Y0245736D01*
X0198955Y0245136D01*
X0197700Y0242133D02*
X0196499Y0242133D01*
X0197700Y0242133D01*
X0202638Y0242133D02*
X0205040Y0242133D01*
X0202638Y0242133D01*
X0203839Y0242133D02*
X0203839Y0245736D01*
X0202638Y0244535D01*
X0203839Y0245736D01*
X0203839Y0242133D01*
X0206321Y0242133D02*
X0208723Y0242133D01*
X0206321Y0242133D01*
X0207522Y0242133D02*
X0207522Y0245736D01*
X0206321Y0244535D01*
X0207522Y0245736D01*
X0207522Y0242133D01*
X0198901Y0235136D02*
X0198301Y0235736D01*
X0196499Y0235736D01*
X0196499Y0232133D01*
X0198301Y0232133D01*
X0198901Y0232734D01*
X0198901Y0235136D01*
X0195218Y0235736D02*
X0195218Y0232133D01*
X0192816Y0235736D01*
X0192816Y0232133D01*
X0191535Y0232734D02*
X0191535Y0233935D01*
X0190334Y0233935D01*
X0189133Y0235136D02*
X0189133Y0232734D01*
X0189734Y0232133D01*
X0190935Y0232133D01*
X0191535Y0232734D01*
X0191535Y0235136D02*
X0190935Y0235736D01*
X0189734Y0235736D01*
X0189133Y0235136D01*
X0189133Y0225736D02*
X0190935Y0225736D01*
X0191535Y0225136D01*
X0191535Y0223935D01*
X0190935Y0223334D01*
X0189133Y0223334D01*
X0189133Y0222133D02*
X0189133Y0225736D01*
X0192816Y0225736D02*
X0194017Y0225736D01*
X0193417Y0225736D02*
X0193417Y0222133D01*
X0194017Y0222133D02*
X0192816Y0222133D01*
X0195272Y0221533D02*
X0197674Y0221533D01*
X0198955Y0222133D02*
X0201357Y0224535D01*
X0201357Y0225136D01*
X0200756Y0225736D01*
X0199555Y0225736D01*
X0198955Y0225136D01*
X0198955Y0222133D02*
X0201357Y0222133D01*
X0202638Y0222133D02*
X0202638Y0222734D01*
X0205040Y0225136D01*
X0205040Y0225736D01*
X0202638Y0225736D01*
X0203238Y0215736D02*
X0202638Y0215136D01*
X0202638Y0214535D01*
X0203238Y0213935D01*
X0205040Y0213935D01*
X0205040Y0212734D02*
X0205040Y0215136D01*
X0204439Y0215736D01*
X0203238Y0215736D01*
X0201357Y0215136D02*
X0201357Y0214535D01*
X0198955Y0212133D01*
X0201357Y0212133D01*
X0202638Y0212734D02*
X0203238Y0212133D01*
X0204439Y0212133D01*
X0205040Y0212734D01*
X0201357Y0215136D02*
X0200756Y0215736D01*
X0199555Y0215736D01*
X0198955Y0215136D01*
X0197674Y0211533D02*
X0195272Y0211533D01*
X0194017Y0212133D02*
X0192816Y0212133D01*
X0193417Y0212133D02*
X0193417Y0215736D01*
X0194017Y0215736D02*
X0192816Y0215736D01*
X0191535Y0215136D02*
X0191535Y0213935D01*
X0190935Y0213334D01*
X0189133Y0213334D01*
X0189133Y0212133D02*
X0189133Y0215736D01*
X0190935Y0215736D01*
X0191535Y0215136D01*
X0190935Y0205736D02*
X0191535Y0205136D01*
X0191535Y0203935D01*
X0190935Y0203334D01*
X0189133Y0203334D01*
X0189133Y0202133D02*
X0189133Y0205736D01*
X0190935Y0205736D01*
X0192816Y0205736D02*
X0194017Y0205736D01*
X0193417Y0205736D02*
X0193417Y0202133D01*
X0194017Y0202133D02*
X0192816Y0202133D01*
X0195272Y0201533D02*
X0197674Y0201533D01*
X0198955Y0202734D02*
X0199555Y0202133D01*
X0200756Y0202133D01*
X0201357Y0202734D01*
X0201357Y0203334D01*
X0200756Y0203935D01*
X0200156Y0203935D01*
X0200756Y0203935D02*
X0201357Y0204535D01*
X0201357Y0205136D01*
X0200756Y0205736D01*
X0199555Y0205736D01*
X0198955Y0205136D01*
X0202638Y0204535D02*
X0203839Y0205736D01*
X0203839Y0202133D01*
X0202638Y0202133D02*
X0205040Y0202133D01*
X0203839Y0195736D02*
X0203839Y0192133D01*
X0202638Y0192133D02*
X0205040Y0192133D01*
X0206321Y0192734D02*
X0206922Y0192133D01*
X0208123Y0192133D01*
X0208723Y0192734D01*
X0208723Y0193334D01*
X0208123Y0193935D01*
X0207522Y0193935D01*
X0208123Y0193935D02*
X0208723Y0194535D01*
X0208723Y0195136D01*
X0208123Y0195736D01*
X0206922Y0195736D01*
X0206321Y0195136D01*
X0203839Y0195736D02*
X0202638Y0194535D01*
X0201357Y0195136D02*
X0201357Y0192734D01*
X0200756Y0192133D01*
X0199555Y0192133D01*
X0198955Y0192734D01*
X0198955Y0195136D01*
X0199555Y0195736D01*
X0200756Y0195736D01*
X0201357Y0195136D01*
X0197700Y0195736D02*
X0196499Y0195736D01*
X0197100Y0195736D02*
X0197100Y0192133D01*
X0197700Y0192133D02*
X0196499Y0192133D01*
X0195218Y0193935D02*
X0194618Y0193334D01*
X0192816Y0193334D01*
X0192816Y0192133D02*
X0192816Y0195736D01*
X0194618Y0195736D01*
X0195218Y0195136D01*
X0195218Y0193935D01*
X0191535Y0193935D02*
X0191535Y0192734D01*
X0190935Y0192133D01*
X0189734Y0192133D01*
X0189133Y0192734D01*
X0189133Y0195136D01*
X0189734Y0195736D01*
X0190935Y0195736D01*
X0191535Y0195136D01*
X0191535Y0193935D02*
X0190334Y0193935D01*
X0189734Y0185736D02*
X0189133Y0185136D01*
X0189133Y0182734D01*
X0189734Y0182133D01*
X0190935Y0182133D01*
X0191535Y0182734D01*
X0191535Y0183935D01*
X0190334Y0183935D01*
X0191535Y0185136D02*
X0190935Y0185736D01*
X0189734Y0185736D01*
X0192816Y0185736D02*
X0194618Y0185736D01*
X0195218Y0185136D01*
X0195218Y0183935D01*
X0194618Y0183334D01*
X0192816Y0183334D01*
X0192816Y0182133D02*
X0192816Y0185736D01*
X0196499Y0185736D02*
X0197700Y0185736D01*
X0197100Y0185736D02*
X0197100Y0182133D01*
X0197700Y0182133D02*
X0196499Y0182133D01*
X0198955Y0182734D02*
X0198955Y0185136D01*
X0199555Y0185736D01*
X0200756Y0185736D01*
X0201357Y0185136D01*
X0201357Y0182734D01*
X0200756Y0182133D01*
X0199555Y0182133D01*
X0198955Y0182734D01*
X0202638Y0182133D02*
X0205040Y0182133D01*
X0203839Y0182133D02*
X0203839Y0185736D01*
X0202638Y0184535D01*
X0206321Y0184535D02*
X0206321Y0185136D01*
X0206922Y0185736D01*
X0208123Y0185736D01*
X0208723Y0185136D01*
X0208723Y0182734D01*
X0208123Y0182133D01*
X0206922Y0182133D01*
X0206321Y0182734D01*
X0206922Y0183935D02*
X0208723Y0183935D01*
X0206922Y0183935D02*
X0206321Y0184535D01*
X0205040Y0175736D02*
X0205040Y0175136D01*
X0202638Y0172734D01*
X0202638Y0172133D01*
X0201357Y0172734D02*
X0200756Y0172133D01*
X0199555Y0172133D01*
X0198955Y0172734D01*
X0200156Y0173935D02*
X0200756Y0173935D01*
X0201357Y0173334D01*
X0201357Y0172734D01*
X0200756Y0173935D02*
X0201357Y0174535D01*
X0201357Y0175136D01*
X0200756Y0175736D01*
X0199555Y0175736D01*
X0198955Y0175136D01*
X0202638Y0175736D02*
X0205040Y0175736D01*
X0197674Y0171533D02*
X0195272Y0171533D01*
X0194017Y0172133D02*
X0192816Y0172133D01*
X0193417Y0172133D02*
X0193417Y0175736D01*
X0194017Y0175736D02*
X0192816Y0175736D01*
X0191535Y0175136D02*
X0191535Y0173935D01*
X0190935Y0173334D01*
X0189133Y0173334D01*
X0189133Y0172133D02*
X0189133Y0175736D01*
X0190935Y0175736D01*
X0191535Y0175136D01*
X0190935Y0165736D02*
X0189734Y0165736D01*
X0189133Y0165136D01*
X0189133Y0162734D01*
X0189734Y0162133D01*
X0190935Y0162133D01*
X0191535Y0162734D01*
X0191535Y0163935D01*
X0190334Y0163935D01*
X0191535Y0165136D02*
X0190935Y0165736D01*
X0192816Y0165736D02*
X0195218Y0162133D01*
X0195218Y0165736D01*
X0196499Y0165736D02*
X0198301Y0165736D01*
X0198901Y0165136D01*
X0198901Y0162734D01*
X0198301Y0162133D01*
X0196499Y0162133D01*
X0196499Y0165736D01*
X0192816Y0165736D02*
X0192816Y0162133D01*
X0234133Y0162734D02*
X0234734Y0162133D01*
X0235935Y0162133D01*
X0236535Y0162734D01*
X0236535Y0163935D01*
X0235334Y0163935D01*
X0234133Y0165136D02*
X0234133Y0162734D01*
X0234133Y0165136D02*
X0234734Y0165736D01*
X0235935Y0165736D01*
X0236535Y0165136D01*
X0237816Y0165736D02*
X0239618Y0165736D01*
X0240218Y0165136D01*
X0240218Y0163935D01*
X0239618Y0163334D01*
X0237816Y0163334D01*
X0237816Y0162133D02*
X0237816Y0165736D01*
X0241499Y0165736D02*
X0242700Y0165736D01*
X0242100Y0165736D02*
X0242100Y0162133D01*
X0242700Y0162133D02*
X0241499Y0162133D01*
X0243955Y0162734D02*
X0243955Y0165136D01*
X0244555Y0165736D01*
X0245756Y0165736D01*
X0246357Y0165136D01*
X0246357Y0162734D01*
X0245756Y0162133D01*
X0244555Y0162133D01*
X0243955Y0162734D01*
X0247638Y0162133D02*
X0250040Y0164535D01*
X0250040Y0165136D01*
X0249439Y0165736D01*
X0248238Y0165736D01*
X0247638Y0165136D01*
X0247638Y0162133D02*
X0250040Y0162133D01*
X0251321Y0162133D02*
X0253723Y0162133D01*
X0252522Y0162133D02*
X0252522Y0165736D01*
X0251321Y0164535D01*
X0251922Y0172133D02*
X0251321Y0172734D01*
X0253723Y0175136D01*
X0253723Y0172734D01*
X0253123Y0172133D01*
X0251922Y0172133D01*
X0251321Y0172734D02*
X0251321Y0175136D01*
X0251922Y0175736D01*
X0253123Y0175736D01*
X0253723Y0175136D01*
X0250040Y0175136D02*
X0249439Y0175736D01*
X0248238Y0175736D01*
X0247638Y0175136D01*
X0246357Y0175136D02*
X0245756Y0175736D01*
X0244555Y0175736D01*
X0243955Y0175136D01*
X0243955Y0172734D01*
X0244555Y0172133D01*
X0245756Y0172133D01*
X0246357Y0172734D01*
X0246357Y0175136D01*
X0247638Y0172133D02*
X0250040Y0174535D01*
X0250040Y0175136D01*
X0250040Y0172133D02*
X0247638Y0172133D01*
X0242700Y0172133D02*
X0241499Y0172133D01*
X0242100Y0172133D02*
X0242100Y0175736D01*
X0242700Y0175736D02*
X0241499Y0175736D01*
X0240218Y0175136D02*
X0240218Y0173935D01*
X0239618Y0173334D01*
X0237816Y0173334D01*
X0237816Y0172133D02*
X0237816Y0175736D01*
X0239618Y0175736D01*
X0240218Y0175136D01*
X0236535Y0175136D02*
X0235935Y0175736D01*
X0234734Y0175736D01*
X0234133Y0175136D01*
X0234133Y0172734D01*
X0234734Y0172133D01*
X0235935Y0172133D01*
X0236535Y0172734D01*
X0236535Y0173935D01*
X0235334Y0173935D01*
X0234133Y0182133D02*
X0234133Y0185736D01*
X0235935Y0185736D01*
X0236535Y0185136D01*
X0236535Y0183935D01*
X0235935Y0183334D01*
X0234133Y0183334D01*
X0237816Y0182133D02*
X0239017Y0182133D01*
X0238417Y0182133D02*
X0238417Y0185736D01*
X0239017Y0185736D02*
X0237816Y0185736D01*
X0240272Y0181533D02*
X0242674Y0181533D01*
X0243955Y0182734D02*
X0244555Y0182133D01*
X0245756Y0182133D01*
X0246357Y0182734D01*
X0246357Y0183334D01*
X0245756Y0183935D01*
X0245156Y0183935D01*
X0245756Y0183935D02*
X0246357Y0184535D01*
X0246357Y0185136D01*
X0245756Y0185736D01*
X0244555Y0185736D01*
X0243955Y0185136D01*
X0247638Y0183935D02*
X0249439Y0183935D01*
X0250040Y0183334D01*
X0250040Y0182734D01*
X0249439Y0182133D01*
X0248238Y0182133D01*
X0247638Y0182734D01*
X0247638Y0183935D01*
X0248839Y0185136D01*
X0250040Y0185736D01*
X0243301Y0192133D02*
X0243901Y0192734D01*
X0243901Y0195136D01*
X0243301Y0195736D01*
X0241499Y0195736D01*
X0241499Y0192133D01*
X0243301Y0192133D01*
X0240218Y0192133D02*
X0240218Y0195736D01*
X0237816Y0195736D02*
X0237816Y0192133D01*
X0236535Y0192734D02*
X0236535Y0193935D01*
X0235334Y0193935D01*
X0234133Y0195136D02*
X0234133Y0192734D01*
X0234734Y0192133D01*
X0235935Y0192133D01*
X0236535Y0192734D01*
X0236535Y0195136D02*
X0235935Y0195736D01*
X0234734Y0195736D01*
X0234133Y0195136D01*
X0237816Y0195736D02*
X0240218Y0192133D01*
X0257549Y0223935D02*
X0259951Y0223935D01*
X0245756Y0242133D02*
X0246357Y0242734D01*
X0246357Y0245136D01*
X0245756Y0245736D01*
X0244555Y0245736D01*
X0243955Y0245136D01*
X0243955Y0242734D01*
X0244555Y0242133D01*
X0245756Y0242133D01*
X0242700Y0242133D02*
X0241499Y0242133D01*
X0242100Y0242133D02*
X0242100Y0245736D01*
X0242700Y0245736D02*
X0241499Y0245736D01*
X0240218Y0245136D02*
X0240218Y0243935D01*
X0239618Y0243334D01*
X0237816Y0243334D01*
X0237816Y0242133D02*
X0237816Y0245736D01*
X0239618Y0245736D01*
X0240218Y0245136D01*
X0236535Y0245136D02*
X0235935Y0245736D01*
X0234734Y0245736D01*
X0234133Y0245136D01*
X0234133Y0242734D01*
X0234734Y0242133D01*
X0235935Y0242133D01*
X0236535Y0242734D01*
X0236535Y0243935D01*
X0235334Y0243935D01*
X0254133Y0262133D02*
X0254133Y0265736D01*
X0255935Y0265736D01*
X0256535Y0265136D01*
X0256535Y0263935D01*
X0255935Y0263334D01*
X0254133Y0263334D01*
X0257816Y0262133D02*
X0259017Y0263334D01*
X0260218Y0262133D01*
X0260218Y0265736D01*
X0261499Y0265736D02*
X0262700Y0264535D01*
X0263901Y0265736D01*
X0263901Y0262133D01*
X0265183Y0261533D02*
X0267585Y0261533D01*
X0268866Y0262133D02*
X0271268Y0264535D01*
X0271268Y0265136D01*
X0270667Y0265736D01*
X0269466Y0265736D01*
X0268866Y0265136D01*
X0268866Y0262133D02*
X0271268Y0262133D01*
X0261499Y0262133D02*
X0261499Y0265736D01*
X0257816Y0265736D02*
X0257816Y0262133D01*
X0257816Y0272133D02*
X0259017Y0273334D01*
X0260218Y0272133D01*
X0260218Y0275736D01*
X0261499Y0275736D02*
X0262700Y0274535D01*
X0263901Y0275736D01*
X0263901Y0272133D01*
X0265183Y0271533D02*
X0267585Y0271533D01*
X0268866Y0272133D02*
X0271268Y0272133D01*
X0270067Y0272133D02*
X0270067Y0275736D01*
X0268866Y0274535D01*
X0261499Y0275736D02*
X0261499Y0272133D01*
X0257816Y0272133D02*
X0257816Y0275736D01*
X0256535Y0275136D02*
X0256535Y0273935D01*
X0255935Y0273334D01*
X0254133Y0273334D01*
X0254133Y0272133D02*
X0254133Y0275736D01*
X0255935Y0275736D01*
X0256535Y0275136D01*
X0250040Y0275136D02*
X0250040Y0274535D01*
X0249439Y0273935D01*
X0248238Y0273935D01*
X0247638Y0274535D01*
X0247638Y0275136D01*
X0248238Y0275736D01*
X0249439Y0275736D01*
X0250040Y0275136D01*
X0249439Y0273935D02*
X0250040Y0273334D01*
X0250040Y0272734D01*
X0249439Y0272133D01*
X0248238Y0272133D01*
X0247638Y0272734D01*
X0247638Y0273334D01*
X0248238Y0273935D01*
X0246357Y0272133D02*
X0243955Y0272133D01*
X0245156Y0272133D02*
X0245156Y0275736D01*
X0243955Y0274535D01*
X0142050Y0265736D02*
X0139648Y0263334D01*
X0140248Y0263935D02*
X0142050Y0262133D01*
X0139648Y0262133D02*
X0139648Y0265736D01*
X0135965Y0265736D02*
X0135965Y0262133D01*
X0138367Y0262133D01*
X0134683Y0262734D02*
X0134083Y0262133D01*
X0132882Y0262133D01*
X0132281Y0262734D01*
X0132281Y0265136D01*
X0132882Y0265736D01*
X0134083Y0265736D01*
X0134683Y0265136D01*
X0131000Y0265136D02*
X0130400Y0265736D01*
X0129199Y0265736D01*
X0128598Y0265136D01*
X0128598Y0264535D01*
X0129199Y0263935D01*
X0130400Y0263935D01*
X0131000Y0263334D01*
X0131000Y0262734D01*
X0130400Y0262133D01*
X0129199Y0262133D01*
X0128598Y0262734D01*
X0127317Y0261533D02*
X0124915Y0261533D01*
X0123634Y0262734D02*
X0123033Y0262133D01*
X0121232Y0262133D01*
X0121232Y0265736D01*
X0123033Y0265736D01*
X0123634Y0265136D01*
X0123634Y0264535D01*
X0123033Y0263935D01*
X0121232Y0263935D01*
X0123033Y0263935D02*
X0123634Y0263334D01*
X0123634Y0262734D01*
X0119951Y0261533D02*
X0117549Y0261533D01*
X0115067Y0262133D02*
X0115067Y0265736D01*
X0113866Y0265736D02*
X0116268Y0265736D01*
X0112585Y0265136D02*
X0112585Y0263935D01*
X0111984Y0263334D01*
X0110183Y0263334D01*
X0111384Y0263334D02*
X0112585Y0262133D01*
X0110183Y0262133D02*
X0110183Y0265736D01*
X0111984Y0265736D01*
X0112585Y0265136D01*
X0108901Y0264535D02*
X0108901Y0262133D01*
X0108901Y0263935D02*
X0106499Y0263935D01*
X0106499Y0264535D02*
X0107700Y0265736D01*
X0108901Y0264535D01*
X0106499Y0264535D02*
X0106499Y0262133D01*
X0105218Y0262734D02*
X0104618Y0262133D01*
X0103417Y0262133D01*
X0102816Y0262734D01*
X0101535Y0262734D02*
X0101535Y0265736D01*
X0102816Y0265136D02*
X0102816Y0264535D01*
X0103417Y0263935D01*
X0104618Y0263935D01*
X0105218Y0263334D01*
X0105218Y0262734D01*
X0105218Y0265136D02*
X0104618Y0265736D01*
X0103417Y0265736D01*
X0102816Y0265136D01*
X0101535Y0262734D02*
X0100935Y0262133D01*
X0099734Y0262133D01*
X0099133Y0262734D01*
X0099133Y0265736D01*
X0099133Y0255736D02*
X0099133Y0252734D01*
X0099734Y0252133D01*
X0100935Y0252133D01*
X0101535Y0252734D01*
X0101535Y0255736D01*
X0102816Y0255136D02*
X0102816Y0254535D01*
X0103417Y0253935D01*
X0104618Y0253935D01*
X0105218Y0253334D01*
X0105218Y0252734D01*
X0104618Y0252133D01*
X0103417Y0252133D01*
X0102816Y0252734D01*
X0102816Y0255136D02*
X0103417Y0255736D01*
X0104618Y0255736D01*
X0105218Y0255136D01*
X0106499Y0254535D02*
X0107700Y0255736D01*
X0108901Y0254535D01*
X0108901Y0252133D01*
X0110183Y0252133D02*
X0110183Y0255736D01*
X0111984Y0255736D01*
X0112585Y0255136D01*
X0112585Y0253935D01*
X0111984Y0253334D01*
X0110183Y0253334D01*
X0111384Y0253334D02*
X0112585Y0252133D01*
X0115067Y0252133D02*
X0115067Y0255736D01*
X0113866Y0255736D02*
X0116268Y0255736D01*
X0117549Y0251533D02*
X0119951Y0251533D01*
X0121232Y0252133D02*
X0123033Y0252133D01*
X0123634Y0252734D01*
X0123634Y0253334D01*
X0123033Y0253935D01*
X0121232Y0253935D01*
X0121232Y0255736D02*
X0123033Y0255736D01*
X0123634Y0255136D01*
X0123634Y0254535D01*
X0123033Y0253935D01*
X0121232Y0255736D02*
X0121232Y0252133D01*
X0124915Y0251533D02*
X0127317Y0251533D01*
X0128598Y0252133D02*
X0128598Y0255736D01*
X0130400Y0255736D01*
X0131000Y0255136D01*
X0131000Y0253935D01*
X0130400Y0253334D01*
X0128598Y0253334D01*
X0129799Y0253334D02*
X0131000Y0252133D01*
X0132281Y0252133D02*
X0134683Y0255736D01*
X0132281Y0255736D02*
X0134683Y0252133D01*
X0134683Y0245736D02*
X0132281Y0242133D01*
X0134683Y0242133D02*
X0132281Y0245736D01*
X0131000Y0245736D02*
X0128598Y0245736D01*
X0129799Y0245736D02*
X0129799Y0242133D01*
X0127317Y0241533D02*
X0124915Y0241533D01*
X0123634Y0242734D02*
X0123033Y0242133D01*
X0121232Y0242133D01*
X0121232Y0245736D01*
X0123033Y0245736D01*
X0123634Y0245136D01*
X0123634Y0244535D01*
X0123033Y0243935D01*
X0121232Y0243935D01*
X0123033Y0243935D02*
X0123634Y0243334D01*
X0123634Y0242734D01*
X0119951Y0241533D02*
X0117549Y0241533D01*
X0115067Y0242133D02*
X0115067Y0245736D01*
X0113866Y0245736D02*
X0116268Y0245736D01*
X0112585Y0245136D02*
X0112585Y0243935D01*
X0111984Y0243334D01*
X0110183Y0243334D01*
X0111384Y0243334D02*
X0112585Y0242133D01*
X0110183Y0242133D02*
X0110183Y0245736D01*
X0111984Y0245736D01*
X0112585Y0245136D01*
X0108901Y0244535D02*
X0108901Y0242133D01*
X0108901Y0243935D02*
X0106499Y0243935D01*
X0106499Y0244535D02*
X0107700Y0245736D01*
X0108901Y0244535D01*
X0106499Y0244535D02*
X0106499Y0242133D01*
X0105218Y0242734D02*
X0104618Y0242133D01*
X0103417Y0242133D01*
X0102816Y0242734D01*
X0101535Y0242734D02*
X0101535Y0245736D01*
X0102816Y0245136D02*
X0102816Y0244535D01*
X0103417Y0243935D01*
X0104618Y0243935D01*
X0105218Y0243334D01*
X0105218Y0242734D01*
X0105218Y0245136D02*
X0104618Y0245736D01*
X0103417Y0245736D01*
X0102816Y0245136D01*
X0101535Y0242734D02*
X0100935Y0242133D01*
X0099734Y0242133D01*
X0099133Y0242734D01*
X0099133Y0245736D01*
X0106499Y0252133D02*
X0106499Y0254535D01*
X0106499Y0253935D02*
X0108901Y0253935D01*
X0107700Y0235736D02*
X0108901Y0234535D01*
X0108901Y0232133D01*
X0110183Y0232133D02*
X0110183Y0235736D01*
X0111984Y0235736D01*
X0112585Y0235136D01*
X0112585Y0233935D01*
X0111984Y0233334D01*
X0110183Y0233334D01*
X0111384Y0233334D02*
X0112585Y0232133D01*
X0115067Y0232133D02*
X0115067Y0235736D01*
X0113866Y0235736D02*
X0116268Y0235736D01*
X0117549Y0231533D02*
X0119951Y0231533D01*
X0121232Y0232133D02*
X0123033Y0232133D01*
X0123634Y0232734D01*
X0123634Y0233334D01*
X0123033Y0233935D01*
X0121232Y0233935D01*
X0121232Y0235736D02*
X0123033Y0235736D01*
X0123634Y0235136D01*
X0123634Y0234535D01*
X0123033Y0233935D01*
X0121232Y0235736D02*
X0121232Y0232133D01*
X0124915Y0231533D02*
X0127317Y0231533D01*
X0128598Y0232133D02*
X0128598Y0235736D01*
X0130400Y0235736D01*
X0131000Y0235136D01*
X0131000Y0233935D01*
X0130400Y0233334D01*
X0128598Y0233334D01*
X0129799Y0233334D02*
X0131000Y0232133D01*
X0133482Y0232133D02*
X0133482Y0235736D01*
X0132281Y0235736D02*
X0134683Y0235736D01*
X0135965Y0235136D02*
X0135965Y0234535D01*
X0136565Y0233935D01*
X0137766Y0233935D01*
X0138367Y0233334D01*
X0138367Y0232734D01*
X0137766Y0232133D01*
X0136565Y0232133D01*
X0135965Y0232734D01*
X0135965Y0235136D02*
X0136565Y0235736D01*
X0137766Y0235736D01*
X0138367Y0235136D01*
X0137766Y0225736D02*
X0136565Y0225736D01*
X0135965Y0225136D01*
X0135965Y0224535D01*
X0136565Y0223935D01*
X0137766Y0223935D01*
X0138367Y0223334D01*
X0138367Y0222734D01*
X0137766Y0222133D01*
X0136565Y0222133D01*
X0135965Y0222734D01*
X0133482Y0222133D02*
X0133482Y0225736D01*
X0132281Y0225736D02*
X0134683Y0225736D01*
X0137766Y0225736D02*
X0138367Y0225136D01*
X0131000Y0225136D02*
X0130400Y0225736D01*
X0129199Y0225736D01*
X0128598Y0225136D01*
X0128598Y0222734D01*
X0129199Y0222133D01*
X0130400Y0222133D01*
X0131000Y0222734D01*
X0127317Y0221533D02*
X0124915Y0221533D01*
X0123634Y0222734D02*
X0123033Y0222133D01*
X0121232Y0222133D01*
X0121232Y0225736D01*
X0123033Y0225736D01*
X0123634Y0225136D01*
X0123634Y0224535D01*
X0123033Y0223935D01*
X0121232Y0223935D01*
X0123033Y0223935D02*
X0123634Y0223334D01*
X0123634Y0222734D01*
X0119951Y0221533D02*
X0117549Y0221533D01*
X0115067Y0222133D02*
X0115067Y0225736D01*
X0113866Y0225736D02*
X0116268Y0225736D01*
X0112585Y0225136D02*
X0112585Y0223935D01*
X0111984Y0223334D01*
X0110183Y0223334D01*
X0111384Y0223334D02*
X0112585Y0222133D01*
X0110183Y0222133D02*
X0110183Y0225736D01*
X0111984Y0225736D01*
X0112585Y0225136D01*
X0108901Y0224535D02*
X0108901Y0222133D01*
X0108901Y0223935D02*
X0106499Y0223935D01*
X0106499Y0224535D02*
X0107700Y0225736D01*
X0108901Y0224535D01*
X0106499Y0224535D02*
X0106499Y0222133D01*
X0105218Y0222734D02*
X0104618Y0222133D01*
X0103417Y0222133D01*
X0102816Y0222734D01*
X0101535Y0222734D02*
X0101535Y0225736D01*
X0102816Y0225136D02*
X0102816Y0224535D01*
X0103417Y0223935D01*
X0104618Y0223935D01*
X0105218Y0223334D01*
X0105218Y0222734D01*
X0105218Y0225136D02*
X0104618Y0225736D01*
X0103417Y0225736D01*
X0102816Y0225136D01*
X0101535Y0222734D02*
X0100935Y0222133D01*
X0099734Y0222133D01*
X0099133Y0222734D01*
X0099133Y0225736D01*
X0099734Y0232133D02*
X0100935Y0232133D01*
X0101535Y0232734D01*
X0101535Y0235736D01*
X0102816Y0235136D02*
X0102816Y0234535D01*
X0103417Y0233935D01*
X0104618Y0233935D01*
X0105218Y0233334D01*
X0105218Y0232734D01*
X0104618Y0232133D01*
X0103417Y0232133D01*
X0102816Y0232734D01*
X0102816Y0235136D02*
X0103417Y0235736D01*
X0104618Y0235736D01*
X0105218Y0235136D01*
X0106499Y0234535D02*
X0107700Y0235736D01*
X0106499Y0234535D02*
X0106499Y0232133D01*
X0106499Y0233935D02*
X0108901Y0233935D01*
X0099734Y0232133D02*
X0099133Y0232734D01*
X0099133Y0235736D01*
X0070218Y0235136D02*
X0070218Y0234535D01*
X0069618Y0233935D01*
X0070218Y0233334D01*
X0070218Y0232734D01*
X0069618Y0232133D01*
X0068417Y0232133D01*
X0067816Y0232734D01*
X0066535Y0232133D02*
X0066535Y0234535D01*
X0065334Y0235736D01*
X0064133Y0234535D01*
X0064133Y0232133D01*
X0064133Y0233935D02*
X0066535Y0233935D01*
X0067816Y0235136D02*
X0068417Y0235736D01*
X0069618Y0235736D01*
X0070218Y0235136D01*
X0069618Y0233935D02*
X0069017Y0233935D01*
X0069618Y0225736D02*
X0067816Y0223935D01*
X0070218Y0223935D01*
X0069618Y0225736D02*
X0069618Y0222133D01*
X0066535Y0222133D02*
X0066535Y0224535D01*
X0065334Y0225736D01*
X0064133Y0224535D01*
X0064133Y0222133D01*
X0064133Y0223935D02*
X0066535Y0223935D01*
X0065334Y0215736D02*
X0066535Y0214535D01*
X0066535Y0212133D01*
X0067816Y0212734D02*
X0068417Y0212133D01*
X0069618Y0212133D01*
X0070218Y0212734D01*
X0070218Y0213935D01*
X0069618Y0214535D01*
X0069017Y0214535D01*
X0067816Y0213935D01*
X0067816Y0215736D01*
X0070218Y0215736D01*
X0066535Y0213935D02*
X0064133Y0213935D01*
X0064133Y0214535D02*
X0065334Y0215736D01*
X0064133Y0214535D02*
X0064133Y0212133D01*
X0065156Y0185736D02*
X0065156Y0182133D01*
X0063955Y0182133D02*
X0066357Y0182133D01*
X0067638Y0182133D02*
X0070040Y0182133D01*
X0068839Y0182133D02*
X0068839Y0185736D01*
X0067638Y0184535D01*
X0065156Y0185736D02*
X0063955Y0184535D01*
X0062674Y0181533D02*
X0060272Y0181533D01*
X0059017Y0182133D02*
X0057816Y0182133D01*
X0058417Y0182133D02*
X0058417Y0185736D01*
X0059017Y0185736D02*
X0057816Y0185736D01*
X0056535Y0185136D02*
X0056535Y0183935D01*
X0055935Y0183334D01*
X0054133Y0183334D01*
X0054133Y0182133D02*
X0054133Y0185736D01*
X0055935Y0185736D01*
X0056535Y0185136D01*
X0055935Y0175736D02*
X0054133Y0175736D01*
X0054133Y0172133D01*
X0054133Y0173334D02*
X0055935Y0173334D01*
X0056535Y0173935D01*
X0056535Y0175136D01*
X0055935Y0175736D01*
X0057816Y0175736D02*
X0059017Y0175736D01*
X0058417Y0175736D02*
X0058417Y0172133D01*
X0059017Y0172133D02*
X0057816Y0172133D01*
X0060272Y0171533D02*
X0062674Y0171533D01*
X0063955Y0172133D02*
X0066357Y0172133D01*
X0065156Y0172133D02*
X0065156Y0175736D01*
X0063955Y0174535D01*
X0067638Y0175136D02*
X0068238Y0175736D01*
X0069439Y0175736D01*
X0070040Y0175136D01*
X0070040Y0174535D01*
X0069439Y0173935D01*
X0070040Y0173334D01*
X0070040Y0172734D01*
X0069439Y0172133D01*
X0068238Y0172133D01*
X0067638Y0172734D01*
X0068839Y0173935D02*
X0069439Y0173935D01*
X0070040Y0165736D02*
X0067638Y0165736D01*
X0067638Y0163935D01*
X0068839Y0164535D01*
X0069439Y0164535D01*
X0070040Y0163935D01*
X0070040Y0162734D01*
X0069439Y0162133D01*
X0068238Y0162133D01*
X0067638Y0162734D01*
X0066357Y0162133D02*
X0063955Y0162133D01*
X0065156Y0162133D02*
X0065156Y0165736D01*
X0063955Y0164535D01*
X0062674Y0161533D02*
X0060272Y0161533D01*
X0059017Y0162133D02*
X0057816Y0162133D01*
X0058417Y0162133D02*
X0058417Y0165736D01*
X0059017Y0165736D02*
X0057816Y0165736D01*
X0056535Y0165136D02*
X0056535Y0163935D01*
X0055935Y0163334D01*
X0054133Y0163334D01*
X0054133Y0162133D02*
X0054133Y0165736D01*
X0055935Y0165736D01*
X0056535Y0165136D01*
X0055935Y0155736D02*
X0054133Y0155736D01*
X0054133Y0152133D01*
X0054133Y0153334D02*
X0055935Y0153334D01*
X0056535Y0153935D01*
X0056535Y0155136D01*
X0055935Y0155736D01*
X0057816Y0155736D02*
X0059017Y0155736D01*
X0058417Y0155736D02*
X0058417Y0152133D01*
X0059017Y0152133D02*
X0057816Y0152133D01*
X0060272Y0151533D02*
X0062674Y0151533D01*
X0063955Y0152133D02*
X0066357Y0154535D01*
X0066357Y0155136D01*
X0065756Y0155736D01*
X0064555Y0155736D01*
X0063955Y0155136D01*
X0063955Y0152133D02*
X0066357Y0152133D01*
X0067638Y0152133D02*
X0067638Y0152734D01*
X0070040Y0155136D01*
X0070040Y0155736D01*
X0067638Y0155736D01*
X0068238Y0145736D02*
X0067638Y0145136D01*
X0067638Y0144535D01*
X0068238Y0143935D01*
X0070040Y0143935D01*
X0070040Y0145136D02*
X0069439Y0145736D01*
X0068238Y0145736D01*
X0070040Y0145136D02*
X0070040Y0142734D01*
X0069439Y0142133D01*
X0068238Y0142133D01*
X0067638Y0142734D01*
X0066357Y0142133D02*
X0063955Y0142133D01*
X0066357Y0144535D01*
X0066357Y0145136D01*
X0065756Y0145736D01*
X0064555Y0145736D01*
X0063955Y0145136D01*
X0062674Y0141533D02*
X0060272Y0141533D01*
X0059017Y0142133D02*
X0057816Y0142133D01*
X0058417Y0142133D02*
X0058417Y0145736D01*
X0059017Y0145736D02*
X0057816Y0145736D01*
X0056535Y0145136D02*
X0056535Y0143935D01*
X0055935Y0143334D01*
X0054133Y0143334D01*
X0054133Y0142133D02*
X0054133Y0145736D01*
X0055935Y0145736D01*
X0056535Y0145136D01*
X0055935Y0135736D02*
X0054133Y0135736D01*
X0054133Y0132133D01*
X0054133Y0133334D02*
X0055935Y0133334D01*
X0056535Y0133935D01*
X0056535Y0135136D01*
X0055935Y0135736D01*
X0057816Y0135736D02*
X0059017Y0135736D01*
X0058417Y0135736D02*
X0058417Y0132133D01*
X0059017Y0132133D02*
X0057816Y0132133D01*
X0060272Y0131533D02*
X0062674Y0131533D01*
X0063955Y0132734D02*
X0064555Y0132133D01*
X0065756Y0132133D01*
X0066357Y0132734D01*
X0066357Y0133334D01*
X0065756Y0133935D01*
X0065156Y0133935D01*
X0065756Y0133935D02*
X0066357Y0134535D01*
X0066357Y0135136D01*
X0065756Y0135736D01*
X0064555Y0135736D01*
X0063955Y0135136D01*
X0067638Y0134535D02*
X0068839Y0135736D01*
X0068839Y0132133D01*
X0067638Y0132133D02*
X0070040Y0132133D01*
X0070040Y0125736D02*
X0070040Y0125136D01*
X0067638Y0122734D01*
X0067638Y0122133D01*
X0066357Y0122734D02*
X0065756Y0122133D01*
X0064555Y0122133D01*
X0063955Y0122734D01*
X0065156Y0123935D02*
X0065756Y0123935D01*
X0066357Y0123334D01*
X0066357Y0122734D01*
X0065756Y0123935D02*
X0066357Y0124535D01*
X0066357Y0125136D01*
X0065756Y0125736D01*
X0064555Y0125736D01*
X0063955Y0125136D01*
X0067638Y0125736D02*
X0070040Y0125736D01*
X0062674Y0121533D02*
X0060272Y0121533D01*
X0059017Y0122133D02*
X0057816Y0122133D01*
X0058417Y0122133D02*
X0058417Y0125736D01*
X0059017Y0125736D02*
X0057816Y0125736D01*
X0056535Y0125136D02*
X0056535Y0123935D01*
X0055935Y0123334D01*
X0054133Y0123334D01*
X0054133Y0122133D02*
X0054133Y0125736D01*
X0055935Y0125736D01*
X0056535Y0125136D01*
X0102130Y0086984D02*
X0102130Y0085783D01*
X0102731Y0085183D01*
X0102130Y0083901D02*
X0104532Y0083901D01*
X0105733Y0082700D01*
X0104532Y0081499D01*
X0102130Y0081499D01*
X0102731Y0080218D02*
X0103331Y0080218D01*
X0103932Y0079618D01*
X0104532Y0080218D01*
X0105133Y0080218D01*
X0105733Y0079618D01*
X0105733Y0078417D01*
X0105133Y0077816D01*
X0103932Y0079017D02*
X0103932Y0079618D01*
X0102731Y0080218D02*
X0102130Y0079618D01*
X0102130Y0078417D01*
X0102731Y0077816D01*
X0103932Y0076535D02*
X0103932Y0074133D01*
X0102731Y0075334D02*
X0105133Y0075334D01*
X0112130Y0077816D02*
X0113932Y0077816D01*
X0113331Y0079017D01*
X0113331Y0079618D01*
X0113932Y0080218D01*
X0115133Y0080218D01*
X0115733Y0079618D01*
X0115733Y0078417D01*
X0115133Y0077816D01*
X0113932Y0076535D02*
X0113932Y0074133D01*
X0112731Y0075334D02*
X0115133Y0075334D01*
X0112130Y0077816D02*
X0112130Y0080218D01*
X0112130Y0081499D02*
X0114532Y0081499D01*
X0115733Y0082700D01*
X0114532Y0083901D01*
X0112130Y0083901D01*
X0112731Y0085183D02*
X0112130Y0085783D01*
X0112130Y0086984D01*
X0112731Y0087585D01*
X0115133Y0085183D01*
X0115733Y0085783D01*
X0115733Y0086984D01*
X0115133Y0087585D01*
X0112731Y0087585D01*
X0112731Y0085183D02*
X0115133Y0085183D01*
X0122130Y0083301D02*
X0122130Y0081499D01*
X0125733Y0081499D01*
X0125733Y0083301D01*
X0125133Y0083901D01*
X0122731Y0083901D01*
X0122130Y0083301D01*
X0122130Y0080218D02*
X0125733Y0080218D01*
X0122130Y0077816D01*
X0125733Y0077816D01*
X0125133Y0076535D02*
X0123932Y0076535D01*
X0123932Y0075334D01*
X0125133Y0074133D02*
X0125733Y0074734D01*
X0125733Y0075935D01*
X0125133Y0076535D01*
X0125133Y0074133D02*
X0122731Y0074133D01*
X0122130Y0074734D01*
X0122130Y0075935D01*
X0122731Y0076535D01*
X0132130Y0075935D02*
X0132130Y0074734D01*
X0132731Y0074133D01*
X0135133Y0074133D01*
X0135733Y0074734D01*
X0135733Y0075935D01*
X0135133Y0076535D01*
X0135733Y0077816D02*
X0132130Y0077816D01*
X0132731Y0076535D02*
X0132130Y0075935D01*
X0135733Y0077816D02*
X0135733Y0080218D01*
X0135733Y0081499D02*
X0132130Y0081499D01*
X0133932Y0082100D02*
X0135733Y0083901D01*
X0136334Y0085183D02*
X0136334Y0087585D01*
X0135733Y0088866D02*
X0135733Y0090067D01*
X0135733Y0089466D02*
X0132130Y0089466D01*
X0132130Y0088866D02*
X0132130Y0090067D01*
X0132130Y0091321D02*
X0135733Y0093723D01*
X0132130Y0093723D01*
X0132130Y0091321D02*
X0135733Y0091321D01*
X0136334Y0095004D02*
X0136334Y0097406D01*
X0135733Y0098687D02*
X0132130Y0098687D01*
X0132130Y0100489D01*
X0132731Y0101089D01*
X0133932Y0101089D01*
X0134532Y0100489D01*
X0134532Y0098687D01*
X0142130Y0098687D02*
X0145733Y0101089D01*
X0142130Y0101089D01*
X0142130Y0098687D02*
X0145733Y0098687D01*
X0146334Y0097406D02*
X0146334Y0095004D01*
X0145733Y0093723D02*
X0142130Y0093723D01*
X0142130Y0091321D02*
X0145733Y0093723D01*
X0145733Y0091321D02*
X0142130Y0091321D01*
X0142130Y0090067D02*
X0142130Y0088866D01*
X0142130Y0089466D02*
X0145733Y0089466D01*
X0145733Y0088866D02*
X0145733Y0090067D01*
X0146334Y0087585D02*
X0146334Y0085183D01*
X0145733Y0083901D02*
X0143932Y0082100D01*
X0144532Y0081499D02*
X0142130Y0083901D01*
X0142130Y0081499D02*
X0145733Y0081499D01*
X0145733Y0080218D02*
X0145733Y0077816D01*
X0142130Y0077816D01*
X0142731Y0076535D02*
X0142130Y0075935D01*
X0142130Y0074734D01*
X0142731Y0074133D01*
X0145133Y0074133D01*
X0145733Y0074734D01*
X0145733Y0075935D01*
X0145133Y0076535D01*
X0152130Y0075935D02*
X0152130Y0074734D01*
X0152731Y0074133D01*
X0155133Y0074133D01*
X0155733Y0074734D01*
X0155733Y0075935D01*
X0155133Y0076535D01*
X0153932Y0076535D01*
X0153932Y0075334D01*
X0152731Y0076535D02*
X0152130Y0075935D01*
X0152130Y0077816D02*
X0155733Y0080218D01*
X0152130Y0080218D01*
X0152130Y0081499D02*
X0152130Y0083301D01*
X0152731Y0083901D01*
X0155133Y0083901D01*
X0155733Y0083301D01*
X0155733Y0081499D01*
X0152130Y0081499D01*
X0152130Y0077816D02*
X0155733Y0077816D01*
X0162130Y0077816D02*
X0164532Y0077816D01*
X0165733Y0079017D01*
X0164532Y0080218D01*
X0162130Y0080218D01*
X0162130Y0081499D02*
X0165733Y0081499D01*
X0165733Y0083901D01*
X0165733Y0085183D02*
X0162130Y0085183D01*
X0165733Y0087585D01*
X0162130Y0087585D01*
X0162130Y0088866D02*
X0162130Y0091268D01*
X0162130Y0090067D02*
X0165733Y0090067D01*
X0166334Y0092549D02*
X0166334Y0094951D01*
X0165733Y0096232D02*
X0165733Y0097433D01*
X0165733Y0096832D02*
X0162130Y0096832D01*
X0162130Y0096232D02*
X0162130Y0097433D01*
X0162130Y0098687D02*
X0165733Y0101089D01*
X0162130Y0101089D01*
X0162130Y0098687D02*
X0165733Y0098687D01*
X0172130Y0096806D02*
X0172731Y0097406D01*
X0173932Y0097406D01*
X0174532Y0096806D01*
X0174532Y0095004D01*
X0175733Y0095004D02*
X0172130Y0095004D01*
X0172130Y0096806D01*
X0173331Y0093723D02*
X0172130Y0092522D01*
X0173331Y0091321D01*
X0175733Y0091321D01*
X0175133Y0090040D02*
X0175733Y0089439D01*
X0175733Y0088238D01*
X0175133Y0087638D01*
X0172731Y0087638D01*
X0172130Y0088238D01*
X0172130Y0089439D01*
X0172731Y0090040D01*
X0173932Y0091321D02*
X0173932Y0093723D01*
X0173331Y0093723D02*
X0175733Y0093723D01*
X0176334Y0098687D02*
X0176334Y0101089D01*
X0175133Y0102371D02*
X0175733Y0102971D01*
X0175733Y0104172D01*
X0175133Y0104773D01*
X0172731Y0104773D01*
X0172130Y0104172D01*
X0172130Y0102971D01*
X0172731Y0102371D01*
X0175133Y0102371D01*
X0175133Y0106054D02*
X0172130Y0106054D01*
X0172130Y0108456D02*
X0175133Y0108456D01*
X0175733Y0107855D01*
X0175733Y0106654D01*
X0175133Y0106054D01*
X0172130Y0109737D02*
X0172130Y0112139D01*
X0172130Y0110938D02*
X0175733Y0110938D01*
X0182130Y0109683D02*
X0182130Y0107281D01*
X0182130Y0108482D02*
X0185733Y0108482D01*
X0185133Y0106000D02*
X0182130Y0106000D01*
X0182130Y0103598D02*
X0185133Y0103598D01*
X0185733Y0104199D01*
X0185733Y0105400D01*
X0185133Y0106000D01*
X0185133Y0102317D02*
X0182731Y0102317D01*
X0182130Y0101717D01*
X0182130Y0100516D01*
X0182731Y0099915D01*
X0185133Y0099915D01*
X0185733Y0100516D01*
X0185733Y0101717D01*
X0185133Y0102317D01*
X0186334Y0098634D02*
X0186334Y0096232D01*
X0184532Y0094350D02*
X0184532Y0092549D01*
X0185733Y0092549D02*
X0182130Y0092549D01*
X0182130Y0094350D01*
X0182731Y0094951D01*
X0183932Y0094951D01*
X0184532Y0094350D01*
X0185133Y0091268D02*
X0182130Y0091268D01*
X0182130Y0088866D02*
X0185133Y0088866D01*
X0185733Y0089466D01*
X0185733Y0090667D01*
X0185133Y0091268D01*
X0185733Y0087585D02*
X0185733Y0085183D01*
X0182130Y0085183D01*
X0182130Y0087585D01*
X0183932Y0086384D02*
X0183932Y0085183D01*
X0185733Y0083901D02*
X0183932Y0082100D01*
X0184532Y0081499D02*
X0182130Y0083901D01*
X0182130Y0081499D02*
X0185733Y0081499D01*
X0185733Y0080218D02*
X0183331Y0080218D01*
X0182130Y0079017D01*
X0183331Y0077816D01*
X0185733Y0077816D01*
X0185733Y0076535D02*
X0182130Y0076535D01*
X0183932Y0077816D02*
X0183932Y0080218D01*
X0185733Y0076535D02*
X0184532Y0075334D01*
X0185733Y0074133D01*
X0182130Y0074133D01*
X0175733Y0075334D02*
X0172130Y0075334D01*
X0172130Y0074133D02*
X0172130Y0076535D01*
X0172130Y0077816D02*
X0172130Y0079017D01*
X0172130Y0078417D02*
X0175733Y0078417D01*
X0175733Y0079017D02*
X0175733Y0077816D01*
X0175733Y0080272D02*
X0172130Y0080272D01*
X0173331Y0081473D01*
X0172130Y0082674D01*
X0175733Y0082674D01*
X0175733Y0083955D02*
X0175733Y0086357D01*
X0173932Y0085156D02*
X0173932Y0083955D01*
X0175733Y0083955D02*
X0172130Y0083955D01*
X0172130Y0086357D01*
X0163932Y0082700D02*
X0163932Y0081499D01*
X0162130Y0081499D02*
X0162130Y0083901D01*
X0162130Y0076535D02*
X0162130Y0074133D01*
X0165733Y0074133D01*
X0165733Y0076535D01*
X0163932Y0075334D02*
X0163932Y0074133D01*
X0192130Y0074133D02*
X0192130Y0075935D01*
X0192731Y0076535D01*
X0195133Y0076535D01*
X0195733Y0075935D01*
X0195733Y0074133D01*
X0192130Y0074133D01*
X0192731Y0077816D02*
X0195133Y0077816D01*
X0195733Y0078417D01*
X0195733Y0079618D01*
X0195133Y0080218D01*
X0195733Y0081499D02*
X0195733Y0083901D01*
X0196334Y0085183D02*
X0196334Y0087585D01*
X0195733Y0090067D02*
X0192130Y0090067D01*
X0192130Y0088866D02*
X0192130Y0091268D01*
X0192130Y0092549D02*
X0195733Y0094951D01*
X0196334Y0096232D02*
X0196334Y0098634D01*
X0195133Y0099915D02*
X0192731Y0099915D01*
X0192130Y0100516D01*
X0192130Y0101717D01*
X0192731Y0102317D01*
X0195133Y0102317D01*
X0195733Y0101717D01*
X0195733Y0100516D01*
X0195133Y0099915D01*
X0195133Y0103598D02*
X0192130Y0103598D01*
X0192130Y0106000D02*
X0195133Y0106000D01*
X0195733Y0105400D01*
X0195733Y0104199D01*
X0195133Y0103598D01*
X0192130Y0107281D02*
X0192130Y0109683D01*
X0192130Y0108482D02*
X0195733Y0108482D01*
X0202130Y0104773D02*
X0205733Y0104773D01*
X0202130Y0102371D01*
X0205733Y0102371D01*
X0205733Y0101116D02*
X0205733Y0099915D01*
X0205733Y0100516D02*
X0202130Y0100516D01*
X0202130Y0101116D02*
X0202130Y0099915D01*
X0206334Y0098634D02*
X0206334Y0096232D01*
X0205733Y0094951D02*
X0202130Y0092549D01*
X0202731Y0091268D02*
X0203932Y0091268D01*
X0204532Y0090667D01*
X0204532Y0088866D01*
X0204532Y0090067D02*
X0205733Y0091268D01*
X0205733Y0092549D02*
X0202130Y0094951D01*
X0202731Y0091268D02*
X0202130Y0090667D01*
X0202130Y0088866D01*
X0205733Y0088866D01*
X0206334Y0087585D02*
X0206334Y0085183D01*
X0205733Y0083901D02*
X0205733Y0081499D01*
X0202130Y0081499D01*
X0202130Y0083901D01*
X0203932Y0082700D02*
X0203932Y0081499D01*
X0205133Y0080218D02*
X0205733Y0079618D01*
X0205733Y0078417D01*
X0205133Y0077816D01*
X0202731Y0077816D01*
X0202130Y0078417D01*
X0202130Y0079618D01*
X0202731Y0080218D01*
X0202731Y0076535D02*
X0202130Y0075935D01*
X0202130Y0074133D01*
X0205733Y0074133D01*
X0205733Y0075935D01*
X0205133Y0076535D01*
X0202731Y0076535D01*
X0195733Y0081499D02*
X0192130Y0081499D01*
X0192130Y0083901D01*
X0193932Y0082700D02*
X0193932Y0081499D01*
X0192731Y0080218D02*
X0192130Y0079618D01*
X0192130Y0078417D01*
X0192731Y0077816D01*
X0195733Y0092549D02*
X0192130Y0094951D01*
X0212130Y0094951D02*
X0212130Y0092549D01*
X0212130Y0093750D02*
X0215733Y0093750D01*
X0215133Y0096232D02*
X0215733Y0096832D01*
X0215733Y0098033D01*
X0215133Y0098634D01*
X0214532Y0098634D01*
X0213932Y0098033D01*
X0213932Y0096832D01*
X0213331Y0096232D01*
X0212731Y0096232D01*
X0212130Y0096832D01*
X0212130Y0098033D01*
X0212731Y0098634D01*
X0216334Y0099915D02*
X0216334Y0102317D01*
X0215133Y0103598D02*
X0212731Y0103598D01*
X0212130Y0104199D01*
X0212130Y0105400D01*
X0212731Y0106000D01*
X0215133Y0106000D01*
X0215733Y0105400D01*
X0215733Y0104199D01*
X0215133Y0103598D01*
X0215133Y0107281D02*
X0215733Y0107882D01*
X0215733Y0109083D01*
X0215133Y0109683D01*
X0212130Y0109683D01*
X0212130Y0110965D02*
X0212130Y0113367D01*
X0212130Y0112166D02*
X0215733Y0112166D01*
X0222130Y0108456D02*
X0225733Y0108456D01*
X0222130Y0106054D01*
X0225733Y0106054D01*
X0225733Y0104799D02*
X0225733Y0103598D01*
X0225733Y0104199D02*
X0222130Y0104199D01*
X0222130Y0104799D02*
X0222130Y0103598D01*
X0226334Y0102317D02*
X0226334Y0099915D01*
X0225133Y0098634D02*
X0225733Y0098033D01*
X0225733Y0096832D01*
X0225133Y0096232D01*
X0223932Y0096832D02*
X0223932Y0098033D01*
X0224532Y0098634D01*
X0225133Y0098634D01*
X0223932Y0096832D02*
X0223331Y0096232D01*
X0222731Y0096232D01*
X0222130Y0096832D01*
X0222130Y0098033D01*
X0222731Y0098634D01*
X0222130Y0094951D02*
X0222130Y0092549D01*
X0222130Y0093750D02*
X0225733Y0093750D01*
X0225733Y0091268D02*
X0224532Y0090067D01*
X0224532Y0090667D02*
X0224532Y0088866D01*
X0225733Y0088866D02*
X0222130Y0088866D01*
X0222130Y0090667D01*
X0222731Y0091268D01*
X0223932Y0091268D01*
X0224532Y0090667D01*
X0226334Y0087585D02*
X0226334Y0085183D01*
X0225733Y0083901D02*
X0225733Y0081499D01*
X0222130Y0081499D01*
X0222130Y0083901D01*
X0223932Y0082700D02*
X0223932Y0081499D01*
X0225133Y0080218D02*
X0225733Y0079618D01*
X0225733Y0078417D01*
X0225133Y0077816D01*
X0222731Y0077816D01*
X0222130Y0078417D01*
X0222130Y0079618D01*
X0222731Y0080218D01*
X0222731Y0076535D02*
X0222130Y0075935D01*
X0222130Y0074133D01*
X0225733Y0074133D01*
X0225733Y0075935D01*
X0225133Y0076535D01*
X0222731Y0076535D01*
X0215733Y0075935D02*
X0215133Y0076535D01*
X0212731Y0076535D01*
X0212130Y0075935D01*
X0212130Y0074133D01*
X0215733Y0074133D01*
X0215733Y0075935D01*
X0215133Y0077816D02*
X0212731Y0077816D01*
X0212130Y0078417D01*
X0212130Y0079618D01*
X0212731Y0080218D01*
X0212130Y0081499D02*
X0215733Y0081499D01*
X0215733Y0083901D01*
X0216334Y0085183D02*
X0216334Y0087585D01*
X0215133Y0088866D02*
X0215733Y0089466D01*
X0215733Y0090667D01*
X0215133Y0091268D01*
X0215133Y0088866D02*
X0212731Y0088866D01*
X0212130Y0089466D01*
X0212130Y0090667D01*
X0212731Y0091268D01*
X0212130Y0083901D02*
X0212130Y0081499D01*
X0213932Y0081499D02*
X0213932Y0082700D01*
X0215133Y0080218D02*
X0215733Y0079618D01*
X0215733Y0078417D01*
X0215133Y0077816D01*
X0232130Y0078417D02*
X0232130Y0079618D01*
X0232731Y0080218D01*
X0235133Y0077816D01*
X0235733Y0078417D01*
X0235733Y0079618D01*
X0235133Y0080218D01*
X0232731Y0080218D01*
X0232731Y0081499D02*
X0232130Y0082100D01*
X0232130Y0083301D01*
X0232731Y0083901D01*
X0235133Y0081499D01*
X0235733Y0082100D01*
X0235733Y0083301D01*
X0235133Y0083901D01*
X0232731Y0083901D01*
X0232731Y0081499D02*
X0235133Y0081499D01*
X0235133Y0077816D02*
X0232731Y0077816D01*
X0232130Y0078417D01*
X0232731Y0076535D02*
X0233932Y0076535D01*
X0234532Y0075935D01*
X0234532Y0074133D01*
X0235733Y0074133D02*
X0232130Y0074133D01*
X0232130Y0075935D01*
X0232731Y0076535D01*
X0236334Y0085183D02*
X0236334Y0087585D01*
X0235733Y0088866D02*
X0235733Y0090067D01*
X0235733Y0089466D02*
X0232130Y0089466D01*
X0232130Y0088866D02*
X0232130Y0090067D01*
X0232130Y0091321D02*
X0235733Y0093723D01*
X0232130Y0093723D01*
X0232731Y0095004D02*
X0235133Y0095004D01*
X0235733Y0095605D01*
X0235733Y0096806D01*
X0235133Y0097406D01*
X0232731Y0097406D01*
X0232130Y0096806D01*
X0232130Y0095605D01*
X0232731Y0095004D01*
X0232130Y0091321D02*
X0235733Y0091321D01*
X0242130Y0091321D02*
X0245733Y0093723D01*
X0242130Y0093723D01*
X0242731Y0095004D02*
X0245133Y0095004D01*
X0245733Y0095605D01*
X0245733Y0096806D01*
X0245133Y0097406D01*
X0242731Y0097406D01*
X0242130Y0096806D01*
X0242130Y0095605D01*
X0242731Y0095004D01*
X0242130Y0091321D02*
X0245733Y0091321D01*
X0245733Y0090067D02*
X0245733Y0088866D01*
X0245733Y0089466D02*
X0242130Y0089466D01*
X0242130Y0088866D02*
X0242130Y0090067D01*
X0246334Y0087585D02*
X0246334Y0085183D01*
X0245733Y0083901D02*
X0245733Y0081499D01*
X0245733Y0082700D02*
X0242130Y0082700D01*
X0243331Y0081499D01*
X0242731Y0080218D02*
X0245133Y0077816D01*
X0245733Y0078417D01*
X0245733Y0079618D01*
X0245133Y0080218D01*
X0242731Y0080218D01*
X0242130Y0079618D01*
X0242130Y0078417D01*
X0242731Y0077816D01*
X0245133Y0077816D01*
X0243932Y0076535D02*
X0242731Y0076535D01*
X0242130Y0075935D01*
X0242130Y0074133D01*
X0245733Y0074133D01*
X0244532Y0074133D02*
X0244532Y0075935D01*
X0243932Y0076535D01*
X0252130Y0075935D02*
X0252731Y0076535D01*
X0253932Y0076535D01*
X0254532Y0075935D01*
X0254532Y0074133D01*
X0255733Y0074133D02*
X0252130Y0074133D01*
X0252130Y0075935D01*
X0252731Y0077816D02*
X0252130Y0078417D01*
X0252130Y0079618D01*
X0252731Y0080218D01*
X0255133Y0077816D01*
X0255733Y0078417D01*
X0255733Y0079618D01*
X0255133Y0080218D01*
X0252731Y0080218D01*
X0252731Y0081499D02*
X0252130Y0082100D01*
X0252130Y0083301D01*
X0252731Y0083901D01*
X0253331Y0083901D01*
X0255733Y0081499D01*
X0255733Y0083901D01*
X0256334Y0085183D02*
X0256334Y0087585D01*
X0255733Y0088866D02*
X0255733Y0090067D01*
X0255733Y0089466D02*
X0252130Y0089466D01*
X0252130Y0088866D02*
X0252130Y0090067D01*
X0252130Y0091321D02*
X0255733Y0093723D01*
X0252130Y0093723D01*
X0252731Y0095004D02*
X0252130Y0095605D01*
X0252130Y0096806D01*
X0252731Y0097406D01*
X0255133Y0097406D01*
X0255733Y0096806D01*
X0255733Y0095605D01*
X0255133Y0095004D01*
X0252731Y0095004D01*
X0252130Y0091321D02*
X0255733Y0091321D01*
X0255133Y0098687D02*
X0252130Y0098687D01*
X0252130Y0101089D02*
X0255133Y0101089D01*
X0255733Y0100489D01*
X0255733Y0099288D01*
X0255133Y0098687D01*
X0252130Y0102371D02*
X0252130Y0104773D01*
X0252130Y0103572D02*
X0255733Y0103572D01*
X0262130Y0103572D02*
X0265733Y0103572D01*
X0265133Y0101089D02*
X0262130Y0101089D01*
X0262130Y0102371D02*
X0262130Y0104773D01*
X0265133Y0101089D02*
X0265733Y0100489D01*
X0265733Y0099288D01*
X0265133Y0098687D01*
X0262130Y0098687D01*
X0262731Y0097406D02*
X0262130Y0096806D01*
X0262130Y0095605D01*
X0262731Y0095004D01*
X0265133Y0095004D01*
X0265733Y0095605D01*
X0265733Y0096806D01*
X0265133Y0097406D01*
X0262731Y0097406D01*
X0262130Y0093723D02*
X0265733Y0093723D01*
X0262130Y0091321D01*
X0265733Y0091321D01*
X0265733Y0090067D02*
X0265733Y0088866D01*
X0265733Y0089466D02*
X0262130Y0089466D01*
X0262130Y0088866D02*
X0262130Y0090067D01*
X0266334Y0087585D02*
X0266334Y0085183D01*
X0265133Y0083901D02*
X0265733Y0083301D01*
X0265733Y0082100D01*
X0265133Y0081499D01*
X0265133Y0080218D02*
X0265733Y0079618D01*
X0265733Y0078417D01*
X0265133Y0077816D01*
X0262731Y0080218D01*
X0265133Y0080218D01*
X0265133Y0077816D02*
X0262731Y0077816D01*
X0262130Y0078417D01*
X0262130Y0079618D01*
X0262731Y0080218D01*
X0262731Y0081499D02*
X0262130Y0082100D01*
X0262130Y0083301D01*
X0262731Y0083901D01*
X0263331Y0083901D01*
X0263932Y0083301D01*
X0264532Y0083901D01*
X0265133Y0083901D01*
X0263932Y0083301D02*
X0263932Y0082700D01*
X0263932Y0076535D02*
X0264532Y0075935D01*
X0264532Y0074133D01*
X0265733Y0074133D02*
X0262130Y0074133D01*
X0262130Y0075935D01*
X0262731Y0076535D01*
X0263932Y0076535D01*
X0255133Y0077816D02*
X0252731Y0077816D01*
X0245133Y0098687D02*
X0242130Y0098687D01*
X0242130Y0101089D02*
X0245133Y0101089D01*
X0245733Y0100489D01*
X0245733Y0099288D01*
X0245133Y0098687D01*
X0242130Y0102371D02*
X0242130Y0104773D01*
X0242130Y0103572D02*
X0245733Y0103572D01*
X0235733Y0103572D02*
X0232130Y0103572D01*
X0232130Y0102371D02*
X0232130Y0104773D01*
X0232130Y0101089D02*
X0235133Y0101089D01*
X0235733Y0100489D01*
X0235733Y0099288D01*
X0235133Y0098687D01*
X0232130Y0098687D01*
X0215133Y0107281D02*
X0212130Y0107281D01*
X0134532Y0081499D02*
X0132130Y0083901D01*
X0105733Y0085783D02*
X0105133Y0085183D01*
X0105733Y0085783D02*
X0105733Y0086984D01*
X0105133Y0087585D01*
X0104532Y0087585D01*
X0103932Y0086984D01*
X0103932Y0086384D01*
X0103932Y0086984D02*
X0103331Y0087585D01*
X0102731Y0087585D01*
X0102130Y0086984D01*
X0070218Y0242133D02*
X0067816Y0242133D01*
X0070218Y0244535D01*
X0070218Y0245136D01*
X0069618Y0245736D01*
X0068417Y0245736D01*
X0067816Y0245136D01*
X0066535Y0244535D02*
X0066535Y0242133D01*
X0066535Y0243935D02*
X0064133Y0243935D01*
X0064133Y0244535D02*
X0065334Y0245736D01*
X0066535Y0244535D01*
X0064133Y0244535D02*
X0064133Y0242133D01*
X0064133Y0252133D02*
X0064133Y0254535D01*
X0065334Y0255736D01*
X0066535Y0254535D01*
X0066535Y0252133D01*
X0067816Y0252133D02*
X0070218Y0252133D01*
X0069017Y0252133D02*
X0069017Y0255736D01*
X0067816Y0254535D01*
X0066535Y0253935D02*
X0064133Y0253935D01*
X0064133Y0262133D02*
X0064133Y0264535D01*
X0065334Y0265736D01*
X0066535Y0264535D01*
X0066535Y0262133D01*
X0067816Y0262734D02*
X0070218Y0265136D01*
X0070218Y0262734D01*
X0069618Y0262133D01*
X0068417Y0262133D01*
X0067816Y0262734D01*
X0067816Y0265136D01*
X0068417Y0265736D01*
X0069618Y0265736D01*
X0070218Y0265136D01*
X0066535Y0263935D02*
X0064133Y0263935D01*
X0064218Y0292133D02*
X0061816Y0295736D01*
X0061816Y0292133D01*
X0060535Y0292734D02*
X0060535Y0293935D01*
X0059334Y0293935D01*
X0058133Y0295136D02*
X0058133Y0292734D01*
X0058734Y0292133D01*
X0059935Y0292133D01*
X0060535Y0292734D01*
X0060535Y0295136D02*
X0059935Y0295736D01*
X0058734Y0295736D01*
X0058133Y0295136D01*
X0064218Y0295736D02*
X0064218Y0292133D01*
X0065499Y0292133D02*
X0067301Y0292133D01*
X0067901Y0292734D01*
X0067901Y0295136D01*
X0067301Y0295736D01*
X0065499Y0295736D01*
X0065499Y0292133D01*
X0065499Y0302133D02*
X0067301Y0302133D01*
X0067901Y0302734D01*
X0067901Y0305136D01*
X0067301Y0305736D01*
X0065499Y0305736D01*
X0065499Y0302133D01*
X0064218Y0302133D02*
X0064218Y0305736D01*
X0061816Y0305736D02*
X0061816Y0302133D01*
X0060535Y0302734D02*
X0060535Y0303935D01*
X0059334Y0303935D01*
X0058133Y0305136D02*
X0058133Y0302734D01*
X0058734Y0302133D01*
X0059935Y0302133D01*
X0060535Y0302734D01*
X0060535Y0305136D02*
X0059935Y0305736D01*
X0058734Y0305736D01*
X0058133Y0305136D01*
X0061816Y0305736D02*
X0064218Y0302133D01*
X0062700Y0312133D02*
X0063901Y0313334D01*
X0063901Y0315736D01*
X0065183Y0315136D02*
X0065783Y0315736D01*
X0066984Y0315736D01*
X0067585Y0315136D01*
X0065183Y0312734D01*
X0065783Y0312133D01*
X0066984Y0312133D01*
X0067585Y0312734D01*
X0067585Y0315136D01*
X0065183Y0315136D02*
X0065183Y0312734D01*
X0062700Y0312133D02*
X0061499Y0313334D01*
X0061499Y0315736D01*
X0060218Y0315736D02*
X0057816Y0315736D01*
X0057816Y0313935D01*
X0059017Y0314535D01*
X0059618Y0314535D01*
X0060218Y0313935D01*
X0060218Y0312734D01*
X0059618Y0312133D01*
X0058417Y0312133D01*
X0057816Y0312734D01*
X0056535Y0313935D02*
X0054133Y0313935D01*
X0055334Y0315136D02*
X0055334Y0312734D01*
X0055834Y0322734D02*
X0055834Y0325136D01*
X0054633Y0323935D02*
X0057035Y0323935D01*
X0058316Y0325136D02*
X0058917Y0325736D01*
X0060118Y0325736D01*
X0060718Y0325136D01*
X0060718Y0324535D01*
X0060118Y0323935D01*
X0060718Y0323334D01*
X0060718Y0322734D01*
X0060118Y0322133D01*
X0058917Y0322133D01*
X0058316Y0322734D01*
X0059517Y0323935D02*
X0060118Y0323935D01*
X0061999Y0323334D02*
X0063200Y0322133D01*
X0064401Y0323334D01*
X0064401Y0325736D01*
X0065683Y0325136D02*
X0066283Y0325736D01*
X0067484Y0325736D01*
X0068085Y0325136D01*
X0068085Y0324535D01*
X0067484Y0323935D01*
X0068085Y0323334D01*
X0068085Y0322734D01*
X0067484Y0322133D01*
X0066283Y0322133D01*
X0065683Y0322734D01*
X0066884Y0323935D02*
X0067484Y0323935D01*
X0061999Y0323334D02*
X0061999Y0325736D01*
X0063200Y0342133D02*
X0061999Y0343334D01*
X0061999Y0345736D01*
X0060718Y0345136D02*
X0060718Y0344535D01*
X0060118Y0343935D01*
X0060718Y0343334D01*
X0060718Y0342734D01*
X0060118Y0342133D01*
X0058917Y0342133D01*
X0058316Y0342734D01*
X0059517Y0343935D02*
X0060118Y0343935D01*
X0060718Y0345136D02*
X0060118Y0345736D01*
X0058917Y0345736D01*
X0058316Y0345136D01*
X0057035Y0343935D02*
X0054633Y0343935D01*
X0055834Y0345136D02*
X0055834Y0342734D01*
X0063200Y0342133D02*
X0064401Y0343334D01*
X0064401Y0345736D01*
X0065683Y0345136D02*
X0066283Y0345736D01*
X0067484Y0345736D01*
X0068085Y0345136D01*
X0068085Y0344535D01*
X0067484Y0343935D01*
X0068085Y0343334D01*
X0068085Y0342734D01*
X0067484Y0342133D01*
X0066283Y0342133D01*
X0065683Y0342734D01*
X0066884Y0343935D02*
X0067484Y0343935D01*
X0299133Y0165736D02*
X0299133Y0162133D01*
X0299133Y0163334D02*
X0300935Y0163334D01*
X0301535Y0163935D01*
X0301535Y0165136D01*
X0300935Y0165736D01*
X0299133Y0165736D01*
X0302816Y0165736D02*
X0304017Y0165736D01*
X0303417Y0165736D02*
X0303417Y0162133D01*
X0304017Y0162133D02*
X0302816Y0162133D01*
X0305272Y0161533D02*
X0307674Y0161533D01*
X0308955Y0162133D02*
X0311357Y0162133D01*
X0310156Y0162133D02*
X0310156Y0165736D01*
X0308955Y0164535D01*
X0312638Y0163935D02*
X0312638Y0162734D01*
X0313238Y0162133D01*
X0314439Y0162133D01*
X0315040Y0162734D01*
X0315040Y0163334D01*
X0314439Y0163935D01*
X0312638Y0163935D01*
X0313839Y0165136D01*
X0315040Y0165736D01*
X0314439Y0155736D02*
X0315040Y0155136D01*
X0315040Y0154535D01*
X0314439Y0153935D01*
X0313238Y0153935D01*
X0312638Y0154535D01*
X0312638Y0155136D01*
X0313238Y0155736D01*
X0314439Y0155736D01*
X0314439Y0153935D02*
X0315040Y0153334D01*
X0315040Y0152734D01*
X0314439Y0152133D01*
X0313238Y0152133D01*
X0312638Y0152734D01*
X0312638Y0153334D01*
X0313238Y0153935D01*
X0311357Y0152133D02*
X0308955Y0152133D01*
X0310156Y0152133D02*
X0310156Y0155736D01*
X0308955Y0154535D01*
X0307674Y0151533D02*
X0305272Y0151533D01*
X0304017Y0152133D02*
X0302816Y0152133D01*
X0303417Y0152133D02*
X0303417Y0155736D01*
X0304017Y0155736D02*
X0302816Y0155736D01*
X0301535Y0155136D02*
X0301535Y0153935D01*
X0300935Y0153334D01*
X0299133Y0153334D01*
X0299133Y0152133D02*
X0299133Y0155736D01*
X0300935Y0155736D01*
X0301535Y0155136D01*
X0300935Y0145736D02*
X0301535Y0145136D01*
X0301535Y0143935D01*
X0300935Y0143334D01*
X0299133Y0143334D01*
X0299133Y0142133D02*
X0299133Y0145736D01*
X0300935Y0145736D01*
X0302816Y0145736D02*
X0304017Y0145736D01*
X0303417Y0145736D02*
X0303417Y0142133D01*
X0304017Y0142133D02*
X0302816Y0142133D01*
X0305272Y0141533D02*
X0307674Y0141533D01*
X0308955Y0142133D02*
X0311357Y0144535D01*
X0311357Y0145136D01*
X0310756Y0145736D01*
X0309555Y0145736D01*
X0308955Y0145136D01*
X0308955Y0142133D02*
X0311357Y0142133D01*
X0312638Y0142133D02*
X0315040Y0144535D01*
X0315040Y0145136D01*
X0314439Y0145736D01*
X0313238Y0145736D01*
X0312638Y0145136D01*
X0312638Y0142133D02*
X0315040Y0142133D01*
X0314439Y0135736D02*
X0315040Y0135136D01*
X0315040Y0134535D01*
X0314439Y0133935D01*
X0313238Y0133935D01*
X0312638Y0134535D01*
X0312638Y0135136D01*
X0313238Y0135736D01*
X0314439Y0135736D01*
X0314439Y0133935D02*
X0315040Y0133334D01*
X0315040Y0132734D01*
X0314439Y0132133D01*
X0313238Y0132133D01*
X0312638Y0132734D01*
X0312638Y0133334D01*
X0313238Y0133935D01*
X0311357Y0134535D02*
X0311357Y0135136D01*
X0310756Y0135736D01*
X0309555Y0135736D01*
X0308955Y0135136D01*
X0311357Y0134535D02*
X0308955Y0132133D01*
X0311357Y0132133D01*
X0307674Y0131533D02*
X0305272Y0131533D01*
X0304017Y0132133D02*
X0302816Y0132133D01*
X0303417Y0132133D02*
X0303417Y0135736D01*
X0304017Y0135736D02*
X0302816Y0135736D01*
X0301535Y0135136D02*
X0301535Y0133935D01*
X0300935Y0133334D01*
X0299133Y0133334D01*
X0299133Y0132133D02*
X0299133Y0135736D01*
X0300935Y0135736D01*
X0301535Y0135136D01*
X0300935Y0125736D02*
X0301535Y0125136D01*
X0301535Y0123935D01*
X0300935Y0123334D01*
X0299133Y0123334D01*
X0299133Y0122133D02*
X0299133Y0125736D01*
X0300935Y0125736D01*
X0302816Y0125736D02*
X0304017Y0125736D01*
X0303417Y0125736D02*
X0303417Y0122133D01*
X0304017Y0122133D02*
X0302816Y0122133D01*
X0305272Y0121533D02*
X0307674Y0121533D01*
X0308955Y0122734D02*
X0309555Y0122133D01*
X0310756Y0122133D01*
X0311357Y0122734D01*
X0311357Y0123334D01*
X0310756Y0123935D01*
X0310156Y0123935D01*
X0310756Y0123935D02*
X0311357Y0124535D01*
X0311357Y0125136D01*
X0310756Y0125736D01*
X0309555Y0125736D01*
X0308955Y0125136D01*
X0312638Y0123935D02*
X0314439Y0123935D01*
X0315040Y0123334D01*
X0315040Y0122734D01*
X0314439Y0122133D01*
X0313238Y0122133D01*
X0312638Y0122734D01*
X0312638Y0123935D01*
X0313839Y0125136D01*
X0315040Y0125736D01*
D14*
X0251662Y0368883D02*
X0249094Y0368883D01*
X0250378Y0368883D02*
X0250378Y0374021D01*
X0249094Y0374021D01*
X0250378Y0376590D02*
X0250378Y0377874D01*
X0246313Y0375305D02*
X0246313Y0372736D01*
X0245028Y0371452D01*
X0241175Y0371452D01*
X0241175Y0368883D02*
X0241175Y0376590D01*
X0245028Y0376590D01*
X0246313Y0375305D01*
X0230546Y0376590D02*
X0229261Y0375305D01*
X0229261Y0368883D01*
X0227977Y0372736D02*
X0230546Y0372736D01*
X0225196Y0372736D02*
X0223911Y0374021D01*
X0221343Y0374021D01*
X0220058Y0372736D01*
X0220058Y0370167D01*
X0221343Y0368883D01*
X0223911Y0368883D01*
X0225196Y0370167D01*
X0225196Y0372736D01*
X0209358Y0372736D02*
X0208074Y0371452D01*
X0204221Y0371452D01*
X0204221Y0368883D02*
X0204221Y0376590D01*
X0208074Y0376590D01*
X0209358Y0375305D01*
X0209358Y0372736D01*
X0201440Y0370167D02*
X0200155Y0368883D01*
X0197586Y0368883D01*
X0196302Y0370167D01*
X0196302Y0375305D01*
X0197586Y0376590D01*
X0200155Y0376590D01*
X0201440Y0375305D01*
X0201440Y0370167D01*
X0193521Y0376590D02*
X0188383Y0376590D01*
X0190952Y0376590D02*
X0190952Y0368883D01*
X0150896Y0368883D02*
X0149611Y0368883D01*
X0149611Y0370167D01*
X0150896Y0370167D01*
X0150896Y0368883D01*
X0146830Y0368883D02*
X0142977Y0368883D01*
X0141693Y0370167D01*
X0141693Y0372736D01*
X0142977Y0374021D01*
X0146830Y0374021D01*
X0146830Y0376590D02*
X0146830Y0368883D01*
X0138947Y0374021D02*
X0137662Y0374021D01*
X0135094Y0371452D01*
X0135094Y0368883D02*
X0135094Y0374021D01*
X0132313Y0374021D02*
X0132313Y0368883D01*
X0132313Y0372736D02*
X0127175Y0372736D01*
X0127175Y0374021D02*
X0127175Y0368883D01*
X0127175Y0374021D02*
X0129744Y0376590D01*
X0132313Y0374021D01*
X0116546Y0372736D02*
X0113977Y0372736D01*
X0111196Y0372736D02*
X0109911Y0374021D01*
X0107343Y0374021D01*
X0106058Y0372736D01*
X0106058Y0370167D01*
X0107343Y0368883D01*
X0109911Y0368883D01*
X0111196Y0370167D01*
X0111196Y0372736D01*
X0115261Y0375305D02*
X0115261Y0368883D01*
X0115261Y0375305D02*
X0116546Y0376590D01*
X0095358Y0375305D02*
X0095358Y0372736D01*
X0094074Y0371452D01*
X0090221Y0371452D01*
X0090221Y0368883D02*
X0090221Y0376590D01*
X0094074Y0376590D01*
X0095358Y0375305D01*
X0087440Y0375305D02*
X0087440Y0370167D01*
X0086155Y0368883D01*
X0083586Y0368883D01*
X0082302Y0370167D01*
X0082302Y0375305D01*
X0083586Y0376590D01*
X0086155Y0376590D01*
X0087440Y0375305D01*
X0079521Y0376590D02*
X0074383Y0376590D01*
X0076952Y0376590D02*
X0076952Y0368883D01*
X0241883Y0409590D02*
X0247021Y0409590D01*
X0244452Y0409590D02*
X0244452Y0401883D01*
X0249802Y0403167D02*
X0251086Y0401883D01*
X0253655Y0401883D01*
X0254940Y0403167D01*
X0254940Y0408305D01*
X0253655Y0409590D01*
X0251086Y0409590D01*
X0249802Y0408305D01*
X0249802Y0403167D01*
X0257721Y0401883D02*
X0257721Y0409590D01*
X0261574Y0409590D01*
X0262858Y0408305D01*
X0262858Y0405736D01*
X0261574Y0404452D01*
X0257721Y0404452D01*
X0273558Y0405736D02*
X0273558Y0403167D01*
X0274843Y0401883D01*
X0277411Y0401883D01*
X0278696Y0403167D01*
X0278696Y0405736D01*
X0277411Y0407021D01*
X0274843Y0407021D01*
X0273558Y0405736D01*
X0281477Y0405736D02*
X0284046Y0405736D01*
X0282761Y0408305D02*
X0282761Y0401883D01*
X0282761Y0408305D02*
X0284046Y0409590D01*
X0294675Y0407021D02*
X0294675Y0401883D01*
X0294675Y0405736D02*
X0299813Y0405736D01*
X0299813Y0407021D02*
X0299813Y0401883D01*
X0302594Y0401883D02*
X0302594Y0407021D01*
X0305162Y0407021D02*
X0306447Y0407021D01*
X0305162Y0407021D02*
X0302594Y0404452D01*
X0299813Y0407021D02*
X0297244Y0409590D01*
X0294675Y0407021D01*
X0309193Y0405736D02*
X0309193Y0403167D01*
X0310477Y0401883D01*
X0314330Y0401883D01*
X0314330Y0409590D01*
X0314330Y0407021D02*
X0310477Y0407021D01*
X0309193Y0405736D01*
X0317111Y0403167D02*
X0318396Y0403167D01*
X0318396Y0401883D01*
X0317111Y0401883D01*
X0317111Y0403167D01*
D15*
X0252259Y0129686D02*
X0250007Y0129686D01*
X0249256Y0128935D01*
X0250007Y0128184D01*
X0251508Y0128184D01*
X0252259Y0127434D01*
X0251508Y0126683D01*
X0249256Y0126683D01*
X0247688Y0126683D02*
X0246938Y0127434D01*
X0246938Y0130436D01*
X0247688Y0129686D02*
X0246187Y0129686D01*
X0244586Y0128935D02*
X0244586Y0128184D01*
X0241583Y0128184D01*
X0241583Y0127434D02*
X0241583Y0128935D01*
X0242334Y0129686D01*
X0243835Y0129686D01*
X0244586Y0128935D01*
X0243835Y0126683D02*
X0242334Y0126683D01*
X0241583Y0127434D01*
X0239998Y0126683D02*
X0237747Y0128184D01*
X0239998Y0129686D01*
X0237747Y0131187D02*
X0237747Y0126683D01*
X0236145Y0126683D02*
X0233893Y0126683D01*
X0233143Y0127434D01*
X0233143Y0128935D01*
X0233893Y0129686D01*
X0236145Y0129686D01*
X0231541Y0128935D02*
X0231541Y0127434D01*
X0230791Y0126683D01*
X0229289Y0126683D01*
X0228539Y0127434D01*
X0228539Y0128935D01*
X0229289Y0129686D01*
X0230791Y0129686D01*
X0231541Y0128935D01*
X0226937Y0129686D02*
X0224685Y0129686D01*
X0223935Y0128935D01*
X0224685Y0128184D01*
X0226187Y0128184D01*
X0226937Y0127434D01*
X0226187Y0126683D01*
X0223935Y0126683D01*
X0217729Y0127434D02*
X0217729Y0128935D01*
X0216979Y0129686D01*
X0215478Y0129686D01*
X0214727Y0128935D01*
X0214727Y0127434D01*
X0215478Y0126683D01*
X0216979Y0126683D01*
X0217729Y0127434D01*
X0213126Y0126683D02*
X0213126Y0128935D01*
X0212375Y0129686D01*
X0210123Y0129686D01*
X0210123Y0126683D01*
X0208555Y0126683D02*
X0207054Y0126683D01*
X0207804Y0126683D02*
X0207804Y0129686D01*
X0207054Y0129686D01*
X0205452Y0129686D02*
X0205452Y0126683D01*
X0203200Y0126683D01*
X0202450Y0127434D01*
X0202450Y0129686D01*
X0200848Y0129686D02*
X0198596Y0129686D01*
X0197846Y0128935D01*
X0197846Y0127434D01*
X0198596Y0126683D01*
X0200848Y0126683D01*
X0200848Y0131187D01*
X0196261Y0129686D02*
X0195511Y0129686D01*
X0194009Y0128184D01*
X0194009Y0126683D02*
X0194009Y0129686D01*
X0192408Y0129686D02*
X0192408Y0126683D01*
X0192408Y0128935D02*
X0189405Y0128935D01*
X0189405Y0129686D02*
X0190907Y0131187D01*
X0192408Y0129686D01*
X0189405Y0129686D02*
X0189405Y0126683D01*
X0187070Y0123687D02*
X0185569Y0123687D01*
X0186319Y0123687D02*
X0186319Y0119183D01*
X0185569Y0119183D02*
X0187070Y0119183D01*
X0188638Y0118432D02*
X0191641Y0118432D01*
X0193242Y0119183D02*
X0196244Y0122186D01*
X0197846Y0122186D02*
X0200848Y0119183D01*
X0197846Y0119183D02*
X0200848Y0122186D01*
X0196244Y0119183D02*
X0193242Y0122186D01*
X0183967Y0122936D02*
X0183967Y0121435D01*
X0183217Y0120684D01*
X0180965Y0120684D01*
X0180965Y0119183D02*
X0180965Y0123687D01*
X0183217Y0123687D01*
X0183967Y0122936D01*
X0180197Y0126683D02*
X0183200Y0128935D01*
X0180197Y0131187D01*
X0178596Y0128935D02*
X0175594Y0128935D01*
X0173992Y0128935D02*
X0170990Y0128935D01*
X0169388Y0131187D02*
X0166386Y0128935D01*
X0169388Y0126683D01*
X0171740Y0122936D02*
X0171740Y0119934D01*
X0172491Y0119183D01*
X0174059Y0119183D02*
X0174059Y0119934D01*
X0174810Y0119934D01*
X0174810Y0119183D01*
X0174059Y0119183D01*
X0174059Y0121435D02*
X0174059Y0122186D01*
X0174810Y0122186D01*
X0174810Y0121435D01*
X0174059Y0121435D01*
X0172491Y0122186D02*
X0170990Y0122186D01*
X0169388Y0122186D02*
X0167136Y0122186D01*
X0166386Y0121435D01*
X0166386Y0119934D01*
X0167136Y0119183D01*
X0169388Y0119183D01*
X0164784Y0120684D02*
X0161782Y0120684D01*
X0161782Y0119934D02*
X0161782Y0121435D01*
X0162532Y0122186D01*
X0164034Y0122186D01*
X0164784Y0121435D01*
X0164784Y0120684D01*
X0164034Y0119183D02*
X0162532Y0119183D01*
X0161782Y0119934D01*
X0160180Y0119183D02*
X0160180Y0121435D01*
X0159430Y0122186D01*
X0157178Y0122186D01*
X0157178Y0119183D01*
X0155576Y0119183D02*
X0155576Y0121435D01*
X0154826Y0122186D01*
X0152574Y0122186D01*
X0152574Y0119183D01*
X0150973Y0119934D02*
X0150973Y0121435D01*
X0150222Y0122186D01*
X0148721Y0122186D01*
X0147970Y0121435D01*
X0147970Y0119934D01*
X0148721Y0119183D01*
X0150222Y0119183D01*
X0150973Y0119934D01*
X0146369Y0119183D02*
X0144117Y0119183D01*
X0143366Y0119934D01*
X0143366Y0121435D01*
X0144117Y0122186D01*
X0146369Y0122186D01*
X0146419Y0126683D02*
X0148671Y0126683D01*
X0150272Y0126683D02*
X0150272Y0131187D01*
X0148671Y0129686D02*
X0146419Y0129686D01*
X0145668Y0128935D01*
X0145668Y0127434D01*
X0146419Y0126683D01*
X0144067Y0127434D02*
X0144067Y0128935D01*
X0143316Y0129686D01*
X0141815Y0129686D01*
X0141064Y0128935D01*
X0141064Y0127434D01*
X0141815Y0126683D01*
X0143316Y0126683D01*
X0144067Y0127434D01*
X0139463Y0127434D02*
X0138712Y0128184D01*
X0137211Y0128184D01*
X0136460Y0128935D01*
X0137211Y0129686D01*
X0139463Y0129686D01*
X0139463Y0127434D02*
X0138712Y0126683D01*
X0136460Y0126683D01*
X0137177Y0122186D02*
X0137928Y0121435D01*
X0137928Y0120684D01*
X0134926Y0120684D01*
X0134926Y0119934D02*
X0134926Y0121435D01*
X0135676Y0122186D01*
X0137177Y0122186D01*
X0139529Y0122186D02*
X0139529Y0119183D01*
X0139529Y0120684D02*
X0141031Y0122186D01*
X0141781Y0122186D01*
X0137177Y0119183D02*
X0135676Y0119183D01*
X0134926Y0119934D01*
X0133358Y0119183D02*
X0132607Y0119934D01*
X0132607Y0122936D01*
X0131856Y0122186D02*
X0133358Y0122186D01*
X0130255Y0121435D02*
X0130255Y0119183D01*
X0130255Y0121435D02*
X0129504Y0122186D01*
X0127252Y0122186D01*
X0127252Y0119183D01*
X0125684Y0119183D02*
X0124183Y0119183D01*
X0124934Y0119183D02*
X0124934Y0122186D01*
X0124183Y0122186D01*
X0124934Y0123687D02*
X0124934Y0124438D01*
X0124183Y0126683D02*
X0124183Y0131187D01*
X0126435Y0131187D01*
X0127186Y0130436D01*
X0127186Y0128935D01*
X0126435Y0128184D01*
X0124183Y0128184D01*
X0128787Y0126683D02*
X0130288Y0126683D01*
X0129538Y0126683D02*
X0129538Y0131187D01*
X0130288Y0131187D02*
X0128787Y0131187D01*
X0150272Y0128184D02*
X0152524Y0129686D01*
X0154109Y0128935D02*
X0154859Y0129686D01*
X0156360Y0129686D01*
X0157111Y0128935D01*
X0157111Y0128184D01*
X0154109Y0128184D01*
X0154109Y0127434D02*
X0154109Y0128935D01*
X0154109Y0127434D02*
X0154859Y0126683D01*
X0156360Y0126683D01*
X0159463Y0127434D02*
X0160214Y0126683D01*
X0159463Y0127434D02*
X0159463Y0130436D01*
X0158713Y0129686D02*
X0160214Y0129686D01*
X0152524Y0126683D02*
X0150272Y0128184D01*
X0207804Y0131187D02*
X0207804Y0131938D01*
D16*
X0316533Y0181533D02*
X0316533Y0183735D01*
X0317634Y0183735D01*
X0318001Y0183368D01*
X0318001Y0182634D01*
X0317634Y0182267D01*
X0316533Y0182267D01*
X0317267Y0182267D02*
X0318001Y0181533D01*
X0318743Y0181533D02*
X0320211Y0181533D01*
X0319477Y0181533D02*
X0319477Y0183735D01*
X0318743Y0183001D01*
X0320953Y0183001D02*
X0321687Y0183735D01*
X0321687Y0181533D01*
X0320953Y0181533D02*
X0322421Y0181533D01*
X0323163Y0181900D02*
X0324631Y0183368D01*
X0324631Y0181900D01*
X0324264Y0181533D01*
X0323530Y0181533D01*
X0323163Y0181900D01*
X0323163Y0183368D01*
X0323530Y0183735D01*
X0324264Y0183735D01*
X0324631Y0183368D01*
X0323163Y0266533D02*
X0323163Y0266900D01*
X0324631Y0268368D01*
X0324631Y0268735D01*
X0323163Y0268735D01*
X0322421Y0268368D02*
X0320953Y0266900D01*
X0321320Y0266533D01*
X0322054Y0266533D01*
X0322421Y0266900D01*
X0322421Y0268368D01*
X0322054Y0268735D01*
X0321320Y0268735D01*
X0320953Y0268368D01*
X0320953Y0266900D01*
X0320211Y0266533D02*
X0318743Y0266533D01*
X0319477Y0266533D02*
X0319477Y0268735D01*
X0318743Y0268001D01*
X0318001Y0268368D02*
X0318001Y0267634D01*
X0317634Y0267267D01*
X0316533Y0267267D01*
X0316533Y0266533D02*
X0316533Y0268735D01*
X0317634Y0268735D01*
X0318001Y0268368D01*
X0317267Y0267267D02*
X0318001Y0266533D01*
X0333933Y0387433D02*
X0333933Y0388433D01*
X0333933Y0409433D02*
X0333933Y0410433D01*
X0114631Y0338368D02*
X0114631Y0338001D01*
X0114264Y0337634D01*
X0113530Y0337634D01*
X0113163Y0338001D01*
X0113163Y0338368D01*
X0113530Y0338735D01*
X0114264Y0338735D01*
X0114631Y0338368D01*
X0114264Y0337634D02*
X0114631Y0337267D01*
X0114631Y0336900D01*
X0114264Y0336533D01*
X0113530Y0336533D01*
X0113163Y0336900D01*
X0113163Y0337267D01*
X0113530Y0337634D01*
X0112421Y0336533D02*
X0110953Y0336533D01*
X0111687Y0336533D02*
X0111687Y0338735D01*
X0110953Y0338001D01*
X0110211Y0336533D02*
X0108743Y0336533D01*
X0109477Y0336533D02*
X0109477Y0338735D01*
X0108743Y0338001D01*
X0108001Y0338368D02*
X0107634Y0338735D01*
X0106900Y0338735D01*
X0106533Y0338368D01*
X0106533Y0336900D01*
X0106900Y0336533D01*
X0107634Y0336533D01*
X0108001Y0336900D01*
X0107634Y0318735D02*
X0106900Y0318735D01*
X0106533Y0318368D01*
X0106533Y0316900D01*
X0106900Y0316533D01*
X0107634Y0316533D01*
X0108001Y0316900D01*
X0108743Y0316533D02*
X0110211Y0316533D01*
X0109477Y0316533D02*
X0109477Y0318735D01*
X0108743Y0318001D01*
X0108001Y0318368D02*
X0107634Y0318735D01*
X0110953Y0318368D02*
X0110953Y0316900D01*
X0112421Y0318368D01*
X0112421Y0316900D01*
X0112054Y0316533D01*
X0111320Y0316533D01*
X0110953Y0316900D01*
X0110953Y0318368D02*
X0111320Y0318735D01*
X0112054Y0318735D01*
X0112421Y0318368D01*
X0113163Y0318368D02*
X0113163Y0318001D01*
X0113530Y0317634D01*
X0114264Y0317634D01*
X0114631Y0317267D01*
X0114631Y0316900D01*
X0114264Y0316533D01*
X0113530Y0316533D01*
X0113163Y0316900D01*
X0113163Y0317267D01*
X0113530Y0317634D01*
X0114264Y0317634D02*
X0114631Y0318001D01*
X0114631Y0318368D01*
X0114264Y0318735D01*
X0113530Y0318735D01*
X0113163Y0318368D01*
X0058933Y0387433D02*
X0058933Y0388433D01*
X0058933Y0409433D02*
X0058933Y0410433D01*
X0058933Y0070433D02*
X0058933Y0069433D01*
X0058933Y0048433D02*
X0058933Y0047433D01*
X0333933Y0047433D02*
X0333933Y0048433D01*
X0333933Y0069433D02*
X0333933Y0070433D01*
D17*
X0322433Y0058933D02*
X0322436Y0059215D01*
X0322447Y0059497D01*
X0322464Y0059779D01*
X0322488Y0060060D01*
X0322519Y0060341D01*
X0322557Y0060620D01*
X0322602Y0060899D01*
X0322654Y0061177D01*
X0322712Y0061453D01*
X0322778Y0061727D01*
X0322850Y0062000D01*
X0322928Y0062271D01*
X0323013Y0062540D01*
X0323105Y0062807D01*
X0323204Y0063072D01*
X0323308Y0063334D01*
X0323420Y0063593D01*
X0323537Y0063850D01*
X0323661Y0064104D01*
X0323791Y0064354D01*
X0323927Y0064601D01*
X0324069Y0064845D01*
X0324217Y0065085D01*
X0324371Y0065322D01*
X0324531Y0065555D01*
X0324696Y0065784D01*
X0324867Y0066008D01*
X0325043Y0066229D01*
X0325225Y0066444D01*
X0325412Y0066656D01*
X0325604Y0066863D01*
X0325801Y0067065D01*
X0326003Y0067262D01*
X0326210Y0067454D01*
X0326422Y0067641D01*
X0326637Y0067823D01*
X0326858Y0067999D01*
X0327082Y0068170D01*
X0327311Y0068335D01*
X0327544Y0068495D01*
X0327781Y0068649D01*
X0328021Y0068797D01*
X0328265Y0068939D01*
X0328512Y0069075D01*
X0328762Y0069205D01*
X0329016Y0069329D01*
X0329273Y0069446D01*
X0329532Y0069558D01*
X0329794Y0069662D01*
X0330059Y0069761D01*
X0330326Y0069853D01*
X0330595Y0069938D01*
X0330866Y0070016D01*
X0331139Y0070088D01*
X0331413Y0070154D01*
X0331689Y0070212D01*
X0331967Y0070264D01*
X0332246Y0070309D01*
X0332525Y0070347D01*
X0332806Y0070378D01*
X0333087Y0070402D01*
X0333369Y0070419D01*
X0333651Y0070430D01*
X0333933Y0070433D01*
X0334215Y0070430D01*
X0334497Y0070419D01*
X0334779Y0070402D01*
X0335060Y0070378D01*
X0335341Y0070347D01*
X0335620Y0070309D01*
X0335899Y0070264D01*
X0336177Y0070212D01*
X0336453Y0070154D01*
X0336727Y0070088D01*
X0337000Y0070016D01*
X0337271Y0069938D01*
X0337540Y0069853D01*
X0337807Y0069761D01*
X0338072Y0069662D01*
X0338334Y0069558D01*
X0338593Y0069446D01*
X0338850Y0069329D01*
X0339104Y0069205D01*
X0339354Y0069075D01*
X0339601Y0068939D01*
X0339845Y0068797D01*
X0340085Y0068649D01*
X0340322Y0068495D01*
X0340555Y0068335D01*
X0340784Y0068170D01*
X0341008Y0067999D01*
X0341229Y0067823D01*
X0341444Y0067641D01*
X0341656Y0067454D01*
X0341863Y0067262D01*
X0342065Y0067065D01*
X0342262Y0066863D01*
X0342454Y0066656D01*
X0342641Y0066444D01*
X0342823Y0066229D01*
X0342999Y0066008D01*
X0343170Y0065784D01*
X0343335Y0065555D01*
X0343495Y0065322D01*
X0343649Y0065085D01*
X0343797Y0064845D01*
X0343939Y0064601D01*
X0344075Y0064354D01*
X0344205Y0064104D01*
X0344329Y0063850D01*
X0344446Y0063593D01*
X0344558Y0063334D01*
X0344662Y0063072D01*
X0344761Y0062807D01*
X0344853Y0062540D01*
X0344938Y0062271D01*
X0345016Y0062000D01*
X0345088Y0061727D01*
X0345154Y0061453D01*
X0345212Y0061177D01*
X0345264Y0060899D01*
X0345309Y0060620D01*
X0345347Y0060341D01*
X0345378Y0060060D01*
X0345402Y0059779D01*
X0345419Y0059497D01*
X0345430Y0059215D01*
X0345433Y0058933D01*
X0345430Y0058651D01*
X0345419Y0058369D01*
X0345402Y0058087D01*
X0345378Y0057806D01*
X0345347Y0057525D01*
X0345309Y0057246D01*
X0345264Y0056967D01*
X0345212Y0056689D01*
X0345154Y0056413D01*
X0345088Y0056139D01*
X0345016Y0055866D01*
X0344938Y0055595D01*
X0344853Y0055326D01*
X0344761Y0055059D01*
X0344662Y0054794D01*
X0344558Y0054532D01*
X0344446Y0054273D01*
X0344329Y0054016D01*
X0344205Y0053762D01*
X0344075Y0053512D01*
X0343939Y0053265D01*
X0343797Y0053021D01*
X0343649Y0052781D01*
X0343495Y0052544D01*
X0343335Y0052311D01*
X0343170Y0052082D01*
X0342999Y0051858D01*
X0342823Y0051637D01*
X0342641Y0051422D01*
X0342454Y0051210D01*
X0342262Y0051003D01*
X0342065Y0050801D01*
X0341863Y0050604D01*
X0341656Y0050412D01*
X0341444Y0050225D01*
X0341229Y0050043D01*
X0341008Y0049867D01*
X0340784Y0049696D01*
X0340555Y0049531D01*
X0340322Y0049371D01*
X0340085Y0049217D01*
X0339845Y0049069D01*
X0339601Y0048927D01*
X0339354Y0048791D01*
X0339104Y0048661D01*
X0338850Y0048537D01*
X0338593Y0048420D01*
X0338334Y0048308D01*
X0338072Y0048204D01*
X0337807Y0048105D01*
X0337540Y0048013D01*
X0337271Y0047928D01*
X0337000Y0047850D01*
X0336727Y0047778D01*
X0336453Y0047712D01*
X0336177Y0047654D01*
X0335899Y0047602D01*
X0335620Y0047557D01*
X0335341Y0047519D01*
X0335060Y0047488D01*
X0334779Y0047464D01*
X0334497Y0047447D01*
X0334215Y0047436D01*
X0333933Y0047433D01*
X0333651Y0047436D01*
X0333369Y0047447D01*
X0333087Y0047464D01*
X0332806Y0047488D01*
X0332525Y0047519D01*
X0332246Y0047557D01*
X0331967Y0047602D01*
X0331689Y0047654D01*
X0331413Y0047712D01*
X0331139Y0047778D01*
X0330866Y0047850D01*
X0330595Y0047928D01*
X0330326Y0048013D01*
X0330059Y0048105D01*
X0329794Y0048204D01*
X0329532Y0048308D01*
X0329273Y0048420D01*
X0329016Y0048537D01*
X0328762Y0048661D01*
X0328512Y0048791D01*
X0328265Y0048927D01*
X0328021Y0049069D01*
X0327781Y0049217D01*
X0327544Y0049371D01*
X0327311Y0049531D01*
X0327082Y0049696D01*
X0326858Y0049867D01*
X0326637Y0050043D01*
X0326422Y0050225D01*
X0326210Y0050412D01*
X0326003Y0050604D01*
X0325801Y0050801D01*
X0325604Y0051003D01*
X0325412Y0051210D01*
X0325225Y0051422D01*
X0325043Y0051637D01*
X0324867Y0051858D01*
X0324696Y0052082D01*
X0324531Y0052311D01*
X0324371Y0052544D01*
X0324217Y0052781D01*
X0324069Y0053021D01*
X0323927Y0053265D01*
X0323791Y0053512D01*
X0323661Y0053762D01*
X0323537Y0054016D01*
X0323420Y0054273D01*
X0323308Y0054532D01*
X0323204Y0054794D01*
X0323105Y0055059D01*
X0323013Y0055326D01*
X0322928Y0055595D01*
X0322850Y0055866D01*
X0322778Y0056139D01*
X0322712Y0056413D01*
X0322654Y0056689D01*
X0322602Y0056967D01*
X0322557Y0057246D01*
X0322519Y0057525D01*
X0322488Y0057806D01*
X0322464Y0058087D01*
X0322447Y0058369D01*
X0322436Y0058651D01*
X0322433Y0058933D01*
X0268933Y0051433D02*
X0266433Y0048933D01*
X0261433Y0048933D01*
X0258933Y0051433D01*
X0256433Y0048933D01*
X0251433Y0048933D01*
X0248933Y0051433D01*
X0246433Y0048933D01*
X0241433Y0048933D01*
X0238933Y0051433D01*
X0236433Y0048933D01*
X0231433Y0048933D01*
X0228933Y0051433D01*
X0228933Y0066433D01*
X0231433Y0068933D01*
X0236433Y0068933D01*
X0238933Y0066433D01*
X0241433Y0068933D01*
X0246433Y0068933D01*
X0248933Y0066433D01*
X0251433Y0068933D01*
X0256433Y0068933D01*
X0258933Y0066433D01*
X0261433Y0068933D01*
X0266433Y0068933D01*
X0268933Y0066433D01*
X0268933Y0051433D01*
X0258933Y0051433D02*
X0258933Y0066433D01*
X0248933Y0066433D02*
X0248933Y0051433D01*
X0238933Y0051433D02*
X0238933Y0066433D01*
X0228933Y0066433D02*
X0226433Y0068933D01*
X0221433Y0068933D01*
X0218933Y0066433D01*
X0218933Y0051433D01*
X0221433Y0048933D01*
X0226433Y0048933D01*
X0228933Y0051433D01*
X0218933Y0051433D02*
X0216433Y0048933D01*
X0211433Y0048933D01*
X0208933Y0051433D01*
X0208933Y0066433D01*
X0211433Y0068933D01*
X0216433Y0068933D01*
X0218933Y0066433D01*
X0208933Y0066433D02*
X0206433Y0068933D01*
X0201433Y0068933D01*
X0198933Y0066433D01*
X0198933Y0051433D01*
X0196433Y0048933D01*
X0191433Y0048933D01*
X0188933Y0051433D01*
X0188933Y0066433D01*
X0191433Y0068933D01*
X0196433Y0068933D01*
X0198933Y0066433D01*
X0188933Y0066433D02*
X0186433Y0068933D01*
X0181433Y0068933D01*
X0178933Y0066433D01*
X0178933Y0051433D01*
X0176433Y0048933D01*
X0171433Y0048933D01*
X0168933Y0051433D01*
X0168933Y0066433D01*
X0171433Y0068933D01*
X0176433Y0068933D01*
X0178933Y0066433D01*
X0168933Y0066433D02*
X0166433Y0068933D01*
X0161433Y0068933D01*
X0158933Y0066433D01*
X0158933Y0051433D01*
X0161433Y0048933D01*
X0166433Y0048933D01*
X0168933Y0051433D01*
X0178933Y0051433D02*
X0181433Y0048933D01*
X0186433Y0048933D01*
X0188933Y0051433D01*
X0198933Y0051433D02*
X0201433Y0048933D01*
X0206433Y0048933D01*
X0208933Y0051433D01*
X0158933Y0051433D02*
X0156433Y0048933D01*
X0151433Y0048933D01*
X0148933Y0051433D01*
X0148933Y0066433D01*
X0151433Y0068933D01*
X0156433Y0068933D01*
X0158933Y0066433D01*
X0148933Y0066433D02*
X0146433Y0068933D01*
X0141433Y0068933D01*
X0138933Y0066433D01*
X0138933Y0051433D01*
X0141433Y0048933D01*
X0146433Y0048933D01*
X0148933Y0051433D01*
X0138933Y0051433D02*
X0136433Y0048933D01*
X0131433Y0048933D01*
X0128933Y0051433D01*
X0128933Y0066433D01*
X0131433Y0068933D01*
X0136433Y0068933D01*
X0138933Y0066433D01*
X0128933Y0066433D02*
X0126433Y0068933D01*
X0121433Y0068933D01*
X0118933Y0066433D01*
X0118933Y0051433D01*
X0121433Y0048933D01*
X0126433Y0048933D01*
X0128933Y0051433D01*
X0118933Y0051433D02*
X0116433Y0048933D01*
X0111433Y0048933D01*
X0108933Y0051433D01*
X0108933Y0066433D01*
X0111433Y0068933D01*
X0116433Y0068933D01*
X0118933Y0066433D01*
X0108933Y0066433D02*
X0106433Y0068933D01*
X0101433Y0068933D01*
X0098933Y0066433D01*
X0098933Y0051433D01*
X0101433Y0048933D01*
X0106433Y0048933D01*
X0108933Y0051433D01*
X0047433Y0058933D02*
X0047436Y0059215D01*
X0047447Y0059497D01*
X0047464Y0059779D01*
X0047488Y0060060D01*
X0047519Y0060341D01*
X0047557Y0060620D01*
X0047602Y0060899D01*
X0047654Y0061177D01*
X0047712Y0061453D01*
X0047778Y0061727D01*
X0047850Y0062000D01*
X0047928Y0062271D01*
X0048013Y0062540D01*
X0048105Y0062807D01*
X0048204Y0063072D01*
X0048308Y0063334D01*
X0048420Y0063593D01*
X0048537Y0063850D01*
X0048661Y0064104D01*
X0048791Y0064354D01*
X0048927Y0064601D01*
X0049069Y0064845D01*
X0049217Y0065085D01*
X0049371Y0065322D01*
X0049531Y0065555D01*
X0049696Y0065784D01*
X0049867Y0066008D01*
X0050043Y0066229D01*
X0050225Y0066444D01*
X0050412Y0066656D01*
X0050604Y0066863D01*
X0050801Y0067065D01*
X0051003Y0067262D01*
X0051210Y0067454D01*
X0051422Y0067641D01*
X0051637Y0067823D01*
X0051858Y0067999D01*
X0052082Y0068170D01*
X0052311Y0068335D01*
X0052544Y0068495D01*
X0052781Y0068649D01*
X0053021Y0068797D01*
X0053265Y0068939D01*
X0053512Y0069075D01*
X0053762Y0069205D01*
X0054016Y0069329D01*
X0054273Y0069446D01*
X0054532Y0069558D01*
X0054794Y0069662D01*
X0055059Y0069761D01*
X0055326Y0069853D01*
X0055595Y0069938D01*
X0055866Y0070016D01*
X0056139Y0070088D01*
X0056413Y0070154D01*
X0056689Y0070212D01*
X0056967Y0070264D01*
X0057246Y0070309D01*
X0057525Y0070347D01*
X0057806Y0070378D01*
X0058087Y0070402D01*
X0058369Y0070419D01*
X0058651Y0070430D01*
X0058933Y0070433D01*
X0059215Y0070430D01*
X0059497Y0070419D01*
X0059779Y0070402D01*
X0060060Y0070378D01*
X0060341Y0070347D01*
X0060620Y0070309D01*
X0060899Y0070264D01*
X0061177Y0070212D01*
X0061453Y0070154D01*
X0061727Y0070088D01*
X0062000Y0070016D01*
X0062271Y0069938D01*
X0062540Y0069853D01*
X0062807Y0069761D01*
X0063072Y0069662D01*
X0063334Y0069558D01*
X0063593Y0069446D01*
X0063850Y0069329D01*
X0064104Y0069205D01*
X0064354Y0069075D01*
X0064601Y0068939D01*
X0064845Y0068797D01*
X0065085Y0068649D01*
X0065322Y0068495D01*
X0065555Y0068335D01*
X0065784Y0068170D01*
X0066008Y0067999D01*
X0066229Y0067823D01*
X0066444Y0067641D01*
X0066656Y0067454D01*
X0066863Y0067262D01*
X0067065Y0067065D01*
X0067262Y0066863D01*
X0067454Y0066656D01*
X0067641Y0066444D01*
X0067823Y0066229D01*
X0067999Y0066008D01*
X0068170Y0065784D01*
X0068335Y0065555D01*
X0068495Y0065322D01*
X0068649Y0065085D01*
X0068797Y0064845D01*
X0068939Y0064601D01*
X0069075Y0064354D01*
X0069205Y0064104D01*
X0069329Y0063850D01*
X0069446Y0063593D01*
X0069558Y0063334D01*
X0069662Y0063072D01*
X0069761Y0062807D01*
X0069853Y0062540D01*
X0069938Y0062271D01*
X0070016Y0062000D01*
X0070088Y0061727D01*
X0070154Y0061453D01*
X0070212Y0061177D01*
X0070264Y0060899D01*
X0070309Y0060620D01*
X0070347Y0060341D01*
X0070378Y0060060D01*
X0070402Y0059779D01*
X0070419Y0059497D01*
X0070430Y0059215D01*
X0070433Y0058933D01*
X0070430Y0058651D01*
X0070419Y0058369D01*
X0070402Y0058087D01*
X0070378Y0057806D01*
X0070347Y0057525D01*
X0070309Y0057246D01*
X0070264Y0056967D01*
X0070212Y0056689D01*
X0070154Y0056413D01*
X0070088Y0056139D01*
X0070016Y0055866D01*
X0069938Y0055595D01*
X0069853Y0055326D01*
X0069761Y0055059D01*
X0069662Y0054794D01*
X0069558Y0054532D01*
X0069446Y0054273D01*
X0069329Y0054016D01*
X0069205Y0053762D01*
X0069075Y0053512D01*
X0068939Y0053265D01*
X0068797Y0053021D01*
X0068649Y0052781D01*
X0068495Y0052544D01*
X0068335Y0052311D01*
X0068170Y0052082D01*
X0067999Y0051858D01*
X0067823Y0051637D01*
X0067641Y0051422D01*
X0067454Y0051210D01*
X0067262Y0051003D01*
X0067065Y0050801D01*
X0066863Y0050604D01*
X0066656Y0050412D01*
X0066444Y0050225D01*
X0066229Y0050043D01*
X0066008Y0049867D01*
X0065784Y0049696D01*
X0065555Y0049531D01*
X0065322Y0049371D01*
X0065085Y0049217D01*
X0064845Y0049069D01*
X0064601Y0048927D01*
X0064354Y0048791D01*
X0064104Y0048661D01*
X0063850Y0048537D01*
X0063593Y0048420D01*
X0063334Y0048308D01*
X0063072Y0048204D01*
X0062807Y0048105D01*
X0062540Y0048013D01*
X0062271Y0047928D01*
X0062000Y0047850D01*
X0061727Y0047778D01*
X0061453Y0047712D01*
X0061177Y0047654D01*
X0060899Y0047602D01*
X0060620Y0047557D01*
X0060341Y0047519D01*
X0060060Y0047488D01*
X0059779Y0047464D01*
X0059497Y0047447D01*
X0059215Y0047436D01*
X0058933Y0047433D01*
X0058651Y0047436D01*
X0058369Y0047447D01*
X0058087Y0047464D01*
X0057806Y0047488D01*
X0057525Y0047519D01*
X0057246Y0047557D01*
X0056967Y0047602D01*
X0056689Y0047654D01*
X0056413Y0047712D01*
X0056139Y0047778D01*
X0055866Y0047850D01*
X0055595Y0047928D01*
X0055326Y0048013D01*
X0055059Y0048105D01*
X0054794Y0048204D01*
X0054532Y0048308D01*
X0054273Y0048420D01*
X0054016Y0048537D01*
X0053762Y0048661D01*
X0053512Y0048791D01*
X0053265Y0048927D01*
X0053021Y0049069D01*
X0052781Y0049217D01*
X0052544Y0049371D01*
X0052311Y0049531D01*
X0052082Y0049696D01*
X0051858Y0049867D01*
X0051637Y0050043D01*
X0051422Y0050225D01*
X0051210Y0050412D01*
X0051003Y0050604D01*
X0050801Y0050801D01*
X0050604Y0051003D01*
X0050412Y0051210D01*
X0050225Y0051422D01*
X0050043Y0051637D01*
X0049867Y0051858D01*
X0049696Y0052082D01*
X0049531Y0052311D01*
X0049371Y0052544D01*
X0049217Y0052781D01*
X0049069Y0053021D01*
X0048927Y0053265D01*
X0048791Y0053512D01*
X0048661Y0053762D01*
X0048537Y0054016D01*
X0048420Y0054273D01*
X0048308Y0054532D01*
X0048204Y0054794D01*
X0048105Y0055059D01*
X0048013Y0055326D01*
X0047928Y0055595D01*
X0047850Y0055866D01*
X0047778Y0056139D01*
X0047712Y0056413D01*
X0047654Y0056689D01*
X0047602Y0056967D01*
X0047557Y0057246D01*
X0047519Y0057525D01*
X0047488Y0057806D01*
X0047464Y0058087D01*
X0047447Y0058369D01*
X0047436Y0058651D01*
X0047433Y0058933D01*
X0076433Y0118933D02*
X0073933Y0121433D01*
X0073933Y0126433D01*
X0076433Y0128933D01*
X0073933Y0131433D01*
X0073933Y0136433D01*
X0076433Y0138933D01*
X0091433Y0138933D01*
X0093933Y0136433D01*
X0093933Y0131433D01*
X0091433Y0128933D01*
X0093933Y0126433D01*
X0093933Y0121433D01*
X0091433Y0118933D01*
X0076433Y0118933D01*
X0076433Y0128933D02*
X0091433Y0128933D01*
X0091433Y0138933D02*
X0093933Y0141433D01*
X0093933Y0146433D01*
X0091433Y0148933D01*
X0076433Y0148933D01*
X0073933Y0146433D01*
X0073933Y0141433D01*
X0076433Y0138933D01*
X0076433Y0148933D02*
X0073933Y0151433D01*
X0073933Y0156433D01*
X0076433Y0158933D01*
X0091433Y0158933D01*
X0093933Y0156433D01*
X0093933Y0151433D01*
X0091433Y0148933D01*
X0091433Y0158933D02*
X0093933Y0161433D01*
X0093933Y0166433D01*
X0091433Y0168933D01*
X0076433Y0168933D01*
X0073933Y0171433D01*
X0073933Y0176433D01*
X0076433Y0178933D01*
X0091433Y0178933D01*
X0093933Y0176433D01*
X0093933Y0171433D01*
X0091433Y0168933D01*
X0091433Y0178933D02*
X0093933Y0181433D01*
X0093933Y0186433D01*
X0091433Y0188933D01*
X0076433Y0188933D01*
X0073933Y0191433D01*
X0073933Y0196433D01*
X0076433Y0198933D01*
X0091433Y0198933D01*
X0093933Y0196433D01*
X0093933Y0191433D01*
X0091433Y0188933D01*
X0091433Y0198933D02*
X0093933Y0201433D01*
X0093933Y0206433D01*
X0091433Y0208933D01*
X0076433Y0208933D01*
X0073933Y0206433D01*
X0073933Y0201433D01*
X0076433Y0198933D01*
X0076433Y0188933D02*
X0073933Y0186433D01*
X0073933Y0181433D01*
X0076433Y0178933D01*
X0076433Y0168933D02*
X0073933Y0166433D01*
X0073933Y0161433D01*
X0076433Y0158933D01*
X0076433Y0208933D02*
X0073933Y0211433D01*
X0073933Y0216433D01*
X0076433Y0218933D01*
X0091433Y0218933D01*
X0093933Y0216433D01*
X0093933Y0211433D01*
X0091433Y0208933D01*
X0091433Y0218933D02*
X0093933Y0221433D01*
X0093933Y0226433D01*
X0091433Y0228933D01*
X0076433Y0228933D01*
X0073933Y0226433D01*
X0073933Y0221433D01*
X0076433Y0218933D01*
X0076433Y0228933D02*
X0073933Y0231433D01*
X0073933Y0236433D01*
X0076433Y0238933D01*
X0091433Y0238933D01*
X0093933Y0236433D01*
X0093933Y0231433D01*
X0091433Y0228933D01*
X0091433Y0238933D02*
X0093933Y0241433D01*
X0093933Y0246433D01*
X0091433Y0248933D01*
X0076433Y0248933D01*
X0073933Y0246433D01*
X0073933Y0241433D01*
X0076433Y0238933D01*
X0076433Y0248933D02*
X0073933Y0251433D01*
X0073933Y0256433D01*
X0076433Y0258933D01*
X0091433Y0258933D01*
X0093933Y0256433D01*
X0093933Y0251433D01*
X0091433Y0248933D01*
X0091433Y0258933D02*
X0093933Y0261433D01*
X0093933Y0266433D01*
X0091433Y0268933D01*
X0076433Y0268933D01*
X0073933Y0266433D01*
X0073933Y0261433D01*
X0076433Y0258933D01*
X0076433Y0278933D02*
X0091433Y0278933D01*
X0093933Y0281433D01*
X0093933Y0286433D01*
X0091433Y0288933D01*
X0076433Y0288933D01*
X0073933Y0291433D01*
X0073933Y0296433D01*
X0076433Y0298933D01*
X0091433Y0298933D01*
X0093933Y0296433D01*
X0093933Y0291433D01*
X0091433Y0288933D01*
X0091433Y0298933D02*
X0093933Y0301433D01*
X0093933Y0306433D01*
X0091433Y0308933D01*
X0076433Y0308933D01*
X0073933Y0306433D01*
X0073933Y0301433D01*
X0076433Y0298933D01*
X0076433Y0288933D02*
X0073933Y0286433D01*
X0073933Y0281433D01*
X0076433Y0278933D01*
X0076433Y0308933D02*
X0073933Y0311433D01*
X0073933Y0316433D01*
X0076433Y0318933D01*
X0091433Y0318933D01*
X0093933Y0316433D01*
X0093933Y0311433D01*
X0091433Y0308933D01*
X0091433Y0318933D02*
X0093933Y0321433D01*
X0093933Y0326433D01*
X0091433Y0328933D01*
X0076433Y0328933D01*
X0073933Y0326433D01*
X0073933Y0321433D01*
X0076433Y0318933D01*
X0076433Y0328933D02*
X0073933Y0331433D01*
X0073933Y0336433D01*
X0076433Y0338933D01*
X0091433Y0338933D01*
X0093933Y0336433D01*
X0093933Y0331433D01*
X0091433Y0328933D01*
X0091433Y0338933D02*
X0093933Y0341433D01*
X0093933Y0346433D01*
X0091433Y0348933D01*
X0076433Y0348933D01*
X0073933Y0346433D01*
X0073933Y0341433D01*
X0076433Y0338933D01*
X0076433Y0348933D02*
X0073933Y0351433D01*
X0073933Y0356433D01*
X0076433Y0358933D01*
X0091433Y0358933D01*
X0093933Y0356433D01*
X0093933Y0351433D01*
X0091433Y0348933D01*
X0047433Y0398933D02*
X0047436Y0399215D01*
X0047447Y0399497D01*
X0047464Y0399779D01*
X0047488Y0400060D01*
X0047519Y0400341D01*
X0047557Y0400620D01*
X0047602Y0400899D01*
X0047654Y0401177D01*
X0047712Y0401453D01*
X0047778Y0401727D01*
X0047850Y0402000D01*
X0047928Y0402271D01*
X0048013Y0402540D01*
X0048105Y0402807D01*
X0048204Y0403072D01*
X0048308Y0403334D01*
X0048420Y0403593D01*
X0048537Y0403850D01*
X0048661Y0404104D01*
X0048791Y0404354D01*
X0048927Y0404601D01*
X0049069Y0404845D01*
X0049217Y0405085D01*
X0049371Y0405322D01*
X0049531Y0405555D01*
X0049696Y0405784D01*
X0049867Y0406008D01*
X0050043Y0406229D01*
X0050225Y0406444D01*
X0050412Y0406656D01*
X0050604Y0406863D01*
X0050801Y0407065D01*
X0051003Y0407262D01*
X0051210Y0407454D01*
X0051422Y0407641D01*
X0051637Y0407823D01*
X0051858Y0407999D01*
X0052082Y0408170D01*
X0052311Y0408335D01*
X0052544Y0408495D01*
X0052781Y0408649D01*
X0053021Y0408797D01*
X0053265Y0408939D01*
X0053512Y0409075D01*
X0053762Y0409205D01*
X0054016Y0409329D01*
X0054273Y0409446D01*
X0054532Y0409558D01*
X0054794Y0409662D01*
X0055059Y0409761D01*
X0055326Y0409853D01*
X0055595Y0409938D01*
X0055866Y0410016D01*
X0056139Y0410088D01*
X0056413Y0410154D01*
X0056689Y0410212D01*
X0056967Y0410264D01*
X0057246Y0410309D01*
X0057525Y0410347D01*
X0057806Y0410378D01*
X0058087Y0410402D01*
X0058369Y0410419D01*
X0058651Y0410430D01*
X0058933Y0410433D01*
X0059215Y0410430D01*
X0059497Y0410419D01*
X0059779Y0410402D01*
X0060060Y0410378D01*
X0060341Y0410347D01*
X0060620Y0410309D01*
X0060899Y0410264D01*
X0061177Y0410212D01*
X0061453Y0410154D01*
X0061727Y0410088D01*
X0062000Y0410016D01*
X0062271Y0409938D01*
X0062540Y0409853D01*
X0062807Y0409761D01*
X0063072Y0409662D01*
X0063334Y0409558D01*
X0063593Y0409446D01*
X0063850Y0409329D01*
X0064104Y0409205D01*
X0064354Y0409075D01*
X0064601Y0408939D01*
X0064845Y0408797D01*
X0065085Y0408649D01*
X0065322Y0408495D01*
X0065555Y0408335D01*
X0065784Y0408170D01*
X0066008Y0407999D01*
X0066229Y0407823D01*
X0066444Y0407641D01*
X0066656Y0407454D01*
X0066863Y0407262D01*
X0067065Y0407065D01*
X0067262Y0406863D01*
X0067454Y0406656D01*
X0067641Y0406444D01*
X0067823Y0406229D01*
X0067999Y0406008D01*
X0068170Y0405784D01*
X0068335Y0405555D01*
X0068495Y0405322D01*
X0068649Y0405085D01*
X0068797Y0404845D01*
X0068939Y0404601D01*
X0069075Y0404354D01*
X0069205Y0404104D01*
X0069329Y0403850D01*
X0069446Y0403593D01*
X0069558Y0403334D01*
X0069662Y0403072D01*
X0069761Y0402807D01*
X0069853Y0402540D01*
X0069938Y0402271D01*
X0070016Y0402000D01*
X0070088Y0401727D01*
X0070154Y0401453D01*
X0070212Y0401177D01*
X0070264Y0400899D01*
X0070309Y0400620D01*
X0070347Y0400341D01*
X0070378Y0400060D01*
X0070402Y0399779D01*
X0070419Y0399497D01*
X0070430Y0399215D01*
X0070433Y0398933D01*
X0070430Y0398651D01*
X0070419Y0398369D01*
X0070402Y0398087D01*
X0070378Y0397806D01*
X0070347Y0397525D01*
X0070309Y0397246D01*
X0070264Y0396967D01*
X0070212Y0396689D01*
X0070154Y0396413D01*
X0070088Y0396139D01*
X0070016Y0395866D01*
X0069938Y0395595D01*
X0069853Y0395326D01*
X0069761Y0395059D01*
X0069662Y0394794D01*
X0069558Y0394532D01*
X0069446Y0394273D01*
X0069329Y0394016D01*
X0069205Y0393762D01*
X0069075Y0393512D01*
X0068939Y0393265D01*
X0068797Y0393021D01*
X0068649Y0392781D01*
X0068495Y0392544D01*
X0068335Y0392311D01*
X0068170Y0392082D01*
X0067999Y0391858D01*
X0067823Y0391637D01*
X0067641Y0391422D01*
X0067454Y0391210D01*
X0067262Y0391003D01*
X0067065Y0390801D01*
X0066863Y0390604D01*
X0066656Y0390412D01*
X0066444Y0390225D01*
X0066229Y0390043D01*
X0066008Y0389867D01*
X0065784Y0389696D01*
X0065555Y0389531D01*
X0065322Y0389371D01*
X0065085Y0389217D01*
X0064845Y0389069D01*
X0064601Y0388927D01*
X0064354Y0388791D01*
X0064104Y0388661D01*
X0063850Y0388537D01*
X0063593Y0388420D01*
X0063334Y0388308D01*
X0063072Y0388204D01*
X0062807Y0388105D01*
X0062540Y0388013D01*
X0062271Y0387928D01*
X0062000Y0387850D01*
X0061727Y0387778D01*
X0061453Y0387712D01*
X0061177Y0387654D01*
X0060899Y0387602D01*
X0060620Y0387557D01*
X0060341Y0387519D01*
X0060060Y0387488D01*
X0059779Y0387464D01*
X0059497Y0387447D01*
X0059215Y0387436D01*
X0058933Y0387433D01*
X0058651Y0387436D01*
X0058369Y0387447D01*
X0058087Y0387464D01*
X0057806Y0387488D01*
X0057525Y0387519D01*
X0057246Y0387557D01*
X0056967Y0387602D01*
X0056689Y0387654D01*
X0056413Y0387712D01*
X0056139Y0387778D01*
X0055866Y0387850D01*
X0055595Y0387928D01*
X0055326Y0388013D01*
X0055059Y0388105D01*
X0054794Y0388204D01*
X0054532Y0388308D01*
X0054273Y0388420D01*
X0054016Y0388537D01*
X0053762Y0388661D01*
X0053512Y0388791D01*
X0053265Y0388927D01*
X0053021Y0389069D01*
X0052781Y0389217D01*
X0052544Y0389371D01*
X0052311Y0389531D01*
X0052082Y0389696D01*
X0051858Y0389867D01*
X0051637Y0390043D01*
X0051422Y0390225D01*
X0051210Y0390412D01*
X0051003Y0390604D01*
X0050801Y0390801D01*
X0050604Y0391003D01*
X0050412Y0391210D01*
X0050225Y0391422D01*
X0050043Y0391637D01*
X0049867Y0391858D01*
X0049696Y0392082D01*
X0049531Y0392311D01*
X0049371Y0392544D01*
X0049217Y0392781D01*
X0049069Y0393021D01*
X0048927Y0393265D01*
X0048791Y0393512D01*
X0048661Y0393762D01*
X0048537Y0394016D01*
X0048420Y0394273D01*
X0048308Y0394532D01*
X0048204Y0394794D01*
X0048105Y0395059D01*
X0048013Y0395326D01*
X0047928Y0395595D01*
X0047850Y0395866D01*
X0047778Y0396139D01*
X0047712Y0396413D01*
X0047654Y0396689D01*
X0047602Y0396967D01*
X0047557Y0397246D01*
X0047519Y0397525D01*
X0047488Y0397806D01*
X0047464Y0398087D01*
X0047447Y0398369D01*
X0047436Y0398651D01*
X0047433Y0398933D01*
X0208933Y0356433D02*
X0208933Y0351433D01*
X0211433Y0348933D01*
X0226433Y0348933D01*
X0228933Y0346433D01*
X0228933Y0341433D01*
X0226433Y0338933D01*
X0211433Y0338933D01*
X0208933Y0336433D01*
X0208933Y0331433D01*
X0211433Y0328933D01*
X0226433Y0328933D01*
X0228933Y0326433D01*
X0228933Y0321433D01*
X0226433Y0318933D01*
X0211433Y0318933D01*
X0208933Y0316433D01*
X0208933Y0311433D01*
X0211433Y0308933D01*
X0226433Y0308933D01*
X0228933Y0306433D01*
X0228933Y0301433D01*
X0226433Y0298933D01*
X0211433Y0298933D01*
X0208933Y0296433D01*
X0208933Y0291433D01*
X0211433Y0288933D01*
X0226433Y0288933D01*
X0228933Y0286433D01*
X0228933Y0281433D01*
X0226433Y0278933D01*
X0211433Y0278933D01*
X0208933Y0281433D01*
X0208933Y0286433D01*
X0211433Y0288933D01*
X0211433Y0298933D02*
X0208933Y0301433D01*
X0208933Y0306433D01*
X0211433Y0308933D01*
X0211433Y0318933D02*
X0208933Y0321433D01*
X0208933Y0326433D01*
X0211433Y0328933D01*
X0211433Y0338933D02*
X0208933Y0341433D01*
X0208933Y0346433D01*
X0211433Y0348933D01*
X0208933Y0356433D02*
X0211433Y0358933D01*
X0226433Y0358933D01*
X0228933Y0356433D01*
X0228933Y0351433D01*
X0226433Y0348933D01*
X0226433Y0338933D02*
X0228933Y0336433D01*
X0228933Y0331433D01*
X0226433Y0328933D01*
X0226433Y0318933D02*
X0228933Y0316433D01*
X0228933Y0311433D01*
X0226433Y0308933D01*
X0226433Y0298933D02*
X0228933Y0296433D01*
X0228933Y0291433D01*
X0226433Y0288933D01*
X0226433Y0278933D02*
X0228933Y0276433D01*
X0228933Y0271433D01*
X0226433Y0268933D01*
X0211433Y0268933D01*
X0208933Y0271433D01*
X0208933Y0276433D01*
X0211433Y0278933D01*
X0211433Y0268933D02*
X0208933Y0266433D01*
X0208933Y0261433D01*
X0211433Y0258933D01*
X0226433Y0258933D01*
X0228933Y0256433D01*
X0228933Y0251433D01*
X0226433Y0248933D01*
X0211433Y0248933D01*
X0208933Y0251433D01*
X0208933Y0256433D01*
X0211433Y0258933D01*
X0211433Y0248933D02*
X0208933Y0246433D01*
X0208933Y0241433D01*
X0211433Y0238933D01*
X0208933Y0236433D01*
X0208933Y0231433D01*
X0211433Y0228933D01*
X0208933Y0226433D01*
X0208933Y0221433D01*
X0211433Y0218933D01*
X0208933Y0216433D01*
X0208933Y0211433D01*
X0211433Y0208933D01*
X0208933Y0206433D01*
X0208933Y0201433D01*
X0211433Y0198933D01*
X0208933Y0196433D01*
X0208933Y0191433D01*
X0211433Y0188933D01*
X0208933Y0186433D01*
X0208933Y0181433D01*
X0211433Y0178933D01*
X0208933Y0176433D01*
X0208933Y0171433D01*
X0211433Y0168933D01*
X0208933Y0166433D01*
X0208933Y0161433D01*
X0211433Y0158933D01*
X0226433Y0158933D01*
X0228933Y0161433D01*
X0228933Y0166433D01*
X0226433Y0168933D01*
X0228933Y0171433D01*
X0228933Y0176433D01*
X0226433Y0178933D01*
X0228933Y0181433D01*
X0228933Y0186433D01*
X0226433Y0188933D01*
X0228933Y0191433D01*
X0228933Y0196433D01*
X0226433Y0198933D01*
X0228933Y0201433D01*
X0228933Y0206433D01*
X0226433Y0208933D01*
X0228933Y0211433D01*
X0228933Y0216433D01*
X0226433Y0218933D01*
X0228933Y0221433D01*
X0228933Y0226433D01*
X0226433Y0228933D01*
X0211433Y0228933D01*
X0211433Y0218933D02*
X0226433Y0218933D01*
X0226433Y0228933D02*
X0228933Y0231433D01*
X0228933Y0236433D01*
X0226433Y0238933D01*
X0211433Y0238933D01*
X0226433Y0238933D02*
X0228933Y0241433D01*
X0228933Y0246433D01*
X0226433Y0248933D01*
X0226433Y0258933D02*
X0228933Y0261433D01*
X0228933Y0266433D01*
X0226433Y0268933D01*
X0273933Y0266433D02*
X0273933Y0261433D01*
X0276433Y0258933D01*
X0291433Y0258933D01*
X0293933Y0256433D01*
X0293933Y0251433D01*
X0291433Y0248933D01*
X0276433Y0248933D01*
X0273933Y0246433D01*
X0273933Y0241433D01*
X0276433Y0238933D01*
X0291433Y0238933D01*
X0293933Y0236433D01*
X0293933Y0231433D01*
X0291433Y0228933D01*
X0276433Y0228933D01*
X0273933Y0226433D01*
X0273933Y0221433D01*
X0276433Y0218933D01*
X0291433Y0218933D01*
X0293933Y0216433D01*
X0293933Y0211433D01*
X0291433Y0208933D01*
X0276433Y0208933D01*
X0273933Y0211433D01*
X0273933Y0216433D01*
X0276433Y0218933D01*
X0276433Y0228933D02*
X0273933Y0231433D01*
X0273933Y0236433D01*
X0276433Y0238933D01*
X0276433Y0248933D02*
X0273933Y0251433D01*
X0273933Y0256433D01*
X0276433Y0258933D01*
X0273933Y0266433D02*
X0276433Y0268933D01*
X0291433Y0268933D01*
X0293933Y0266433D01*
X0293933Y0261433D01*
X0291433Y0258933D01*
X0291433Y0268933D02*
X0293933Y0271433D01*
X0293933Y0276433D01*
X0291433Y0278933D01*
X0276433Y0278933D01*
X0273933Y0276433D01*
X0273933Y0271433D01*
X0276433Y0268933D01*
X0276433Y0278933D02*
X0273933Y0281433D01*
X0273933Y0286433D01*
X0276433Y0288933D01*
X0291433Y0288933D01*
X0293933Y0286433D01*
X0293933Y0281433D01*
X0291433Y0278933D01*
X0291433Y0293933D02*
X0276433Y0293933D01*
X0273933Y0296433D01*
X0273933Y0301433D01*
X0276433Y0303933D01*
X0291433Y0303933D01*
X0293933Y0301433D01*
X0293933Y0296433D01*
X0291433Y0293933D01*
X0291433Y0303933D02*
X0293933Y0306433D01*
X0293933Y0311433D01*
X0291433Y0313933D01*
X0276433Y0313933D01*
X0273933Y0316433D01*
X0273933Y0321433D01*
X0276433Y0323933D01*
X0291433Y0323933D01*
X0293933Y0321433D01*
X0293933Y0316433D01*
X0291433Y0313933D01*
X0291433Y0323933D02*
X0293933Y0326433D01*
X0293933Y0331433D01*
X0291433Y0333933D01*
X0276433Y0333933D01*
X0273933Y0331433D01*
X0273933Y0326433D01*
X0276433Y0323933D01*
X0276433Y0313933D02*
X0273933Y0311433D01*
X0273933Y0306433D01*
X0276433Y0303933D01*
X0276433Y0333933D02*
X0273933Y0336433D01*
X0273933Y0341433D01*
X0276433Y0343933D01*
X0291433Y0343933D01*
X0293933Y0341433D01*
X0293933Y0336433D01*
X0291433Y0333933D01*
X0291433Y0343933D02*
X0293933Y0346433D01*
X0293933Y0351433D01*
X0291433Y0353933D01*
X0276433Y0353933D01*
X0273933Y0351433D01*
X0273933Y0346433D01*
X0276433Y0343933D01*
X0276433Y0353933D02*
X0273933Y0356433D01*
X0273933Y0361433D01*
X0276433Y0363933D01*
X0291433Y0363933D01*
X0293933Y0361433D01*
X0293933Y0356433D01*
X0291433Y0353933D01*
X0291433Y0363933D02*
X0293933Y0366433D01*
X0293933Y0371433D01*
X0291433Y0373933D01*
X0276433Y0373933D01*
X0273933Y0371433D01*
X0273933Y0366433D01*
X0276433Y0363933D01*
X0276433Y0373933D02*
X0273933Y0376433D01*
X0273933Y0381433D01*
X0276433Y0383933D01*
X0291433Y0383933D01*
X0293933Y0381433D01*
X0293933Y0376433D01*
X0291433Y0373933D01*
X0291433Y0383933D02*
X0293933Y0386433D01*
X0293933Y0391433D01*
X0291433Y0393933D01*
X0276433Y0393933D01*
X0273933Y0391433D01*
X0273933Y0386433D01*
X0276433Y0383933D01*
X0322433Y0398933D02*
X0322436Y0399215D01*
X0322447Y0399497D01*
X0322464Y0399779D01*
X0322488Y0400060D01*
X0322519Y0400341D01*
X0322557Y0400620D01*
X0322602Y0400899D01*
X0322654Y0401177D01*
X0322712Y0401453D01*
X0322778Y0401727D01*
X0322850Y0402000D01*
X0322928Y0402271D01*
X0323013Y0402540D01*
X0323105Y0402807D01*
X0323204Y0403072D01*
X0323308Y0403334D01*
X0323420Y0403593D01*
X0323537Y0403850D01*
X0323661Y0404104D01*
X0323791Y0404354D01*
X0323927Y0404601D01*
X0324069Y0404845D01*
X0324217Y0405085D01*
X0324371Y0405322D01*
X0324531Y0405555D01*
X0324696Y0405784D01*
X0324867Y0406008D01*
X0325043Y0406229D01*
X0325225Y0406444D01*
X0325412Y0406656D01*
X0325604Y0406863D01*
X0325801Y0407065D01*
X0326003Y0407262D01*
X0326210Y0407454D01*
X0326422Y0407641D01*
X0326637Y0407823D01*
X0326858Y0407999D01*
X0327082Y0408170D01*
X0327311Y0408335D01*
X0327544Y0408495D01*
X0327781Y0408649D01*
X0328021Y0408797D01*
X0328265Y0408939D01*
X0328512Y0409075D01*
X0328762Y0409205D01*
X0329016Y0409329D01*
X0329273Y0409446D01*
X0329532Y0409558D01*
X0329794Y0409662D01*
X0330059Y0409761D01*
X0330326Y0409853D01*
X0330595Y0409938D01*
X0330866Y0410016D01*
X0331139Y0410088D01*
X0331413Y0410154D01*
X0331689Y0410212D01*
X0331967Y0410264D01*
X0332246Y0410309D01*
X0332525Y0410347D01*
X0332806Y0410378D01*
X0333087Y0410402D01*
X0333369Y0410419D01*
X0333651Y0410430D01*
X0333933Y0410433D01*
X0334215Y0410430D01*
X0334497Y0410419D01*
X0334779Y0410402D01*
X0335060Y0410378D01*
X0335341Y0410347D01*
X0335620Y0410309D01*
X0335899Y0410264D01*
X0336177Y0410212D01*
X0336453Y0410154D01*
X0336727Y0410088D01*
X0337000Y0410016D01*
X0337271Y0409938D01*
X0337540Y0409853D01*
X0337807Y0409761D01*
X0338072Y0409662D01*
X0338334Y0409558D01*
X0338593Y0409446D01*
X0338850Y0409329D01*
X0339104Y0409205D01*
X0339354Y0409075D01*
X0339601Y0408939D01*
X0339845Y0408797D01*
X0340085Y0408649D01*
X0340322Y0408495D01*
X0340555Y0408335D01*
X0340784Y0408170D01*
X0341008Y0407999D01*
X0341229Y0407823D01*
X0341444Y0407641D01*
X0341656Y0407454D01*
X0341863Y0407262D01*
X0342065Y0407065D01*
X0342262Y0406863D01*
X0342454Y0406656D01*
X0342641Y0406444D01*
X0342823Y0406229D01*
X0342999Y0406008D01*
X0343170Y0405784D01*
X0343335Y0405555D01*
X0343495Y0405322D01*
X0343649Y0405085D01*
X0343797Y0404845D01*
X0343939Y0404601D01*
X0344075Y0404354D01*
X0344205Y0404104D01*
X0344329Y0403850D01*
X0344446Y0403593D01*
X0344558Y0403334D01*
X0344662Y0403072D01*
X0344761Y0402807D01*
X0344853Y0402540D01*
X0344938Y0402271D01*
X0345016Y0402000D01*
X0345088Y0401727D01*
X0345154Y0401453D01*
X0345212Y0401177D01*
X0345264Y0400899D01*
X0345309Y0400620D01*
X0345347Y0400341D01*
X0345378Y0400060D01*
X0345402Y0399779D01*
X0345419Y0399497D01*
X0345430Y0399215D01*
X0345433Y0398933D01*
X0345430Y0398651D01*
X0345419Y0398369D01*
X0345402Y0398087D01*
X0345378Y0397806D01*
X0345347Y0397525D01*
X0345309Y0397246D01*
X0345264Y0396967D01*
X0345212Y0396689D01*
X0345154Y0396413D01*
X0345088Y0396139D01*
X0345016Y0395866D01*
X0344938Y0395595D01*
X0344853Y0395326D01*
X0344761Y0395059D01*
X0344662Y0394794D01*
X0344558Y0394532D01*
X0344446Y0394273D01*
X0344329Y0394016D01*
X0344205Y0393762D01*
X0344075Y0393512D01*
X0343939Y0393265D01*
X0343797Y0393021D01*
X0343649Y0392781D01*
X0343495Y0392544D01*
X0343335Y0392311D01*
X0343170Y0392082D01*
X0342999Y0391858D01*
X0342823Y0391637D01*
X0342641Y0391422D01*
X0342454Y0391210D01*
X0342262Y0391003D01*
X0342065Y0390801D01*
X0341863Y0390604D01*
X0341656Y0390412D01*
X0341444Y0390225D01*
X0341229Y0390043D01*
X0341008Y0389867D01*
X0340784Y0389696D01*
X0340555Y0389531D01*
X0340322Y0389371D01*
X0340085Y0389217D01*
X0339845Y0389069D01*
X0339601Y0388927D01*
X0339354Y0388791D01*
X0339104Y0388661D01*
X0338850Y0388537D01*
X0338593Y0388420D01*
X0338334Y0388308D01*
X0338072Y0388204D01*
X0337807Y0388105D01*
X0337540Y0388013D01*
X0337271Y0387928D01*
X0337000Y0387850D01*
X0336727Y0387778D01*
X0336453Y0387712D01*
X0336177Y0387654D01*
X0335899Y0387602D01*
X0335620Y0387557D01*
X0335341Y0387519D01*
X0335060Y0387488D01*
X0334779Y0387464D01*
X0334497Y0387447D01*
X0334215Y0387436D01*
X0333933Y0387433D01*
X0333651Y0387436D01*
X0333369Y0387447D01*
X0333087Y0387464D01*
X0332806Y0387488D01*
X0332525Y0387519D01*
X0332246Y0387557D01*
X0331967Y0387602D01*
X0331689Y0387654D01*
X0331413Y0387712D01*
X0331139Y0387778D01*
X0330866Y0387850D01*
X0330595Y0387928D01*
X0330326Y0388013D01*
X0330059Y0388105D01*
X0329794Y0388204D01*
X0329532Y0388308D01*
X0329273Y0388420D01*
X0329016Y0388537D01*
X0328762Y0388661D01*
X0328512Y0388791D01*
X0328265Y0388927D01*
X0328021Y0389069D01*
X0327781Y0389217D01*
X0327544Y0389371D01*
X0327311Y0389531D01*
X0327082Y0389696D01*
X0326858Y0389867D01*
X0326637Y0390043D01*
X0326422Y0390225D01*
X0326210Y0390412D01*
X0326003Y0390604D01*
X0325801Y0390801D01*
X0325604Y0391003D01*
X0325412Y0391210D01*
X0325225Y0391422D01*
X0325043Y0391637D01*
X0324867Y0391858D01*
X0324696Y0392082D01*
X0324531Y0392311D01*
X0324371Y0392544D01*
X0324217Y0392781D01*
X0324069Y0393021D01*
X0323927Y0393265D01*
X0323791Y0393512D01*
X0323661Y0393762D01*
X0323537Y0394016D01*
X0323420Y0394273D01*
X0323308Y0394532D01*
X0323204Y0394794D01*
X0323105Y0395059D01*
X0323013Y0395326D01*
X0322928Y0395595D01*
X0322850Y0395866D01*
X0322778Y0396139D01*
X0322712Y0396413D01*
X0322654Y0396689D01*
X0322602Y0396967D01*
X0322557Y0397246D01*
X0322519Y0397525D01*
X0322488Y0397806D01*
X0322464Y0398087D01*
X0322447Y0398369D01*
X0322436Y0398651D01*
X0322433Y0398933D01*
X0291433Y0248933D02*
X0293933Y0246433D01*
X0293933Y0241433D01*
X0291433Y0238933D01*
X0291433Y0228933D02*
X0293933Y0226433D01*
X0293933Y0221433D01*
X0291433Y0218933D01*
X0291433Y0208933D02*
X0293933Y0206433D01*
X0293933Y0201433D01*
X0291433Y0198933D01*
X0276433Y0198933D01*
X0273933Y0201433D01*
X0273933Y0206433D01*
X0276433Y0208933D01*
X0276433Y0198933D02*
X0273933Y0196433D01*
X0273933Y0191433D01*
X0276433Y0188933D01*
X0291433Y0188933D01*
X0293933Y0186433D01*
X0293933Y0181433D01*
X0291433Y0178933D01*
X0276433Y0178933D01*
X0273933Y0181433D01*
X0273933Y0186433D01*
X0276433Y0188933D01*
X0276433Y0178933D02*
X0273933Y0176433D01*
X0273933Y0171433D01*
X0276433Y0168933D01*
X0273933Y0166433D01*
X0273933Y0161433D01*
X0276433Y0158933D01*
X0273933Y0156433D01*
X0273933Y0151433D01*
X0276433Y0148933D01*
X0273933Y0146433D01*
X0273933Y0141433D01*
X0276433Y0138933D01*
X0273933Y0136433D01*
X0273933Y0131433D01*
X0276433Y0128933D01*
X0273933Y0126433D01*
X0273933Y0121433D01*
X0276433Y0118933D01*
X0291433Y0118933D01*
X0293933Y0121433D01*
X0293933Y0126433D01*
X0291433Y0128933D01*
X0293933Y0131433D01*
X0293933Y0136433D01*
X0291433Y0138933D01*
X0293933Y0141433D01*
X0293933Y0146433D01*
X0291433Y0148933D01*
X0293933Y0151433D01*
X0293933Y0156433D01*
X0291433Y0158933D01*
X0276433Y0158933D01*
X0276433Y0168933D02*
X0291433Y0168933D01*
X0293933Y0166433D01*
X0293933Y0161433D01*
X0291433Y0158933D01*
X0291433Y0168933D02*
X0293933Y0171433D01*
X0293933Y0176433D01*
X0291433Y0178933D01*
X0291433Y0188933D02*
X0293933Y0191433D01*
X0293933Y0196433D01*
X0291433Y0198933D01*
X0291433Y0148933D02*
X0276433Y0148933D01*
X0276433Y0138933D02*
X0291433Y0138933D01*
X0291433Y0128933D02*
X0276433Y0128933D01*
X0226433Y0168933D02*
X0211433Y0168933D01*
X0211433Y0178933D02*
X0226433Y0178933D01*
X0226433Y0188933D02*
X0211433Y0188933D01*
X0211433Y0198933D02*
X0226433Y0198933D01*
X0226433Y0208933D02*
X0211433Y0208933D01*
D18*
X0328933Y0223933D02*
X0328933Y0118933D01*
X0343933Y0118933D01*
X0343933Y0223933D01*
X0328933Y0223933D01*
X0328933Y0233933D02*
X0343933Y0233933D01*
X0343933Y0338933D01*
X0328933Y0338933D01*
X0328933Y0233933D01*
D19*
X0288933Y0233933D03*
X0288933Y0223933D03*
X0278933Y0223933D03*
X0278933Y0233933D03*
X0278933Y0243933D03*
X0288933Y0243933D03*
X0288933Y0253933D03*
X0278933Y0253933D03*
X0278933Y0263933D03*
X0278933Y0273933D03*
X0288933Y0273933D03*
X0288933Y0263933D03*
X0288933Y0283933D03*
X0278933Y0283933D03*
X0278933Y0298933D03*
X0278933Y0308933D03*
X0288933Y0308933D03*
X0288933Y0298933D03*
X0288933Y0318933D03*
X0278933Y0318933D03*
X0278933Y0328933D03*
X0278933Y0338933D03*
X0288933Y0338933D03*
X0288933Y0328933D03*
X0288933Y0348933D03*
X0278933Y0348933D03*
X0278933Y0358933D03*
X0278933Y0368933D03*
X0288933Y0368933D03*
X0288933Y0358933D03*
X0288933Y0378933D03*
X0278933Y0378933D03*
X0278933Y0388933D03*
X0288933Y0388933D03*
X0223933Y0353933D03*
X0223933Y0343933D03*
X0223933Y0333933D03*
X0223933Y0323933D03*
X0223933Y0313933D03*
X0223933Y0303933D03*
X0223933Y0293933D03*
X0223933Y0283933D03*
X0223933Y0273933D03*
X0223933Y0263933D03*
X0223933Y0253933D03*
X0223933Y0243933D03*
X0223933Y0233933D03*
X0223933Y0223933D03*
X0223933Y0213933D03*
X0223933Y0203933D03*
X0223933Y0193933D03*
X0223933Y0183933D03*
X0223933Y0173933D03*
X0223933Y0163933D03*
X0213933Y0163933D03*
X0213933Y0173933D03*
X0213933Y0183933D03*
X0213933Y0193933D03*
X0213933Y0203933D03*
X0213933Y0213933D03*
X0213933Y0223933D03*
X0213933Y0233933D03*
X0213933Y0243933D03*
X0213933Y0253933D03*
X0213933Y0263933D03*
X0213933Y0273933D03*
X0213933Y0283933D03*
X0213933Y0293933D03*
X0213933Y0303933D03*
X0213933Y0313933D03*
X0213933Y0323933D03*
X0213933Y0333933D03*
X0213933Y0343933D03*
X0213933Y0353933D03*
X0088933Y0353933D03*
X0088933Y0343933D03*
X0088933Y0333933D03*
X0088933Y0323933D03*
X0088933Y0313933D03*
X0088933Y0303933D03*
X0088933Y0293933D03*
X0088933Y0283933D03*
X0078933Y0283933D03*
X0078933Y0293933D03*
X0078933Y0303933D03*
X0078933Y0313933D03*
X0078933Y0323933D03*
X0078933Y0333933D03*
X0078933Y0343933D03*
X0078933Y0353933D03*
X0078933Y0263933D03*
X0078933Y0253933D03*
X0078933Y0243933D03*
X0078933Y0233933D03*
X0078933Y0223933D03*
X0078933Y0213933D03*
X0078933Y0203933D03*
X0078933Y0193933D03*
X0078933Y0183933D03*
X0078933Y0173933D03*
X0078933Y0163933D03*
X0078933Y0153933D03*
X0078933Y0143933D03*
X0078933Y0133933D03*
X0078933Y0123933D03*
X0088933Y0123933D03*
X0088933Y0133933D03*
X0088933Y0143933D03*
X0088933Y0153933D03*
X0088933Y0163933D03*
X0088933Y0173933D03*
X0088933Y0183933D03*
X0088933Y0193933D03*
X0088933Y0203933D03*
X0088933Y0213933D03*
X0088933Y0223933D03*
X0088933Y0233933D03*
X0088933Y0243933D03*
X0088933Y0253933D03*
X0088933Y0263933D03*
X0278933Y0213933D03*
X0278933Y0203933D03*
X0278933Y0193933D03*
X0288933Y0193933D03*
X0288933Y0203933D03*
X0288933Y0213933D03*
X0288933Y0183933D03*
X0288933Y0173933D03*
X0288933Y0163933D03*
X0278933Y0163933D03*
X0278933Y0173933D03*
X0278933Y0183933D03*
X0278933Y0153933D03*
X0278933Y0143933D03*
X0278933Y0133933D03*
X0288933Y0133933D03*
X0288933Y0143933D03*
X0288933Y0153933D03*
X0288933Y0123933D03*
X0278933Y0123933D03*
X0263933Y0063933D03*
X0263933Y0053933D03*
X0253933Y0053933D03*
X0243933Y0053933D03*
X0243933Y0063933D03*
X0253933Y0063933D03*
X0233933Y0063933D03*
X0233933Y0053933D03*
X0223933Y0053933D03*
X0223933Y0063933D03*
X0213933Y0063933D03*
X0213933Y0053933D03*
X0203933Y0053933D03*
X0193933Y0053933D03*
X0193933Y0063933D03*
X0203933Y0063933D03*
X0183933Y0063933D03*
X0183933Y0053933D03*
X0173933Y0053933D03*
X0163933Y0053933D03*
X0163933Y0063933D03*
X0173933Y0063933D03*
X0153933Y0063933D03*
X0153933Y0053933D03*
X0143933Y0053933D03*
X0143933Y0063933D03*
X0133933Y0063933D03*
X0133933Y0053933D03*
X0123933Y0053933D03*
X0113933Y0053933D03*
X0113933Y0063933D03*
X0123933Y0063933D03*
X0103933Y0063933D03*
X0103933Y0053933D03*
M02*
