%
M48
M72
T01C0.01200
T02C0.01969
T03C0.04000
T04C0.11024
%
T01
X208798Y55172
X276129Y72598
X211175Y73391
X203933Y153933
X233750Y280531
X236523Y301523
X208798Y319742
X215135Y238945
X248801Y176367
X257118Y159336
X261475Y216369
X250433Y209433
X259098Y241321
X308606Y227063
X311775Y222310
X342272Y198943
X297517Y336772
X208006Y277759
X253554Y135176
T02
X333933Y218933
X338933Y218933
X338933Y213933
X338933Y208933
X338933Y203933
X338933Y198933
X338933Y193933
X338933Y188933
X338933Y183933
X338933Y178933
X338933Y173933
X338933Y168933
X338933Y163933
X338933Y158933
X338933Y153933
X338933Y148933
X338933Y143933
X338933Y138933
X338933Y133933
X338933Y128933
X338933Y123933
X333933Y123933
X333933Y128933
X333933Y133933
X333933Y138933
X333933Y143933
X333933Y148933
X333933Y153933
X333933Y158933
X333933Y163933
X333933Y168933
X333933Y173933
X333933Y178933
X333933Y183933
X333933Y188933
X333933Y193933
X333933Y198933
X333933Y203933
X333933Y208933
X333933Y213933
X333933Y238933
X338933Y238933
X338933Y243933
X338933Y248933
X338933Y253933
X338933Y258933
X338933Y263933
X338933Y268933
X338933Y273933
X338933Y278933
X338933Y283933
X338933Y288933
X338933Y293933
X338933Y298933
X338933Y303933
X338933Y308933
X338933Y313933
X338933Y318933
X338933Y323933
X338933Y328933
X338933Y333933
X333933Y333933
X333933Y328933
X333933Y323933
X333933Y318933
X333933Y313933
X333933Y308933
X333933Y303933
X333933Y298933
X333933Y293933
X333933Y288933
X333933Y283933
X333933Y278933
X333933Y273933
X333933Y268933
X333933Y263933
X333933Y258933
X333933Y253933
X333933Y248933
X333933Y243933
T03
X103933Y53933
X113933Y53933
X123933Y53933
X133933Y53933
X143933Y53933
X153933Y53933
X163933Y53933
X173933Y53933
X183933Y53933
X193933Y53933
X203933Y53933
X213933Y53933
X223933Y53933
X233933Y53933
X243933Y53933
X253933Y53933
X263933Y53933
X263933Y63933
X253933Y63933
X243933Y63933
X233933Y63933
X223933Y63933
X213933Y63933
X203933Y63933
X193933Y63933
X183933Y63933
X173933Y63933
X163933Y63933
X153933Y63933
X143933Y63933
X133933Y63933
X123933Y63933
X113933Y63933
X103933Y63933
X88933Y123933
X88933Y133933
X88933Y143933
X88933Y153933
X88933Y163933
X88933Y173933
X88933Y183933
X88933Y193933
X88933Y203933
X88933Y213933
X88933Y223933
X88933Y233933
X88933Y243933
X88933Y253933
X88933Y263933
X78933Y263933
X78933Y253933
X78933Y243933
X78933Y233933
X78933Y223933
X78933Y213933
X78933Y203933
X78933Y193933
X78933Y183933
X78933Y173933
X78933Y163933
X78933Y153933
X78933Y143933
X78933Y133933
X78933Y123933
X213933Y163933
X223933Y163933
X223933Y173933
X223933Y183933
X223933Y193933
X223933Y203933
X223933Y213933
X223933Y223933
X223933Y233933
X223933Y243933
X223933Y253933
X223933Y263933
X223933Y273933
X223933Y283933
X223933Y293933
X223933Y303933
X223933Y313933
X223933Y323933
X223933Y333933
X223933Y343933
X223933Y353933
X213933Y353933
X213933Y343933
X213933Y333933
X213933Y323933
X213933Y313933
X213933Y303933
X213933Y293933
X213933Y283933
X213933Y273933
X213933Y263933
X213933Y253933
X213933Y243933
X213933Y233933
X213933Y223933
X213933Y213933
X213933Y203933
X213933Y193933
X213933Y183933
X213933Y173933
X278933Y163933
X288933Y163933
X288933Y153933
X288933Y143933
X288933Y133933
X288933Y123933
X278933Y123933
X278933Y133933
X278933Y143933
X278933Y153933
X278933Y173933
X288933Y173933
X288933Y183933
X288933Y193933
X288933Y203933
X288933Y213933
X288933Y223933
X288933Y233933
X288933Y243933
X288933Y253933
X288933Y263933
X288933Y273933
X288933Y283933
X278933Y283933
X278933Y273933
X278933Y263933
X278933Y253933
X278933Y243933
X278933Y233933
X278933Y223933
X278933Y213933
X278933Y203933
X278933Y193933
X278933Y183933
X288933Y298933
X288933Y308933
X288933Y318933
X288933Y328933
X288933Y338933
X288933Y348933
X288933Y358933
X288933Y368933
X288933Y378933
X288933Y388933
X278933Y388933
X278933Y378933
X278933Y368933
X278933Y358933
X278933Y348933
X278933Y338933
X278933Y328933
X278933Y318933
X278933Y308933
X278933Y298933
X88933Y283933
X88933Y293933
X88933Y303933
X88933Y313933
X88933Y323933
X88933Y333933
X88933Y343933
X88933Y353933
X78933Y353933
X78933Y343933
X78933Y333933
X78933Y323933
X78933Y313933
X78933Y303933
X78933Y293933
X78933Y283933
T04
X58933Y398933
X333933Y398933
X58933Y58933
X333933Y58933
M30
