%
M48
M72
T01C0.01200
T02C0.01969
T03C0.02756
T04C0.03150
T05C0.03346
T06C0.03600
T07C0.03937
T08C0.04000
T09C0.04331
T10C0.05900
T11C0.06299
T12C0.06700
T13C0.09843
T14C0.11024
T15C0.11811
%
T01
X75808Y73030
X72683Y83655
X88933Y79280
X90808Y71780
X88933Y88030
X97058Y96155
X88933Y98655
X83933Y107405
X79558Y99905
X78933Y220530
X81433Y224280
X113933Y161780
X121433Y168655
X132058Y181780
X141433Y182405
X147683Y181780
X145183Y171155
X163308Y171780
X163933Y181780
X164558Y191780
X163933Y201780
X173933Y201780
X175183Y213655
X180183Y229280
X186433Y229280
X185183Y234905
X188933Y238655
X206433Y241780
X211433Y244280
X213933Y249280
X225808Y263655
X223933Y266780
X223933Y270530
X223933Y274280
X223933Y278030
X243308Y280530
X243308Y283655
X243308Y288655
X243308Y291780
X248933Y303030
X257058Y302405
X258933Y299905
X258933Y296780
X258933Y293655
X274246Y299280
X274871Y302405
X275808Y294280
X273933Y286155
X286746Y276780
X290183Y276780
X290496Y279905
X293308Y273030
X287371Y268967
X275808Y262717
X274246Y265842
X272683Y258342
X259558Y253655
X259558Y249280
X251433Y246780
X248933Y244280
X246433Y241780
X242683Y248655
X241433Y255530
X244558Y269280
X252683Y273030
X254558Y269280
X258933Y270530
X258933Y273655
X255808Y277405
X257683Y260530
X274871Y273655
X287371Y284592
X294558Y287092
X302371Y285530
X309246Y286780
X309246Y298967
X312996Y300217
X318621Y305217
X316121Y310217
X319871Y315217
X323621Y311467
X326121Y306467
X332996Y303967
X336746Y300217
X337371Y309905
X341746Y309592
X347996Y311467
X353933Y311155
X360808Y312092
X360808Y308342
X370808Y307405
X374558Y306155
X372371Y303030
X375808Y310217
X378308Y314280
X372996Y313030
X380808Y321780
X388933Y331155
X390496Y337092
X403933Y352405
X390808Y356780
X383308Y348030
X380808Y345530
X382683Y342717
X381433Y339592
X370183Y344280
X377058Y352405
X374246Y355217
X371433Y356780
X369246Y354592
X362058Y353030
X356746Y347092
X358308Y339280
X365496Y333655
X367996Y331155
X362683Y331155
X360808Y327405
X359246Y330217
X352058Y331780
X346746Y332405
X346433Y328967
X342683Y329592
X339871Y331155
X339558Y334280
X336433Y335217
X330496Y331780
X327683Y329592
X325808Y333030
X321433Y332405
X316433Y332405
X309558Y332092
X303933Y331780
X300808Y330530
X291433Y331155
X297683Y344905
X297683Y348655
X297058Y352405
X300183Y350530
X300183Y346780
X296433Y360530
X294558Y363655
X312683Y366780
X312683Y361780
X324133Y363780
X323633Y369830
X325808Y373967
X325183Y379592
X333933Y376780
X336746Y378967
X342996Y373342
X344908Y370842
X354558Y371780
X356433Y367717
X358933Y365842
X359246Y369592
X361433Y372405
X370183Y366780
X380183Y363655
X381121Y368655
X370183Y378030
X367058Y377717
X371433Y383030
X367683Y387405
X362371Y388967
X344871Y380530
X354558Y376780
X341433Y359280
X349871Y357717
X351421Y353655
X349558Y346780
X343858Y339517
X340808Y319280
X340496Y314280
X337058Y319280
X333621Y315217
X332371Y318980
X329871Y311467
X347996Y304592
X353933Y317092
X360183Y291155
X353933Y288655
X360577Y277011
X358933Y274280
X359871Y271155
X353933Y266155
X359871Y264280
X358933Y261155
X353933Y254905
X360808Y251155
X357371Y247717
X356433Y244592
X351121Y244592
X352058Y234905
X357058Y234905
X357683Y231155
X348308Y231467
X343308Y231467
X335183Y231467
X326433Y231467
X328308Y244905
X331746Y244905
X334558Y248342
X338933Y244280
X320183Y244592
X316121Y248030
X317996Y255530
X317996Y263030
X317996Y273030
X310496Y273030
X303621Y262405
X309246Y257405
X299871Y255530
X293621Y248030
X298621Y245530
X298933Y235530
X304871Y231467
X307233Y235530
X303933Y216780
X306433Y214905
X301433Y214905
X298933Y216780
X296433Y214905
X293933Y211780
X291433Y198030
X289558Y192405
X293933Y186780
X290183Y186155
X298308Y181155
X298308Y194280
X315183Y192405
X315183Y185530
X321433Y184280
X318308Y175530
X318308Y169280
X318308Y164280
X318308Y159280
X326433Y161155
X329558Y155530
X332683Y155530
X335183Y160530
X338933Y164280
X342683Y160530
X342683Y168030
X335183Y168030
X338308Y175530
X334558Y176780
X327058Y175530
X348308Y181780
X364558Y181155
X367683Y186780
X367683Y193655
X383933Y179905
X403933Y187405
X408308Y189280
X413933Y196780
X418933Y196780
X426433Y201780
X428933Y191780
X392058Y151780
X392058Y141155
X400808Y141155
X403933Y137405
X403933Y134280
X405183Y129280
X397058Y124280
X393308Y128030
X379558Y137405
X371433Y146780
X358933Y148655
X354558Y121780
X352683Y116155
X358933Y108655
X371433Y108655
X383933Y108655
X390183Y98655
X396433Y91780
X403933Y86780
X403933Y79905
X402058Y99280
X408308Y113655
X411433Y114280
X416433Y117405
X416433Y126155
X437058Y121780
X390183Y82405
X289558Y82405
X300183Y94280
X291433Y104280
X291433Y108030
X291433Y115530
X302683Y114280
X308933Y114280
X315183Y114280
X315183Y108030
X323308Y111780
X330808Y109280
X330808Y101780
X335808Y98655
X333933Y93655
X331433Y84905
X341433Y78030
X322058Y75530
X315808Y78655
X315808Y94280
X322683Y94280
X325808Y98655
X314558Y99280
X308933Y108030
X302683Y108030
X302683Y120530
X308933Y120530
X315183Y120530
X323308Y119280
X329558Y119280
X336433Y119280
X319558Y129905
X317683Y126780
X311433Y128655
X308308Y129905
X302683Y129280
X299558Y128030
X298933Y137405
X305183Y146780
X305183Y152405
X305183Y158030
X312058Y143030
X318933Y135530
X323933Y136155
X322683Y140530
X324558Y146780
X330808Y144280
X324558Y151780
X293933Y146780
X287058Y124280
X280183Y124280
X272683Y111780
X272683Y104280
X266433Y104280
X266433Y96780
X275183Y89905
X277683Y94280
X183933Y60530
X188933Y60530
X193933Y60530
X198933Y59905
X193933Y53030
X280183Y54280
X246433Y96780
X233933Y96780
X233933Y101780
X228933Y104280
X228933Y116780
X243933Y124280
X259558Y122405
X259558Y130530
X241433Y139905
X241433Y148655
X247058Y155530
X243933Y158030
X257683Y158030
X260183Y155530
X250808Y168030
X255183Y172405
X257058Y178030
X266433Y183655
X278308Y192405
X283933Y196155
X272058Y201780
X268933Y201780
X260808Y214280
X267683Y221780
X283933Y231780
X278933Y241780
X287371Y247405
X287371Y251155
X290496Y254280
X252058Y229905
X243308Y225530
X242058Y219280
X235808Y217405
X230183Y219280
X230183Y223030
X227058Y220530
X221433Y226780
X226433Y228655
X233933Y228655
X240183Y231780
X238933Y239280
X220808Y233030
X216433Y221780
X218308Y213030
X205183Y208030
X202058Y191780
X203933Y188030
X213933Y180530
X217058Y184905
X217683Y192092
X233933Y176155
X233933Y168030
X243933Y201780
X247058Y201780
X250808Y216780
X204558Y219905
X177387Y236871
X197683Y251780
X205808Y259280
X188933Y286780
X171433Y271780
X166433Y275530
X168933Y281780
X162058Y267405
X158933Y261780
X153933Y261780
X146433Y249280
X138308Y246155
X146433Y231155
X138933Y215530
X134558Y208342
X122058Y189280
X113933Y190530
X140808Y191780
X131433Y153030
X138308Y148030
X148933Y141780
X148308Y131780
X153933Y124280
X148308Y116780
X153933Y109280
X148308Y104280
X153933Y94280
X168933Y76780
X154558Y151780
X97165Y259280
X111433Y244280
X116433Y244280
X120808Y244280
X125808Y259280
X128933Y266780
X133933Y271780
X135915Y281780
X128933Y286155
X124558Y286155
X120183Y286155
X87683Y286780
X87683Y291780
X87683Y296780
X153933Y296155
X158933Y309905
X165183Y311780
X188933Y341780
X212058Y328655
X217058Y326155
X220808Y323655
X224558Y318655
X217058Y321155
X218933Y333655
X222683Y338655
X225808Y340530
X238933Y331155
X244558Y341780
X253308Y354280
X260183Y349280
X266433Y340530
X277683Y348030
X278933Y358342
X271433Y366155
X260808Y368655
X259558Y358655
X240808Y373030
X235808Y366780
X232058Y363030
X230183Y365530
X222058Y356155
X209558Y369280
X258933Y386780
X342683Y394280
X346433Y392092
X306433Y402405
X301433Y402405
X293933Y402405
X288933Y402405
X263933Y393655
X138933Y406780
X133933Y406780
X128933Y406780
X118933Y406780
X113933Y406780
X108933Y406780
X103933Y401780
X214558Y392405
X169763Y398967
X252683Y321155
X255808Y323030
X261433Y325530
X273933Y315842
X274871Y310530
X273621Y307405
X286746Y306467
X293621Y315217
X299871Y315217
X313621Y315217
X292996Y295217
X281121Y319592
X277683Y329280
X315183Y346780
X315808Y349905
X324558Y357405
X330733Y354205
X333933Y366780
X312683Y371780
X312683Y376780
X313933Y392717
X318933Y392405
X323933Y393030
X287683Y372405
X315808Y341780
X372058Y293342
X372683Y288342
X370808Y277092
X372371Y274280
X372058Y261780
X370808Y251780
X367996Y246467
X385808Y231780
X395183Y236780
X410183Y241780
X425183Y245530
X425183Y249905
X425183Y254905
X425183Y218655
X410183Y221780
X385183Y211155
X378933Y211780
X371433Y211155
X353933Y216780
X351433Y214905
X348933Y216780
X346433Y214905
X343933Y216780
X341433Y214905
X334558Y214280
X331433Y217092
X320183Y214905
X315808Y211780
X341433Y194280
X395808Y249905
X388308Y258030
X388933Y261780
X385183Y266780
X388308Y270530
X388621Y273655
X388308Y281155
X390183Y285530
X388621Y288342
X401433Y287405
X401433Y290530
X404558Y298030
X412683Y288030
X418308Y281780
X420183Y279280
X415808Y279280
X420183Y284280
X431433Y301780
X410183Y258030
X406433Y261780
X401433Y261780
X402058Y313030
X421433Y333030
X433308Y309905
X426121Y307717
X395808Y314280
X383933Y386155
T02
X73933Y121780
X73933Y126780
X73933Y131780
X73933Y136780
X73933Y141780
X73933Y146780
X73933Y151780
X73933Y156780
X73933Y161780
X73933Y166780
X73933Y171780
X73933Y176780
X73933Y181780
X73933Y186780
X73933Y191780
X73933Y196780
X73933Y201780
X73933Y206780
X73933Y211780
X73933Y216780
X93933Y216780
X93933Y211780
X93933Y206780
X93933Y201780
X93933Y196780
X93933Y191780
X93933Y186780
X93933Y181780
X93933Y176780
X93933Y171780
X93933Y166780
X93933Y161780
X93933Y156780
X93933Y151780
X93933Y146780
X93933Y141780
X93933Y136780
X93933Y131780
X93933Y126780
X93933Y121780
X358933Y386780
X353933Y386780
X348933Y386780
X343933Y386780
X358933Y66780
X353933Y66780
X348933Y66780
X343933Y66780
X338933Y66780
X333933Y66780
X328933Y66780
X323933Y66780
X318933Y66780
X313933Y66780
X308933Y66780
X303933Y66780
X298933Y66780
X293933Y66780
X288933Y66780
X283933Y66780
X278933Y66780
X273933Y66780
X268933Y66780
X263933Y66780
X238933Y66780
X243933Y66780
X233933Y66780
X228933Y66780
X223933Y66780
X218933Y66780
X213933Y66780
X208933Y66780
X203933Y66780
X198933Y66780
X193933Y66780
X188933Y66780
X183933Y66780
X193933Y46780
X198933Y46780
X203933Y46780
X208933Y46780
X213933Y46780
X218933Y46780
X223933Y46780
X228933Y46780
X233933Y46780
X238933Y46780
X243933Y46780
X263933Y46780
X268933Y46780
X273933Y46780
X278933Y46780
X283933Y46780
X288933Y46780
X293933Y46780
X298933Y46780
X303933Y46780
X308933Y46780
X313933Y46780
X318933Y46780
X323933Y46780
X328933Y46780
X333933Y46780
X338933Y46780
X343933Y46780
X348933Y46780
X353933Y46780
X358933Y46780
X168933Y66780
X173933Y66780
X178933Y66780
X163933Y66780
X158933Y66780
X153933Y66780
X148933Y66780
X148933Y46780
X153933Y46780
X158933Y46780
X163933Y46780
X168933Y46780
X173933Y46780
X178933Y46780
X183933Y46780
X188933Y46780
X93933Y236780
X93933Y241780
X93933Y246780
X93933Y251780
X93933Y256780
X93933Y261780
X93933Y266780
X93933Y271780
X93933Y276780
X93933Y281780
X93933Y286780
X93933Y291780
X93933Y296780
X93933Y301780
X93933Y306780
X93933Y311780
X93933Y316780
X93933Y321780
X93933Y326780
X93933Y331780
X73933Y331780
X73933Y326780
X73933Y321780
X73933Y316780
X73933Y311780
X73933Y306780
X73933Y301780
X73933Y296780
X73933Y291780
X73933Y286780
X73933Y281780
X73933Y276780
X73933Y271780
X73933Y266780
X73933Y261780
X73933Y256780
X73933Y251780
X73933Y246780
X73933Y241780
X73933Y236780
X208933Y386780
X213933Y386780
X218933Y386780
X223933Y386780
X228933Y386780
X233933Y386780
X238933Y386780
X243933Y386780
X263933Y386780
X268933Y386780
X273933Y386780
X278933Y386780
X283933Y386780
X288933Y386780
X293933Y386780
X298933Y386780
X303933Y386780
X308933Y386780
X313933Y386780
X318933Y386780
X323933Y386780
X328933Y386780
X333933Y386780
X338933Y386780
X348933Y406780
X353933Y406780
X358933Y406780
X343933Y406780
X338933Y406780
X333933Y406780
X328933Y406780
X323933Y406780
X318933Y406780
X313933Y406780
X308933Y406780
X303933Y406780
X298933Y406780
X293933Y406780
X288933Y406780
X283933Y406780
X278933Y406780
X273933Y406780
X268933Y406780
X263933Y406780
X243933Y406780
X238933Y406780
X233933Y406780
X228933Y406780
X223933Y406780
X218933Y406780
X213933Y406780
X208933Y406780
X203933Y406780
X198933Y406780
X193933Y406780
X188933Y406780
X183933Y406780
X178933Y406780
X173933Y406780
X168933Y406780
X163933Y406780
X158933Y406780
X153933Y406780
X148933Y406780
X148933Y386780
X153933Y386780
X158933Y386780
X163933Y386780
X168933Y386780
X173933Y386780
X178933Y386780
X183933Y386780
X188933Y386780
X193933Y386780
X198933Y386780
X203933Y386780
T03
X261870Y76662
X269744Y76662
X277618Y76662
X285492Y76662
X253996Y76662
X246122Y76662
X238248Y76662
X230374Y76662
T04
X198146Y241567
X104720Y241567
T05
X424794Y291622
X435424Y294378
X435424Y285717
X435424Y277843
X424794Y271937
X435424Y269181
T06
X204858Y236780
X221433Y260205
X258008Y201780
X258008Y236780
X204858Y201780
X221433Y313355
T07
X391108Y325323
X397801Y341662
X397801Y347803
X405675Y357449
X412762Y365323
X427329Y357449
X436778Y365323
X432841Y381662
X397801Y381662
X391108Y365323
X397801Y307803
X405675Y317449
X412762Y325323
X432841Y341662
X436778Y325323
X427329Y317449
T08
X398933Y401780
X388933Y401780
X388933Y391780
X398933Y391780
X301433Y356780
X301433Y366780
X378933Y391780
X378933Y401780
T09
X379406Y241622
X379406Y231780
X436492Y241622
X436492Y221937
X379406Y221937
T10
X423933Y166780
X423933Y91780
T11
X106161Y124103
X106161Y112292
X106161Y135914
X106161Y147725
T12
X433933Y176780
X413933Y176780
X413933Y156780
X413933Y81780
X413933Y101780
X433933Y101780
X433933Y81780
X433933Y156780
T13
X385886Y195166
X385886Y64851
X129980Y195166
X129980Y64851
T14
X83933Y56780
X423933Y396780
X423933Y56780
X83933Y396780
T15
X408933Y231780
M30
