G75*
%MOIN*%
%OFA0B0*%
%FSLAX25Y25*%
%IPPOS*%
%LPD*%
%AMOC8*
5,1,8,0,0,1.08239X$1,22.5*
%
%ADD10C,0.00000*%
%ADD11C,0.21400*%
%ADD12R,0.04337X0.04731*%
%ADD13R,0.04731X0.04337*%
%ADD14R,0.04337X0.04337*%
%ADD15R,0.05000X0.06700*%
%ADD16R,0.00600X0.07200*%
%ADD17OC8,0.03400*%
%ADD18R,0.05518X0.06306*%
%ADD19R,0.16148X0.07487*%
%ADD20R,0.06400X0.06400*%
%ADD21OC8,0.06400*%
%ADD22R,0.01975X0.02762*%
%ADD23C,0.05800*%
%ADD24OC8,0.05800*%
%ADD25R,0.06306X0.05518*%
%ADD26R,0.07487X0.05912*%
%ADD27C,0.00138*%
%ADD28R,0.05400X0.02600*%
%ADD29C,0.06109*%
%ADD30OC8,0.07487*%
%ADD31R,0.05420X0.05420*%
%ADD32R,0.22841X0.08274*%
%ADD33R,0.11227X0.11227*%
%ADD34R,0.02953X0.10039*%
%ADD35R,0.10039X0.02953*%
%ADD36R,0.05912X0.07487*%
%ADD37R,0.06700X0.05000*%
%ADD38R,0.07200X0.00600*%
%ADD39C,0.02762*%
%ADD40C,0.00256*%
%ADD41R,0.02600X0.05400*%
%ADD42C,0.00080*%
%ADD43R,0.01600X0.02800*%
%ADD44OC8,0.05124*%
%ADD45R,0.04534X0.04534*%
%ADD46OC8,0.04534*%
%ADD47OC8,0.09849*%
%ADD48C,0.10243*%
%ADD49OC8,0.06306*%
%ADD50C,0.00692*%
%ADD51R,0.10243X0.10243*%
%ADD52R,0.09258X0.09258*%
%ADD53C,0.09250*%
%ADD54C,0.10450*%
%ADD55R,0.08274X0.08274*%
%ADD56C,0.08274*%
%ADD57C,0.12211*%
%ADD58R,0.05912X0.04337*%
%ADD59R,0.02992X0.09449*%
%ADD60R,0.09449X0.02992*%
%ADD61R,0.17723X0.17723*%
%ADD62R,0.17717X0.04134*%
%ADD63R,0.04134X0.17717*%
%ADD64R,0.06699X0.08274*%
%ADD65C,0.00395*%
D10*
X0063933Y0036780D02*
X0063933Y0416780D01*
X0443933Y0416780D01*
X0443933Y0036780D01*
X0063933Y0036780D01*
X0125059Y0064851D02*
X0125061Y0064991D01*
X0125067Y0065131D01*
X0125077Y0065270D01*
X0125091Y0065409D01*
X0125109Y0065548D01*
X0125130Y0065686D01*
X0125156Y0065824D01*
X0125186Y0065961D01*
X0125219Y0066096D01*
X0125257Y0066231D01*
X0125298Y0066365D01*
X0125343Y0066498D01*
X0125391Y0066629D01*
X0125444Y0066758D01*
X0125500Y0066887D01*
X0125559Y0067013D01*
X0125623Y0067138D01*
X0125689Y0067261D01*
X0125760Y0067382D01*
X0125833Y0067501D01*
X0125910Y0067618D01*
X0125991Y0067732D01*
X0126074Y0067844D01*
X0126161Y0067954D01*
X0126251Y0068062D01*
X0126343Y0068166D01*
X0126439Y0068268D01*
X0126538Y0068368D01*
X0126639Y0068464D01*
X0126743Y0068558D01*
X0126850Y0068648D01*
X0126959Y0068735D01*
X0127071Y0068820D01*
X0127185Y0068901D01*
X0127301Y0068979D01*
X0127419Y0069053D01*
X0127540Y0069124D01*
X0127662Y0069192D01*
X0127787Y0069256D01*
X0127913Y0069317D01*
X0128040Y0069374D01*
X0128170Y0069427D01*
X0128301Y0069477D01*
X0128433Y0069522D01*
X0128566Y0069565D01*
X0128701Y0069603D01*
X0128836Y0069637D01*
X0128973Y0069668D01*
X0129110Y0069695D01*
X0129248Y0069717D01*
X0129387Y0069736D01*
X0129526Y0069751D01*
X0129665Y0069762D01*
X0129805Y0069769D01*
X0129945Y0069772D01*
X0130085Y0069771D01*
X0130225Y0069766D01*
X0130364Y0069757D01*
X0130504Y0069744D01*
X0130643Y0069727D01*
X0130781Y0069706D01*
X0130919Y0069682D01*
X0131056Y0069653D01*
X0131192Y0069621D01*
X0131327Y0069584D01*
X0131461Y0069544D01*
X0131594Y0069500D01*
X0131725Y0069452D01*
X0131855Y0069401D01*
X0131984Y0069346D01*
X0132111Y0069287D01*
X0132236Y0069224D01*
X0132359Y0069159D01*
X0132481Y0069089D01*
X0132600Y0069016D01*
X0132718Y0068940D01*
X0132833Y0068861D01*
X0132946Y0068778D01*
X0133056Y0068692D01*
X0133164Y0068603D01*
X0133269Y0068511D01*
X0133372Y0068416D01*
X0133472Y0068318D01*
X0133569Y0068218D01*
X0133663Y0068114D01*
X0133755Y0068008D01*
X0133843Y0067900D01*
X0133928Y0067789D01*
X0134010Y0067675D01*
X0134089Y0067559D01*
X0134164Y0067442D01*
X0134236Y0067322D01*
X0134304Y0067200D01*
X0134369Y0067076D01*
X0134431Y0066950D01*
X0134489Y0066823D01*
X0134543Y0066694D01*
X0134594Y0066563D01*
X0134640Y0066431D01*
X0134683Y0066298D01*
X0134723Y0066164D01*
X0134758Y0066029D01*
X0134790Y0065892D01*
X0134817Y0065755D01*
X0134841Y0065617D01*
X0134861Y0065479D01*
X0134877Y0065340D01*
X0134889Y0065200D01*
X0134897Y0065061D01*
X0134901Y0064921D01*
X0134901Y0064781D01*
X0134897Y0064641D01*
X0134889Y0064502D01*
X0134877Y0064362D01*
X0134861Y0064223D01*
X0134841Y0064085D01*
X0134817Y0063947D01*
X0134790Y0063810D01*
X0134758Y0063673D01*
X0134723Y0063538D01*
X0134683Y0063404D01*
X0134640Y0063271D01*
X0134594Y0063139D01*
X0134543Y0063008D01*
X0134489Y0062879D01*
X0134431Y0062752D01*
X0134369Y0062626D01*
X0134304Y0062502D01*
X0134236Y0062380D01*
X0134164Y0062260D01*
X0134089Y0062143D01*
X0134010Y0062027D01*
X0133928Y0061913D01*
X0133843Y0061802D01*
X0133755Y0061694D01*
X0133663Y0061588D01*
X0133569Y0061484D01*
X0133472Y0061384D01*
X0133372Y0061286D01*
X0133269Y0061191D01*
X0133164Y0061099D01*
X0133056Y0061010D01*
X0132946Y0060924D01*
X0132833Y0060841D01*
X0132718Y0060762D01*
X0132600Y0060686D01*
X0132481Y0060613D01*
X0132359Y0060543D01*
X0132236Y0060478D01*
X0132111Y0060415D01*
X0131984Y0060356D01*
X0131855Y0060301D01*
X0131725Y0060250D01*
X0131594Y0060202D01*
X0131461Y0060158D01*
X0131327Y0060118D01*
X0131192Y0060081D01*
X0131056Y0060049D01*
X0130919Y0060020D01*
X0130781Y0059996D01*
X0130643Y0059975D01*
X0130504Y0059958D01*
X0130364Y0059945D01*
X0130225Y0059936D01*
X0130085Y0059931D01*
X0129945Y0059930D01*
X0129805Y0059933D01*
X0129665Y0059940D01*
X0129526Y0059951D01*
X0129387Y0059966D01*
X0129248Y0059985D01*
X0129110Y0060007D01*
X0128973Y0060034D01*
X0128836Y0060065D01*
X0128701Y0060099D01*
X0128566Y0060137D01*
X0128433Y0060180D01*
X0128301Y0060225D01*
X0128170Y0060275D01*
X0128040Y0060328D01*
X0127913Y0060385D01*
X0127787Y0060446D01*
X0127662Y0060510D01*
X0127540Y0060578D01*
X0127419Y0060649D01*
X0127301Y0060723D01*
X0127185Y0060801D01*
X0127071Y0060882D01*
X0126959Y0060967D01*
X0126850Y0061054D01*
X0126743Y0061144D01*
X0126639Y0061238D01*
X0126538Y0061334D01*
X0126439Y0061434D01*
X0126343Y0061536D01*
X0126251Y0061640D01*
X0126161Y0061748D01*
X0126074Y0061858D01*
X0125991Y0061970D01*
X0125910Y0062084D01*
X0125833Y0062201D01*
X0125760Y0062320D01*
X0125689Y0062441D01*
X0125623Y0062564D01*
X0125559Y0062689D01*
X0125500Y0062815D01*
X0125444Y0062944D01*
X0125391Y0063073D01*
X0125343Y0063204D01*
X0125298Y0063337D01*
X0125257Y0063471D01*
X0125219Y0063606D01*
X0125186Y0063741D01*
X0125156Y0063878D01*
X0125130Y0064016D01*
X0125109Y0064154D01*
X0125091Y0064293D01*
X0125077Y0064432D01*
X0125067Y0064571D01*
X0125061Y0064711D01*
X0125059Y0064851D01*
X0125059Y0195166D02*
X0125061Y0195306D01*
X0125067Y0195446D01*
X0125077Y0195585D01*
X0125091Y0195724D01*
X0125109Y0195863D01*
X0125130Y0196001D01*
X0125156Y0196139D01*
X0125186Y0196276D01*
X0125219Y0196411D01*
X0125257Y0196546D01*
X0125298Y0196680D01*
X0125343Y0196813D01*
X0125391Y0196944D01*
X0125444Y0197073D01*
X0125500Y0197202D01*
X0125559Y0197328D01*
X0125623Y0197453D01*
X0125689Y0197576D01*
X0125760Y0197697D01*
X0125833Y0197816D01*
X0125910Y0197933D01*
X0125991Y0198047D01*
X0126074Y0198159D01*
X0126161Y0198269D01*
X0126251Y0198377D01*
X0126343Y0198481D01*
X0126439Y0198583D01*
X0126538Y0198683D01*
X0126639Y0198779D01*
X0126743Y0198873D01*
X0126850Y0198963D01*
X0126959Y0199050D01*
X0127071Y0199135D01*
X0127185Y0199216D01*
X0127301Y0199294D01*
X0127419Y0199368D01*
X0127540Y0199439D01*
X0127662Y0199507D01*
X0127787Y0199571D01*
X0127913Y0199632D01*
X0128040Y0199689D01*
X0128170Y0199742D01*
X0128301Y0199792D01*
X0128433Y0199837D01*
X0128566Y0199880D01*
X0128701Y0199918D01*
X0128836Y0199952D01*
X0128973Y0199983D01*
X0129110Y0200010D01*
X0129248Y0200032D01*
X0129387Y0200051D01*
X0129526Y0200066D01*
X0129665Y0200077D01*
X0129805Y0200084D01*
X0129945Y0200087D01*
X0130085Y0200086D01*
X0130225Y0200081D01*
X0130364Y0200072D01*
X0130504Y0200059D01*
X0130643Y0200042D01*
X0130781Y0200021D01*
X0130919Y0199997D01*
X0131056Y0199968D01*
X0131192Y0199936D01*
X0131327Y0199899D01*
X0131461Y0199859D01*
X0131594Y0199815D01*
X0131725Y0199767D01*
X0131855Y0199716D01*
X0131984Y0199661D01*
X0132111Y0199602D01*
X0132236Y0199539D01*
X0132359Y0199474D01*
X0132481Y0199404D01*
X0132600Y0199331D01*
X0132718Y0199255D01*
X0132833Y0199176D01*
X0132946Y0199093D01*
X0133056Y0199007D01*
X0133164Y0198918D01*
X0133269Y0198826D01*
X0133372Y0198731D01*
X0133472Y0198633D01*
X0133569Y0198533D01*
X0133663Y0198429D01*
X0133755Y0198323D01*
X0133843Y0198215D01*
X0133928Y0198104D01*
X0134010Y0197990D01*
X0134089Y0197874D01*
X0134164Y0197757D01*
X0134236Y0197637D01*
X0134304Y0197515D01*
X0134369Y0197391D01*
X0134431Y0197265D01*
X0134489Y0197138D01*
X0134543Y0197009D01*
X0134594Y0196878D01*
X0134640Y0196746D01*
X0134683Y0196613D01*
X0134723Y0196479D01*
X0134758Y0196344D01*
X0134790Y0196207D01*
X0134817Y0196070D01*
X0134841Y0195932D01*
X0134861Y0195794D01*
X0134877Y0195655D01*
X0134889Y0195515D01*
X0134897Y0195376D01*
X0134901Y0195236D01*
X0134901Y0195096D01*
X0134897Y0194956D01*
X0134889Y0194817D01*
X0134877Y0194677D01*
X0134861Y0194538D01*
X0134841Y0194400D01*
X0134817Y0194262D01*
X0134790Y0194125D01*
X0134758Y0193988D01*
X0134723Y0193853D01*
X0134683Y0193719D01*
X0134640Y0193586D01*
X0134594Y0193454D01*
X0134543Y0193323D01*
X0134489Y0193194D01*
X0134431Y0193067D01*
X0134369Y0192941D01*
X0134304Y0192817D01*
X0134236Y0192695D01*
X0134164Y0192575D01*
X0134089Y0192458D01*
X0134010Y0192342D01*
X0133928Y0192228D01*
X0133843Y0192117D01*
X0133755Y0192009D01*
X0133663Y0191903D01*
X0133569Y0191799D01*
X0133472Y0191699D01*
X0133372Y0191601D01*
X0133269Y0191506D01*
X0133164Y0191414D01*
X0133056Y0191325D01*
X0132946Y0191239D01*
X0132833Y0191156D01*
X0132718Y0191077D01*
X0132600Y0191001D01*
X0132481Y0190928D01*
X0132359Y0190858D01*
X0132236Y0190793D01*
X0132111Y0190730D01*
X0131984Y0190671D01*
X0131855Y0190616D01*
X0131725Y0190565D01*
X0131594Y0190517D01*
X0131461Y0190473D01*
X0131327Y0190433D01*
X0131192Y0190396D01*
X0131056Y0190364D01*
X0130919Y0190335D01*
X0130781Y0190311D01*
X0130643Y0190290D01*
X0130504Y0190273D01*
X0130364Y0190260D01*
X0130225Y0190251D01*
X0130085Y0190246D01*
X0129945Y0190245D01*
X0129805Y0190248D01*
X0129665Y0190255D01*
X0129526Y0190266D01*
X0129387Y0190281D01*
X0129248Y0190300D01*
X0129110Y0190322D01*
X0128973Y0190349D01*
X0128836Y0190380D01*
X0128701Y0190414D01*
X0128566Y0190452D01*
X0128433Y0190495D01*
X0128301Y0190540D01*
X0128170Y0190590D01*
X0128040Y0190643D01*
X0127913Y0190700D01*
X0127787Y0190761D01*
X0127662Y0190825D01*
X0127540Y0190893D01*
X0127419Y0190964D01*
X0127301Y0191038D01*
X0127185Y0191116D01*
X0127071Y0191197D01*
X0126959Y0191282D01*
X0126850Y0191369D01*
X0126743Y0191459D01*
X0126639Y0191553D01*
X0126538Y0191649D01*
X0126439Y0191749D01*
X0126343Y0191851D01*
X0126251Y0191955D01*
X0126161Y0192063D01*
X0126074Y0192173D01*
X0125991Y0192285D01*
X0125910Y0192399D01*
X0125833Y0192516D01*
X0125760Y0192635D01*
X0125689Y0192756D01*
X0125623Y0192879D01*
X0125559Y0193004D01*
X0125500Y0193130D01*
X0125444Y0193259D01*
X0125391Y0193388D01*
X0125343Y0193519D01*
X0125298Y0193652D01*
X0125257Y0193786D01*
X0125219Y0193921D01*
X0125186Y0194056D01*
X0125156Y0194193D01*
X0125130Y0194331D01*
X0125109Y0194469D01*
X0125091Y0194608D01*
X0125077Y0194747D01*
X0125067Y0194886D01*
X0125061Y0195026D01*
X0125059Y0195166D01*
X0380965Y0195166D02*
X0380967Y0195306D01*
X0380973Y0195446D01*
X0380983Y0195585D01*
X0380997Y0195724D01*
X0381015Y0195863D01*
X0381036Y0196001D01*
X0381062Y0196139D01*
X0381092Y0196276D01*
X0381125Y0196411D01*
X0381163Y0196546D01*
X0381204Y0196680D01*
X0381249Y0196813D01*
X0381297Y0196944D01*
X0381350Y0197073D01*
X0381406Y0197202D01*
X0381465Y0197328D01*
X0381529Y0197453D01*
X0381595Y0197576D01*
X0381666Y0197697D01*
X0381739Y0197816D01*
X0381816Y0197933D01*
X0381897Y0198047D01*
X0381980Y0198159D01*
X0382067Y0198269D01*
X0382157Y0198377D01*
X0382249Y0198481D01*
X0382345Y0198583D01*
X0382444Y0198683D01*
X0382545Y0198779D01*
X0382649Y0198873D01*
X0382756Y0198963D01*
X0382865Y0199050D01*
X0382977Y0199135D01*
X0383091Y0199216D01*
X0383207Y0199294D01*
X0383325Y0199368D01*
X0383446Y0199439D01*
X0383568Y0199507D01*
X0383693Y0199571D01*
X0383819Y0199632D01*
X0383946Y0199689D01*
X0384076Y0199742D01*
X0384207Y0199792D01*
X0384339Y0199837D01*
X0384472Y0199880D01*
X0384607Y0199918D01*
X0384742Y0199952D01*
X0384879Y0199983D01*
X0385016Y0200010D01*
X0385154Y0200032D01*
X0385293Y0200051D01*
X0385432Y0200066D01*
X0385571Y0200077D01*
X0385711Y0200084D01*
X0385851Y0200087D01*
X0385991Y0200086D01*
X0386131Y0200081D01*
X0386270Y0200072D01*
X0386410Y0200059D01*
X0386549Y0200042D01*
X0386687Y0200021D01*
X0386825Y0199997D01*
X0386962Y0199968D01*
X0387098Y0199936D01*
X0387233Y0199899D01*
X0387367Y0199859D01*
X0387500Y0199815D01*
X0387631Y0199767D01*
X0387761Y0199716D01*
X0387890Y0199661D01*
X0388017Y0199602D01*
X0388142Y0199539D01*
X0388265Y0199474D01*
X0388387Y0199404D01*
X0388506Y0199331D01*
X0388624Y0199255D01*
X0388739Y0199176D01*
X0388852Y0199093D01*
X0388962Y0199007D01*
X0389070Y0198918D01*
X0389175Y0198826D01*
X0389278Y0198731D01*
X0389378Y0198633D01*
X0389475Y0198533D01*
X0389569Y0198429D01*
X0389661Y0198323D01*
X0389749Y0198215D01*
X0389834Y0198104D01*
X0389916Y0197990D01*
X0389995Y0197874D01*
X0390070Y0197757D01*
X0390142Y0197637D01*
X0390210Y0197515D01*
X0390275Y0197391D01*
X0390337Y0197265D01*
X0390395Y0197138D01*
X0390449Y0197009D01*
X0390500Y0196878D01*
X0390546Y0196746D01*
X0390589Y0196613D01*
X0390629Y0196479D01*
X0390664Y0196344D01*
X0390696Y0196207D01*
X0390723Y0196070D01*
X0390747Y0195932D01*
X0390767Y0195794D01*
X0390783Y0195655D01*
X0390795Y0195515D01*
X0390803Y0195376D01*
X0390807Y0195236D01*
X0390807Y0195096D01*
X0390803Y0194956D01*
X0390795Y0194817D01*
X0390783Y0194677D01*
X0390767Y0194538D01*
X0390747Y0194400D01*
X0390723Y0194262D01*
X0390696Y0194125D01*
X0390664Y0193988D01*
X0390629Y0193853D01*
X0390589Y0193719D01*
X0390546Y0193586D01*
X0390500Y0193454D01*
X0390449Y0193323D01*
X0390395Y0193194D01*
X0390337Y0193067D01*
X0390275Y0192941D01*
X0390210Y0192817D01*
X0390142Y0192695D01*
X0390070Y0192575D01*
X0389995Y0192458D01*
X0389916Y0192342D01*
X0389834Y0192228D01*
X0389749Y0192117D01*
X0389661Y0192009D01*
X0389569Y0191903D01*
X0389475Y0191799D01*
X0389378Y0191699D01*
X0389278Y0191601D01*
X0389175Y0191506D01*
X0389070Y0191414D01*
X0388962Y0191325D01*
X0388852Y0191239D01*
X0388739Y0191156D01*
X0388624Y0191077D01*
X0388506Y0191001D01*
X0388387Y0190928D01*
X0388265Y0190858D01*
X0388142Y0190793D01*
X0388017Y0190730D01*
X0387890Y0190671D01*
X0387761Y0190616D01*
X0387631Y0190565D01*
X0387500Y0190517D01*
X0387367Y0190473D01*
X0387233Y0190433D01*
X0387098Y0190396D01*
X0386962Y0190364D01*
X0386825Y0190335D01*
X0386687Y0190311D01*
X0386549Y0190290D01*
X0386410Y0190273D01*
X0386270Y0190260D01*
X0386131Y0190251D01*
X0385991Y0190246D01*
X0385851Y0190245D01*
X0385711Y0190248D01*
X0385571Y0190255D01*
X0385432Y0190266D01*
X0385293Y0190281D01*
X0385154Y0190300D01*
X0385016Y0190322D01*
X0384879Y0190349D01*
X0384742Y0190380D01*
X0384607Y0190414D01*
X0384472Y0190452D01*
X0384339Y0190495D01*
X0384207Y0190540D01*
X0384076Y0190590D01*
X0383946Y0190643D01*
X0383819Y0190700D01*
X0383693Y0190761D01*
X0383568Y0190825D01*
X0383446Y0190893D01*
X0383325Y0190964D01*
X0383207Y0191038D01*
X0383091Y0191116D01*
X0382977Y0191197D01*
X0382865Y0191282D01*
X0382756Y0191369D01*
X0382649Y0191459D01*
X0382545Y0191553D01*
X0382444Y0191649D01*
X0382345Y0191749D01*
X0382249Y0191851D01*
X0382157Y0191955D01*
X0382067Y0192063D01*
X0381980Y0192173D01*
X0381897Y0192285D01*
X0381816Y0192399D01*
X0381739Y0192516D01*
X0381666Y0192635D01*
X0381595Y0192756D01*
X0381529Y0192879D01*
X0381465Y0193004D01*
X0381406Y0193130D01*
X0381350Y0193259D01*
X0381297Y0193388D01*
X0381249Y0193519D01*
X0381204Y0193652D01*
X0381163Y0193786D01*
X0381125Y0193921D01*
X0381092Y0194056D01*
X0381062Y0194193D01*
X0381036Y0194331D01*
X0381015Y0194469D01*
X0380997Y0194608D01*
X0380983Y0194747D01*
X0380973Y0194886D01*
X0380967Y0195026D01*
X0380965Y0195166D01*
X0403027Y0231780D02*
X0403029Y0231933D01*
X0403035Y0232087D01*
X0403045Y0232240D01*
X0403059Y0232392D01*
X0403077Y0232545D01*
X0403099Y0232696D01*
X0403124Y0232847D01*
X0403154Y0232998D01*
X0403188Y0233148D01*
X0403225Y0233296D01*
X0403266Y0233444D01*
X0403311Y0233590D01*
X0403360Y0233736D01*
X0403413Y0233880D01*
X0403469Y0234022D01*
X0403529Y0234163D01*
X0403593Y0234303D01*
X0403660Y0234441D01*
X0403731Y0234577D01*
X0403806Y0234711D01*
X0403883Y0234843D01*
X0403965Y0234973D01*
X0404049Y0235101D01*
X0404137Y0235227D01*
X0404228Y0235350D01*
X0404322Y0235471D01*
X0404420Y0235589D01*
X0404520Y0235705D01*
X0404624Y0235818D01*
X0404730Y0235929D01*
X0404839Y0236037D01*
X0404951Y0236142D01*
X0405065Y0236243D01*
X0405183Y0236342D01*
X0405302Y0236438D01*
X0405424Y0236531D01*
X0405549Y0236620D01*
X0405676Y0236707D01*
X0405805Y0236789D01*
X0405936Y0236869D01*
X0406069Y0236945D01*
X0406204Y0237018D01*
X0406341Y0237087D01*
X0406480Y0237152D01*
X0406620Y0237214D01*
X0406762Y0237272D01*
X0406905Y0237327D01*
X0407050Y0237378D01*
X0407196Y0237425D01*
X0407343Y0237468D01*
X0407491Y0237507D01*
X0407640Y0237543D01*
X0407790Y0237574D01*
X0407941Y0237602D01*
X0408092Y0237626D01*
X0408245Y0237646D01*
X0408397Y0237662D01*
X0408550Y0237674D01*
X0408703Y0237682D01*
X0408856Y0237686D01*
X0409010Y0237686D01*
X0409163Y0237682D01*
X0409316Y0237674D01*
X0409469Y0237662D01*
X0409621Y0237646D01*
X0409774Y0237626D01*
X0409925Y0237602D01*
X0410076Y0237574D01*
X0410226Y0237543D01*
X0410375Y0237507D01*
X0410523Y0237468D01*
X0410670Y0237425D01*
X0410816Y0237378D01*
X0410961Y0237327D01*
X0411104Y0237272D01*
X0411246Y0237214D01*
X0411386Y0237152D01*
X0411525Y0237087D01*
X0411662Y0237018D01*
X0411797Y0236945D01*
X0411930Y0236869D01*
X0412061Y0236789D01*
X0412190Y0236707D01*
X0412317Y0236620D01*
X0412442Y0236531D01*
X0412564Y0236438D01*
X0412683Y0236342D01*
X0412801Y0236243D01*
X0412915Y0236142D01*
X0413027Y0236037D01*
X0413136Y0235929D01*
X0413242Y0235818D01*
X0413346Y0235705D01*
X0413446Y0235589D01*
X0413544Y0235471D01*
X0413638Y0235350D01*
X0413729Y0235227D01*
X0413817Y0235101D01*
X0413901Y0234973D01*
X0413983Y0234843D01*
X0414060Y0234711D01*
X0414135Y0234577D01*
X0414206Y0234441D01*
X0414273Y0234303D01*
X0414337Y0234163D01*
X0414397Y0234022D01*
X0414453Y0233880D01*
X0414506Y0233736D01*
X0414555Y0233590D01*
X0414600Y0233444D01*
X0414641Y0233296D01*
X0414678Y0233148D01*
X0414712Y0232998D01*
X0414742Y0232847D01*
X0414767Y0232696D01*
X0414789Y0232545D01*
X0414807Y0232392D01*
X0414821Y0232240D01*
X0414831Y0232087D01*
X0414837Y0231933D01*
X0414839Y0231780D01*
X0414837Y0231627D01*
X0414831Y0231473D01*
X0414821Y0231320D01*
X0414807Y0231168D01*
X0414789Y0231015D01*
X0414767Y0230864D01*
X0414742Y0230713D01*
X0414712Y0230562D01*
X0414678Y0230412D01*
X0414641Y0230264D01*
X0414600Y0230116D01*
X0414555Y0229970D01*
X0414506Y0229824D01*
X0414453Y0229680D01*
X0414397Y0229538D01*
X0414337Y0229397D01*
X0414273Y0229257D01*
X0414206Y0229119D01*
X0414135Y0228983D01*
X0414060Y0228849D01*
X0413983Y0228717D01*
X0413901Y0228587D01*
X0413817Y0228459D01*
X0413729Y0228333D01*
X0413638Y0228210D01*
X0413544Y0228089D01*
X0413446Y0227971D01*
X0413346Y0227855D01*
X0413242Y0227742D01*
X0413136Y0227631D01*
X0413027Y0227523D01*
X0412915Y0227418D01*
X0412801Y0227317D01*
X0412683Y0227218D01*
X0412564Y0227122D01*
X0412442Y0227029D01*
X0412317Y0226940D01*
X0412190Y0226853D01*
X0412061Y0226771D01*
X0411930Y0226691D01*
X0411797Y0226615D01*
X0411662Y0226542D01*
X0411525Y0226473D01*
X0411386Y0226408D01*
X0411246Y0226346D01*
X0411104Y0226288D01*
X0410961Y0226233D01*
X0410816Y0226182D01*
X0410670Y0226135D01*
X0410523Y0226092D01*
X0410375Y0226053D01*
X0410226Y0226017D01*
X0410076Y0225986D01*
X0409925Y0225958D01*
X0409774Y0225934D01*
X0409621Y0225914D01*
X0409469Y0225898D01*
X0409316Y0225886D01*
X0409163Y0225878D01*
X0409010Y0225874D01*
X0408856Y0225874D01*
X0408703Y0225878D01*
X0408550Y0225886D01*
X0408397Y0225898D01*
X0408245Y0225914D01*
X0408092Y0225934D01*
X0407941Y0225958D01*
X0407790Y0225986D01*
X0407640Y0226017D01*
X0407491Y0226053D01*
X0407343Y0226092D01*
X0407196Y0226135D01*
X0407050Y0226182D01*
X0406905Y0226233D01*
X0406762Y0226288D01*
X0406620Y0226346D01*
X0406480Y0226408D01*
X0406341Y0226473D01*
X0406204Y0226542D01*
X0406069Y0226615D01*
X0405936Y0226691D01*
X0405805Y0226771D01*
X0405676Y0226853D01*
X0405549Y0226940D01*
X0405424Y0227029D01*
X0405302Y0227122D01*
X0405183Y0227218D01*
X0405065Y0227317D01*
X0404951Y0227418D01*
X0404839Y0227523D01*
X0404730Y0227631D01*
X0404624Y0227742D01*
X0404520Y0227855D01*
X0404420Y0227971D01*
X0404322Y0228089D01*
X0404228Y0228210D01*
X0404137Y0228333D01*
X0404049Y0228459D01*
X0403965Y0228587D01*
X0403883Y0228717D01*
X0403806Y0228849D01*
X0403731Y0228983D01*
X0403660Y0229119D01*
X0403593Y0229257D01*
X0403529Y0229397D01*
X0403469Y0229538D01*
X0403413Y0229680D01*
X0403360Y0229824D01*
X0403311Y0229970D01*
X0403266Y0230116D01*
X0403225Y0230264D01*
X0403188Y0230412D01*
X0403154Y0230562D01*
X0403124Y0230713D01*
X0403099Y0230864D01*
X0403077Y0231015D01*
X0403059Y0231168D01*
X0403045Y0231320D01*
X0403035Y0231473D01*
X0403029Y0231627D01*
X0403027Y0231780D01*
X0380965Y0064851D02*
X0380967Y0064991D01*
X0380973Y0065131D01*
X0380983Y0065270D01*
X0380997Y0065409D01*
X0381015Y0065548D01*
X0381036Y0065686D01*
X0381062Y0065824D01*
X0381092Y0065961D01*
X0381125Y0066096D01*
X0381163Y0066231D01*
X0381204Y0066365D01*
X0381249Y0066498D01*
X0381297Y0066629D01*
X0381350Y0066758D01*
X0381406Y0066887D01*
X0381465Y0067013D01*
X0381529Y0067138D01*
X0381595Y0067261D01*
X0381666Y0067382D01*
X0381739Y0067501D01*
X0381816Y0067618D01*
X0381897Y0067732D01*
X0381980Y0067844D01*
X0382067Y0067954D01*
X0382157Y0068062D01*
X0382249Y0068166D01*
X0382345Y0068268D01*
X0382444Y0068368D01*
X0382545Y0068464D01*
X0382649Y0068558D01*
X0382756Y0068648D01*
X0382865Y0068735D01*
X0382977Y0068820D01*
X0383091Y0068901D01*
X0383207Y0068979D01*
X0383325Y0069053D01*
X0383446Y0069124D01*
X0383568Y0069192D01*
X0383693Y0069256D01*
X0383819Y0069317D01*
X0383946Y0069374D01*
X0384076Y0069427D01*
X0384207Y0069477D01*
X0384339Y0069522D01*
X0384472Y0069565D01*
X0384607Y0069603D01*
X0384742Y0069637D01*
X0384879Y0069668D01*
X0385016Y0069695D01*
X0385154Y0069717D01*
X0385293Y0069736D01*
X0385432Y0069751D01*
X0385571Y0069762D01*
X0385711Y0069769D01*
X0385851Y0069772D01*
X0385991Y0069771D01*
X0386131Y0069766D01*
X0386270Y0069757D01*
X0386410Y0069744D01*
X0386549Y0069727D01*
X0386687Y0069706D01*
X0386825Y0069682D01*
X0386962Y0069653D01*
X0387098Y0069621D01*
X0387233Y0069584D01*
X0387367Y0069544D01*
X0387500Y0069500D01*
X0387631Y0069452D01*
X0387761Y0069401D01*
X0387890Y0069346D01*
X0388017Y0069287D01*
X0388142Y0069224D01*
X0388265Y0069159D01*
X0388387Y0069089D01*
X0388506Y0069016D01*
X0388624Y0068940D01*
X0388739Y0068861D01*
X0388852Y0068778D01*
X0388962Y0068692D01*
X0389070Y0068603D01*
X0389175Y0068511D01*
X0389278Y0068416D01*
X0389378Y0068318D01*
X0389475Y0068218D01*
X0389569Y0068114D01*
X0389661Y0068008D01*
X0389749Y0067900D01*
X0389834Y0067789D01*
X0389916Y0067675D01*
X0389995Y0067559D01*
X0390070Y0067442D01*
X0390142Y0067322D01*
X0390210Y0067200D01*
X0390275Y0067076D01*
X0390337Y0066950D01*
X0390395Y0066823D01*
X0390449Y0066694D01*
X0390500Y0066563D01*
X0390546Y0066431D01*
X0390589Y0066298D01*
X0390629Y0066164D01*
X0390664Y0066029D01*
X0390696Y0065892D01*
X0390723Y0065755D01*
X0390747Y0065617D01*
X0390767Y0065479D01*
X0390783Y0065340D01*
X0390795Y0065200D01*
X0390803Y0065061D01*
X0390807Y0064921D01*
X0390807Y0064781D01*
X0390803Y0064641D01*
X0390795Y0064502D01*
X0390783Y0064362D01*
X0390767Y0064223D01*
X0390747Y0064085D01*
X0390723Y0063947D01*
X0390696Y0063810D01*
X0390664Y0063673D01*
X0390629Y0063538D01*
X0390589Y0063404D01*
X0390546Y0063271D01*
X0390500Y0063139D01*
X0390449Y0063008D01*
X0390395Y0062879D01*
X0390337Y0062752D01*
X0390275Y0062626D01*
X0390210Y0062502D01*
X0390142Y0062380D01*
X0390070Y0062260D01*
X0389995Y0062143D01*
X0389916Y0062027D01*
X0389834Y0061913D01*
X0389749Y0061802D01*
X0389661Y0061694D01*
X0389569Y0061588D01*
X0389475Y0061484D01*
X0389378Y0061384D01*
X0389278Y0061286D01*
X0389175Y0061191D01*
X0389070Y0061099D01*
X0388962Y0061010D01*
X0388852Y0060924D01*
X0388739Y0060841D01*
X0388624Y0060762D01*
X0388506Y0060686D01*
X0388387Y0060613D01*
X0388265Y0060543D01*
X0388142Y0060478D01*
X0388017Y0060415D01*
X0387890Y0060356D01*
X0387761Y0060301D01*
X0387631Y0060250D01*
X0387500Y0060202D01*
X0387367Y0060158D01*
X0387233Y0060118D01*
X0387098Y0060081D01*
X0386962Y0060049D01*
X0386825Y0060020D01*
X0386687Y0059996D01*
X0386549Y0059975D01*
X0386410Y0059958D01*
X0386270Y0059945D01*
X0386131Y0059936D01*
X0385991Y0059931D01*
X0385851Y0059930D01*
X0385711Y0059933D01*
X0385571Y0059940D01*
X0385432Y0059951D01*
X0385293Y0059966D01*
X0385154Y0059985D01*
X0385016Y0060007D01*
X0384879Y0060034D01*
X0384742Y0060065D01*
X0384607Y0060099D01*
X0384472Y0060137D01*
X0384339Y0060180D01*
X0384207Y0060225D01*
X0384076Y0060275D01*
X0383946Y0060328D01*
X0383819Y0060385D01*
X0383693Y0060446D01*
X0383568Y0060510D01*
X0383446Y0060578D01*
X0383325Y0060649D01*
X0383207Y0060723D01*
X0383091Y0060801D01*
X0382977Y0060882D01*
X0382865Y0060967D01*
X0382756Y0061054D01*
X0382649Y0061144D01*
X0382545Y0061238D01*
X0382444Y0061334D01*
X0382345Y0061434D01*
X0382249Y0061536D01*
X0382157Y0061640D01*
X0382067Y0061748D01*
X0381980Y0061858D01*
X0381897Y0061970D01*
X0381816Y0062084D01*
X0381739Y0062201D01*
X0381666Y0062320D01*
X0381595Y0062441D01*
X0381529Y0062564D01*
X0381465Y0062689D01*
X0381406Y0062815D01*
X0381350Y0062944D01*
X0381297Y0063073D01*
X0381249Y0063204D01*
X0381204Y0063337D01*
X0381163Y0063471D01*
X0381125Y0063606D01*
X0381092Y0063741D01*
X0381062Y0063878D01*
X0381036Y0064016D01*
X0381015Y0064154D01*
X0380997Y0064293D01*
X0380983Y0064432D01*
X0380973Y0064571D01*
X0380967Y0064711D01*
X0380965Y0064851D01*
D11*
X0423933Y0056780D03*
X0423933Y0396780D03*
X0083933Y0396780D03*
X0083933Y0056780D03*
D12*
X0083087Y0089280D03*
X0089780Y0089280D03*
X0089780Y0099280D03*
X0083087Y0099280D03*
X0133087Y0141780D03*
X0139780Y0141780D03*
X0145587Y0131780D03*
X0152280Y0131780D03*
X0152280Y0116780D03*
X0145587Y0116780D03*
X0145587Y0101780D03*
X0152280Y0101780D03*
X0155587Y0151780D03*
X0162280Y0151780D03*
X0132280Y0181780D03*
X0125587Y0181780D03*
X0145587Y0191780D03*
X0152280Y0191780D03*
X0171433Y0213433D03*
X0171433Y0220126D03*
X0169337Y0242092D03*
X0176030Y0242092D03*
X0142905Y0231155D03*
X0136212Y0231155D03*
X0087280Y0286780D03*
X0087280Y0291780D03*
X0087280Y0296780D03*
X0080587Y0296780D03*
X0080587Y0291780D03*
X0080587Y0286780D03*
X0210587Y0211780D03*
X0217280Y0211780D03*
X0226433Y0228433D03*
X0226433Y0235126D03*
X0233933Y0235126D03*
X0233933Y0228433D03*
X0263087Y0249280D03*
X0263087Y0254280D03*
X0269780Y0254280D03*
X0269780Y0249280D03*
X0269780Y0264280D03*
X0269780Y0269280D03*
X0269780Y0274280D03*
X0263087Y0274280D03*
X0263087Y0269280D03*
X0263087Y0264280D03*
X0263087Y0294280D03*
X0263087Y0299280D03*
X0263087Y0306780D03*
X0263087Y0311780D03*
X0263087Y0316780D03*
X0263087Y0321780D03*
X0269780Y0321780D03*
X0269780Y0316780D03*
X0269780Y0311780D03*
X0269780Y0306780D03*
X0269780Y0299280D03*
X0269780Y0294280D03*
X0294246Y0288876D03*
X0294246Y0282183D03*
X0318399Y0305217D03*
X0315899Y0310217D03*
X0322592Y0310217D03*
X0325092Y0305217D03*
X0330899Y0310217D03*
X0337592Y0310217D03*
X0335899Y0305217D03*
X0342592Y0305217D03*
X0353933Y0310933D03*
X0353933Y0317626D03*
X0339780Y0338655D03*
X0333087Y0338655D03*
X0346212Y0349905D03*
X0352905Y0349905D03*
X0354780Y0356780D03*
X0352280Y0361780D03*
X0352280Y0366780D03*
X0345587Y0366780D03*
X0345587Y0361780D03*
X0348087Y0356780D03*
X0338933Y0368433D03*
X0333933Y0365933D03*
X0333933Y0372626D03*
X0338933Y0375126D03*
X0323933Y0364501D03*
X0323933Y0357808D03*
X0292280Y0356780D03*
X0285587Y0356780D03*
X0273933Y0358433D03*
X0273933Y0365126D03*
X0263933Y0365126D03*
X0263933Y0358433D03*
X0244780Y0346780D03*
X0238087Y0346780D03*
X0236433Y0365933D03*
X0236433Y0372626D03*
X0224155Y0392405D03*
X0217462Y0392405D03*
X0353933Y0295126D03*
X0353933Y0288433D03*
X0353933Y0272626D03*
X0353933Y0265933D03*
X0353933Y0255439D03*
X0353933Y0248746D03*
X0378087Y0261780D03*
X0384780Y0261780D03*
X0384780Y0274280D03*
X0378087Y0274280D03*
X0378087Y0289280D03*
X0378087Y0294280D03*
X0384780Y0294280D03*
X0384780Y0289280D03*
X0385587Y0301780D03*
X0392280Y0301780D03*
X0405587Y0296780D03*
X0412280Y0296780D03*
X0420587Y0304280D03*
X0427280Y0304280D03*
X0404780Y0326780D03*
X0398087Y0326780D03*
X0401030Y0334280D03*
X0406212Y0339280D03*
X0412905Y0339280D03*
X0394337Y0334280D03*
X0398933Y0358433D03*
X0398933Y0365126D03*
X0421433Y0367626D03*
X0421433Y0360933D03*
X0425587Y0374280D03*
X0432280Y0374280D03*
X0371433Y0388433D03*
X0371433Y0395126D03*
X0388087Y0241780D03*
X0394780Y0241780D03*
X0394780Y0221780D03*
X0388087Y0221780D03*
X0423087Y0221780D03*
X0429780Y0221780D03*
X0423933Y0228433D03*
X0423933Y0235126D03*
X0383933Y0180126D03*
X0383933Y0173433D03*
X0379780Y0169280D03*
X0373087Y0169280D03*
X0373087Y0159280D03*
X0379780Y0159280D03*
X0385587Y0154280D03*
X0392280Y0154280D03*
X0403933Y0153433D03*
X0403933Y0160126D03*
X0408087Y0166780D03*
X0401433Y0168433D03*
X0401433Y0175126D03*
X0394780Y0169280D03*
X0388087Y0169280D03*
X0376433Y0146376D03*
X0376433Y0139683D03*
X0374780Y0134280D03*
X0368087Y0134280D03*
X0366433Y0139683D03*
X0358530Y0136780D03*
X0351837Y0136780D03*
X0351837Y0129280D03*
X0351433Y0122626D03*
X0345808Y0122626D03*
X0345808Y0115933D03*
X0351433Y0115933D03*
X0358933Y0115933D03*
X0358933Y0107626D03*
X0358933Y0100933D03*
X0359780Y0094280D03*
X0365587Y0094280D03*
X0371433Y0100933D03*
X0372280Y0094280D03*
X0378087Y0094280D03*
X0384780Y0094280D03*
X0383933Y0100933D03*
X0383933Y0107626D03*
X0384780Y0119280D03*
X0378087Y0119280D03*
X0386433Y0128433D03*
X0386433Y0135126D03*
X0366433Y0146376D03*
X0353933Y0148433D03*
X0348933Y0148433D03*
X0348933Y0155126D03*
X0353933Y0155126D03*
X0353933Y0174683D03*
X0353933Y0181376D03*
X0347683Y0181376D03*
X0347683Y0174683D03*
X0322280Y0169280D03*
X0322280Y0164280D03*
X0322280Y0159280D03*
X0315587Y0159280D03*
X0315587Y0164280D03*
X0315587Y0169280D03*
X0305183Y0185933D03*
X0305183Y0192626D03*
X0278933Y0191376D03*
X0278933Y0184683D03*
X0250808Y0175126D03*
X0250808Y0168433D03*
X0241433Y0147626D03*
X0241433Y0140933D03*
X0253933Y0130126D03*
X0253933Y0123433D03*
X0260183Y0123433D03*
X0260183Y0130126D03*
X0265587Y0119280D03*
X0272280Y0119280D03*
X0272280Y0111780D03*
X0265587Y0111780D03*
X0265587Y0104280D03*
X0272280Y0104280D03*
X0272280Y0096780D03*
X0265587Y0096780D03*
X0280587Y0096780D03*
X0287280Y0096780D03*
X0287280Y0106780D03*
X0280587Y0106780D03*
X0280587Y0114280D03*
X0287280Y0114280D03*
X0296837Y0134280D03*
X0303530Y0134280D03*
X0311212Y0134280D03*
X0317905Y0134280D03*
X0323933Y0135126D03*
X0323933Y0128433D03*
X0330587Y0131780D03*
X0337280Y0131780D03*
X0317280Y0146780D03*
X0317280Y0151780D03*
X0310587Y0151780D03*
X0310587Y0146780D03*
X0330587Y0109280D03*
X0337280Y0109280D03*
X0353087Y0094280D03*
X0336433Y0082626D03*
X0336433Y0075933D03*
X0370587Y0079280D03*
X0377280Y0079280D03*
X0403933Y0080933D03*
X0403933Y0087626D03*
X0396433Y0103433D03*
X0396433Y0110126D03*
X0416433Y0118433D03*
X0416433Y0125126D03*
X0423933Y0150933D03*
X0423933Y0157626D03*
X0414780Y0166780D03*
X0358530Y0129280D03*
X0358933Y0122626D03*
X0371433Y0107626D03*
D13*
X0372280Y0119280D03*
X0365587Y0119280D03*
X0368087Y0129280D03*
X0374780Y0129280D03*
X0390587Y0119280D03*
X0397280Y0119280D03*
X0415587Y0131780D03*
X0422280Y0131780D03*
X0423933Y0125126D03*
X0423933Y0118433D03*
X0430587Y0116780D03*
X0437280Y0116780D03*
X0437280Y0126780D03*
X0430587Y0126780D03*
X0399780Y0141780D03*
X0393087Y0141780D03*
X0392280Y0149280D03*
X0385587Y0149280D03*
X0388087Y0161780D03*
X0394780Y0161780D03*
X0367280Y0159280D03*
X0360587Y0159280D03*
X0358933Y0155126D03*
X0358933Y0148433D03*
X0342683Y0145933D03*
X0342683Y0152626D03*
X0333933Y0151376D03*
X0333933Y0144683D03*
X0330587Y0136780D03*
X0337280Y0136780D03*
X0337280Y0124280D03*
X0337280Y0119280D03*
X0337280Y0114280D03*
X0330587Y0114280D03*
X0330587Y0119280D03*
X0330587Y0124280D03*
X0330587Y0104280D03*
X0330587Y0099280D03*
X0328087Y0094280D03*
X0322280Y0094280D03*
X0315587Y0094280D03*
X0309780Y0094280D03*
X0303087Y0094280D03*
X0286433Y0090126D03*
X0278933Y0090126D03*
X0278933Y0083433D03*
X0286433Y0083433D03*
X0283933Y0060126D03*
X0283933Y0053433D03*
X0262280Y0084905D03*
X0255587Y0084905D03*
X0247058Y0123433D03*
X0247058Y0130126D03*
X0280587Y0124280D03*
X0287280Y0124280D03*
X0337280Y0104280D03*
X0337280Y0099280D03*
X0334780Y0094280D03*
X0340587Y0094280D03*
X0347280Y0094280D03*
X0343933Y0082626D03*
X0343933Y0075933D03*
X0350587Y0074280D03*
X0357280Y0074280D03*
X0363087Y0074280D03*
X0369780Y0074280D03*
X0383087Y0079280D03*
X0389780Y0079280D03*
X0384780Y0089280D03*
X0378087Y0089280D03*
X0372280Y0089280D03*
X0365587Y0089280D03*
X0357280Y0081780D03*
X0350587Y0081780D03*
X0360587Y0169280D03*
X0358933Y0174683D03*
X0358933Y0181376D03*
X0367280Y0169280D03*
X0326030Y0175530D03*
X0319337Y0175530D03*
X0297280Y0198655D03*
X0290587Y0198655D03*
X0298933Y0220933D03*
X0303933Y0220933D03*
X0308933Y0220933D03*
X0308933Y0227626D03*
X0303933Y0227626D03*
X0298933Y0227626D03*
X0300092Y0248030D03*
X0293399Y0248030D03*
X0293399Y0255530D03*
X0300092Y0255530D03*
X0315899Y0247717D03*
X0322592Y0247717D03*
X0335587Y0249280D03*
X0342280Y0249280D03*
X0343933Y0227626D03*
X0348933Y0227626D03*
X0353933Y0227626D03*
X0353933Y0220933D03*
X0348933Y0220933D03*
X0343933Y0220933D03*
X0333933Y0220933D03*
X0333933Y0227626D03*
X0326433Y0227626D03*
X0326433Y0220933D03*
X0256433Y0220933D03*
X0256433Y0227626D03*
X0247280Y0231780D03*
X0240587Y0231780D03*
X0217280Y0231780D03*
X0210587Y0231780D03*
X0178933Y0220126D03*
X0178933Y0213433D03*
X0172280Y0191780D03*
X0165587Y0191780D03*
X0147280Y0181780D03*
X0140587Y0181780D03*
X0131433Y0175126D03*
X0131433Y0168433D03*
X0131433Y0160126D03*
X0131433Y0153433D03*
X0148087Y0141780D03*
X0154780Y0141780D03*
X0155587Y0171780D03*
X0162280Y0171780D03*
X0088308Y0187808D03*
X0088308Y0194501D03*
X0183933Y0060126D03*
X0188933Y0060126D03*
X0193933Y0060126D03*
X0193933Y0053433D03*
X0188933Y0053433D03*
X0183933Y0053433D03*
X0400587Y0221780D03*
X0407280Y0221780D03*
X0407280Y0241780D03*
X0400587Y0241780D03*
X0399780Y0296780D03*
X0393087Y0296780D03*
X0427462Y0309280D03*
X0434155Y0309280D03*
X0412905Y0334280D03*
X0406212Y0334280D03*
X0404337Y0345530D03*
X0411030Y0345530D03*
X0387905Y0356780D03*
X0381212Y0356780D03*
X0378087Y0331780D03*
X0384780Y0331780D03*
X0352280Y0338655D03*
X0345587Y0338655D03*
X0339780Y0344280D03*
X0333087Y0344280D03*
X0321433Y0342626D03*
X0316433Y0342626D03*
X0316433Y0335933D03*
X0321433Y0335933D03*
X0308933Y0335933D03*
X0303933Y0335933D03*
X0303933Y0342626D03*
X0308933Y0342626D03*
X0330587Y0356780D03*
X0337280Y0356780D03*
X0324780Y0369905D03*
X0318087Y0369905D03*
X0294780Y0369280D03*
X0288087Y0369280D03*
X0313933Y0393433D03*
X0318933Y0393433D03*
X0323933Y0393433D03*
X0323933Y0400126D03*
X0318933Y0400126D03*
X0313933Y0400126D03*
X0363933Y0390126D03*
X0363933Y0383433D03*
X0385587Y0381780D03*
X0392280Y0381780D03*
X0403933Y0377626D03*
X0403933Y0370933D03*
X0347996Y0311689D03*
X0347996Y0304996D03*
X0340092Y0315217D03*
X0333399Y0315217D03*
X0320092Y0315217D03*
X0313399Y0315217D03*
X0300092Y0315217D03*
X0293399Y0315217D03*
D14*
X0292809Y0263030D03*
X0300683Y0263030D03*
X0345309Y0344280D03*
X0353183Y0344280D03*
X0372496Y0381780D03*
X0380370Y0381780D03*
D15*
X0302246Y0273030D03*
X0296246Y0273030D03*
D16*
X0299246Y0273030D03*
D17*
X0298933Y0386780D03*
X0293933Y0386780D03*
X0288933Y0386780D03*
X0283933Y0386780D03*
X0278933Y0386780D03*
X0273933Y0386780D03*
X0268933Y0386780D03*
X0263933Y0386780D03*
X0263933Y0406780D03*
X0268933Y0406780D03*
X0273933Y0406780D03*
X0278933Y0406780D03*
X0283933Y0406780D03*
X0288933Y0406780D03*
X0293933Y0406780D03*
X0298933Y0406780D03*
X0303933Y0406780D03*
X0308933Y0406780D03*
X0313933Y0406780D03*
X0318933Y0406780D03*
X0323933Y0406780D03*
X0328933Y0406780D03*
X0333933Y0406780D03*
X0338933Y0406780D03*
X0343933Y0406780D03*
X0348933Y0406780D03*
X0353933Y0406780D03*
X0358933Y0406780D03*
X0358933Y0386780D03*
X0353933Y0386780D03*
X0348933Y0386780D03*
X0343933Y0386780D03*
X0338933Y0386780D03*
X0333933Y0386780D03*
X0328933Y0386780D03*
X0323933Y0386780D03*
X0318933Y0386780D03*
X0313933Y0386780D03*
X0308933Y0386780D03*
X0303933Y0386780D03*
X0243933Y0386780D03*
X0238933Y0386780D03*
X0233933Y0386780D03*
X0228933Y0386780D03*
X0223933Y0386780D03*
X0218933Y0386780D03*
X0213933Y0386780D03*
X0208933Y0386780D03*
X0203933Y0386780D03*
X0198933Y0386780D03*
X0193933Y0386780D03*
X0188933Y0386780D03*
X0183933Y0386780D03*
X0178933Y0386780D03*
X0173933Y0386780D03*
X0168933Y0386780D03*
X0163933Y0386780D03*
X0158933Y0386780D03*
X0153933Y0386780D03*
X0148933Y0386780D03*
X0148933Y0406780D03*
X0153933Y0406780D03*
X0158933Y0406780D03*
X0163933Y0406780D03*
X0168933Y0406780D03*
X0173933Y0406780D03*
X0178933Y0406780D03*
X0183933Y0406780D03*
X0188933Y0406780D03*
X0193933Y0406780D03*
X0198933Y0406780D03*
X0203933Y0406780D03*
X0208933Y0406780D03*
X0213933Y0406780D03*
X0218933Y0406780D03*
X0223933Y0406780D03*
X0228933Y0406780D03*
X0233933Y0406780D03*
X0238933Y0406780D03*
X0243933Y0406780D03*
X0093933Y0331780D03*
X0093933Y0326780D03*
X0093933Y0321780D03*
X0093933Y0316780D03*
X0093933Y0311780D03*
X0093933Y0306780D03*
X0093933Y0301780D03*
X0093933Y0296780D03*
X0093933Y0291780D03*
X0093933Y0286780D03*
X0093933Y0281780D03*
X0093933Y0276780D03*
X0093933Y0271780D03*
X0093933Y0266780D03*
X0093933Y0261780D03*
X0093933Y0256780D03*
X0093933Y0251780D03*
X0093933Y0246780D03*
X0093933Y0241780D03*
X0093933Y0236780D03*
X0073933Y0236780D03*
X0073933Y0241780D03*
X0073933Y0246780D03*
X0073933Y0251780D03*
X0073933Y0256780D03*
X0073933Y0261780D03*
X0073933Y0266780D03*
X0073933Y0271780D03*
X0073933Y0276780D03*
X0073933Y0281780D03*
X0073933Y0286780D03*
X0073933Y0291780D03*
X0073933Y0296780D03*
X0073933Y0301780D03*
X0073933Y0306780D03*
X0073933Y0311780D03*
X0073933Y0316780D03*
X0073933Y0321780D03*
X0073933Y0326780D03*
X0073933Y0331780D03*
X0073933Y0216780D03*
X0073933Y0211780D03*
X0073933Y0206780D03*
X0073933Y0201780D03*
X0073933Y0196780D03*
X0073933Y0191780D03*
X0073933Y0186780D03*
X0073933Y0181780D03*
X0073933Y0176780D03*
X0073933Y0171780D03*
X0073933Y0166780D03*
X0073933Y0161780D03*
X0073933Y0156780D03*
X0073933Y0151780D03*
X0073933Y0146780D03*
X0073933Y0141780D03*
X0073933Y0136780D03*
X0073933Y0131780D03*
X0073933Y0126780D03*
X0073933Y0121780D03*
X0093933Y0121780D03*
X0093933Y0126780D03*
X0093933Y0131780D03*
X0093933Y0136780D03*
X0093933Y0141780D03*
X0093933Y0146780D03*
X0093933Y0151780D03*
X0093933Y0156780D03*
X0093933Y0161780D03*
X0093933Y0166780D03*
X0093933Y0171780D03*
X0093933Y0176780D03*
X0093933Y0181780D03*
X0093933Y0186780D03*
X0093933Y0191780D03*
X0093933Y0196780D03*
X0093933Y0201780D03*
X0093933Y0206780D03*
X0093933Y0211780D03*
X0093933Y0216780D03*
X0148933Y0066780D03*
X0153933Y0066780D03*
X0158933Y0066780D03*
X0163933Y0066780D03*
X0168933Y0066780D03*
X0173933Y0066780D03*
X0178933Y0066780D03*
X0183933Y0066780D03*
X0188933Y0066780D03*
X0193933Y0066780D03*
X0198933Y0066780D03*
X0203933Y0066780D03*
X0208933Y0066780D03*
X0213933Y0066780D03*
X0218933Y0066780D03*
X0223933Y0066780D03*
X0228933Y0066780D03*
X0233933Y0066780D03*
X0238933Y0066780D03*
X0243933Y0066780D03*
X0243933Y0046780D03*
X0238933Y0046780D03*
X0233933Y0046780D03*
X0228933Y0046780D03*
X0223933Y0046780D03*
X0218933Y0046780D03*
X0213933Y0046780D03*
X0208933Y0046780D03*
X0203933Y0046780D03*
X0198933Y0046780D03*
X0193933Y0046780D03*
X0188933Y0046780D03*
X0183933Y0046780D03*
X0178933Y0046780D03*
X0173933Y0046780D03*
X0168933Y0046780D03*
X0163933Y0046780D03*
X0158933Y0046780D03*
X0153933Y0046780D03*
X0148933Y0046780D03*
X0263933Y0046780D03*
X0268933Y0046780D03*
X0273933Y0046780D03*
X0278933Y0046780D03*
X0283933Y0046780D03*
X0288933Y0046780D03*
X0293933Y0046780D03*
X0298933Y0046780D03*
X0303933Y0046780D03*
X0308933Y0046780D03*
X0313933Y0046780D03*
X0318933Y0046780D03*
X0323933Y0046780D03*
X0328933Y0046780D03*
X0333933Y0046780D03*
X0338933Y0046780D03*
X0343933Y0046780D03*
X0348933Y0046780D03*
X0353933Y0046780D03*
X0358933Y0046780D03*
X0358933Y0066780D03*
X0353933Y0066780D03*
X0348933Y0066780D03*
X0343933Y0066780D03*
X0338933Y0066780D03*
X0333933Y0066780D03*
X0328933Y0066780D03*
X0323933Y0066780D03*
X0318933Y0066780D03*
X0313933Y0066780D03*
X0308933Y0066780D03*
X0303933Y0066780D03*
X0298933Y0066780D03*
X0293933Y0066780D03*
X0288933Y0066780D03*
X0283933Y0066780D03*
X0278933Y0066780D03*
X0273933Y0066780D03*
X0268933Y0066780D03*
X0263933Y0066780D03*
D18*
X0237673Y0086780D03*
X0230193Y0086780D03*
X0152673Y0094280D03*
X0145193Y0094280D03*
X0145193Y0109280D03*
X0152673Y0109280D03*
X0152673Y0124280D03*
X0145193Y0124280D03*
X0155193Y0181780D03*
X0162673Y0181780D03*
X0165193Y0201780D03*
X0172673Y0201780D03*
X0210193Y0191780D03*
X0217673Y0191780D03*
X0310505Y0255530D03*
X0317986Y0255530D03*
X0317986Y0263030D03*
X0310505Y0263030D03*
X0310505Y0273030D03*
X0317986Y0273030D03*
X0300486Y0295217D03*
X0293005Y0295217D03*
X0412693Y0316780D03*
X0420173Y0316780D03*
D19*
X0188933Y0186622D03*
X0188933Y0166937D03*
D20*
X0301433Y0356780D03*
X0398933Y0401780D03*
D21*
X0388933Y0401780D03*
X0378933Y0401780D03*
X0378933Y0391780D03*
X0388933Y0391780D03*
X0398933Y0391780D03*
X0301433Y0366780D03*
D22*
X0213205Y0259280D03*
X0209661Y0259280D03*
D23*
X0221433Y0260205D03*
X0204858Y0236780D03*
X0204858Y0201780D03*
D24*
X0258008Y0201780D03*
X0258008Y0236780D03*
X0221433Y0313355D03*
D25*
X0138933Y0215520D03*
X0138933Y0208040D03*
X0113933Y0190520D03*
X0113933Y0183040D03*
X0233933Y0175520D03*
X0233933Y0168040D03*
X0263933Y0185540D03*
X0263933Y0193020D03*
X0246433Y0093020D03*
X0246433Y0085540D03*
X0428933Y0322415D03*
X0428933Y0329895D03*
D26*
X0193933Y0218473D03*
X0193933Y0205087D03*
D27*
X0206224Y0218204D02*
X0209438Y0218204D01*
X0206224Y0218204D02*
X0206224Y0219450D01*
X0209438Y0219450D01*
X0209438Y0218204D01*
X0209438Y0218341D02*
X0206224Y0218341D01*
X0206224Y0218478D02*
X0209438Y0218478D01*
X0209438Y0218615D02*
X0206224Y0218615D01*
X0206224Y0218752D02*
X0209438Y0218752D01*
X0209438Y0218889D02*
X0206224Y0218889D01*
X0206224Y0219026D02*
X0209438Y0219026D01*
X0209438Y0219163D02*
X0206224Y0219163D01*
X0206224Y0219300D02*
X0209438Y0219300D01*
X0209438Y0219437D02*
X0206224Y0219437D01*
X0206224Y0220173D02*
X0209438Y0220173D01*
X0206224Y0220173D02*
X0206224Y0221419D01*
X0209438Y0221419D01*
X0209438Y0220173D01*
X0209438Y0220310D02*
X0206224Y0220310D01*
X0206224Y0220447D02*
X0209438Y0220447D01*
X0209438Y0220584D02*
X0206224Y0220584D01*
X0206224Y0220721D02*
X0209438Y0220721D01*
X0209438Y0220858D02*
X0206224Y0220858D01*
X0206224Y0220995D02*
X0209438Y0220995D01*
X0209438Y0221132D02*
X0206224Y0221132D01*
X0206224Y0221269D02*
X0209438Y0221269D01*
X0209438Y0221406D02*
X0206224Y0221406D01*
X0206224Y0222141D02*
X0209438Y0222141D01*
X0206224Y0222141D02*
X0206224Y0223387D01*
X0209438Y0223387D01*
X0209438Y0222141D01*
X0209438Y0222278D02*
X0206224Y0222278D01*
X0206224Y0222415D02*
X0209438Y0222415D01*
X0209438Y0222552D02*
X0206224Y0222552D01*
X0206224Y0222689D02*
X0209438Y0222689D01*
X0209438Y0222826D02*
X0206224Y0222826D01*
X0206224Y0222963D02*
X0209438Y0222963D01*
X0209438Y0223100D02*
X0206224Y0223100D01*
X0206224Y0223237D02*
X0209438Y0223237D01*
X0209438Y0223374D02*
X0206224Y0223374D01*
X0206224Y0224110D02*
X0209438Y0224110D01*
X0206224Y0224110D02*
X0206224Y0225356D01*
X0209438Y0225356D01*
X0209438Y0224110D01*
X0209438Y0224247D02*
X0206224Y0224247D01*
X0206224Y0224384D02*
X0209438Y0224384D01*
X0209438Y0224521D02*
X0206224Y0224521D01*
X0206224Y0224658D02*
X0209438Y0224658D01*
X0209438Y0224795D02*
X0206224Y0224795D01*
X0206224Y0224932D02*
X0209438Y0224932D01*
X0209438Y0225069D02*
X0206224Y0225069D01*
X0206224Y0225206D02*
X0209438Y0225206D01*
X0209438Y0225343D02*
X0206224Y0225343D01*
X0218428Y0225356D02*
X0221642Y0225356D01*
X0221642Y0224110D01*
X0218428Y0224110D01*
X0218428Y0225356D01*
X0218428Y0224247D02*
X0221642Y0224247D01*
X0221642Y0224384D02*
X0218428Y0224384D01*
X0218428Y0224521D02*
X0221642Y0224521D01*
X0221642Y0224658D02*
X0218428Y0224658D01*
X0218428Y0224795D02*
X0221642Y0224795D01*
X0221642Y0224932D02*
X0218428Y0224932D01*
X0218428Y0225069D02*
X0221642Y0225069D01*
X0221642Y0225206D02*
X0218428Y0225206D01*
X0218428Y0225343D02*
X0221642Y0225343D01*
X0221642Y0223387D02*
X0218428Y0223387D01*
X0221642Y0223387D02*
X0221642Y0222141D01*
X0218428Y0222141D01*
X0218428Y0223387D01*
X0218428Y0222278D02*
X0221642Y0222278D01*
X0221642Y0222415D02*
X0218428Y0222415D01*
X0218428Y0222552D02*
X0221642Y0222552D01*
X0221642Y0222689D02*
X0218428Y0222689D01*
X0218428Y0222826D02*
X0221642Y0222826D01*
X0221642Y0222963D02*
X0218428Y0222963D01*
X0218428Y0223100D02*
X0221642Y0223100D01*
X0221642Y0223237D02*
X0218428Y0223237D01*
X0218428Y0223374D02*
X0221642Y0223374D01*
X0221642Y0221419D02*
X0218428Y0221419D01*
X0221642Y0221419D02*
X0221642Y0220173D01*
X0218428Y0220173D01*
X0218428Y0221419D01*
X0218428Y0220310D02*
X0221642Y0220310D01*
X0221642Y0220447D02*
X0218428Y0220447D01*
X0218428Y0220584D02*
X0221642Y0220584D01*
X0221642Y0220721D02*
X0218428Y0220721D01*
X0218428Y0220858D02*
X0221642Y0220858D01*
X0221642Y0220995D02*
X0218428Y0220995D01*
X0218428Y0221132D02*
X0221642Y0221132D01*
X0221642Y0221269D02*
X0218428Y0221269D01*
X0218428Y0221406D02*
X0221642Y0221406D01*
X0221642Y0219450D02*
X0218428Y0219450D01*
X0221642Y0219450D02*
X0221642Y0218204D01*
X0218428Y0218204D01*
X0218428Y0219450D01*
X0218428Y0218341D02*
X0221642Y0218341D01*
X0221642Y0218478D02*
X0218428Y0218478D01*
X0218428Y0218615D02*
X0221642Y0218615D01*
X0221642Y0218752D02*
X0218428Y0218752D01*
X0218428Y0218889D02*
X0221642Y0218889D01*
X0221642Y0219026D02*
X0218428Y0219026D01*
X0218428Y0219163D02*
X0221642Y0219163D01*
X0221642Y0219300D02*
X0218428Y0219300D01*
X0218428Y0219437D02*
X0221642Y0219437D01*
X0236224Y0218204D02*
X0239438Y0218204D01*
X0236224Y0218204D02*
X0236224Y0219450D01*
X0239438Y0219450D01*
X0239438Y0218204D01*
X0239438Y0218341D02*
X0236224Y0218341D01*
X0236224Y0218478D02*
X0239438Y0218478D01*
X0239438Y0218615D02*
X0236224Y0218615D01*
X0236224Y0218752D02*
X0239438Y0218752D01*
X0239438Y0218889D02*
X0236224Y0218889D01*
X0236224Y0219026D02*
X0239438Y0219026D01*
X0239438Y0219163D02*
X0236224Y0219163D01*
X0236224Y0219300D02*
X0239438Y0219300D01*
X0239438Y0219437D02*
X0236224Y0219437D01*
X0236224Y0220173D02*
X0239438Y0220173D01*
X0236224Y0220173D02*
X0236224Y0221419D01*
X0239438Y0221419D01*
X0239438Y0220173D01*
X0239438Y0220310D02*
X0236224Y0220310D01*
X0236224Y0220447D02*
X0239438Y0220447D01*
X0239438Y0220584D02*
X0236224Y0220584D01*
X0236224Y0220721D02*
X0239438Y0220721D01*
X0239438Y0220858D02*
X0236224Y0220858D01*
X0236224Y0220995D02*
X0239438Y0220995D01*
X0239438Y0221132D02*
X0236224Y0221132D01*
X0236224Y0221269D02*
X0239438Y0221269D01*
X0239438Y0221406D02*
X0236224Y0221406D01*
X0236224Y0222141D02*
X0239438Y0222141D01*
X0236224Y0222141D02*
X0236224Y0223387D01*
X0239438Y0223387D01*
X0239438Y0222141D01*
X0239438Y0222278D02*
X0236224Y0222278D01*
X0236224Y0222415D02*
X0239438Y0222415D01*
X0239438Y0222552D02*
X0236224Y0222552D01*
X0236224Y0222689D02*
X0239438Y0222689D01*
X0239438Y0222826D02*
X0236224Y0222826D01*
X0236224Y0222963D02*
X0239438Y0222963D01*
X0239438Y0223100D02*
X0236224Y0223100D01*
X0236224Y0223237D02*
X0239438Y0223237D01*
X0239438Y0223374D02*
X0236224Y0223374D01*
X0236224Y0224110D02*
X0239438Y0224110D01*
X0236224Y0224110D02*
X0236224Y0225356D01*
X0239438Y0225356D01*
X0239438Y0224110D01*
X0239438Y0224247D02*
X0236224Y0224247D01*
X0236224Y0224384D02*
X0239438Y0224384D01*
X0239438Y0224521D02*
X0236224Y0224521D01*
X0236224Y0224658D02*
X0239438Y0224658D01*
X0239438Y0224795D02*
X0236224Y0224795D01*
X0236224Y0224932D02*
X0239438Y0224932D01*
X0239438Y0225069D02*
X0236224Y0225069D01*
X0236224Y0225206D02*
X0239438Y0225206D01*
X0239438Y0225343D02*
X0236224Y0225343D01*
X0248428Y0225356D02*
X0251642Y0225356D01*
X0251642Y0224110D01*
X0248428Y0224110D01*
X0248428Y0225356D01*
X0248428Y0224247D02*
X0251642Y0224247D01*
X0251642Y0224384D02*
X0248428Y0224384D01*
X0248428Y0224521D02*
X0251642Y0224521D01*
X0251642Y0224658D02*
X0248428Y0224658D01*
X0248428Y0224795D02*
X0251642Y0224795D01*
X0251642Y0224932D02*
X0248428Y0224932D01*
X0248428Y0225069D02*
X0251642Y0225069D01*
X0251642Y0225206D02*
X0248428Y0225206D01*
X0248428Y0225343D02*
X0251642Y0225343D01*
X0251642Y0223387D02*
X0248428Y0223387D01*
X0251642Y0223387D02*
X0251642Y0222141D01*
X0248428Y0222141D01*
X0248428Y0223387D01*
X0248428Y0222278D02*
X0251642Y0222278D01*
X0251642Y0222415D02*
X0248428Y0222415D01*
X0248428Y0222552D02*
X0251642Y0222552D01*
X0251642Y0222689D02*
X0248428Y0222689D01*
X0248428Y0222826D02*
X0251642Y0222826D01*
X0251642Y0222963D02*
X0248428Y0222963D01*
X0248428Y0223100D02*
X0251642Y0223100D01*
X0251642Y0223237D02*
X0248428Y0223237D01*
X0248428Y0223374D02*
X0251642Y0223374D01*
X0251642Y0221419D02*
X0248428Y0221419D01*
X0251642Y0221419D02*
X0251642Y0220173D01*
X0248428Y0220173D01*
X0248428Y0221419D01*
X0248428Y0220310D02*
X0251642Y0220310D01*
X0251642Y0220447D02*
X0248428Y0220447D01*
X0248428Y0220584D02*
X0251642Y0220584D01*
X0251642Y0220721D02*
X0248428Y0220721D01*
X0248428Y0220858D02*
X0251642Y0220858D01*
X0251642Y0220995D02*
X0248428Y0220995D01*
X0248428Y0221132D02*
X0251642Y0221132D01*
X0251642Y0221269D02*
X0248428Y0221269D01*
X0248428Y0221406D02*
X0251642Y0221406D01*
X0251642Y0219450D02*
X0248428Y0219450D01*
X0251642Y0219450D02*
X0251642Y0218204D01*
X0248428Y0218204D01*
X0248428Y0219450D01*
X0248428Y0218341D02*
X0251642Y0218341D01*
X0251642Y0218478D02*
X0248428Y0218478D01*
X0248428Y0218615D02*
X0251642Y0218615D01*
X0251642Y0218752D02*
X0248428Y0218752D01*
X0248428Y0218889D02*
X0251642Y0218889D01*
X0251642Y0219026D02*
X0248428Y0219026D01*
X0248428Y0219163D02*
X0251642Y0219163D01*
X0251642Y0219300D02*
X0248428Y0219300D01*
X0248428Y0219437D02*
X0251642Y0219437D01*
X0283724Y0191610D02*
X0286938Y0191610D01*
X0283724Y0191610D02*
X0283724Y0192856D01*
X0286938Y0192856D01*
X0286938Y0191610D01*
X0286938Y0191747D02*
X0283724Y0191747D01*
X0283724Y0191884D02*
X0286938Y0191884D01*
X0286938Y0192021D02*
X0283724Y0192021D01*
X0283724Y0192158D02*
X0286938Y0192158D01*
X0286938Y0192295D02*
X0283724Y0192295D01*
X0283724Y0192432D02*
X0286938Y0192432D01*
X0286938Y0192569D02*
X0283724Y0192569D01*
X0283724Y0192706D02*
X0286938Y0192706D01*
X0286938Y0192843D02*
X0283724Y0192843D01*
X0283724Y0189641D02*
X0286938Y0189641D01*
X0283724Y0189641D02*
X0283724Y0190887D01*
X0286938Y0190887D01*
X0286938Y0189641D01*
X0286938Y0189778D02*
X0283724Y0189778D01*
X0283724Y0189915D02*
X0286938Y0189915D01*
X0286938Y0190052D02*
X0283724Y0190052D01*
X0283724Y0190189D02*
X0286938Y0190189D01*
X0286938Y0190326D02*
X0283724Y0190326D01*
X0283724Y0190463D02*
X0286938Y0190463D01*
X0286938Y0190600D02*
X0283724Y0190600D01*
X0283724Y0190737D02*
X0286938Y0190737D01*
X0286938Y0190874D02*
X0283724Y0190874D01*
X0283724Y0187673D02*
X0286938Y0187673D01*
X0283724Y0187673D02*
X0283724Y0188919D01*
X0286938Y0188919D01*
X0286938Y0187673D01*
X0286938Y0187810D02*
X0283724Y0187810D01*
X0283724Y0187947D02*
X0286938Y0187947D01*
X0286938Y0188084D02*
X0283724Y0188084D01*
X0283724Y0188221D02*
X0286938Y0188221D01*
X0286938Y0188358D02*
X0283724Y0188358D01*
X0283724Y0188495D02*
X0286938Y0188495D01*
X0286938Y0188632D02*
X0283724Y0188632D01*
X0283724Y0188769D02*
X0286938Y0188769D01*
X0286938Y0188906D02*
X0283724Y0188906D01*
X0283724Y0185704D02*
X0286938Y0185704D01*
X0283724Y0185704D02*
X0283724Y0186950D01*
X0286938Y0186950D01*
X0286938Y0185704D01*
X0286938Y0185841D02*
X0283724Y0185841D01*
X0283724Y0185978D02*
X0286938Y0185978D01*
X0286938Y0186115D02*
X0283724Y0186115D01*
X0283724Y0186252D02*
X0286938Y0186252D01*
X0286938Y0186389D02*
X0283724Y0186389D01*
X0283724Y0186526D02*
X0286938Y0186526D01*
X0286938Y0186663D02*
X0283724Y0186663D01*
X0283724Y0186800D02*
X0286938Y0186800D01*
X0286938Y0186937D02*
X0283724Y0186937D01*
X0295928Y0186950D02*
X0299142Y0186950D01*
X0299142Y0185704D01*
X0295928Y0185704D01*
X0295928Y0186950D01*
X0295928Y0185841D02*
X0299142Y0185841D01*
X0299142Y0185978D02*
X0295928Y0185978D01*
X0295928Y0186115D02*
X0299142Y0186115D01*
X0299142Y0186252D02*
X0295928Y0186252D01*
X0295928Y0186389D02*
X0299142Y0186389D01*
X0299142Y0186526D02*
X0295928Y0186526D01*
X0295928Y0186663D02*
X0299142Y0186663D01*
X0299142Y0186800D02*
X0295928Y0186800D01*
X0295928Y0186937D02*
X0299142Y0186937D01*
X0299142Y0188919D02*
X0295928Y0188919D01*
X0299142Y0188919D02*
X0299142Y0187673D01*
X0295928Y0187673D01*
X0295928Y0188919D01*
X0295928Y0187810D02*
X0299142Y0187810D01*
X0299142Y0187947D02*
X0295928Y0187947D01*
X0295928Y0188084D02*
X0299142Y0188084D01*
X0299142Y0188221D02*
X0295928Y0188221D01*
X0295928Y0188358D02*
X0299142Y0188358D01*
X0299142Y0188495D02*
X0295928Y0188495D01*
X0295928Y0188632D02*
X0299142Y0188632D01*
X0299142Y0188769D02*
X0295928Y0188769D01*
X0295928Y0188906D02*
X0299142Y0188906D01*
X0299142Y0190887D02*
X0295928Y0190887D01*
X0299142Y0190887D02*
X0299142Y0189641D01*
X0295928Y0189641D01*
X0295928Y0190887D01*
X0295928Y0189778D02*
X0299142Y0189778D01*
X0299142Y0189915D02*
X0295928Y0189915D01*
X0295928Y0190052D02*
X0299142Y0190052D01*
X0299142Y0190189D02*
X0295928Y0190189D01*
X0295928Y0190326D02*
X0299142Y0190326D01*
X0299142Y0190463D02*
X0295928Y0190463D01*
X0295928Y0190600D02*
X0299142Y0190600D01*
X0299142Y0190737D02*
X0295928Y0190737D01*
X0295928Y0190874D02*
X0299142Y0190874D01*
X0299142Y0192856D02*
X0295928Y0192856D01*
X0299142Y0192856D02*
X0299142Y0191610D01*
X0295928Y0191610D01*
X0295928Y0192856D01*
X0295928Y0191747D02*
X0299142Y0191747D01*
X0299142Y0191884D02*
X0295928Y0191884D01*
X0295928Y0192021D02*
X0299142Y0192021D01*
X0299142Y0192158D02*
X0295928Y0192158D01*
X0295928Y0192295D02*
X0299142Y0192295D01*
X0299142Y0192432D02*
X0295928Y0192432D01*
X0295928Y0192569D02*
X0299142Y0192569D01*
X0299142Y0192706D02*
X0295928Y0192706D01*
X0295928Y0192843D02*
X0299142Y0192843D01*
X0187509Y0224070D02*
X0187509Y0227284D01*
X0187509Y0224070D02*
X0186263Y0224070D01*
X0186263Y0227284D01*
X0187509Y0227284D01*
X0187509Y0224207D02*
X0186263Y0224207D01*
X0186263Y0224344D02*
X0187509Y0224344D01*
X0187509Y0224481D02*
X0186263Y0224481D01*
X0186263Y0224618D02*
X0187509Y0224618D01*
X0187509Y0224755D02*
X0186263Y0224755D01*
X0186263Y0224892D02*
X0187509Y0224892D01*
X0187509Y0225029D02*
X0186263Y0225029D01*
X0186263Y0225166D02*
X0187509Y0225166D01*
X0187509Y0225303D02*
X0186263Y0225303D01*
X0186263Y0225440D02*
X0187509Y0225440D01*
X0187509Y0225577D02*
X0186263Y0225577D01*
X0186263Y0225714D02*
X0187509Y0225714D01*
X0187509Y0225851D02*
X0186263Y0225851D01*
X0186263Y0225988D02*
X0187509Y0225988D01*
X0187509Y0226125D02*
X0186263Y0226125D01*
X0186263Y0226262D02*
X0187509Y0226262D01*
X0187509Y0226399D02*
X0186263Y0226399D01*
X0186263Y0226536D02*
X0187509Y0226536D01*
X0187509Y0226673D02*
X0186263Y0226673D01*
X0186263Y0226810D02*
X0187509Y0226810D01*
X0187509Y0226947D02*
X0186263Y0226947D01*
X0186263Y0227084D02*
X0187509Y0227084D01*
X0187509Y0227221D02*
X0186263Y0227221D01*
X0185540Y0227284D02*
X0185540Y0224070D01*
X0184294Y0224070D01*
X0184294Y0227284D01*
X0185540Y0227284D01*
X0185540Y0224207D02*
X0184294Y0224207D01*
X0184294Y0224344D02*
X0185540Y0224344D01*
X0185540Y0224481D02*
X0184294Y0224481D01*
X0184294Y0224618D02*
X0185540Y0224618D01*
X0185540Y0224755D02*
X0184294Y0224755D01*
X0184294Y0224892D02*
X0185540Y0224892D01*
X0185540Y0225029D02*
X0184294Y0225029D01*
X0184294Y0225166D02*
X0185540Y0225166D01*
X0185540Y0225303D02*
X0184294Y0225303D01*
X0184294Y0225440D02*
X0185540Y0225440D01*
X0185540Y0225577D02*
X0184294Y0225577D01*
X0184294Y0225714D02*
X0185540Y0225714D01*
X0185540Y0225851D02*
X0184294Y0225851D01*
X0184294Y0225988D02*
X0185540Y0225988D01*
X0185540Y0226125D02*
X0184294Y0226125D01*
X0184294Y0226262D02*
X0185540Y0226262D01*
X0185540Y0226399D02*
X0184294Y0226399D01*
X0184294Y0226536D02*
X0185540Y0226536D01*
X0185540Y0226673D02*
X0184294Y0226673D01*
X0184294Y0226810D02*
X0185540Y0226810D01*
X0185540Y0226947D02*
X0184294Y0226947D01*
X0184294Y0227084D02*
X0185540Y0227084D01*
X0185540Y0227221D02*
X0184294Y0227221D01*
X0183572Y0227284D02*
X0183572Y0224070D01*
X0182326Y0224070D01*
X0182326Y0227284D01*
X0183572Y0227284D01*
X0183572Y0224207D02*
X0182326Y0224207D01*
X0182326Y0224344D02*
X0183572Y0224344D01*
X0183572Y0224481D02*
X0182326Y0224481D01*
X0182326Y0224618D02*
X0183572Y0224618D01*
X0183572Y0224755D02*
X0182326Y0224755D01*
X0182326Y0224892D02*
X0183572Y0224892D01*
X0183572Y0225029D02*
X0182326Y0225029D01*
X0182326Y0225166D02*
X0183572Y0225166D01*
X0183572Y0225303D02*
X0182326Y0225303D01*
X0182326Y0225440D02*
X0183572Y0225440D01*
X0183572Y0225577D02*
X0182326Y0225577D01*
X0182326Y0225714D02*
X0183572Y0225714D01*
X0183572Y0225851D02*
X0182326Y0225851D01*
X0182326Y0225988D02*
X0183572Y0225988D01*
X0183572Y0226125D02*
X0182326Y0226125D01*
X0182326Y0226262D02*
X0183572Y0226262D01*
X0183572Y0226399D02*
X0182326Y0226399D01*
X0182326Y0226536D02*
X0183572Y0226536D01*
X0183572Y0226673D02*
X0182326Y0226673D01*
X0182326Y0226810D02*
X0183572Y0226810D01*
X0183572Y0226947D02*
X0182326Y0226947D01*
X0182326Y0227084D02*
X0183572Y0227084D01*
X0183572Y0227221D02*
X0182326Y0227221D01*
X0181603Y0227284D02*
X0181603Y0224070D01*
X0180357Y0224070D01*
X0180357Y0227284D01*
X0181603Y0227284D01*
X0181603Y0224207D02*
X0180357Y0224207D01*
X0180357Y0224344D02*
X0181603Y0224344D01*
X0181603Y0224481D02*
X0180357Y0224481D01*
X0180357Y0224618D02*
X0181603Y0224618D01*
X0181603Y0224755D02*
X0180357Y0224755D01*
X0180357Y0224892D02*
X0181603Y0224892D01*
X0181603Y0225029D02*
X0180357Y0225029D01*
X0180357Y0225166D02*
X0181603Y0225166D01*
X0181603Y0225303D02*
X0180357Y0225303D01*
X0180357Y0225440D02*
X0181603Y0225440D01*
X0181603Y0225577D02*
X0180357Y0225577D01*
X0180357Y0225714D02*
X0181603Y0225714D01*
X0181603Y0225851D02*
X0180357Y0225851D01*
X0180357Y0225988D02*
X0181603Y0225988D01*
X0181603Y0226125D02*
X0180357Y0226125D01*
X0180357Y0226262D02*
X0181603Y0226262D01*
X0181603Y0226399D02*
X0180357Y0226399D01*
X0180357Y0226536D02*
X0181603Y0226536D01*
X0181603Y0226673D02*
X0180357Y0226673D01*
X0180357Y0226810D02*
X0181603Y0226810D01*
X0181603Y0226947D02*
X0180357Y0226947D01*
X0180357Y0227084D02*
X0181603Y0227084D01*
X0181603Y0227221D02*
X0180357Y0227221D01*
X0180357Y0236275D02*
X0180357Y0239489D01*
X0181603Y0239489D01*
X0181603Y0236275D01*
X0180357Y0236275D01*
X0180357Y0236412D02*
X0181603Y0236412D01*
X0181603Y0236549D02*
X0180357Y0236549D01*
X0180357Y0236686D02*
X0181603Y0236686D01*
X0181603Y0236823D02*
X0180357Y0236823D01*
X0180357Y0236960D02*
X0181603Y0236960D01*
X0181603Y0237097D02*
X0180357Y0237097D01*
X0180357Y0237234D02*
X0181603Y0237234D01*
X0181603Y0237371D02*
X0180357Y0237371D01*
X0180357Y0237508D02*
X0181603Y0237508D01*
X0181603Y0237645D02*
X0180357Y0237645D01*
X0180357Y0237782D02*
X0181603Y0237782D01*
X0181603Y0237919D02*
X0180357Y0237919D01*
X0180357Y0238056D02*
X0181603Y0238056D01*
X0181603Y0238193D02*
X0180357Y0238193D01*
X0180357Y0238330D02*
X0181603Y0238330D01*
X0181603Y0238467D02*
X0180357Y0238467D01*
X0180357Y0238604D02*
X0181603Y0238604D01*
X0181603Y0238741D02*
X0180357Y0238741D01*
X0180357Y0238878D02*
X0181603Y0238878D01*
X0181603Y0239015D02*
X0180357Y0239015D01*
X0180357Y0239152D02*
X0181603Y0239152D01*
X0181603Y0239289D02*
X0180357Y0239289D01*
X0180357Y0239426D02*
X0181603Y0239426D01*
X0182326Y0239489D02*
X0182326Y0236275D01*
X0182326Y0239489D02*
X0183572Y0239489D01*
X0183572Y0236275D01*
X0182326Y0236275D01*
X0182326Y0236412D02*
X0183572Y0236412D01*
X0183572Y0236549D02*
X0182326Y0236549D01*
X0182326Y0236686D02*
X0183572Y0236686D01*
X0183572Y0236823D02*
X0182326Y0236823D01*
X0182326Y0236960D02*
X0183572Y0236960D01*
X0183572Y0237097D02*
X0182326Y0237097D01*
X0182326Y0237234D02*
X0183572Y0237234D01*
X0183572Y0237371D02*
X0182326Y0237371D01*
X0182326Y0237508D02*
X0183572Y0237508D01*
X0183572Y0237645D02*
X0182326Y0237645D01*
X0182326Y0237782D02*
X0183572Y0237782D01*
X0183572Y0237919D02*
X0182326Y0237919D01*
X0182326Y0238056D02*
X0183572Y0238056D01*
X0183572Y0238193D02*
X0182326Y0238193D01*
X0182326Y0238330D02*
X0183572Y0238330D01*
X0183572Y0238467D02*
X0182326Y0238467D01*
X0182326Y0238604D02*
X0183572Y0238604D01*
X0183572Y0238741D02*
X0182326Y0238741D01*
X0182326Y0238878D02*
X0183572Y0238878D01*
X0183572Y0239015D02*
X0182326Y0239015D01*
X0182326Y0239152D02*
X0183572Y0239152D01*
X0183572Y0239289D02*
X0182326Y0239289D01*
X0182326Y0239426D02*
X0183572Y0239426D01*
X0184294Y0239489D02*
X0184294Y0236275D01*
X0184294Y0239489D02*
X0185540Y0239489D01*
X0185540Y0236275D01*
X0184294Y0236275D01*
X0184294Y0236412D02*
X0185540Y0236412D01*
X0185540Y0236549D02*
X0184294Y0236549D01*
X0184294Y0236686D02*
X0185540Y0236686D01*
X0185540Y0236823D02*
X0184294Y0236823D01*
X0184294Y0236960D02*
X0185540Y0236960D01*
X0185540Y0237097D02*
X0184294Y0237097D01*
X0184294Y0237234D02*
X0185540Y0237234D01*
X0185540Y0237371D02*
X0184294Y0237371D01*
X0184294Y0237508D02*
X0185540Y0237508D01*
X0185540Y0237645D02*
X0184294Y0237645D01*
X0184294Y0237782D02*
X0185540Y0237782D01*
X0185540Y0237919D02*
X0184294Y0237919D01*
X0184294Y0238056D02*
X0185540Y0238056D01*
X0185540Y0238193D02*
X0184294Y0238193D01*
X0184294Y0238330D02*
X0185540Y0238330D01*
X0185540Y0238467D02*
X0184294Y0238467D01*
X0184294Y0238604D02*
X0185540Y0238604D01*
X0185540Y0238741D02*
X0184294Y0238741D01*
X0184294Y0238878D02*
X0185540Y0238878D01*
X0185540Y0239015D02*
X0184294Y0239015D01*
X0184294Y0239152D02*
X0185540Y0239152D01*
X0185540Y0239289D02*
X0184294Y0239289D01*
X0184294Y0239426D02*
X0185540Y0239426D01*
X0186263Y0239489D02*
X0186263Y0236275D01*
X0186263Y0239489D02*
X0187509Y0239489D01*
X0187509Y0236275D01*
X0186263Y0236275D01*
X0186263Y0236412D02*
X0187509Y0236412D01*
X0187509Y0236549D02*
X0186263Y0236549D01*
X0186263Y0236686D02*
X0187509Y0236686D01*
X0187509Y0236823D02*
X0186263Y0236823D01*
X0186263Y0236960D02*
X0187509Y0236960D01*
X0187509Y0237097D02*
X0186263Y0237097D01*
X0186263Y0237234D02*
X0187509Y0237234D01*
X0187509Y0237371D02*
X0186263Y0237371D01*
X0186263Y0237508D02*
X0187509Y0237508D01*
X0187509Y0237645D02*
X0186263Y0237645D01*
X0186263Y0237782D02*
X0187509Y0237782D01*
X0187509Y0237919D02*
X0186263Y0237919D01*
X0186263Y0238056D02*
X0187509Y0238056D01*
X0187509Y0238193D02*
X0186263Y0238193D01*
X0186263Y0238330D02*
X0187509Y0238330D01*
X0187509Y0238467D02*
X0186263Y0238467D01*
X0186263Y0238604D02*
X0187509Y0238604D01*
X0187509Y0238741D02*
X0186263Y0238741D01*
X0186263Y0238878D02*
X0187509Y0238878D01*
X0187509Y0239015D02*
X0186263Y0239015D01*
X0186263Y0239152D02*
X0187509Y0239152D01*
X0187509Y0239289D02*
X0186263Y0239289D01*
X0186263Y0239426D02*
X0187509Y0239426D01*
D28*
X0258833Y0175480D03*
X0258833Y0171780D03*
X0258833Y0168080D03*
X0269033Y0168080D03*
X0269033Y0175480D03*
X0403833Y0303080D03*
X0403833Y0310480D03*
X0414033Y0310480D03*
X0414033Y0306780D03*
X0414033Y0303080D03*
X0391533Y0310580D03*
X0391533Y0317980D03*
X0381333Y0317980D03*
X0381333Y0314280D03*
X0381333Y0310580D03*
X0249033Y0353080D03*
X0249033Y0356780D03*
X0249033Y0360480D03*
X0238833Y0360480D03*
X0238833Y0353080D03*
D29*
X0424794Y0291622D03*
X0424794Y0271937D03*
D30*
X0435424Y0269181D03*
X0435424Y0294378D03*
D31*
X0435424Y0285717D03*
X0435424Y0277843D03*
D32*
X0288933Y0176032D03*
X0288933Y0157528D03*
D33*
X0338933Y0164280D03*
D34*
X0331551Y0164280D03*
X0346315Y0164280D03*
D35*
X0338933Y0171662D03*
X0338933Y0156898D03*
D36*
X0170626Y0161780D03*
X0157240Y0161780D03*
D37*
X0309246Y0289717D03*
X0309246Y0295717D03*
X0319246Y0295717D03*
X0319246Y0289717D03*
X0329246Y0289717D03*
X0329246Y0295717D03*
X0339246Y0295717D03*
X0339246Y0289717D03*
D38*
X0339246Y0292717D03*
X0329246Y0292717D03*
X0319246Y0292717D03*
X0309246Y0292717D03*
D39*
X0326433Y0169280D03*
X0326433Y0164280D03*
X0321433Y0151780D03*
X0321433Y0146780D03*
X0307683Y0138030D03*
X0292683Y0123030D03*
X0292683Y0119280D03*
X0292683Y0115530D03*
X0292683Y0111780D03*
X0292683Y0108030D03*
X0292683Y0104280D03*
D40*
X0307444Y0084070D02*
X0314674Y0084070D01*
X0307444Y0084070D02*
X0307444Y0088938D01*
X0314674Y0088938D01*
X0314674Y0084070D01*
X0314674Y0084325D02*
X0307444Y0084325D01*
X0307444Y0084580D02*
X0314674Y0084580D01*
X0314674Y0084835D02*
X0307444Y0084835D01*
X0307444Y0085090D02*
X0314674Y0085090D01*
X0314674Y0085345D02*
X0307444Y0085345D01*
X0307444Y0085600D02*
X0314674Y0085600D01*
X0314674Y0085855D02*
X0307444Y0085855D01*
X0307444Y0086110D02*
X0314674Y0086110D01*
X0314674Y0086365D02*
X0307444Y0086365D01*
X0307444Y0086620D02*
X0314674Y0086620D01*
X0314674Y0086875D02*
X0307444Y0086875D01*
X0307444Y0087130D02*
X0314674Y0087130D01*
X0314674Y0087385D02*
X0307444Y0087385D01*
X0307444Y0087640D02*
X0314674Y0087640D01*
X0314674Y0087895D02*
X0307444Y0087895D01*
X0307444Y0088150D02*
X0314674Y0088150D01*
X0314674Y0088405D02*
X0307444Y0088405D01*
X0307444Y0088660D02*
X0314674Y0088660D01*
X0314674Y0088915D02*
X0307444Y0088915D01*
X0307444Y0074621D02*
X0314674Y0074621D01*
X0307444Y0074621D02*
X0307444Y0079489D01*
X0314674Y0079489D01*
X0314674Y0074621D01*
X0314674Y0074876D02*
X0307444Y0074876D01*
X0307444Y0075131D02*
X0314674Y0075131D01*
X0314674Y0075386D02*
X0307444Y0075386D01*
X0307444Y0075641D02*
X0314674Y0075641D01*
X0314674Y0075896D02*
X0307444Y0075896D01*
X0307444Y0076151D02*
X0314674Y0076151D01*
X0314674Y0076406D02*
X0307444Y0076406D01*
X0307444Y0076661D02*
X0314674Y0076661D01*
X0314674Y0076916D02*
X0307444Y0076916D01*
X0307444Y0077171D02*
X0314674Y0077171D01*
X0314674Y0077426D02*
X0307444Y0077426D01*
X0307444Y0077681D02*
X0314674Y0077681D01*
X0314674Y0077936D02*
X0307444Y0077936D01*
X0307444Y0078191D02*
X0314674Y0078191D01*
X0314674Y0078446D02*
X0307444Y0078446D01*
X0307444Y0078701D02*
X0314674Y0078701D01*
X0314674Y0078956D02*
X0307444Y0078956D01*
X0307444Y0079211D02*
X0314674Y0079211D01*
X0314674Y0079466D02*
X0307444Y0079466D01*
X0323192Y0074621D02*
X0330422Y0074621D01*
X0323192Y0074621D02*
X0323192Y0079489D01*
X0330422Y0079489D01*
X0330422Y0074621D01*
X0330422Y0074876D02*
X0323192Y0074876D01*
X0323192Y0075131D02*
X0330422Y0075131D01*
X0330422Y0075386D02*
X0323192Y0075386D01*
X0323192Y0075641D02*
X0330422Y0075641D01*
X0330422Y0075896D02*
X0323192Y0075896D01*
X0323192Y0076151D02*
X0330422Y0076151D01*
X0330422Y0076406D02*
X0323192Y0076406D01*
X0323192Y0076661D02*
X0330422Y0076661D01*
X0330422Y0076916D02*
X0323192Y0076916D01*
X0323192Y0077171D02*
X0330422Y0077171D01*
X0330422Y0077426D02*
X0323192Y0077426D01*
X0323192Y0077681D02*
X0330422Y0077681D01*
X0330422Y0077936D02*
X0323192Y0077936D01*
X0323192Y0078191D02*
X0330422Y0078191D01*
X0330422Y0078446D02*
X0323192Y0078446D01*
X0323192Y0078701D02*
X0330422Y0078701D01*
X0330422Y0078956D02*
X0323192Y0078956D01*
X0323192Y0079211D02*
X0330422Y0079211D01*
X0330422Y0079466D02*
X0323192Y0079466D01*
X0323192Y0084070D02*
X0330422Y0084070D01*
X0323192Y0084070D02*
X0323192Y0088938D01*
X0330422Y0088938D01*
X0330422Y0084070D01*
X0330422Y0084325D02*
X0323192Y0084325D01*
X0323192Y0084580D02*
X0330422Y0084580D01*
X0330422Y0084835D02*
X0323192Y0084835D01*
X0323192Y0085090D02*
X0330422Y0085090D01*
X0330422Y0085345D02*
X0323192Y0085345D01*
X0323192Y0085600D02*
X0330422Y0085600D01*
X0330422Y0085855D02*
X0323192Y0085855D01*
X0323192Y0086110D02*
X0330422Y0086110D01*
X0330422Y0086365D02*
X0323192Y0086365D01*
X0323192Y0086620D02*
X0330422Y0086620D01*
X0330422Y0086875D02*
X0323192Y0086875D01*
X0323192Y0087130D02*
X0330422Y0087130D01*
X0330422Y0087385D02*
X0323192Y0087385D01*
X0323192Y0087640D02*
X0330422Y0087640D01*
X0330422Y0087895D02*
X0323192Y0087895D01*
X0323192Y0088150D02*
X0330422Y0088150D01*
X0330422Y0088405D02*
X0323192Y0088405D01*
X0323192Y0088660D02*
X0330422Y0088660D01*
X0330422Y0088915D02*
X0323192Y0088915D01*
X0319944Y0182121D02*
X0327174Y0182121D01*
X0319944Y0182121D02*
X0319944Y0186989D01*
X0327174Y0186989D01*
X0327174Y0182121D01*
X0327174Y0182376D02*
X0319944Y0182376D01*
X0319944Y0182631D02*
X0327174Y0182631D01*
X0327174Y0182886D02*
X0319944Y0182886D01*
X0319944Y0183141D02*
X0327174Y0183141D01*
X0327174Y0183396D02*
X0319944Y0183396D01*
X0319944Y0183651D02*
X0327174Y0183651D01*
X0327174Y0183906D02*
X0319944Y0183906D01*
X0319944Y0184161D02*
X0327174Y0184161D01*
X0327174Y0184416D02*
X0319944Y0184416D01*
X0319944Y0184671D02*
X0327174Y0184671D01*
X0327174Y0184926D02*
X0319944Y0184926D01*
X0319944Y0185181D02*
X0327174Y0185181D01*
X0327174Y0185436D02*
X0319944Y0185436D01*
X0319944Y0185691D02*
X0327174Y0185691D01*
X0327174Y0185946D02*
X0319944Y0185946D01*
X0319944Y0186201D02*
X0327174Y0186201D01*
X0327174Y0186456D02*
X0319944Y0186456D01*
X0319944Y0186711D02*
X0327174Y0186711D01*
X0327174Y0186966D02*
X0319944Y0186966D01*
X0319944Y0191570D02*
X0327174Y0191570D01*
X0319944Y0191570D02*
X0319944Y0196438D01*
X0327174Y0196438D01*
X0327174Y0191570D01*
X0327174Y0191825D02*
X0319944Y0191825D01*
X0319944Y0192080D02*
X0327174Y0192080D01*
X0327174Y0192335D02*
X0319944Y0192335D01*
X0319944Y0192590D02*
X0327174Y0192590D01*
X0327174Y0192845D02*
X0319944Y0192845D01*
X0319944Y0193100D02*
X0327174Y0193100D01*
X0327174Y0193355D02*
X0319944Y0193355D01*
X0319944Y0193610D02*
X0327174Y0193610D01*
X0327174Y0193865D02*
X0319944Y0193865D01*
X0319944Y0194120D02*
X0327174Y0194120D01*
X0327174Y0194375D02*
X0319944Y0194375D01*
X0319944Y0194630D02*
X0327174Y0194630D01*
X0327174Y0194885D02*
X0319944Y0194885D01*
X0319944Y0195140D02*
X0327174Y0195140D01*
X0327174Y0195395D02*
X0319944Y0195395D01*
X0319944Y0195650D02*
X0327174Y0195650D01*
X0327174Y0195905D02*
X0319944Y0195905D01*
X0319944Y0196160D02*
X0327174Y0196160D01*
X0327174Y0196415D02*
X0319944Y0196415D01*
X0335692Y0191570D02*
X0342922Y0191570D01*
X0335692Y0191570D02*
X0335692Y0196438D01*
X0342922Y0196438D01*
X0342922Y0191570D01*
X0342922Y0191825D02*
X0335692Y0191825D01*
X0335692Y0192080D02*
X0342922Y0192080D01*
X0342922Y0192335D02*
X0335692Y0192335D01*
X0335692Y0192590D02*
X0342922Y0192590D01*
X0342922Y0192845D02*
X0335692Y0192845D01*
X0335692Y0193100D02*
X0342922Y0193100D01*
X0342922Y0193355D02*
X0335692Y0193355D01*
X0335692Y0193610D02*
X0342922Y0193610D01*
X0342922Y0193865D02*
X0335692Y0193865D01*
X0335692Y0194120D02*
X0342922Y0194120D01*
X0342922Y0194375D02*
X0335692Y0194375D01*
X0335692Y0194630D02*
X0342922Y0194630D01*
X0342922Y0194885D02*
X0335692Y0194885D01*
X0335692Y0195140D02*
X0342922Y0195140D01*
X0342922Y0195395D02*
X0335692Y0195395D01*
X0335692Y0195650D02*
X0342922Y0195650D01*
X0342922Y0195905D02*
X0335692Y0195905D01*
X0335692Y0196160D02*
X0342922Y0196160D01*
X0342922Y0196415D02*
X0335692Y0196415D01*
X0335692Y0182121D02*
X0342922Y0182121D01*
X0335692Y0182121D02*
X0335692Y0186989D01*
X0342922Y0186989D01*
X0342922Y0182121D01*
X0342922Y0182376D02*
X0335692Y0182376D01*
X0335692Y0182631D02*
X0342922Y0182631D01*
X0342922Y0182886D02*
X0335692Y0182886D01*
X0335692Y0183141D02*
X0342922Y0183141D01*
X0342922Y0183396D02*
X0335692Y0183396D01*
X0335692Y0183651D02*
X0342922Y0183651D01*
X0342922Y0183906D02*
X0335692Y0183906D01*
X0335692Y0184161D02*
X0342922Y0184161D01*
X0342922Y0184416D02*
X0335692Y0184416D01*
X0335692Y0184671D02*
X0342922Y0184671D01*
X0342922Y0184926D02*
X0335692Y0184926D01*
X0335692Y0185181D02*
X0342922Y0185181D01*
X0342922Y0185436D02*
X0335692Y0185436D01*
X0335692Y0185691D02*
X0342922Y0185691D01*
X0342922Y0185946D02*
X0335692Y0185946D01*
X0335692Y0186201D02*
X0342922Y0186201D01*
X0342922Y0186456D02*
X0335692Y0186456D01*
X0335692Y0186711D02*
X0342922Y0186711D01*
X0342922Y0186966D02*
X0335692Y0186966D01*
D41*
X0217633Y0176880D03*
X0213933Y0176880D03*
X0210233Y0176880D03*
X0210233Y0166680D03*
X0217633Y0166680D03*
X0417733Y0336680D03*
X0421433Y0336680D03*
X0425133Y0336680D03*
X0425133Y0346880D03*
X0417733Y0346880D03*
D42*
X0148856Y0172743D02*
X0147336Y0172743D01*
X0147336Y0175463D01*
X0148856Y0175463D01*
X0148856Y0172743D01*
X0148856Y0172822D02*
X0147336Y0172822D01*
X0147336Y0172901D02*
X0148856Y0172901D01*
X0148856Y0172980D02*
X0147336Y0172980D01*
X0147336Y0173059D02*
X0148856Y0173059D01*
X0148856Y0173138D02*
X0147336Y0173138D01*
X0147336Y0173217D02*
X0148856Y0173217D01*
X0148856Y0173296D02*
X0147336Y0173296D01*
X0147336Y0173375D02*
X0148856Y0173375D01*
X0148856Y0173454D02*
X0147336Y0173454D01*
X0147336Y0173533D02*
X0148856Y0173533D01*
X0148856Y0173612D02*
X0147336Y0173612D01*
X0147336Y0173691D02*
X0148856Y0173691D01*
X0148856Y0173770D02*
X0147336Y0173770D01*
X0147336Y0173849D02*
X0148856Y0173849D01*
X0148856Y0173928D02*
X0147336Y0173928D01*
X0147336Y0174007D02*
X0148856Y0174007D01*
X0148856Y0174086D02*
X0147336Y0174086D01*
X0147336Y0174165D02*
X0148856Y0174165D01*
X0148856Y0174244D02*
X0147336Y0174244D01*
X0147336Y0174323D02*
X0148856Y0174323D01*
X0148856Y0174402D02*
X0147336Y0174402D01*
X0147336Y0174481D02*
X0148856Y0174481D01*
X0148856Y0174560D02*
X0147336Y0174560D01*
X0147336Y0174639D02*
X0148856Y0174639D01*
X0148856Y0174718D02*
X0147336Y0174718D01*
X0147336Y0174797D02*
X0148856Y0174797D01*
X0148856Y0174876D02*
X0147336Y0174876D01*
X0147336Y0174955D02*
X0148856Y0174955D01*
X0148856Y0175034D02*
X0147336Y0175034D01*
X0147336Y0175113D02*
X0148856Y0175113D01*
X0148856Y0175192D02*
X0147336Y0175192D01*
X0147336Y0175271D02*
X0148856Y0175271D01*
X0148856Y0175350D02*
X0147336Y0175350D01*
X0147336Y0175429D02*
X0148856Y0175429D01*
X0146297Y0172743D02*
X0144777Y0172743D01*
X0144777Y0175463D01*
X0146297Y0175463D01*
X0146297Y0172743D01*
X0146297Y0172822D02*
X0144777Y0172822D01*
X0144777Y0172901D02*
X0146297Y0172901D01*
X0146297Y0172980D02*
X0144777Y0172980D01*
X0144777Y0173059D02*
X0146297Y0173059D01*
X0146297Y0173138D02*
X0144777Y0173138D01*
X0144777Y0173217D02*
X0146297Y0173217D01*
X0146297Y0173296D02*
X0144777Y0173296D01*
X0144777Y0173375D02*
X0146297Y0173375D01*
X0146297Y0173454D02*
X0144777Y0173454D01*
X0144777Y0173533D02*
X0146297Y0173533D01*
X0146297Y0173612D02*
X0144777Y0173612D01*
X0144777Y0173691D02*
X0146297Y0173691D01*
X0146297Y0173770D02*
X0144777Y0173770D01*
X0144777Y0173849D02*
X0146297Y0173849D01*
X0146297Y0173928D02*
X0144777Y0173928D01*
X0144777Y0174007D02*
X0146297Y0174007D01*
X0146297Y0174086D02*
X0144777Y0174086D01*
X0144777Y0174165D02*
X0146297Y0174165D01*
X0146297Y0174244D02*
X0144777Y0174244D01*
X0144777Y0174323D02*
X0146297Y0174323D01*
X0146297Y0174402D02*
X0144777Y0174402D01*
X0144777Y0174481D02*
X0146297Y0174481D01*
X0146297Y0174560D02*
X0144777Y0174560D01*
X0144777Y0174639D02*
X0146297Y0174639D01*
X0146297Y0174718D02*
X0144777Y0174718D01*
X0144777Y0174797D02*
X0146297Y0174797D01*
X0146297Y0174876D02*
X0144777Y0174876D01*
X0144777Y0174955D02*
X0146297Y0174955D01*
X0146297Y0175034D02*
X0144777Y0175034D01*
X0144777Y0175113D02*
X0146297Y0175113D01*
X0146297Y0175192D02*
X0144777Y0175192D01*
X0144777Y0175271D02*
X0146297Y0175271D01*
X0146297Y0175350D02*
X0144777Y0175350D01*
X0144777Y0175429D02*
X0146297Y0175429D01*
X0143738Y0172743D02*
X0142218Y0172743D01*
X0142218Y0175463D01*
X0143738Y0175463D01*
X0143738Y0172743D01*
X0143738Y0172822D02*
X0142218Y0172822D01*
X0142218Y0172901D02*
X0143738Y0172901D01*
X0143738Y0172980D02*
X0142218Y0172980D01*
X0142218Y0173059D02*
X0143738Y0173059D01*
X0143738Y0173138D02*
X0142218Y0173138D01*
X0142218Y0173217D02*
X0143738Y0173217D01*
X0143738Y0173296D02*
X0142218Y0173296D01*
X0142218Y0173375D02*
X0143738Y0173375D01*
X0143738Y0173454D02*
X0142218Y0173454D01*
X0142218Y0173533D02*
X0143738Y0173533D01*
X0143738Y0173612D02*
X0142218Y0173612D01*
X0142218Y0173691D02*
X0143738Y0173691D01*
X0143738Y0173770D02*
X0142218Y0173770D01*
X0142218Y0173849D02*
X0143738Y0173849D01*
X0143738Y0173928D02*
X0142218Y0173928D01*
X0142218Y0174007D02*
X0143738Y0174007D01*
X0143738Y0174086D02*
X0142218Y0174086D01*
X0142218Y0174165D02*
X0143738Y0174165D01*
X0143738Y0174244D02*
X0142218Y0174244D01*
X0142218Y0174323D02*
X0143738Y0174323D01*
X0143738Y0174402D02*
X0142218Y0174402D01*
X0142218Y0174481D02*
X0143738Y0174481D01*
X0143738Y0174560D02*
X0142218Y0174560D01*
X0142218Y0174639D02*
X0143738Y0174639D01*
X0143738Y0174718D02*
X0142218Y0174718D01*
X0142218Y0174797D02*
X0143738Y0174797D01*
X0143738Y0174876D02*
X0142218Y0174876D01*
X0142218Y0174955D02*
X0143738Y0174955D01*
X0143738Y0175034D02*
X0142218Y0175034D01*
X0142218Y0175113D02*
X0143738Y0175113D01*
X0143738Y0175192D02*
X0142218Y0175192D01*
X0142218Y0175271D02*
X0143738Y0175271D01*
X0143738Y0175350D02*
X0142218Y0175350D01*
X0142218Y0175429D02*
X0143738Y0175429D01*
X0141179Y0172743D02*
X0139659Y0172743D01*
X0139659Y0175463D01*
X0141179Y0175463D01*
X0141179Y0172743D01*
X0141179Y0172822D02*
X0139659Y0172822D01*
X0139659Y0172901D02*
X0141179Y0172901D01*
X0141179Y0172980D02*
X0139659Y0172980D01*
X0139659Y0173059D02*
X0141179Y0173059D01*
X0141179Y0173138D02*
X0139659Y0173138D01*
X0139659Y0173217D02*
X0141179Y0173217D01*
X0141179Y0173296D02*
X0139659Y0173296D01*
X0139659Y0173375D02*
X0141179Y0173375D01*
X0141179Y0173454D02*
X0139659Y0173454D01*
X0139659Y0173533D02*
X0141179Y0173533D01*
X0141179Y0173612D02*
X0139659Y0173612D01*
X0139659Y0173691D02*
X0141179Y0173691D01*
X0141179Y0173770D02*
X0139659Y0173770D01*
X0139659Y0173849D02*
X0141179Y0173849D01*
X0141179Y0173928D02*
X0139659Y0173928D01*
X0139659Y0174007D02*
X0141179Y0174007D01*
X0141179Y0174086D02*
X0139659Y0174086D01*
X0139659Y0174165D02*
X0141179Y0174165D01*
X0141179Y0174244D02*
X0139659Y0174244D01*
X0139659Y0174323D02*
X0141179Y0174323D01*
X0141179Y0174402D02*
X0139659Y0174402D01*
X0139659Y0174481D02*
X0141179Y0174481D01*
X0141179Y0174560D02*
X0139659Y0174560D01*
X0139659Y0174639D02*
X0141179Y0174639D01*
X0141179Y0174718D02*
X0139659Y0174718D01*
X0139659Y0174797D02*
X0141179Y0174797D01*
X0141179Y0174876D02*
X0139659Y0174876D01*
X0139659Y0174955D02*
X0141179Y0174955D01*
X0141179Y0175034D02*
X0139659Y0175034D01*
X0139659Y0175113D02*
X0141179Y0175113D01*
X0141179Y0175192D02*
X0139659Y0175192D01*
X0139659Y0175271D02*
X0141179Y0175271D01*
X0141179Y0175350D02*
X0139659Y0175350D01*
X0139659Y0175429D02*
X0141179Y0175429D01*
D43*
X0140419Y0149457D03*
X0142978Y0149457D03*
X0145537Y0149457D03*
X0148096Y0149457D03*
D44*
X0104720Y0241567D03*
X0198146Y0241567D03*
D45*
X0285492Y0076662D03*
D46*
X0277618Y0076662D03*
X0269744Y0076662D03*
X0261870Y0076662D03*
X0253996Y0076662D03*
X0246122Y0076662D03*
X0238248Y0076662D03*
X0230374Y0076662D03*
D47*
X0106161Y0112292D03*
X0106161Y0124103D03*
X0106161Y0135914D03*
X0106161Y0147725D03*
D48*
X0129980Y0195166D03*
X0129980Y0064851D03*
X0385886Y0064851D03*
X0385886Y0195166D03*
D49*
X0397801Y0307803D03*
X0405675Y0317449D03*
X0412762Y0325323D03*
X0427329Y0317449D03*
X0436778Y0325323D03*
X0432841Y0341662D03*
X0427329Y0357449D03*
X0436778Y0365323D03*
X0432841Y0381662D03*
X0412762Y0365323D03*
X0405675Y0357449D03*
X0397801Y0347803D03*
X0397801Y0341662D03*
X0391108Y0325323D03*
X0391108Y0365323D03*
X0397801Y0381662D03*
D50*
X0379210Y0371063D02*
X0376628Y0371063D01*
X0379210Y0371063D02*
X0379210Y0370371D01*
X0376628Y0370371D01*
X0376628Y0371063D01*
X0376628Y0371062D02*
X0379210Y0371062D01*
X0379210Y0369094D02*
X0376628Y0369094D01*
X0379210Y0369094D02*
X0379210Y0368402D01*
X0376628Y0368402D01*
X0376628Y0369094D01*
X0376628Y0369093D02*
X0379210Y0369093D01*
X0379210Y0367126D02*
X0376628Y0367126D01*
X0379210Y0367126D02*
X0379210Y0366434D01*
X0376628Y0366434D01*
X0376628Y0367126D01*
X0376628Y0367125D02*
X0379210Y0367125D01*
X0379210Y0365157D02*
X0376628Y0365157D01*
X0379210Y0365157D02*
X0379210Y0364465D01*
X0376628Y0364465D01*
X0376628Y0365157D01*
X0376628Y0365156D02*
X0379210Y0365156D01*
X0379210Y0363189D02*
X0376628Y0363189D01*
X0379210Y0363189D02*
X0379210Y0362497D01*
X0376628Y0362497D01*
X0376628Y0363189D01*
X0376628Y0363188D02*
X0379210Y0363188D01*
X0374466Y0360335D02*
X0374466Y0357753D01*
X0373774Y0357753D01*
X0373774Y0360335D01*
X0374466Y0360335D01*
X0374466Y0358444D02*
X0373774Y0358444D01*
X0373774Y0359135D02*
X0374466Y0359135D01*
X0374466Y0359826D02*
X0373774Y0359826D01*
X0372498Y0360335D02*
X0372498Y0357753D01*
X0371806Y0357753D01*
X0371806Y0360335D01*
X0372498Y0360335D01*
X0372498Y0358444D02*
X0371806Y0358444D01*
X0371806Y0359135D02*
X0372498Y0359135D01*
X0372498Y0359826D02*
X0371806Y0359826D01*
X0370529Y0360335D02*
X0370529Y0357753D01*
X0369837Y0357753D01*
X0369837Y0360335D01*
X0370529Y0360335D01*
X0370529Y0358444D02*
X0369837Y0358444D01*
X0369837Y0359135D02*
X0370529Y0359135D01*
X0370529Y0359826D02*
X0369837Y0359826D01*
X0368561Y0360335D02*
X0368561Y0357753D01*
X0367869Y0357753D01*
X0367869Y0360335D01*
X0368561Y0360335D01*
X0368561Y0358444D02*
X0367869Y0358444D01*
X0367869Y0359135D02*
X0368561Y0359135D01*
X0368561Y0359826D02*
X0367869Y0359826D01*
X0366592Y0360335D02*
X0366592Y0357753D01*
X0365900Y0357753D01*
X0365900Y0360335D01*
X0366592Y0360335D01*
X0366592Y0358444D02*
X0365900Y0358444D01*
X0365900Y0359135D02*
X0366592Y0359135D01*
X0366592Y0359826D02*
X0365900Y0359826D01*
X0363738Y0362497D02*
X0361156Y0362497D01*
X0361156Y0363189D01*
X0363738Y0363189D01*
X0363738Y0362497D01*
X0363738Y0363188D02*
X0361156Y0363188D01*
X0361156Y0364465D02*
X0363738Y0364465D01*
X0361156Y0364465D02*
X0361156Y0365157D01*
X0363738Y0365157D01*
X0363738Y0364465D01*
X0363738Y0365156D02*
X0361156Y0365156D01*
X0361156Y0366434D02*
X0363738Y0366434D01*
X0361156Y0366434D02*
X0361156Y0367126D01*
X0363738Y0367126D01*
X0363738Y0366434D01*
X0363738Y0367125D02*
X0361156Y0367125D01*
X0361156Y0368402D02*
X0363738Y0368402D01*
X0361156Y0368402D02*
X0361156Y0369094D01*
X0363738Y0369094D01*
X0363738Y0368402D01*
X0363738Y0369093D02*
X0361156Y0369093D01*
X0361156Y0370371D02*
X0363738Y0370371D01*
X0361156Y0370371D02*
X0361156Y0371063D01*
X0363738Y0371063D01*
X0363738Y0370371D01*
X0363738Y0371062D02*
X0361156Y0371062D01*
X0365900Y0373225D02*
X0365900Y0375807D01*
X0366592Y0375807D01*
X0366592Y0373225D01*
X0365900Y0373225D01*
X0365900Y0373916D02*
X0366592Y0373916D01*
X0366592Y0374607D02*
X0365900Y0374607D01*
X0365900Y0375298D02*
X0366592Y0375298D01*
X0367869Y0375807D02*
X0367869Y0373225D01*
X0367869Y0375807D02*
X0368561Y0375807D01*
X0368561Y0373225D01*
X0367869Y0373225D01*
X0367869Y0373916D02*
X0368561Y0373916D01*
X0368561Y0374607D02*
X0367869Y0374607D01*
X0367869Y0375298D02*
X0368561Y0375298D01*
X0369837Y0375807D02*
X0369837Y0373225D01*
X0369837Y0375807D02*
X0370529Y0375807D01*
X0370529Y0373225D01*
X0369837Y0373225D01*
X0369837Y0373916D02*
X0370529Y0373916D01*
X0370529Y0374607D02*
X0369837Y0374607D01*
X0369837Y0375298D02*
X0370529Y0375298D01*
X0371806Y0375807D02*
X0371806Y0373225D01*
X0371806Y0375807D02*
X0372498Y0375807D01*
X0372498Y0373225D01*
X0371806Y0373225D01*
X0371806Y0373916D02*
X0372498Y0373916D01*
X0372498Y0374607D02*
X0371806Y0374607D01*
X0371806Y0375298D02*
X0372498Y0375298D01*
X0373774Y0375807D02*
X0373774Y0373225D01*
X0373774Y0375807D02*
X0374466Y0375807D01*
X0374466Y0373225D01*
X0373774Y0373225D01*
X0373774Y0373916D02*
X0374466Y0373916D01*
X0374466Y0374607D02*
X0373774Y0374607D01*
X0373774Y0375298D02*
X0374466Y0375298D01*
X0374758Y0353386D02*
X0374758Y0350528D01*
X0374758Y0353386D02*
X0375450Y0353386D01*
X0375450Y0350528D01*
X0374758Y0350528D01*
X0374758Y0351219D02*
X0375450Y0351219D01*
X0375450Y0351910D02*
X0374758Y0351910D01*
X0374758Y0352601D02*
X0375450Y0352601D01*
X0375450Y0353292D02*
X0374758Y0353292D01*
X0372790Y0353386D02*
X0372790Y0350528D01*
X0372790Y0353386D02*
X0373482Y0353386D01*
X0373482Y0350528D01*
X0372790Y0350528D01*
X0372790Y0351219D02*
X0373482Y0351219D01*
X0373482Y0351910D02*
X0372790Y0351910D01*
X0372790Y0352601D02*
X0373482Y0352601D01*
X0373482Y0353292D02*
X0372790Y0353292D01*
X0370821Y0353386D02*
X0370821Y0350528D01*
X0370821Y0353386D02*
X0371513Y0353386D01*
X0371513Y0350528D01*
X0370821Y0350528D01*
X0370821Y0351219D02*
X0371513Y0351219D01*
X0371513Y0351910D02*
X0370821Y0351910D01*
X0370821Y0352601D02*
X0371513Y0352601D01*
X0371513Y0353292D02*
X0370821Y0353292D01*
X0368853Y0353386D02*
X0368853Y0350528D01*
X0368853Y0353386D02*
X0369545Y0353386D01*
X0369545Y0350528D01*
X0368853Y0350528D01*
X0368853Y0351219D02*
X0369545Y0351219D01*
X0369545Y0351910D02*
X0368853Y0351910D01*
X0368853Y0352601D02*
X0369545Y0352601D01*
X0369545Y0353292D02*
X0368853Y0353292D01*
X0366884Y0353386D02*
X0366884Y0350528D01*
X0366884Y0353386D02*
X0367576Y0353386D01*
X0367576Y0350528D01*
X0366884Y0350528D01*
X0366884Y0351219D02*
X0367576Y0351219D01*
X0367576Y0351910D02*
X0366884Y0351910D01*
X0366884Y0352601D02*
X0367576Y0352601D01*
X0367576Y0353292D02*
X0366884Y0353292D01*
X0364916Y0353386D02*
X0364916Y0350528D01*
X0364916Y0353386D02*
X0365608Y0353386D01*
X0365608Y0350528D01*
X0364916Y0350528D01*
X0364916Y0351219D02*
X0365608Y0351219D01*
X0365608Y0351910D02*
X0364916Y0351910D01*
X0364916Y0352601D02*
X0365608Y0352601D01*
X0365608Y0353292D02*
X0364916Y0353292D01*
X0363935Y0348855D02*
X0361077Y0348855D01*
X0361077Y0349547D01*
X0363935Y0349547D01*
X0363935Y0348855D01*
X0363935Y0349546D02*
X0361077Y0349546D01*
X0361077Y0346887D02*
X0363935Y0346887D01*
X0361077Y0346887D02*
X0361077Y0347579D01*
X0363935Y0347579D01*
X0363935Y0346887D01*
X0363935Y0347578D02*
X0361077Y0347578D01*
X0361077Y0344918D02*
X0363935Y0344918D01*
X0361077Y0344918D02*
X0361077Y0345610D01*
X0363935Y0345610D01*
X0363935Y0344918D01*
X0363935Y0345609D02*
X0361077Y0345609D01*
X0361077Y0342950D02*
X0363935Y0342950D01*
X0361077Y0342950D02*
X0361077Y0343642D01*
X0363935Y0343642D01*
X0363935Y0342950D01*
X0363935Y0343641D02*
X0361077Y0343641D01*
X0361077Y0340981D02*
X0363935Y0340981D01*
X0361077Y0340981D02*
X0361077Y0341673D01*
X0363935Y0341673D01*
X0363935Y0340981D01*
X0363935Y0341672D02*
X0361077Y0341672D01*
X0361077Y0339013D02*
X0363935Y0339013D01*
X0361077Y0339013D02*
X0361077Y0339705D01*
X0363935Y0339705D01*
X0363935Y0339013D01*
X0363935Y0339704D02*
X0361077Y0339704D01*
X0365608Y0338032D02*
X0365608Y0335174D01*
X0364916Y0335174D01*
X0364916Y0338032D01*
X0365608Y0338032D01*
X0365608Y0335865D02*
X0364916Y0335865D01*
X0364916Y0336556D02*
X0365608Y0336556D01*
X0365608Y0337247D02*
X0364916Y0337247D01*
X0364916Y0337938D02*
X0365608Y0337938D01*
X0367576Y0338032D02*
X0367576Y0335174D01*
X0366884Y0335174D01*
X0366884Y0338032D01*
X0367576Y0338032D01*
X0367576Y0335865D02*
X0366884Y0335865D01*
X0366884Y0336556D02*
X0367576Y0336556D01*
X0367576Y0337247D02*
X0366884Y0337247D01*
X0366884Y0337938D02*
X0367576Y0337938D01*
X0369545Y0338032D02*
X0369545Y0335174D01*
X0368853Y0335174D01*
X0368853Y0338032D01*
X0369545Y0338032D01*
X0369545Y0335865D02*
X0368853Y0335865D01*
X0368853Y0336556D02*
X0369545Y0336556D01*
X0369545Y0337247D02*
X0368853Y0337247D01*
X0368853Y0337938D02*
X0369545Y0337938D01*
X0371513Y0338032D02*
X0371513Y0335174D01*
X0370821Y0335174D01*
X0370821Y0338032D01*
X0371513Y0338032D01*
X0371513Y0335865D02*
X0370821Y0335865D01*
X0370821Y0336556D02*
X0371513Y0336556D01*
X0371513Y0337247D02*
X0370821Y0337247D01*
X0370821Y0337938D02*
X0371513Y0337938D01*
X0373482Y0338032D02*
X0373482Y0335174D01*
X0372790Y0335174D01*
X0372790Y0338032D01*
X0373482Y0338032D01*
X0373482Y0335865D02*
X0372790Y0335865D01*
X0372790Y0336556D02*
X0373482Y0336556D01*
X0373482Y0337247D02*
X0372790Y0337247D01*
X0372790Y0337938D02*
X0373482Y0337938D01*
X0375450Y0338032D02*
X0375450Y0335174D01*
X0374758Y0335174D01*
X0374758Y0338032D01*
X0375450Y0338032D01*
X0375450Y0335865D02*
X0374758Y0335865D01*
X0374758Y0336556D02*
X0375450Y0336556D01*
X0375450Y0337247D02*
X0374758Y0337247D01*
X0374758Y0337938D02*
X0375450Y0337938D01*
X0376431Y0339705D02*
X0379289Y0339705D01*
X0379289Y0339013D01*
X0376431Y0339013D01*
X0376431Y0339705D01*
X0376431Y0339704D02*
X0379289Y0339704D01*
X0379289Y0341673D02*
X0376431Y0341673D01*
X0379289Y0341673D02*
X0379289Y0340981D01*
X0376431Y0340981D01*
X0376431Y0341673D01*
X0376431Y0341672D02*
X0379289Y0341672D01*
X0379289Y0343642D02*
X0376431Y0343642D01*
X0379289Y0343642D02*
X0379289Y0342950D01*
X0376431Y0342950D01*
X0376431Y0343642D01*
X0376431Y0343641D02*
X0379289Y0343641D01*
X0379289Y0345610D02*
X0376431Y0345610D01*
X0379289Y0345610D02*
X0379289Y0344918D01*
X0376431Y0344918D01*
X0376431Y0345610D01*
X0376431Y0345609D02*
X0379289Y0345609D01*
X0379289Y0347579D02*
X0376431Y0347579D01*
X0379289Y0347579D02*
X0379289Y0346887D01*
X0376431Y0346887D01*
X0376431Y0347579D01*
X0376431Y0347578D02*
X0379289Y0347578D01*
X0379289Y0349547D02*
X0376431Y0349547D01*
X0379289Y0349547D02*
X0379289Y0348855D01*
X0376431Y0348855D01*
X0376431Y0349547D01*
X0376431Y0349546D02*
X0379289Y0349546D01*
D51*
X0370183Y0344280D03*
D52*
X0370183Y0366780D03*
D53*
X0423933Y0166780D03*
X0423933Y0091780D03*
D54*
X0433933Y0101780D03*
X0433933Y0081780D03*
X0413933Y0081780D03*
X0413933Y0101780D03*
X0413933Y0156780D03*
X0413933Y0176780D03*
X0433933Y0176780D03*
X0433933Y0156780D03*
D55*
X0379406Y0241622D03*
D56*
X0379406Y0231780D03*
X0379406Y0221937D03*
X0436492Y0221937D03*
X0436492Y0241622D03*
D57*
X0408933Y0231780D03*
D58*
X0135764Y0130520D03*
X0135764Y0123040D03*
X0135764Y0115520D03*
X0135764Y0108040D03*
X0135764Y0100520D03*
X0135764Y0093040D03*
X0127102Y0096780D03*
X0127102Y0111780D03*
X0127102Y0126780D03*
D59*
X0248028Y0144280D03*
X0259839Y0144280D03*
D60*
X0253933Y0150185D03*
X0253933Y0138374D03*
D61*
X0308933Y0114280D03*
D62*
X0308933Y0102567D03*
X0308933Y0125992D03*
D63*
X0297220Y0114280D03*
X0320646Y0114280D03*
D64*
X0296433Y0093591D03*
X0296433Y0074969D03*
D65*
X0390525Y0090931D02*
X0390525Y0092511D01*
X0394073Y0092511D01*
X0394073Y0090931D01*
X0390525Y0090931D01*
X0390525Y0091325D02*
X0394073Y0091325D01*
X0394073Y0091719D02*
X0390525Y0091719D01*
X0390525Y0092113D02*
X0394073Y0092113D01*
X0394073Y0092507D02*
X0390525Y0092507D01*
X0390525Y0093490D02*
X0390525Y0095070D01*
X0394073Y0095070D01*
X0394073Y0093490D01*
X0390525Y0093490D01*
X0390525Y0093884D02*
X0394073Y0093884D01*
X0394073Y0094278D02*
X0390525Y0094278D01*
X0390525Y0094672D02*
X0394073Y0094672D01*
X0394073Y0095066D02*
X0390525Y0095066D01*
X0390525Y0096049D02*
X0390525Y0097629D01*
X0394073Y0097629D01*
X0394073Y0096049D01*
X0390525Y0096049D01*
X0390525Y0096443D02*
X0394073Y0096443D01*
X0394073Y0096837D02*
X0390525Y0096837D01*
X0390525Y0097231D02*
X0394073Y0097231D01*
X0394073Y0097625D02*
X0390525Y0097625D01*
X0402341Y0097629D02*
X0402341Y0096049D01*
X0398793Y0096049D01*
X0398793Y0097629D01*
X0402341Y0097629D01*
X0402341Y0096443D02*
X0398793Y0096443D01*
X0398793Y0096837D02*
X0402341Y0096837D01*
X0402341Y0097231D02*
X0398793Y0097231D01*
X0398793Y0097625D02*
X0402341Y0097625D01*
X0402341Y0095070D02*
X0402341Y0093490D01*
X0398793Y0093490D01*
X0398793Y0095070D01*
X0402341Y0095070D01*
X0402341Y0093884D02*
X0398793Y0093884D01*
X0398793Y0094278D02*
X0402341Y0094278D01*
X0402341Y0094672D02*
X0398793Y0094672D01*
X0398793Y0095066D02*
X0402341Y0095066D01*
X0402341Y0092511D02*
X0402341Y0090931D01*
X0398793Y0090931D01*
X0398793Y0092511D01*
X0402341Y0092511D01*
X0402341Y0091325D02*
X0398793Y0091325D01*
X0398793Y0091719D02*
X0402341Y0091719D01*
X0402341Y0092113D02*
X0398793Y0092113D01*
X0398793Y0092507D02*
X0402341Y0092507D01*
X0405584Y0115872D02*
X0407164Y0115872D01*
X0405584Y0115872D02*
X0405584Y0119420D01*
X0407164Y0119420D01*
X0407164Y0115872D01*
X0407164Y0116266D02*
X0405584Y0116266D01*
X0405584Y0116660D02*
X0407164Y0116660D01*
X0407164Y0117054D02*
X0405584Y0117054D01*
X0405584Y0117448D02*
X0407164Y0117448D01*
X0407164Y0117842D02*
X0405584Y0117842D01*
X0405584Y0118236D02*
X0407164Y0118236D01*
X0407164Y0118630D02*
X0405584Y0118630D01*
X0405584Y0119024D02*
X0407164Y0119024D01*
X0407164Y0119418D02*
X0405584Y0119418D01*
X0408143Y0115872D02*
X0409723Y0115872D01*
X0408143Y0115872D02*
X0408143Y0119420D01*
X0409723Y0119420D01*
X0409723Y0115872D01*
X0409723Y0116266D02*
X0408143Y0116266D01*
X0408143Y0116660D02*
X0409723Y0116660D01*
X0409723Y0117054D02*
X0408143Y0117054D01*
X0408143Y0117448D02*
X0409723Y0117448D01*
X0409723Y0117842D02*
X0408143Y0117842D01*
X0408143Y0118236D02*
X0409723Y0118236D01*
X0409723Y0118630D02*
X0408143Y0118630D01*
X0408143Y0119024D02*
X0409723Y0119024D01*
X0409723Y0119418D02*
X0408143Y0119418D01*
X0410702Y0115872D02*
X0412282Y0115872D01*
X0410702Y0115872D02*
X0410702Y0119420D01*
X0412282Y0119420D01*
X0412282Y0115872D01*
X0412282Y0116266D02*
X0410702Y0116266D01*
X0410702Y0116660D02*
X0412282Y0116660D01*
X0412282Y0117054D02*
X0410702Y0117054D01*
X0410702Y0117448D02*
X0412282Y0117448D01*
X0412282Y0117842D02*
X0410702Y0117842D01*
X0410702Y0118236D02*
X0412282Y0118236D01*
X0412282Y0118630D02*
X0410702Y0118630D01*
X0410702Y0119024D02*
X0412282Y0119024D01*
X0412282Y0119418D02*
X0410702Y0119418D01*
X0410702Y0127688D02*
X0412282Y0127688D01*
X0412282Y0124140D01*
X0410702Y0124140D01*
X0410702Y0127688D01*
X0410702Y0124534D02*
X0412282Y0124534D01*
X0412282Y0124928D02*
X0410702Y0124928D01*
X0410702Y0125322D02*
X0412282Y0125322D01*
X0412282Y0125716D02*
X0410702Y0125716D01*
X0410702Y0126110D02*
X0412282Y0126110D01*
X0412282Y0126504D02*
X0410702Y0126504D01*
X0410702Y0126898D02*
X0412282Y0126898D01*
X0412282Y0127292D02*
X0410702Y0127292D01*
X0410702Y0127686D02*
X0412282Y0127686D01*
X0409723Y0127688D02*
X0408143Y0127688D01*
X0409723Y0127688D02*
X0409723Y0124140D01*
X0408143Y0124140D01*
X0408143Y0127688D01*
X0408143Y0124534D02*
X0409723Y0124534D01*
X0409723Y0124928D02*
X0408143Y0124928D01*
X0408143Y0125322D02*
X0409723Y0125322D01*
X0409723Y0125716D02*
X0408143Y0125716D01*
X0408143Y0126110D02*
X0409723Y0126110D01*
X0409723Y0126504D02*
X0408143Y0126504D01*
X0408143Y0126898D02*
X0409723Y0126898D01*
X0409723Y0127292D02*
X0408143Y0127292D01*
X0408143Y0127686D02*
X0409723Y0127686D01*
X0407164Y0127688D02*
X0405584Y0127688D01*
X0407164Y0127688D02*
X0407164Y0124140D01*
X0405584Y0124140D01*
X0405584Y0127688D01*
X0405584Y0124534D02*
X0407164Y0124534D01*
X0407164Y0124928D02*
X0405584Y0124928D01*
X0405584Y0125322D02*
X0407164Y0125322D01*
X0407164Y0125716D02*
X0405584Y0125716D01*
X0405584Y0126110D02*
X0407164Y0126110D01*
X0407164Y0126504D02*
X0405584Y0126504D01*
X0405584Y0126898D02*
X0407164Y0126898D01*
X0407164Y0127292D02*
X0405584Y0127292D01*
X0405584Y0127686D02*
X0407164Y0127686D01*
X0402341Y0130931D02*
X0402341Y0132511D01*
X0402341Y0130931D02*
X0398793Y0130931D01*
X0398793Y0132511D01*
X0402341Y0132511D01*
X0402341Y0131325D02*
X0398793Y0131325D01*
X0398793Y0131719D02*
X0402341Y0131719D01*
X0402341Y0132113D02*
X0398793Y0132113D01*
X0398793Y0132507D02*
X0402341Y0132507D01*
X0402341Y0133490D02*
X0402341Y0135070D01*
X0402341Y0133490D02*
X0398793Y0133490D01*
X0398793Y0135070D01*
X0402341Y0135070D01*
X0402341Y0133884D02*
X0398793Y0133884D01*
X0398793Y0134278D02*
X0402341Y0134278D01*
X0402341Y0134672D02*
X0398793Y0134672D01*
X0398793Y0135066D02*
X0402341Y0135066D01*
X0402341Y0136049D02*
X0402341Y0137629D01*
X0402341Y0136049D02*
X0398793Y0136049D01*
X0398793Y0137629D01*
X0402341Y0137629D01*
X0402341Y0136443D02*
X0398793Y0136443D01*
X0398793Y0136837D02*
X0402341Y0136837D01*
X0402341Y0137231D02*
X0398793Y0137231D01*
X0398793Y0137625D02*
X0402341Y0137625D01*
X0390525Y0137629D02*
X0390525Y0136049D01*
X0390525Y0137629D02*
X0394073Y0137629D01*
X0394073Y0136049D01*
X0390525Y0136049D01*
X0390525Y0136443D02*
X0394073Y0136443D01*
X0394073Y0136837D02*
X0390525Y0136837D01*
X0390525Y0137231D02*
X0394073Y0137231D01*
X0394073Y0137625D02*
X0390525Y0137625D01*
X0390525Y0135070D02*
X0390525Y0133490D01*
X0390525Y0135070D02*
X0394073Y0135070D01*
X0394073Y0133490D01*
X0390525Y0133490D01*
X0390525Y0133884D02*
X0394073Y0133884D01*
X0394073Y0134278D02*
X0390525Y0134278D01*
X0390525Y0134672D02*
X0394073Y0134672D01*
X0394073Y0135066D02*
X0390525Y0135066D01*
X0390525Y0132511D02*
X0390525Y0130931D01*
X0390525Y0132511D02*
X0394073Y0132511D01*
X0394073Y0130931D01*
X0390525Y0130931D01*
X0390525Y0131325D02*
X0394073Y0131325D01*
X0394073Y0131719D02*
X0390525Y0131719D01*
X0390525Y0132113D02*
X0394073Y0132113D01*
X0394073Y0132507D02*
X0390525Y0132507D01*
M02*
