G75*
%MOIN*%
%OFA0B0*%
%FSLAX25Y25*%
%IPPOS*%
%LPD*%
%AMOC8*
5,1,8,0,0,1.08239X$1,22.5*
%
%ADD10C,0.00000*%
%ADD11C,0.21400*%
%ADD12C,0.00420*%
%ADD13R,0.05000X0.06700*%
%ADD14R,0.00600X0.07200*%
%ADD15OC8,0.03400*%
%ADD16R,0.06400X0.06400*%
%ADD17OC8,0.06400*%
%ADD18R,0.04337X0.04731*%
%ADD19R,0.04731X0.04337*%
%ADD20C,0.05800*%
%ADD21OC8,0.05800*%
%ADD22C,0.05400*%
%ADD23R,0.03943X0.05912*%
%ADD24R,0.06306X0.05518*%
%ADD25R,0.02500X0.05400*%
%ADD26R,0.04731X0.07880*%
%ADD27R,0.05715X0.01975*%
%ADD28C,0.06109*%
%ADD29OC8,0.07487*%
%ADD30R,0.05420X0.05420*%
%ADD31R,0.12605X0.20085*%
%ADD32R,0.06699X0.08274*%
%ADD33R,0.05912X0.04337*%
%ADD34C,0.00099*%
%ADD35OC8,0.05124*%
%ADD36R,0.04534X0.04534*%
%ADD37OC8,0.04534*%
%ADD38OC8,0.09849*%
%ADD39C,0.10243*%
%ADD40R,0.08274X0.06699*%
%ADD41C,0.00692*%
%ADD42R,0.10243X0.10243*%
%ADD43OC8,0.06306*%
%ADD44C,0.09250*%
%ADD45C,0.10450*%
%ADD46R,0.08274X0.08274*%
%ADD47C,0.08274*%
%ADD48C,0.12211*%
%ADD49C,0.00749*%
%ADD50C,0.00552*%
%ADD51C,0.00608*%
%ADD52R,0.07441X0.02717*%
%ADD53R,0.07093X0.03943*%
D10*
X0063933Y0036780D02*
X0063933Y0416780D01*
X0443933Y0416780D01*
X0443933Y0036780D01*
X0063933Y0036780D01*
X0125059Y0064851D02*
X0125061Y0064991D01*
X0125067Y0065131D01*
X0125077Y0065270D01*
X0125091Y0065409D01*
X0125109Y0065548D01*
X0125130Y0065686D01*
X0125156Y0065824D01*
X0125186Y0065961D01*
X0125219Y0066096D01*
X0125257Y0066231D01*
X0125298Y0066365D01*
X0125343Y0066498D01*
X0125391Y0066629D01*
X0125444Y0066758D01*
X0125500Y0066887D01*
X0125559Y0067013D01*
X0125623Y0067138D01*
X0125689Y0067261D01*
X0125760Y0067382D01*
X0125833Y0067501D01*
X0125910Y0067618D01*
X0125991Y0067732D01*
X0126074Y0067844D01*
X0126161Y0067954D01*
X0126251Y0068062D01*
X0126343Y0068166D01*
X0126439Y0068268D01*
X0126538Y0068368D01*
X0126639Y0068464D01*
X0126743Y0068558D01*
X0126850Y0068648D01*
X0126959Y0068735D01*
X0127071Y0068820D01*
X0127185Y0068901D01*
X0127301Y0068979D01*
X0127419Y0069053D01*
X0127540Y0069124D01*
X0127662Y0069192D01*
X0127787Y0069256D01*
X0127913Y0069317D01*
X0128040Y0069374D01*
X0128170Y0069427D01*
X0128301Y0069477D01*
X0128433Y0069522D01*
X0128566Y0069565D01*
X0128701Y0069603D01*
X0128836Y0069637D01*
X0128973Y0069668D01*
X0129110Y0069695D01*
X0129248Y0069717D01*
X0129387Y0069736D01*
X0129526Y0069751D01*
X0129665Y0069762D01*
X0129805Y0069769D01*
X0129945Y0069772D01*
X0130085Y0069771D01*
X0130225Y0069766D01*
X0130364Y0069757D01*
X0130504Y0069744D01*
X0130643Y0069727D01*
X0130781Y0069706D01*
X0130919Y0069682D01*
X0131056Y0069653D01*
X0131192Y0069621D01*
X0131327Y0069584D01*
X0131461Y0069544D01*
X0131594Y0069500D01*
X0131725Y0069452D01*
X0131855Y0069401D01*
X0131984Y0069346D01*
X0132111Y0069287D01*
X0132236Y0069224D01*
X0132359Y0069159D01*
X0132481Y0069089D01*
X0132600Y0069016D01*
X0132718Y0068940D01*
X0132833Y0068861D01*
X0132946Y0068778D01*
X0133056Y0068692D01*
X0133164Y0068603D01*
X0133269Y0068511D01*
X0133372Y0068416D01*
X0133472Y0068318D01*
X0133569Y0068218D01*
X0133663Y0068114D01*
X0133755Y0068008D01*
X0133843Y0067900D01*
X0133928Y0067789D01*
X0134010Y0067675D01*
X0134089Y0067559D01*
X0134164Y0067442D01*
X0134236Y0067322D01*
X0134304Y0067200D01*
X0134369Y0067076D01*
X0134431Y0066950D01*
X0134489Y0066823D01*
X0134543Y0066694D01*
X0134594Y0066563D01*
X0134640Y0066431D01*
X0134683Y0066298D01*
X0134723Y0066164D01*
X0134758Y0066029D01*
X0134790Y0065892D01*
X0134817Y0065755D01*
X0134841Y0065617D01*
X0134861Y0065479D01*
X0134877Y0065340D01*
X0134889Y0065200D01*
X0134897Y0065061D01*
X0134901Y0064921D01*
X0134901Y0064781D01*
X0134897Y0064641D01*
X0134889Y0064502D01*
X0134877Y0064362D01*
X0134861Y0064223D01*
X0134841Y0064085D01*
X0134817Y0063947D01*
X0134790Y0063810D01*
X0134758Y0063673D01*
X0134723Y0063538D01*
X0134683Y0063404D01*
X0134640Y0063271D01*
X0134594Y0063139D01*
X0134543Y0063008D01*
X0134489Y0062879D01*
X0134431Y0062752D01*
X0134369Y0062626D01*
X0134304Y0062502D01*
X0134236Y0062380D01*
X0134164Y0062260D01*
X0134089Y0062143D01*
X0134010Y0062027D01*
X0133928Y0061913D01*
X0133843Y0061802D01*
X0133755Y0061694D01*
X0133663Y0061588D01*
X0133569Y0061484D01*
X0133472Y0061384D01*
X0133372Y0061286D01*
X0133269Y0061191D01*
X0133164Y0061099D01*
X0133056Y0061010D01*
X0132946Y0060924D01*
X0132833Y0060841D01*
X0132718Y0060762D01*
X0132600Y0060686D01*
X0132481Y0060613D01*
X0132359Y0060543D01*
X0132236Y0060478D01*
X0132111Y0060415D01*
X0131984Y0060356D01*
X0131855Y0060301D01*
X0131725Y0060250D01*
X0131594Y0060202D01*
X0131461Y0060158D01*
X0131327Y0060118D01*
X0131192Y0060081D01*
X0131056Y0060049D01*
X0130919Y0060020D01*
X0130781Y0059996D01*
X0130643Y0059975D01*
X0130504Y0059958D01*
X0130364Y0059945D01*
X0130225Y0059936D01*
X0130085Y0059931D01*
X0129945Y0059930D01*
X0129805Y0059933D01*
X0129665Y0059940D01*
X0129526Y0059951D01*
X0129387Y0059966D01*
X0129248Y0059985D01*
X0129110Y0060007D01*
X0128973Y0060034D01*
X0128836Y0060065D01*
X0128701Y0060099D01*
X0128566Y0060137D01*
X0128433Y0060180D01*
X0128301Y0060225D01*
X0128170Y0060275D01*
X0128040Y0060328D01*
X0127913Y0060385D01*
X0127787Y0060446D01*
X0127662Y0060510D01*
X0127540Y0060578D01*
X0127419Y0060649D01*
X0127301Y0060723D01*
X0127185Y0060801D01*
X0127071Y0060882D01*
X0126959Y0060967D01*
X0126850Y0061054D01*
X0126743Y0061144D01*
X0126639Y0061238D01*
X0126538Y0061334D01*
X0126439Y0061434D01*
X0126343Y0061536D01*
X0126251Y0061640D01*
X0126161Y0061748D01*
X0126074Y0061858D01*
X0125991Y0061970D01*
X0125910Y0062084D01*
X0125833Y0062201D01*
X0125760Y0062320D01*
X0125689Y0062441D01*
X0125623Y0062564D01*
X0125559Y0062689D01*
X0125500Y0062815D01*
X0125444Y0062944D01*
X0125391Y0063073D01*
X0125343Y0063204D01*
X0125298Y0063337D01*
X0125257Y0063471D01*
X0125219Y0063606D01*
X0125186Y0063741D01*
X0125156Y0063878D01*
X0125130Y0064016D01*
X0125109Y0064154D01*
X0125091Y0064293D01*
X0125077Y0064432D01*
X0125067Y0064571D01*
X0125061Y0064711D01*
X0125059Y0064851D01*
X0125059Y0195166D02*
X0125061Y0195306D01*
X0125067Y0195446D01*
X0125077Y0195585D01*
X0125091Y0195724D01*
X0125109Y0195863D01*
X0125130Y0196001D01*
X0125156Y0196139D01*
X0125186Y0196276D01*
X0125219Y0196411D01*
X0125257Y0196546D01*
X0125298Y0196680D01*
X0125343Y0196813D01*
X0125391Y0196944D01*
X0125444Y0197073D01*
X0125500Y0197202D01*
X0125559Y0197328D01*
X0125623Y0197453D01*
X0125689Y0197576D01*
X0125760Y0197697D01*
X0125833Y0197816D01*
X0125910Y0197933D01*
X0125991Y0198047D01*
X0126074Y0198159D01*
X0126161Y0198269D01*
X0126251Y0198377D01*
X0126343Y0198481D01*
X0126439Y0198583D01*
X0126538Y0198683D01*
X0126639Y0198779D01*
X0126743Y0198873D01*
X0126850Y0198963D01*
X0126959Y0199050D01*
X0127071Y0199135D01*
X0127185Y0199216D01*
X0127301Y0199294D01*
X0127419Y0199368D01*
X0127540Y0199439D01*
X0127662Y0199507D01*
X0127787Y0199571D01*
X0127913Y0199632D01*
X0128040Y0199689D01*
X0128170Y0199742D01*
X0128301Y0199792D01*
X0128433Y0199837D01*
X0128566Y0199880D01*
X0128701Y0199918D01*
X0128836Y0199952D01*
X0128973Y0199983D01*
X0129110Y0200010D01*
X0129248Y0200032D01*
X0129387Y0200051D01*
X0129526Y0200066D01*
X0129665Y0200077D01*
X0129805Y0200084D01*
X0129945Y0200087D01*
X0130085Y0200086D01*
X0130225Y0200081D01*
X0130364Y0200072D01*
X0130504Y0200059D01*
X0130643Y0200042D01*
X0130781Y0200021D01*
X0130919Y0199997D01*
X0131056Y0199968D01*
X0131192Y0199936D01*
X0131327Y0199899D01*
X0131461Y0199859D01*
X0131594Y0199815D01*
X0131725Y0199767D01*
X0131855Y0199716D01*
X0131984Y0199661D01*
X0132111Y0199602D01*
X0132236Y0199539D01*
X0132359Y0199474D01*
X0132481Y0199404D01*
X0132600Y0199331D01*
X0132718Y0199255D01*
X0132833Y0199176D01*
X0132946Y0199093D01*
X0133056Y0199007D01*
X0133164Y0198918D01*
X0133269Y0198826D01*
X0133372Y0198731D01*
X0133472Y0198633D01*
X0133569Y0198533D01*
X0133663Y0198429D01*
X0133755Y0198323D01*
X0133843Y0198215D01*
X0133928Y0198104D01*
X0134010Y0197990D01*
X0134089Y0197874D01*
X0134164Y0197757D01*
X0134236Y0197637D01*
X0134304Y0197515D01*
X0134369Y0197391D01*
X0134431Y0197265D01*
X0134489Y0197138D01*
X0134543Y0197009D01*
X0134594Y0196878D01*
X0134640Y0196746D01*
X0134683Y0196613D01*
X0134723Y0196479D01*
X0134758Y0196344D01*
X0134790Y0196207D01*
X0134817Y0196070D01*
X0134841Y0195932D01*
X0134861Y0195794D01*
X0134877Y0195655D01*
X0134889Y0195515D01*
X0134897Y0195376D01*
X0134901Y0195236D01*
X0134901Y0195096D01*
X0134897Y0194956D01*
X0134889Y0194817D01*
X0134877Y0194677D01*
X0134861Y0194538D01*
X0134841Y0194400D01*
X0134817Y0194262D01*
X0134790Y0194125D01*
X0134758Y0193988D01*
X0134723Y0193853D01*
X0134683Y0193719D01*
X0134640Y0193586D01*
X0134594Y0193454D01*
X0134543Y0193323D01*
X0134489Y0193194D01*
X0134431Y0193067D01*
X0134369Y0192941D01*
X0134304Y0192817D01*
X0134236Y0192695D01*
X0134164Y0192575D01*
X0134089Y0192458D01*
X0134010Y0192342D01*
X0133928Y0192228D01*
X0133843Y0192117D01*
X0133755Y0192009D01*
X0133663Y0191903D01*
X0133569Y0191799D01*
X0133472Y0191699D01*
X0133372Y0191601D01*
X0133269Y0191506D01*
X0133164Y0191414D01*
X0133056Y0191325D01*
X0132946Y0191239D01*
X0132833Y0191156D01*
X0132718Y0191077D01*
X0132600Y0191001D01*
X0132481Y0190928D01*
X0132359Y0190858D01*
X0132236Y0190793D01*
X0132111Y0190730D01*
X0131984Y0190671D01*
X0131855Y0190616D01*
X0131725Y0190565D01*
X0131594Y0190517D01*
X0131461Y0190473D01*
X0131327Y0190433D01*
X0131192Y0190396D01*
X0131056Y0190364D01*
X0130919Y0190335D01*
X0130781Y0190311D01*
X0130643Y0190290D01*
X0130504Y0190273D01*
X0130364Y0190260D01*
X0130225Y0190251D01*
X0130085Y0190246D01*
X0129945Y0190245D01*
X0129805Y0190248D01*
X0129665Y0190255D01*
X0129526Y0190266D01*
X0129387Y0190281D01*
X0129248Y0190300D01*
X0129110Y0190322D01*
X0128973Y0190349D01*
X0128836Y0190380D01*
X0128701Y0190414D01*
X0128566Y0190452D01*
X0128433Y0190495D01*
X0128301Y0190540D01*
X0128170Y0190590D01*
X0128040Y0190643D01*
X0127913Y0190700D01*
X0127787Y0190761D01*
X0127662Y0190825D01*
X0127540Y0190893D01*
X0127419Y0190964D01*
X0127301Y0191038D01*
X0127185Y0191116D01*
X0127071Y0191197D01*
X0126959Y0191282D01*
X0126850Y0191369D01*
X0126743Y0191459D01*
X0126639Y0191553D01*
X0126538Y0191649D01*
X0126439Y0191749D01*
X0126343Y0191851D01*
X0126251Y0191955D01*
X0126161Y0192063D01*
X0126074Y0192173D01*
X0125991Y0192285D01*
X0125910Y0192399D01*
X0125833Y0192516D01*
X0125760Y0192635D01*
X0125689Y0192756D01*
X0125623Y0192879D01*
X0125559Y0193004D01*
X0125500Y0193130D01*
X0125444Y0193259D01*
X0125391Y0193388D01*
X0125343Y0193519D01*
X0125298Y0193652D01*
X0125257Y0193786D01*
X0125219Y0193921D01*
X0125186Y0194056D01*
X0125156Y0194193D01*
X0125130Y0194331D01*
X0125109Y0194469D01*
X0125091Y0194608D01*
X0125077Y0194747D01*
X0125067Y0194886D01*
X0125061Y0195026D01*
X0125059Y0195166D01*
X0380965Y0195166D02*
X0380967Y0195306D01*
X0380973Y0195446D01*
X0380983Y0195585D01*
X0380997Y0195724D01*
X0381015Y0195863D01*
X0381036Y0196001D01*
X0381062Y0196139D01*
X0381092Y0196276D01*
X0381125Y0196411D01*
X0381163Y0196546D01*
X0381204Y0196680D01*
X0381249Y0196813D01*
X0381297Y0196944D01*
X0381350Y0197073D01*
X0381406Y0197202D01*
X0381465Y0197328D01*
X0381529Y0197453D01*
X0381595Y0197576D01*
X0381666Y0197697D01*
X0381739Y0197816D01*
X0381816Y0197933D01*
X0381897Y0198047D01*
X0381980Y0198159D01*
X0382067Y0198269D01*
X0382157Y0198377D01*
X0382249Y0198481D01*
X0382345Y0198583D01*
X0382444Y0198683D01*
X0382545Y0198779D01*
X0382649Y0198873D01*
X0382756Y0198963D01*
X0382865Y0199050D01*
X0382977Y0199135D01*
X0383091Y0199216D01*
X0383207Y0199294D01*
X0383325Y0199368D01*
X0383446Y0199439D01*
X0383568Y0199507D01*
X0383693Y0199571D01*
X0383819Y0199632D01*
X0383946Y0199689D01*
X0384076Y0199742D01*
X0384207Y0199792D01*
X0384339Y0199837D01*
X0384472Y0199880D01*
X0384607Y0199918D01*
X0384742Y0199952D01*
X0384879Y0199983D01*
X0385016Y0200010D01*
X0385154Y0200032D01*
X0385293Y0200051D01*
X0385432Y0200066D01*
X0385571Y0200077D01*
X0385711Y0200084D01*
X0385851Y0200087D01*
X0385991Y0200086D01*
X0386131Y0200081D01*
X0386270Y0200072D01*
X0386410Y0200059D01*
X0386549Y0200042D01*
X0386687Y0200021D01*
X0386825Y0199997D01*
X0386962Y0199968D01*
X0387098Y0199936D01*
X0387233Y0199899D01*
X0387367Y0199859D01*
X0387500Y0199815D01*
X0387631Y0199767D01*
X0387761Y0199716D01*
X0387890Y0199661D01*
X0388017Y0199602D01*
X0388142Y0199539D01*
X0388265Y0199474D01*
X0388387Y0199404D01*
X0388506Y0199331D01*
X0388624Y0199255D01*
X0388739Y0199176D01*
X0388852Y0199093D01*
X0388962Y0199007D01*
X0389070Y0198918D01*
X0389175Y0198826D01*
X0389278Y0198731D01*
X0389378Y0198633D01*
X0389475Y0198533D01*
X0389569Y0198429D01*
X0389661Y0198323D01*
X0389749Y0198215D01*
X0389834Y0198104D01*
X0389916Y0197990D01*
X0389995Y0197874D01*
X0390070Y0197757D01*
X0390142Y0197637D01*
X0390210Y0197515D01*
X0390275Y0197391D01*
X0390337Y0197265D01*
X0390395Y0197138D01*
X0390449Y0197009D01*
X0390500Y0196878D01*
X0390546Y0196746D01*
X0390589Y0196613D01*
X0390629Y0196479D01*
X0390664Y0196344D01*
X0390696Y0196207D01*
X0390723Y0196070D01*
X0390747Y0195932D01*
X0390767Y0195794D01*
X0390783Y0195655D01*
X0390795Y0195515D01*
X0390803Y0195376D01*
X0390807Y0195236D01*
X0390807Y0195096D01*
X0390803Y0194956D01*
X0390795Y0194817D01*
X0390783Y0194677D01*
X0390767Y0194538D01*
X0390747Y0194400D01*
X0390723Y0194262D01*
X0390696Y0194125D01*
X0390664Y0193988D01*
X0390629Y0193853D01*
X0390589Y0193719D01*
X0390546Y0193586D01*
X0390500Y0193454D01*
X0390449Y0193323D01*
X0390395Y0193194D01*
X0390337Y0193067D01*
X0390275Y0192941D01*
X0390210Y0192817D01*
X0390142Y0192695D01*
X0390070Y0192575D01*
X0389995Y0192458D01*
X0389916Y0192342D01*
X0389834Y0192228D01*
X0389749Y0192117D01*
X0389661Y0192009D01*
X0389569Y0191903D01*
X0389475Y0191799D01*
X0389378Y0191699D01*
X0389278Y0191601D01*
X0389175Y0191506D01*
X0389070Y0191414D01*
X0388962Y0191325D01*
X0388852Y0191239D01*
X0388739Y0191156D01*
X0388624Y0191077D01*
X0388506Y0191001D01*
X0388387Y0190928D01*
X0388265Y0190858D01*
X0388142Y0190793D01*
X0388017Y0190730D01*
X0387890Y0190671D01*
X0387761Y0190616D01*
X0387631Y0190565D01*
X0387500Y0190517D01*
X0387367Y0190473D01*
X0387233Y0190433D01*
X0387098Y0190396D01*
X0386962Y0190364D01*
X0386825Y0190335D01*
X0386687Y0190311D01*
X0386549Y0190290D01*
X0386410Y0190273D01*
X0386270Y0190260D01*
X0386131Y0190251D01*
X0385991Y0190246D01*
X0385851Y0190245D01*
X0385711Y0190248D01*
X0385571Y0190255D01*
X0385432Y0190266D01*
X0385293Y0190281D01*
X0385154Y0190300D01*
X0385016Y0190322D01*
X0384879Y0190349D01*
X0384742Y0190380D01*
X0384607Y0190414D01*
X0384472Y0190452D01*
X0384339Y0190495D01*
X0384207Y0190540D01*
X0384076Y0190590D01*
X0383946Y0190643D01*
X0383819Y0190700D01*
X0383693Y0190761D01*
X0383568Y0190825D01*
X0383446Y0190893D01*
X0383325Y0190964D01*
X0383207Y0191038D01*
X0383091Y0191116D01*
X0382977Y0191197D01*
X0382865Y0191282D01*
X0382756Y0191369D01*
X0382649Y0191459D01*
X0382545Y0191553D01*
X0382444Y0191649D01*
X0382345Y0191749D01*
X0382249Y0191851D01*
X0382157Y0191955D01*
X0382067Y0192063D01*
X0381980Y0192173D01*
X0381897Y0192285D01*
X0381816Y0192399D01*
X0381739Y0192516D01*
X0381666Y0192635D01*
X0381595Y0192756D01*
X0381529Y0192879D01*
X0381465Y0193004D01*
X0381406Y0193130D01*
X0381350Y0193259D01*
X0381297Y0193388D01*
X0381249Y0193519D01*
X0381204Y0193652D01*
X0381163Y0193786D01*
X0381125Y0193921D01*
X0381092Y0194056D01*
X0381062Y0194193D01*
X0381036Y0194331D01*
X0381015Y0194469D01*
X0380997Y0194608D01*
X0380983Y0194747D01*
X0380973Y0194886D01*
X0380967Y0195026D01*
X0380965Y0195166D01*
X0403027Y0231780D02*
X0403029Y0231933D01*
X0403035Y0232087D01*
X0403045Y0232240D01*
X0403059Y0232392D01*
X0403077Y0232545D01*
X0403099Y0232696D01*
X0403124Y0232847D01*
X0403154Y0232998D01*
X0403188Y0233148D01*
X0403225Y0233296D01*
X0403266Y0233444D01*
X0403311Y0233590D01*
X0403360Y0233736D01*
X0403413Y0233880D01*
X0403469Y0234022D01*
X0403529Y0234163D01*
X0403593Y0234303D01*
X0403660Y0234441D01*
X0403731Y0234577D01*
X0403806Y0234711D01*
X0403883Y0234843D01*
X0403965Y0234973D01*
X0404049Y0235101D01*
X0404137Y0235227D01*
X0404228Y0235350D01*
X0404322Y0235471D01*
X0404420Y0235589D01*
X0404520Y0235705D01*
X0404624Y0235818D01*
X0404730Y0235929D01*
X0404839Y0236037D01*
X0404951Y0236142D01*
X0405065Y0236243D01*
X0405183Y0236342D01*
X0405302Y0236438D01*
X0405424Y0236531D01*
X0405549Y0236620D01*
X0405676Y0236707D01*
X0405805Y0236789D01*
X0405936Y0236869D01*
X0406069Y0236945D01*
X0406204Y0237018D01*
X0406341Y0237087D01*
X0406480Y0237152D01*
X0406620Y0237214D01*
X0406762Y0237272D01*
X0406905Y0237327D01*
X0407050Y0237378D01*
X0407196Y0237425D01*
X0407343Y0237468D01*
X0407491Y0237507D01*
X0407640Y0237543D01*
X0407790Y0237574D01*
X0407941Y0237602D01*
X0408092Y0237626D01*
X0408245Y0237646D01*
X0408397Y0237662D01*
X0408550Y0237674D01*
X0408703Y0237682D01*
X0408856Y0237686D01*
X0409010Y0237686D01*
X0409163Y0237682D01*
X0409316Y0237674D01*
X0409469Y0237662D01*
X0409621Y0237646D01*
X0409774Y0237626D01*
X0409925Y0237602D01*
X0410076Y0237574D01*
X0410226Y0237543D01*
X0410375Y0237507D01*
X0410523Y0237468D01*
X0410670Y0237425D01*
X0410816Y0237378D01*
X0410961Y0237327D01*
X0411104Y0237272D01*
X0411246Y0237214D01*
X0411386Y0237152D01*
X0411525Y0237087D01*
X0411662Y0237018D01*
X0411797Y0236945D01*
X0411930Y0236869D01*
X0412061Y0236789D01*
X0412190Y0236707D01*
X0412317Y0236620D01*
X0412442Y0236531D01*
X0412564Y0236438D01*
X0412683Y0236342D01*
X0412801Y0236243D01*
X0412915Y0236142D01*
X0413027Y0236037D01*
X0413136Y0235929D01*
X0413242Y0235818D01*
X0413346Y0235705D01*
X0413446Y0235589D01*
X0413544Y0235471D01*
X0413638Y0235350D01*
X0413729Y0235227D01*
X0413817Y0235101D01*
X0413901Y0234973D01*
X0413983Y0234843D01*
X0414060Y0234711D01*
X0414135Y0234577D01*
X0414206Y0234441D01*
X0414273Y0234303D01*
X0414337Y0234163D01*
X0414397Y0234022D01*
X0414453Y0233880D01*
X0414506Y0233736D01*
X0414555Y0233590D01*
X0414600Y0233444D01*
X0414641Y0233296D01*
X0414678Y0233148D01*
X0414712Y0232998D01*
X0414742Y0232847D01*
X0414767Y0232696D01*
X0414789Y0232545D01*
X0414807Y0232392D01*
X0414821Y0232240D01*
X0414831Y0232087D01*
X0414837Y0231933D01*
X0414839Y0231780D01*
X0414837Y0231627D01*
X0414831Y0231473D01*
X0414821Y0231320D01*
X0414807Y0231168D01*
X0414789Y0231015D01*
X0414767Y0230864D01*
X0414742Y0230713D01*
X0414712Y0230562D01*
X0414678Y0230412D01*
X0414641Y0230264D01*
X0414600Y0230116D01*
X0414555Y0229970D01*
X0414506Y0229824D01*
X0414453Y0229680D01*
X0414397Y0229538D01*
X0414337Y0229397D01*
X0414273Y0229257D01*
X0414206Y0229119D01*
X0414135Y0228983D01*
X0414060Y0228849D01*
X0413983Y0228717D01*
X0413901Y0228587D01*
X0413817Y0228459D01*
X0413729Y0228333D01*
X0413638Y0228210D01*
X0413544Y0228089D01*
X0413446Y0227971D01*
X0413346Y0227855D01*
X0413242Y0227742D01*
X0413136Y0227631D01*
X0413027Y0227523D01*
X0412915Y0227418D01*
X0412801Y0227317D01*
X0412683Y0227218D01*
X0412564Y0227122D01*
X0412442Y0227029D01*
X0412317Y0226940D01*
X0412190Y0226853D01*
X0412061Y0226771D01*
X0411930Y0226691D01*
X0411797Y0226615D01*
X0411662Y0226542D01*
X0411525Y0226473D01*
X0411386Y0226408D01*
X0411246Y0226346D01*
X0411104Y0226288D01*
X0410961Y0226233D01*
X0410816Y0226182D01*
X0410670Y0226135D01*
X0410523Y0226092D01*
X0410375Y0226053D01*
X0410226Y0226017D01*
X0410076Y0225986D01*
X0409925Y0225958D01*
X0409774Y0225934D01*
X0409621Y0225914D01*
X0409469Y0225898D01*
X0409316Y0225886D01*
X0409163Y0225878D01*
X0409010Y0225874D01*
X0408856Y0225874D01*
X0408703Y0225878D01*
X0408550Y0225886D01*
X0408397Y0225898D01*
X0408245Y0225914D01*
X0408092Y0225934D01*
X0407941Y0225958D01*
X0407790Y0225986D01*
X0407640Y0226017D01*
X0407491Y0226053D01*
X0407343Y0226092D01*
X0407196Y0226135D01*
X0407050Y0226182D01*
X0406905Y0226233D01*
X0406762Y0226288D01*
X0406620Y0226346D01*
X0406480Y0226408D01*
X0406341Y0226473D01*
X0406204Y0226542D01*
X0406069Y0226615D01*
X0405936Y0226691D01*
X0405805Y0226771D01*
X0405676Y0226853D01*
X0405549Y0226940D01*
X0405424Y0227029D01*
X0405302Y0227122D01*
X0405183Y0227218D01*
X0405065Y0227317D01*
X0404951Y0227418D01*
X0404839Y0227523D01*
X0404730Y0227631D01*
X0404624Y0227742D01*
X0404520Y0227855D01*
X0404420Y0227971D01*
X0404322Y0228089D01*
X0404228Y0228210D01*
X0404137Y0228333D01*
X0404049Y0228459D01*
X0403965Y0228587D01*
X0403883Y0228717D01*
X0403806Y0228849D01*
X0403731Y0228983D01*
X0403660Y0229119D01*
X0403593Y0229257D01*
X0403529Y0229397D01*
X0403469Y0229538D01*
X0403413Y0229680D01*
X0403360Y0229824D01*
X0403311Y0229970D01*
X0403266Y0230116D01*
X0403225Y0230264D01*
X0403188Y0230412D01*
X0403154Y0230562D01*
X0403124Y0230713D01*
X0403099Y0230864D01*
X0403077Y0231015D01*
X0403059Y0231168D01*
X0403045Y0231320D01*
X0403035Y0231473D01*
X0403029Y0231627D01*
X0403027Y0231780D01*
X0380965Y0064851D02*
X0380967Y0064991D01*
X0380973Y0065131D01*
X0380983Y0065270D01*
X0380997Y0065409D01*
X0381015Y0065548D01*
X0381036Y0065686D01*
X0381062Y0065824D01*
X0381092Y0065961D01*
X0381125Y0066096D01*
X0381163Y0066231D01*
X0381204Y0066365D01*
X0381249Y0066498D01*
X0381297Y0066629D01*
X0381350Y0066758D01*
X0381406Y0066887D01*
X0381465Y0067013D01*
X0381529Y0067138D01*
X0381595Y0067261D01*
X0381666Y0067382D01*
X0381739Y0067501D01*
X0381816Y0067618D01*
X0381897Y0067732D01*
X0381980Y0067844D01*
X0382067Y0067954D01*
X0382157Y0068062D01*
X0382249Y0068166D01*
X0382345Y0068268D01*
X0382444Y0068368D01*
X0382545Y0068464D01*
X0382649Y0068558D01*
X0382756Y0068648D01*
X0382865Y0068735D01*
X0382977Y0068820D01*
X0383091Y0068901D01*
X0383207Y0068979D01*
X0383325Y0069053D01*
X0383446Y0069124D01*
X0383568Y0069192D01*
X0383693Y0069256D01*
X0383819Y0069317D01*
X0383946Y0069374D01*
X0384076Y0069427D01*
X0384207Y0069477D01*
X0384339Y0069522D01*
X0384472Y0069565D01*
X0384607Y0069603D01*
X0384742Y0069637D01*
X0384879Y0069668D01*
X0385016Y0069695D01*
X0385154Y0069717D01*
X0385293Y0069736D01*
X0385432Y0069751D01*
X0385571Y0069762D01*
X0385711Y0069769D01*
X0385851Y0069772D01*
X0385991Y0069771D01*
X0386131Y0069766D01*
X0386270Y0069757D01*
X0386410Y0069744D01*
X0386549Y0069727D01*
X0386687Y0069706D01*
X0386825Y0069682D01*
X0386962Y0069653D01*
X0387098Y0069621D01*
X0387233Y0069584D01*
X0387367Y0069544D01*
X0387500Y0069500D01*
X0387631Y0069452D01*
X0387761Y0069401D01*
X0387890Y0069346D01*
X0388017Y0069287D01*
X0388142Y0069224D01*
X0388265Y0069159D01*
X0388387Y0069089D01*
X0388506Y0069016D01*
X0388624Y0068940D01*
X0388739Y0068861D01*
X0388852Y0068778D01*
X0388962Y0068692D01*
X0389070Y0068603D01*
X0389175Y0068511D01*
X0389278Y0068416D01*
X0389378Y0068318D01*
X0389475Y0068218D01*
X0389569Y0068114D01*
X0389661Y0068008D01*
X0389749Y0067900D01*
X0389834Y0067789D01*
X0389916Y0067675D01*
X0389995Y0067559D01*
X0390070Y0067442D01*
X0390142Y0067322D01*
X0390210Y0067200D01*
X0390275Y0067076D01*
X0390337Y0066950D01*
X0390395Y0066823D01*
X0390449Y0066694D01*
X0390500Y0066563D01*
X0390546Y0066431D01*
X0390589Y0066298D01*
X0390629Y0066164D01*
X0390664Y0066029D01*
X0390696Y0065892D01*
X0390723Y0065755D01*
X0390747Y0065617D01*
X0390767Y0065479D01*
X0390783Y0065340D01*
X0390795Y0065200D01*
X0390803Y0065061D01*
X0390807Y0064921D01*
X0390807Y0064781D01*
X0390803Y0064641D01*
X0390795Y0064502D01*
X0390783Y0064362D01*
X0390767Y0064223D01*
X0390747Y0064085D01*
X0390723Y0063947D01*
X0390696Y0063810D01*
X0390664Y0063673D01*
X0390629Y0063538D01*
X0390589Y0063404D01*
X0390546Y0063271D01*
X0390500Y0063139D01*
X0390449Y0063008D01*
X0390395Y0062879D01*
X0390337Y0062752D01*
X0390275Y0062626D01*
X0390210Y0062502D01*
X0390142Y0062380D01*
X0390070Y0062260D01*
X0389995Y0062143D01*
X0389916Y0062027D01*
X0389834Y0061913D01*
X0389749Y0061802D01*
X0389661Y0061694D01*
X0389569Y0061588D01*
X0389475Y0061484D01*
X0389378Y0061384D01*
X0389278Y0061286D01*
X0389175Y0061191D01*
X0389070Y0061099D01*
X0388962Y0061010D01*
X0388852Y0060924D01*
X0388739Y0060841D01*
X0388624Y0060762D01*
X0388506Y0060686D01*
X0388387Y0060613D01*
X0388265Y0060543D01*
X0388142Y0060478D01*
X0388017Y0060415D01*
X0387890Y0060356D01*
X0387761Y0060301D01*
X0387631Y0060250D01*
X0387500Y0060202D01*
X0387367Y0060158D01*
X0387233Y0060118D01*
X0387098Y0060081D01*
X0386962Y0060049D01*
X0386825Y0060020D01*
X0386687Y0059996D01*
X0386549Y0059975D01*
X0386410Y0059958D01*
X0386270Y0059945D01*
X0386131Y0059936D01*
X0385991Y0059931D01*
X0385851Y0059930D01*
X0385711Y0059933D01*
X0385571Y0059940D01*
X0385432Y0059951D01*
X0385293Y0059966D01*
X0385154Y0059985D01*
X0385016Y0060007D01*
X0384879Y0060034D01*
X0384742Y0060065D01*
X0384607Y0060099D01*
X0384472Y0060137D01*
X0384339Y0060180D01*
X0384207Y0060225D01*
X0384076Y0060275D01*
X0383946Y0060328D01*
X0383819Y0060385D01*
X0383693Y0060446D01*
X0383568Y0060510D01*
X0383446Y0060578D01*
X0383325Y0060649D01*
X0383207Y0060723D01*
X0383091Y0060801D01*
X0382977Y0060882D01*
X0382865Y0060967D01*
X0382756Y0061054D01*
X0382649Y0061144D01*
X0382545Y0061238D01*
X0382444Y0061334D01*
X0382345Y0061434D01*
X0382249Y0061536D01*
X0382157Y0061640D01*
X0382067Y0061748D01*
X0381980Y0061858D01*
X0381897Y0061970D01*
X0381816Y0062084D01*
X0381739Y0062201D01*
X0381666Y0062320D01*
X0381595Y0062441D01*
X0381529Y0062564D01*
X0381465Y0062689D01*
X0381406Y0062815D01*
X0381350Y0062944D01*
X0381297Y0063073D01*
X0381249Y0063204D01*
X0381204Y0063337D01*
X0381163Y0063471D01*
X0381125Y0063606D01*
X0381092Y0063741D01*
X0381062Y0063878D01*
X0381036Y0064016D01*
X0381015Y0064154D01*
X0380997Y0064293D01*
X0380983Y0064432D01*
X0380973Y0064571D01*
X0380967Y0064711D01*
X0380965Y0064851D01*
D11*
X0423933Y0056780D03*
X0423933Y0396780D03*
X0083933Y0396780D03*
X0083933Y0056780D03*
D12*
X0279357Y0246701D02*
X0284651Y0246701D01*
X0279357Y0246701D02*
X0279357Y0247961D01*
X0284651Y0247961D01*
X0284651Y0246701D01*
X0284651Y0247120D02*
X0279357Y0247120D01*
X0279357Y0247539D02*
X0284651Y0247539D01*
X0284651Y0247958D02*
X0279357Y0247958D01*
X0279357Y0248669D02*
X0284651Y0248669D01*
X0279357Y0248669D02*
X0279357Y0249929D01*
X0284651Y0249929D01*
X0284651Y0248669D01*
X0284651Y0249088D02*
X0279357Y0249088D01*
X0279357Y0249507D02*
X0284651Y0249507D01*
X0284651Y0249926D02*
X0279357Y0249926D01*
X0279357Y0250638D02*
X0284651Y0250638D01*
X0279357Y0250638D02*
X0279357Y0251898D01*
X0284651Y0251898D01*
X0284651Y0250638D01*
X0284651Y0251057D02*
X0279357Y0251057D01*
X0279357Y0251476D02*
X0284651Y0251476D01*
X0284651Y0251895D02*
X0279357Y0251895D01*
X0279357Y0252607D02*
X0284651Y0252607D01*
X0279357Y0252607D02*
X0279357Y0253867D01*
X0284651Y0253867D01*
X0284651Y0252607D01*
X0284651Y0253026D02*
X0279357Y0253026D01*
X0279357Y0253445D02*
X0284651Y0253445D01*
X0284651Y0253864D02*
X0279357Y0253864D01*
X0279357Y0254575D02*
X0284651Y0254575D01*
X0279357Y0254575D02*
X0279357Y0255835D01*
X0284651Y0255835D01*
X0284651Y0254575D01*
X0284651Y0254994D02*
X0279357Y0254994D01*
X0279357Y0255413D02*
X0284651Y0255413D01*
X0284651Y0255832D02*
X0279357Y0255832D01*
X0279357Y0256544D02*
X0284651Y0256544D01*
X0279357Y0256544D02*
X0279357Y0257804D01*
X0284651Y0257804D01*
X0284651Y0256544D01*
X0284651Y0256963D02*
X0279357Y0256963D01*
X0279357Y0257382D02*
X0284651Y0257382D01*
X0284651Y0257801D02*
X0279357Y0257801D01*
X0279357Y0258512D02*
X0284651Y0258512D01*
X0279357Y0258512D02*
X0279357Y0259772D01*
X0284651Y0259772D01*
X0284651Y0258512D01*
X0284651Y0258931D02*
X0279357Y0258931D01*
X0279357Y0259350D02*
X0284651Y0259350D01*
X0284651Y0259769D02*
X0279357Y0259769D01*
X0279357Y0260481D02*
X0284651Y0260481D01*
X0279357Y0260481D02*
X0279357Y0261741D01*
X0284651Y0261741D01*
X0284651Y0260481D01*
X0284651Y0260900D02*
X0279357Y0260900D01*
X0279357Y0261319D02*
X0284651Y0261319D01*
X0284651Y0261738D02*
X0279357Y0261738D01*
X0279357Y0262449D02*
X0284651Y0262449D01*
X0279357Y0262449D02*
X0279357Y0263709D01*
X0284651Y0263709D01*
X0284651Y0262449D01*
X0284651Y0262868D02*
X0279357Y0262868D01*
X0279357Y0263287D02*
X0284651Y0263287D01*
X0284651Y0263706D02*
X0279357Y0263706D01*
X0279357Y0264418D02*
X0284651Y0264418D01*
X0279357Y0264418D02*
X0279357Y0265678D01*
X0284651Y0265678D01*
X0284651Y0264418D01*
X0284651Y0264837D02*
X0279357Y0264837D01*
X0279357Y0265256D02*
X0284651Y0265256D01*
X0284651Y0265675D02*
X0279357Y0265675D01*
X0279357Y0266386D02*
X0284651Y0266386D01*
X0279357Y0266386D02*
X0279357Y0267646D01*
X0284651Y0267646D01*
X0284651Y0266386D01*
X0284651Y0266805D02*
X0279357Y0266805D01*
X0279357Y0267224D02*
X0284651Y0267224D01*
X0284651Y0267643D02*
X0279357Y0267643D01*
X0279357Y0268355D02*
X0284651Y0268355D01*
X0279357Y0268355D02*
X0279357Y0269615D01*
X0284651Y0269615D01*
X0284651Y0268355D01*
X0284651Y0268774D02*
X0279357Y0268774D01*
X0279357Y0269193D02*
X0284651Y0269193D01*
X0284651Y0269612D02*
X0279357Y0269612D01*
X0279357Y0270323D02*
X0284651Y0270323D01*
X0279357Y0270323D02*
X0279357Y0271583D01*
X0284651Y0271583D01*
X0284651Y0270323D01*
X0284651Y0270742D02*
X0279357Y0270742D01*
X0279357Y0271161D02*
X0284651Y0271161D01*
X0284651Y0271580D02*
X0279357Y0271580D01*
X0279357Y0272292D02*
X0284651Y0272292D01*
X0279357Y0272292D02*
X0279357Y0273552D01*
X0284651Y0273552D01*
X0284651Y0272292D01*
X0284651Y0272711D02*
X0279357Y0272711D01*
X0279357Y0273130D02*
X0284651Y0273130D01*
X0284651Y0273549D02*
X0279357Y0273549D01*
X0279357Y0274260D02*
X0284651Y0274260D01*
X0279357Y0274260D02*
X0279357Y0275520D01*
X0284651Y0275520D01*
X0284651Y0274260D01*
X0284651Y0274679D02*
X0279357Y0274679D01*
X0279357Y0275098D02*
X0284651Y0275098D01*
X0284651Y0275517D02*
X0279357Y0275517D01*
X0279357Y0276229D02*
X0284651Y0276229D01*
X0279357Y0276229D02*
X0279357Y0277489D01*
X0284651Y0277489D01*
X0284651Y0276229D01*
X0284651Y0276648D02*
X0279357Y0276648D01*
X0279357Y0277067D02*
X0284651Y0277067D01*
X0284651Y0277486D02*
X0279357Y0277486D01*
X0279357Y0278197D02*
X0284651Y0278197D01*
X0279357Y0278197D02*
X0279357Y0279457D01*
X0284651Y0279457D01*
X0284651Y0278197D01*
X0284651Y0278616D02*
X0279357Y0278616D01*
X0279357Y0279035D02*
X0284651Y0279035D01*
X0284651Y0279454D02*
X0279357Y0279454D01*
X0279357Y0280166D02*
X0284651Y0280166D01*
X0279357Y0280166D02*
X0279357Y0281426D01*
X0284651Y0281426D01*
X0284651Y0280166D01*
X0284651Y0280585D02*
X0279357Y0280585D01*
X0279357Y0281004D02*
X0284651Y0281004D01*
X0284651Y0281423D02*
X0279357Y0281423D01*
X0279357Y0282134D02*
X0284651Y0282134D01*
X0279357Y0282134D02*
X0279357Y0283394D01*
X0284651Y0283394D01*
X0284651Y0282134D01*
X0284651Y0282553D02*
X0279357Y0282553D01*
X0279357Y0282972D02*
X0284651Y0282972D01*
X0284651Y0283391D02*
X0279357Y0283391D01*
X0279357Y0284103D02*
X0284651Y0284103D01*
X0279357Y0284103D02*
X0279357Y0285363D01*
X0284651Y0285363D01*
X0284651Y0284103D01*
X0284651Y0284522D02*
X0279357Y0284522D01*
X0279357Y0284941D02*
X0284651Y0284941D01*
X0284651Y0285360D02*
X0279357Y0285360D01*
X0279357Y0286071D02*
X0284651Y0286071D01*
X0279357Y0286071D02*
X0279357Y0287331D01*
X0284651Y0287331D01*
X0284651Y0286071D01*
X0284651Y0286490D02*
X0279357Y0286490D01*
X0279357Y0286909D02*
X0284651Y0286909D01*
X0284651Y0287328D02*
X0279357Y0287328D01*
X0279357Y0288040D02*
X0284651Y0288040D01*
X0279357Y0288040D02*
X0279357Y0289300D01*
X0284651Y0289300D01*
X0284651Y0288040D01*
X0284651Y0288459D02*
X0279357Y0288459D01*
X0279357Y0288878D02*
X0284651Y0288878D01*
X0284651Y0289297D02*
X0279357Y0289297D01*
X0279357Y0290008D02*
X0284651Y0290008D01*
X0279357Y0290008D02*
X0279357Y0291268D01*
X0284651Y0291268D01*
X0284651Y0290008D01*
X0284651Y0290427D02*
X0279357Y0290427D01*
X0279357Y0290846D02*
X0284651Y0290846D01*
X0284651Y0291265D02*
X0279357Y0291265D01*
X0279357Y0291977D02*
X0284651Y0291977D01*
X0279357Y0291977D02*
X0279357Y0293237D01*
X0284651Y0293237D01*
X0284651Y0291977D01*
X0284651Y0292396D02*
X0279357Y0292396D01*
X0279357Y0292815D02*
X0284651Y0292815D01*
X0284651Y0293234D02*
X0279357Y0293234D01*
X0279357Y0293945D02*
X0284651Y0293945D01*
X0279357Y0293945D02*
X0279357Y0295205D01*
X0284651Y0295205D01*
X0284651Y0293945D01*
X0284651Y0294364D02*
X0279357Y0294364D01*
X0279357Y0294783D02*
X0284651Y0294783D01*
X0284651Y0295202D02*
X0279357Y0295202D01*
X0279357Y0295914D02*
X0284651Y0295914D01*
X0279357Y0295914D02*
X0279357Y0297174D01*
X0284651Y0297174D01*
X0284651Y0295914D01*
X0284651Y0296333D02*
X0279357Y0296333D01*
X0279357Y0296752D02*
X0284651Y0296752D01*
X0284651Y0297171D02*
X0279357Y0297171D01*
X0279357Y0297882D02*
X0284651Y0297882D01*
X0279357Y0297882D02*
X0279357Y0299142D01*
X0284651Y0299142D01*
X0284651Y0297882D01*
X0284651Y0298301D02*
X0279357Y0298301D01*
X0279357Y0298720D02*
X0284651Y0298720D01*
X0284651Y0299139D02*
X0279357Y0299139D01*
X0279357Y0299851D02*
X0284651Y0299851D01*
X0279357Y0299851D02*
X0279357Y0301111D01*
X0284651Y0301111D01*
X0284651Y0299851D01*
X0284651Y0300270D02*
X0279357Y0300270D01*
X0279357Y0300689D02*
X0284651Y0300689D01*
X0284651Y0301108D02*
X0279357Y0301108D01*
X0279357Y0301819D02*
X0284651Y0301819D01*
X0279357Y0301819D02*
X0279357Y0303079D01*
X0284651Y0303079D01*
X0284651Y0301819D01*
X0284651Y0302238D02*
X0279357Y0302238D01*
X0279357Y0302657D02*
X0284651Y0302657D01*
X0284651Y0303076D02*
X0279357Y0303076D01*
X0279357Y0303788D02*
X0284651Y0303788D01*
X0279357Y0303788D02*
X0279357Y0305048D01*
X0284651Y0305048D01*
X0284651Y0303788D01*
X0284651Y0304207D02*
X0279357Y0304207D01*
X0279357Y0304626D02*
X0284651Y0304626D01*
X0284651Y0305045D02*
X0279357Y0305045D01*
X0279357Y0305756D02*
X0284651Y0305756D01*
X0279357Y0305756D02*
X0279357Y0307016D01*
X0284651Y0307016D01*
X0284651Y0305756D01*
X0284651Y0306175D02*
X0279357Y0306175D01*
X0279357Y0306594D02*
X0284651Y0306594D01*
X0284651Y0307013D02*
X0279357Y0307013D01*
X0279357Y0307725D02*
X0284651Y0307725D01*
X0279357Y0307725D02*
X0279357Y0308985D01*
X0284651Y0308985D01*
X0284651Y0307725D01*
X0284651Y0308144D02*
X0279357Y0308144D01*
X0279357Y0308563D02*
X0284651Y0308563D01*
X0284651Y0308982D02*
X0279357Y0308982D01*
X0279357Y0309693D02*
X0284651Y0309693D01*
X0279357Y0309693D02*
X0279357Y0310953D01*
X0284651Y0310953D01*
X0284651Y0309693D01*
X0284651Y0310112D02*
X0279357Y0310112D01*
X0279357Y0310531D02*
X0284651Y0310531D01*
X0284651Y0310950D02*
X0279357Y0310950D01*
X0279357Y0311662D02*
X0284651Y0311662D01*
X0279357Y0311662D02*
X0279357Y0312922D01*
X0284651Y0312922D01*
X0284651Y0311662D01*
X0284651Y0312081D02*
X0279357Y0312081D01*
X0279357Y0312500D02*
X0284651Y0312500D01*
X0284651Y0312919D02*
X0279357Y0312919D01*
X0279357Y0313630D02*
X0284651Y0313630D01*
X0279357Y0313630D02*
X0279357Y0314890D01*
X0284651Y0314890D01*
X0284651Y0313630D01*
X0284651Y0314049D02*
X0279357Y0314049D01*
X0279357Y0314468D02*
X0284651Y0314468D01*
X0284651Y0314887D02*
X0279357Y0314887D01*
X0279357Y0315599D02*
X0284651Y0315599D01*
X0279357Y0315599D02*
X0279357Y0316859D01*
X0284651Y0316859D01*
X0284651Y0315599D01*
X0284651Y0316018D02*
X0279357Y0316018D01*
X0279357Y0316437D02*
X0284651Y0316437D01*
X0284651Y0316856D02*
X0279357Y0316856D01*
X0288854Y0321062D02*
X0288854Y0326356D01*
X0290114Y0326356D01*
X0290114Y0321062D01*
X0288854Y0321062D01*
X0288854Y0321481D02*
X0290114Y0321481D01*
X0290114Y0321900D02*
X0288854Y0321900D01*
X0288854Y0322319D02*
X0290114Y0322319D01*
X0290114Y0322738D02*
X0288854Y0322738D01*
X0288854Y0323157D02*
X0290114Y0323157D01*
X0290114Y0323576D02*
X0288854Y0323576D01*
X0288854Y0323995D02*
X0290114Y0323995D01*
X0290114Y0324414D02*
X0288854Y0324414D01*
X0288854Y0324833D02*
X0290114Y0324833D01*
X0290114Y0325252D02*
X0288854Y0325252D01*
X0288854Y0325671D02*
X0290114Y0325671D01*
X0290114Y0326090D02*
X0288854Y0326090D01*
X0290823Y0326356D02*
X0290823Y0321062D01*
X0290823Y0326356D02*
X0292083Y0326356D01*
X0292083Y0321062D01*
X0290823Y0321062D01*
X0290823Y0321481D02*
X0292083Y0321481D01*
X0292083Y0321900D02*
X0290823Y0321900D01*
X0290823Y0322319D02*
X0292083Y0322319D01*
X0292083Y0322738D02*
X0290823Y0322738D01*
X0290823Y0323157D02*
X0292083Y0323157D01*
X0292083Y0323576D02*
X0290823Y0323576D01*
X0290823Y0323995D02*
X0292083Y0323995D01*
X0292083Y0324414D02*
X0290823Y0324414D01*
X0290823Y0324833D02*
X0292083Y0324833D01*
X0292083Y0325252D02*
X0290823Y0325252D01*
X0290823Y0325671D02*
X0292083Y0325671D01*
X0292083Y0326090D02*
X0290823Y0326090D01*
X0292791Y0326356D02*
X0292791Y0321062D01*
X0292791Y0326356D02*
X0294051Y0326356D01*
X0294051Y0321062D01*
X0292791Y0321062D01*
X0292791Y0321481D02*
X0294051Y0321481D01*
X0294051Y0321900D02*
X0292791Y0321900D01*
X0292791Y0322319D02*
X0294051Y0322319D01*
X0294051Y0322738D02*
X0292791Y0322738D01*
X0292791Y0323157D02*
X0294051Y0323157D01*
X0294051Y0323576D02*
X0292791Y0323576D01*
X0292791Y0323995D02*
X0294051Y0323995D01*
X0294051Y0324414D02*
X0292791Y0324414D01*
X0292791Y0324833D02*
X0294051Y0324833D01*
X0294051Y0325252D02*
X0292791Y0325252D01*
X0292791Y0325671D02*
X0294051Y0325671D01*
X0294051Y0326090D02*
X0292791Y0326090D01*
X0294760Y0326356D02*
X0294760Y0321062D01*
X0294760Y0326356D02*
X0296020Y0326356D01*
X0296020Y0321062D01*
X0294760Y0321062D01*
X0294760Y0321481D02*
X0296020Y0321481D01*
X0296020Y0321900D02*
X0294760Y0321900D01*
X0294760Y0322319D02*
X0296020Y0322319D01*
X0296020Y0322738D02*
X0294760Y0322738D01*
X0294760Y0323157D02*
X0296020Y0323157D01*
X0296020Y0323576D02*
X0294760Y0323576D01*
X0294760Y0323995D02*
X0296020Y0323995D01*
X0296020Y0324414D02*
X0294760Y0324414D01*
X0294760Y0324833D02*
X0296020Y0324833D01*
X0296020Y0325252D02*
X0294760Y0325252D01*
X0294760Y0325671D02*
X0296020Y0325671D01*
X0296020Y0326090D02*
X0294760Y0326090D01*
X0296728Y0326356D02*
X0296728Y0321062D01*
X0296728Y0326356D02*
X0297988Y0326356D01*
X0297988Y0321062D01*
X0296728Y0321062D01*
X0296728Y0321481D02*
X0297988Y0321481D01*
X0297988Y0321900D02*
X0296728Y0321900D01*
X0296728Y0322319D02*
X0297988Y0322319D01*
X0297988Y0322738D02*
X0296728Y0322738D01*
X0296728Y0323157D02*
X0297988Y0323157D01*
X0297988Y0323576D02*
X0296728Y0323576D01*
X0296728Y0323995D02*
X0297988Y0323995D01*
X0297988Y0324414D02*
X0296728Y0324414D01*
X0296728Y0324833D02*
X0297988Y0324833D01*
X0297988Y0325252D02*
X0296728Y0325252D01*
X0296728Y0325671D02*
X0297988Y0325671D01*
X0297988Y0326090D02*
X0296728Y0326090D01*
X0298697Y0326356D02*
X0298697Y0321062D01*
X0298697Y0326356D02*
X0299957Y0326356D01*
X0299957Y0321062D01*
X0298697Y0321062D01*
X0298697Y0321481D02*
X0299957Y0321481D01*
X0299957Y0321900D02*
X0298697Y0321900D01*
X0298697Y0322319D02*
X0299957Y0322319D01*
X0299957Y0322738D02*
X0298697Y0322738D01*
X0298697Y0323157D02*
X0299957Y0323157D01*
X0299957Y0323576D02*
X0298697Y0323576D01*
X0298697Y0323995D02*
X0299957Y0323995D01*
X0299957Y0324414D02*
X0298697Y0324414D01*
X0298697Y0324833D02*
X0299957Y0324833D01*
X0299957Y0325252D02*
X0298697Y0325252D01*
X0298697Y0325671D02*
X0299957Y0325671D01*
X0299957Y0326090D02*
X0298697Y0326090D01*
X0300665Y0326356D02*
X0300665Y0321062D01*
X0300665Y0326356D02*
X0301925Y0326356D01*
X0301925Y0321062D01*
X0300665Y0321062D01*
X0300665Y0321481D02*
X0301925Y0321481D01*
X0301925Y0321900D02*
X0300665Y0321900D01*
X0300665Y0322319D02*
X0301925Y0322319D01*
X0301925Y0322738D02*
X0300665Y0322738D01*
X0300665Y0323157D02*
X0301925Y0323157D01*
X0301925Y0323576D02*
X0300665Y0323576D01*
X0300665Y0323995D02*
X0301925Y0323995D01*
X0301925Y0324414D02*
X0300665Y0324414D01*
X0300665Y0324833D02*
X0301925Y0324833D01*
X0301925Y0325252D02*
X0300665Y0325252D01*
X0300665Y0325671D02*
X0301925Y0325671D01*
X0301925Y0326090D02*
X0300665Y0326090D01*
X0302634Y0326356D02*
X0302634Y0321062D01*
X0302634Y0326356D02*
X0303894Y0326356D01*
X0303894Y0321062D01*
X0302634Y0321062D01*
X0302634Y0321481D02*
X0303894Y0321481D01*
X0303894Y0321900D02*
X0302634Y0321900D01*
X0302634Y0322319D02*
X0303894Y0322319D01*
X0303894Y0322738D02*
X0302634Y0322738D01*
X0302634Y0323157D02*
X0303894Y0323157D01*
X0303894Y0323576D02*
X0302634Y0323576D01*
X0302634Y0323995D02*
X0303894Y0323995D01*
X0303894Y0324414D02*
X0302634Y0324414D01*
X0302634Y0324833D02*
X0303894Y0324833D01*
X0303894Y0325252D02*
X0302634Y0325252D01*
X0302634Y0325671D02*
X0303894Y0325671D01*
X0303894Y0326090D02*
X0302634Y0326090D01*
X0304602Y0326356D02*
X0304602Y0321062D01*
X0304602Y0326356D02*
X0305862Y0326356D01*
X0305862Y0321062D01*
X0304602Y0321062D01*
X0304602Y0321481D02*
X0305862Y0321481D01*
X0305862Y0321900D02*
X0304602Y0321900D01*
X0304602Y0322319D02*
X0305862Y0322319D01*
X0305862Y0322738D02*
X0304602Y0322738D01*
X0304602Y0323157D02*
X0305862Y0323157D01*
X0305862Y0323576D02*
X0304602Y0323576D01*
X0304602Y0323995D02*
X0305862Y0323995D01*
X0305862Y0324414D02*
X0304602Y0324414D01*
X0304602Y0324833D02*
X0305862Y0324833D01*
X0305862Y0325252D02*
X0304602Y0325252D01*
X0304602Y0325671D02*
X0305862Y0325671D01*
X0305862Y0326090D02*
X0304602Y0326090D01*
X0306571Y0326356D02*
X0306571Y0321062D01*
X0306571Y0326356D02*
X0307831Y0326356D01*
X0307831Y0321062D01*
X0306571Y0321062D01*
X0306571Y0321481D02*
X0307831Y0321481D01*
X0307831Y0321900D02*
X0306571Y0321900D01*
X0306571Y0322319D02*
X0307831Y0322319D01*
X0307831Y0322738D02*
X0306571Y0322738D01*
X0306571Y0323157D02*
X0307831Y0323157D01*
X0307831Y0323576D02*
X0306571Y0323576D01*
X0306571Y0323995D02*
X0307831Y0323995D01*
X0307831Y0324414D02*
X0306571Y0324414D01*
X0306571Y0324833D02*
X0307831Y0324833D01*
X0307831Y0325252D02*
X0306571Y0325252D01*
X0306571Y0325671D02*
X0307831Y0325671D01*
X0307831Y0326090D02*
X0306571Y0326090D01*
X0308539Y0326356D02*
X0308539Y0321062D01*
X0308539Y0326356D02*
X0309799Y0326356D01*
X0309799Y0321062D01*
X0308539Y0321062D01*
X0308539Y0321481D02*
X0309799Y0321481D01*
X0309799Y0321900D02*
X0308539Y0321900D01*
X0308539Y0322319D02*
X0309799Y0322319D01*
X0309799Y0322738D02*
X0308539Y0322738D01*
X0308539Y0323157D02*
X0309799Y0323157D01*
X0309799Y0323576D02*
X0308539Y0323576D01*
X0308539Y0323995D02*
X0309799Y0323995D01*
X0309799Y0324414D02*
X0308539Y0324414D01*
X0308539Y0324833D02*
X0309799Y0324833D01*
X0309799Y0325252D02*
X0308539Y0325252D01*
X0308539Y0325671D02*
X0309799Y0325671D01*
X0309799Y0326090D02*
X0308539Y0326090D01*
X0310508Y0326356D02*
X0310508Y0321062D01*
X0310508Y0326356D02*
X0311768Y0326356D01*
X0311768Y0321062D01*
X0310508Y0321062D01*
X0310508Y0321481D02*
X0311768Y0321481D01*
X0311768Y0321900D02*
X0310508Y0321900D01*
X0310508Y0322319D02*
X0311768Y0322319D01*
X0311768Y0322738D02*
X0310508Y0322738D01*
X0310508Y0323157D02*
X0311768Y0323157D01*
X0311768Y0323576D02*
X0310508Y0323576D01*
X0310508Y0323995D02*
X0311768Y0323995D01*
X0311768Y0324414D02*
X0310508Y0324414D01*
X0310508Y0324833D02*
X0311768Y0324833D01*
X0311768Y0325252D02*
X0310508Y0325252D01*
X0310508Y0325671D02*
X0311768Y0325671D01*
X0311768Y0326090D02*
X0310508Y0326090D01*
X0312476Y0326356D02*
X0312476Y0321062D01*
X0312476Y0326356D02*
X0313736Y0326356D01*
X0313736Y0321062D01*
X0312476Y0321062D01*
X0312476Y0321481D02*
X0313736Y0321481D01*
X0313736Y0321900D02*
X0312476Y0321900D01*
X0312476Y0322319D02*
X0313736Y0322319D01*
X0313736Y0322738D02*
X0312476Y0322738D01*
X0312476Y0323157D02*
X0313736Y0323157D01*
X0313736Y0323576D02*
X0312476Y0323576D01*
X0312476Y0323995D02*
X0313736Y0323995D01*
X0313736Y0324414D02*
X0312476Y0324414D01*
X0312476Y0324833D02*
X0313736Y0324833D01*
X0313736Y0325252D02*
X0312476Y0325252D01*
X0312476Y0325671D02*
X0313736Y0325671D01*
X0313736Y0326090D02*
X0312476Y0326090D01*
X0314445Y0326356D02*
X0314445Y0321062D01*
X0314445Y0326356D02*
X0315705Y0326356D01*
X0315705Y0321062D01*
X0314445Y0321062D01*
X0314445Y0321481D02*
X0315705Y0321481D01*
X0315705Y0321900D02*
X0314445Y0321900D01*
X0314445Y0322319D02*
X0315705Y0322319D01*
X0315705Y0322738D02*
X0314445Y0322738D01*
X0314445Y0323157D02*
X0315705Y0323157D01*
X0315705Y0323576D02*
X0314445Y0323576D01*
X0314445Y0323995D02*
X0315705Y0323995D01*
X0315705Y0324414D02*
X0314445Y0324414D01*
X0314445Y0324833D02*
X0315705Y0324833D01*
X0315705Y0325252D02*
X0314445Y0325252D01*
X0314445Y0325671D02*
X0315705Y0325671D01*
X0315705Y0326090D02*
X0314445Y0326090D01*
X0316413Y0326356D02*
X0316413Y0321062D01*
X0316413Y0326356D02*
X0317673Y0326356D01*
X0317673Y0321062D01*
X0316413Y0321062D01*
X0316413Y0321481D02*
X0317673Y0321481D01*
X0317673Y0321900D02*
X0316413Y0321900D01*
X0316413Y0322319D02*
X0317673Y0322319D01*
X0317673Y0322738D02*
X0316413Y0322738D01*
X0316413Y0323157D02*
X0317673Y0323157D01*
X0317673Y0323576D02*
X0316413Y0323576D01*
X0316413Y0323995D02*
X0317673Y0323995D01*
X0317673Y0324414D02*
X0316413Y0324414D01*
X0316413Y0324833D02*
X0317673Y0324833D01*
X0317673Y0325252D02*
X0316413Y0325252D01*
X0316413Y0325671D02*
X0317673Y0325671D01*
X0317673Y0326090D02*
X0316413Y0326090D01*
X0318382Y0326356D02*
X0318382Y0321062D01*
X0318382Y0326356D02*
X0319642Y0326356D01*
X0319642Y0321062D01*
X0318382Y0321062D01*
X0318382Y0321481D02*
X0319642Y0321481D01*
X0319642Y0321900D02*
X0318382Y0321900D01*
X0318382Y0322319D02*
X0319642Y0322319D01*
X0319642Y0322738D02*
X0318382Y0322738D01*
X0318382Y0323157D02*
X0319642Y0323157D01*
X0319642Y0323576D02*
X0318382Y0323576D01*
X0318382Y0323995D02*
X0319642Y0323995D01*
X0319642Y0324414D02*
X0318382Y0324414D01*
X0318382Y0324833D02*
X0319642Y0324833D01*
X0319642Y0325252D02*
X0318382Y0325252D01*
X0318382Y0325671D02*
X0319642Y0325671D01*
X0319642Y0326090D02*
X0318382Y0326090D01*
X0320350Y0326356D02*
X0320350Y0321062D01*
X0320350Y0326356D02*
X0321610Y0326356D01*
X0321610Y0321062D01*
X0320350Y0321062D01*
X0320350Y0321481D02*
X0321610Y0321481D01*
X0321610Y0321900D02*
X0320350Y0321900D01*
X0320350Y0322319D02*
X0321610Y0322319D01*
X0321610Y0322738D02*
X0320350Y0322738D01*
X0320350Y0323157D02*
X0321610Y0323157D01*
X0321610Y0323576D02*
X0320350Y0323576D01*
X0320350Y0323995D02*
X0321610Y0323995D01*
X0321610Y0324414D02*
X0320350Y0324414D01*
X0320350Y0324833D02*
X0321610Y0324833D01*
X0321610Y0325252D02*
X0320350Y0325252D01*
X0320350Y0325671D02*
X0321610Y0325671D01*
X0321610Y0326090D02*
X0320350Y0326090D01*
X0322319Y0326356D02*
X0322319Y0321062D01*
X0322319Y0326356D02*
X0323579Y0326356D01*
X0323579Y0321062D01*
X0322319Y0321062D01*
X0322319Y0321481D02*
X0323579Y0321481D01*
X0323579Y0321900D02*
X0322319Y0321900D01*
X0322319Y0322319D02*
X0323579Y0322319D01*
X0323579Y0322738D02*
X0322319Y0322738D01*
X0322319Y0323157D02*
X0323579Y0323157D01*
X0323579Y0323576D02*
X0322319Y0323576D01*
X0322319Y0323995D02*
X0323579Y0323995D01*
X0323579Y0324414D02*
X0322319Y0324414D01*
X0322319Y0324833D02*
X0323579Y0324833D01*
X0323579Y0325252D02*
X0322319Y0325252D01*
X0322319Y0325671D02*
X0323579Y0325671D01*
X0323579Y0326090D02*
X0322319Y0326090D01*
X0324287Y0326356D02*
X0324287Y0321062D01*
X0324287Y0326356D02*
X0325547Y0326356D01*
X0325547Y0321062D01*
X0324287Y0321062D01*
X0324287Y0321481D02*
X0325547Y0321481D01*
X0325547Y0321900D02*
X0324287Y0321900D01*
X0324287Y0322319D02*
X0325547Y0322319D01*
X0325547Y0322738D02*
X0324287Y0322738D01*
X0324287Y0323157D02*
X0325547Y0323157D01*
X0325547Y0323576D02*
X0324287Y0323576D01*
X0324287Y0323995D02*
X0325547Y0323995D01*
X0325547Y0324414D02*
X0324287Y0324414D01*
X0324287Y0324833D02*
X0325547Y0324833D01*
X0325547Y0325252D02*
X0324287Y0325252D01*
X0324287Y0325671D02*
X0325547Y0325671D01*
X0325547Y0326090D02*
X0324287Y0326090D01*
X0326256Y0326356D02*
X0326256Y0321062D01*
X0326256Y0326356D02*
X0327516Y0326356D01*
X0327516Y0321062D01*
X0326256Y0321062D01*
X0326256Y0321481D02*
X0327516Y0321481D01*
X0327516Y0321900D02*
X0326256Y0321900D01*
X0326256Y0322319D02*
X0327516Y0322319D01*
X0327516Y0322738D02*
X0326256Y0322738D01*
X0326256Y0323157D02*
X0327516Y0323157D01*
X0327516Y0323576D02*
X0326256Y0323576D01*
X0326256Y0323995D02*
X0327516Y0323995D01*
X0327516Y0324414D02*
X0326256Y0324414D01*
X0326256Y0324833D02*
X0327516Y0324833D01*
X0327516Y0325252D02*
X0326256Y0325252D01*
X0326256Y0325671D02*
X0327516Y0325671D01*
X0327516Y0326090D02*
X0326256Y0326090D01*
X0328224Y0326356D02*
X0328224Y0321062D01*
X0328224Y0326356D02*
X0329484Y0326356D01*
X0329484Y0321062D01*
X0328224Y0321062D01*
X0328224Y0321481D02*
X0329484Y0321481D01*
X0329484Y0321900D02*
X0328224Y0321900D01*
X0328224Y0322319D02*
X0329484Y0322319D01*
X0329484Y0322738D02*
X0328224Y0322738D01*
X0328224Y0323157D02*
X0329484Y0323157D01*
X0329484Y0323576D02*
X0328224Y0323576D01*
X0328224Y0323995D02*
X0329484Y0323995D01*
X0329484Y0324414D02*
X0328224Y0324414D01*
X0328224Y0324833D02*
X0329484Y0324833D01*
X0329484Y0325252D02*
X0328224Y0325252D01*
X0328224Y0325671D02*
X0329484Y0325671D01*
X0329484Y0326090D02*
X0328224Y0326090D01*
X0330193Y0326356D02*
X0330193Y0321062D01*
X0330193Y0326356D02*
X0331453Y0326356D01*
X0331453Y0321062D01*
X0330193Y0321062D01*
X0330193Y0321481D02*
X0331453Y0321481D01*
X0331453Y0321900D02*
X0330193Y0321900D01*
X0330193Y0322319D02*
X0331453Y0322319D01*
X0331453Y0322738D02*
X0330193Y0322738D01*
X0330193Y0323157D02*
X0331453Y0323157D01*
X0331453Y0323576D02*
X0330193Y0323576D01*
X0330193Y0323995D02*
X0331453Y0323995D01*
X0331453Y0324414D02*
X0330193Y0324414D01*
X0330193Y0324833D02*
X0331453Y0324833D01*
X0331453Y0325252D02*
X0330193Y0325252D01*
X0330193Y0325671D02*
X0331453Y0325671D01*
X0331453Y0326090D02*
X0330193Y0326090D01*
X0332161Y0326356D02*
X0332161Y0321062D01*
X0332161Y0326356D02*
X0333421Y0326356D01*
X0333421Y0321062D01*
X0332161Y0321062D01*
X0332161Y0321481D02*
X0333421Y0321481D01*
X0333421Y0321900D02*
X0332161Y0321900D01*
X0332161Y0322319D02*
X0333421Y0322319D01*
X0333421Y0322738D02*
X0332161Y0322738D01*
X0332161Y0323157D02*
X0333421Y0323157D01*
X0333421Y0323576D02*
X0332161Y0323576D01*
X0332161Y0323995D02*
X0333421Y0323995D01*
X0333421Y0324414D02*
X0332161Y0324414D01*
X0332161Y0324833D02*
X0333421Y0324833D01*
X0333421Y0325252D02*
X0332161Y0325252D01*
X0332161Y0325671D02*
X0333421Y0325671D01*
X0333421Y0326090D02*
X0332161Y0326090D01*
X0334130Y0326356D02*
X0334130Y0321062D01*
X0334130Y0326356D02*
X0335390Y0326356D01*
X0335390Y0321062D01*
X0334130Y0321062D01*
X0334130Y0321481D02*
X0335390Y0321481D01*
X0335390Y0321900D02*
X0334130Y0321900D01*
X0334130Y0322319D02*
X0335390Y0322319D01*
X0335390Y0322738D02*
X0334130Y0322738D01*
X0334130Y0323157D02*
X0335390Y0323157D01*
X0335390Y0323576D02*
X0334130Y0323576D01*
X0334130Y0323995D02*
X0335390Y0323995D01*
X0335390Y0324414D02*
X0334130Y0324414D01*
X0334130Y0324833D02*
X0335390Y0324833D01*
X0335390Y0325252D02*
X0334130Y0325252D01*
X0334130Y0325671D02*
X0335390Y0325671D01*
X0335390Y0326090D02*
X0334130Y0326090D01*
X0336098Y0326356D02*
X0336098Y0321062D01*
X0336098Y0326356D02*
X0337358Y0326356D01*
X0337358Y0321062D01*
X0336098Y0321062D01*
X0336098Y0321481D02*
X0337358Y0321481D01*
X0337358Y0321900D02*
X0336098Y0321900D01*
X0336098Y0322319D02*
X0337358Y0322319D01*
X0337358Y0322738D02*
X0336098Y0322738D01*
X0336098Y0323157D02*
X0337358Y0323157D01*
X0337358Y0323576D02*
X0336098Y0323576D01*
X0336098Y0323995D02*
X0337358Y0323995D01*
X0337358Y0324414D02*
X0336098Y0324414D01*
X0336098Y0324833D02*
X0337358Y0324833D01*
X0337358Y0325252D02*
X0336098Y0325252D01*
X0336098Y0325671D02*
X0337358Y0325671D01*
X0337358Y0326090D02*
X0336098Y0326090D01*
X0338067Y0326356D02*
X0338067Y0321062D01*
X0338067Y0326356D02*
X0339327Y0326356D01*
X0339327Y0321062D01*
X0338067Y0321062D01*
X0338067Y0321481D02*
X0339327Y0321481D01*
X0339327Y0321900D02*
X0338067Y0321900D01*
X0338067Y0322319D02*
X0339327Y0322319D01*
X0339327Y0322738D02*
X0338067Y0322738D01*
X0338067Y0323157D02*
X0339327Y0323157D01*
X0339327Y0323576D02*
X0338067Y0323576D01*
X0338067Y0323995D02*
X0339327Y0323995D01*
X0339327Y0324414D02*
X0338067Y0324414D01*
X0338067Y0324833D02*
X0339327Y0324833D01*
X0339327Y0325252D02*
X0338067Y0325252D01*
X0338067Y0325671D02*
X0339327Y0325671D01*
X0339327Y0326090D02*
X0338067Y0326090D01*
X0340035Y0326356D02*
X0340035Y0321062D01*
X0340035Y0326356D02*
X0341295Y0326356D01*
X0341295Y0321062D01*
X0340035Y0321062D01*
X0340035Y0321481D02*
X0341295Y0321481D01*
X0341295Y0321900D02*
X0340035Y0321900D01*
X0340035Y0322319D02*
X0341295Y0322319D01*
X0341295Y0322738D02*
X0340035Y0322738D01*
X0340035Y0323157D02*
X0341295Y0323157D01*
X0341295Y0323576D02*
X0340035Y0323576D01*
X0340035Y0323995D02*
X0341295Y0323995D01*
X0341295Y0324414D02*
X0340035Y0324414D01*
X0340035Y0324833D02*
X0341295Y0324833D01*
X0341295Y0325252D02*
X0340035Y0325252D01*
X0340035Y0325671D02*
X0341295Y0325671D01*
X0341295Y0326090D02*
X0340035Y0326090D01*
X0342004Y0326356D02*
X0342004Y0321062D01*
X0342004Y0326356D02*
X0343264Y0326356D01*
X0343264Y0321062D01*
X0342004Y0321062D01*
X0342004Y0321481D02*
X0343264Y0321481D01*
X0343264Y0321900D02*
X0342004Y0321900D01*
X0342004Y0322319D02*
X0343264Y0322319D01*
X0343264Y0322738D02*
X0342004Y0322738D01*
X0342004Y0323157D02*
X0343264Y0323157D01*
X0343264Y0323576D02*
X0342004Y0323576D01*
X0342004Y0323995D02*
X0343264Y0323995D01*
X0343264Y0324414D02*
X0342004Y0324414D01*
X0342004Y0324833D02*
X0343264Y0324833D01*
X0343264Y0325252D02*
X0342004Y0325252D01*
X0342004Y0325671D02*
X0343264Y0325671D01*
X0343264Y0326090D02*
X0342004Y0326090D01*
X0343972Y0326356D02*
X0343972Y0321062D01*
X0343972Y0326356D02*
X0345232Y0326356D01*
X0345232Y0321062D01*
X0343972Y0321062D01*
X0343972Y0321481D02*
X0345232Y0321481D01*
X0345232Y0321900D02*
X0343972Y0321900D01*
X0343972Y0322319D02*
X0345232Y0322319D01*
X0345232Y0322738D02*
X0343972Y0322738D01*
X0343972Y0323157D02*
X0345232Y0323157D01*
X0345232Y0323576D02*
X0343972Y0323576D01*
X0343972Y0323995D02*
X0345232Y0323995D01*
X0345232Y0324414D02*
X0343972Y0324414D01*
X0343972Y0324833D02*
X0345232Y0324833D01*
X0345232Y0325252D02*
X0343972Y0325252D01*
X0343972Y0325671D02*
X0345232Y0325671D01*
X0345232Y0326090D02*
X0343972Y0326090D01*
X0345941Y0326356D02*
X0345941Y0321062D01*
X0345941Y0326356D02*
X0347201Y0326356D01*
X0347201Y0321062D01*
X0345941Y0321062D01*
X0345941Y0321481D02*
X0347201Y0321481D01*
X0347201Y0321900D02*
X0345941Y0321900D01*
X0345941Y0322319D02*
X0347201Y0322319D01*
X0347201Y0322738D02*
X0345941Y0322738D01*
X0345941Y0323157D02*
X0347201Y0323157D01*
X0347201Y0323576D02*
X0345941Y0323576D01*
X0345941Y0323995D02*
X0347201Y0323995D01*
X0347201Y0324414D02*
X0345941Y0324414D01*
X0345941Y0324833D02*
X0347201Y0324833D01*
X0347201Y0325252D02*
X0345941Y0325252D01*
X0345941Y0325671D02*
X0347201Y0325671D01*
X0347201Y0326090D02*
X0345941Y0326090D01*
X0347909Y0326356D02*
X0347909Y0321062D01*
X0347909Y0326356D02*
X0349169Y0326356D01*
X0349169Y0321062D01*
X0347909Y0321062D01*
X0347909Y0321481D02*
X0349169Y0321481D01*
X0349169Y0321900D02*
X0347909Y0321900D01*
X0347909Y0322319D02*
X0349169Y0322319D01*
X0349169Y0322738D02*
X0347909Y0322738D01*
X0347909Y0323157D02*
X0349169Y0323157D01*
X0349169Y0323576D02*
X0347909Y0323576D01*
X0347909Y0323995D02*
X0349169Y0323995D01*
X0349169Y0324414D02*
X0347909Y0324414D01*
X0347909Y0324833D02*
X0349169Y0324833D01*
X0349169Y0325252D02*
X0347909Y0325252D01*
X0347909Y0325671D02*
X0349169Y0325671D01*
X0349169Y0326090D02*
X0347909Y0326090D01*
X0349878Y0326356D02*
X0349878Y0321062D01*
X0349878Y0326356D02*
X0351138Y0326356D01*
X0351138Y0321062D01*
X0349878Y0321062D01*
X0349878Y0321481D02*
X0351138Y0321481D01*
X0351138Y0321900D02*
X0349878Y0321900D01*
X0349878Y0322319D02*
X0351138Y0322319D01*
X0351138Y0322738D02*
X0349878Y0322738D01*
X0349878Y0323157D02*
X0351138Y0323157D01*
X0351138Y0323576D02*
X0349878Y0323576D01*
X0349878Y0323995D02*
X0351138Y0323995D01*
X0351138Y0324414D02*
X0349878Y0324414D01*
X0349878Y0324833D02*
X0351138Y0324833D01*
X0351138Y0325252D02*
X0349878Y0325252D01*
X0349878Y0325671D02*
X0351138Y0325671D01*
X0351138Y0326090D02*
X0349878Y0326090D01*
X0351846Y0326356D02*
X0351846Y0321062D01*
X0351846Y0326356D02*
X0353106Y0326356D01*
X0353106Y0321062D01*
X0351846Y0321062D01*
X0351846Y0321481D02*
X0353106Y0321481D01*
X0353106Y0321900D02*
X0351846Y0321900D01*
X0351846Y0322319D02*
X0353106Y0322319D01*
X0353106Y0322738D02*
X0351846Y0322738D01*
X0351846Y0323157D02*
X0353106Y0323157D01*
X0353106Y0323576D02*
X0351846Y0323576D01*
X0351846Y0323995D02*
X0353106Y0323995D01*
X0353106Y0324414D02*
X0351846Y0324414D01*
X0351846Y0324833D02*
X0353106Y0324833D01*
X0353106Y0325252D02*
X0351846Y0325252D01*
X0351846Y0325671D02*
X0353106Y0325671D01*
X0353106Y0326090D02*
X0351846Y0326090D01*
X0353815Y0326356D02*
X0353815Y0321062D01*
X0353815Y0326356D02*
X0355075Y0326356D01*
X0355075Y0321062D01*
X0353815Y0321062D01*
X0353815Y0321481D02*
X0355075Y0321481D01*
X0355075Y0321900D02*
X0353815Y0321900D01*
X0353815Y0322319D02*
X0355075Y0322319D01*
X0355075Y0322738D02*
X0353815Y0322738D01*
X0353815Y0323157D02*
X0355075Y0323157D01*
X0355075Y0323576D02*
X0353815Y0323576D01*
X0353815Y0323995D02*
X0355075Y0323995D01*
X0355075Y0324414D02*
X0353815Y0324414D01*
X0353815Y0324833D02*
X0355075Y0324833D01*
X0355075Y0325252D02*
X0353815Y0325252D01*
X0353815Y0325671D02*
X0355075Y0325671D01*
X0355075Y0326090D02*
X0353815Y0326090D01*
X0355783Y0326356D02*
X0355783Y0321062D01*
X0355783Y0326356D02*
X0357043Y0326356D01*
X0357043Y0321062D01*
X0355783Y0321062D01*
X0355783Y0321481D02*
X0357043Y0321481D01*
X0357043Y0321900D02*
X0355783Y0321900D01*
X0355783Y0322319D02*
X0357043Y0322319D01*
X0357043Y0322738D02*
X0355783Y0322738D01*
X0355783Y0323157D02*
X0357043Y0323157D01*
X0357043Y0323576D02*
X0355783Y0323576D01*
X0355783Y0323995D02*
X0357043Y0323995D01*
X0357043Y0324414D02*
X0355783Y0324414D01*
X0355783Y0324833D02*
X0357043Y0324833D01*
X0357043Y0325252D02*
X0355783Y0325252D01*
X0355783Y0325671D02*
X0357043Y0325671D01*
X0357043Y0326090D02*
X0355783Y0326090D01*
X0357752Y0326356D02*
X0357752Y0321062D01*
X0357752Y0326356D02*
X0359012Y0326356D01*
X0359012Y0321062D01*
X0357752Y0321062D01*
X0357752Y0321481D02*
X0359012Y0321481D01*
X0359012Y0321900D02*
X0357752Y0321900D01*
X0357752Y0322319D02*
X0359012Y0322319D01*
X0359012Y0322738D02*
X0357752Y0322738D01*
X0357752Y0323157D02*
X0359012Y0323157D01*
X0359012Y0323576D02*
X0357752Y0323576D01*
X0357752Y0323995D02*
X0359012Y0323995D01*
X0359012Y0324414D02*
X0357752Y0324414D01*
X0357752Y0324833D02*
X0359012Y0324833D01*
X0359012Y0325252D02*
X0357752Y0325252D01*
X0357752Y0325671D02*
X0359012Y0325671D01*
X0359012Y0326090D02*
X0357752Y0326090D01*
X0363215Y0316859D02*
X0368509Y0316859D01*
X0368509Y0315599D01*
X0363215Y0315599D01*
X0363215Y0316859D01*
X0363215Y0316018D02*
X0368509Y0316018D01*
X0368509Y0316437D02*
X0363215Y0316437D01*
X0363215Y0316856D02*
X0368509Y0316856D01*
X0368509Y0314890D02*
X0363215Y0314890D01*
X0368509Y0314890D02*
X0368509Y0313630D01*
X0363215Y0313630D01*
X0363215Y0314890D01*
X0363215Y0314049D02*
X0368509Y0314049D01*
X0368509Y0314468D02*
X0363215Y0314468D01*
X0363215Y0314887D02*
X0368509Y0314887D01*
X0368509Y0312922D02*
X0363215Y0312922D01*
X0368509Y0312922D02*
X0368509Y0311662D01*
X0363215Y0311662D01*
X0363215Y0312922D01*
X0363215Y0312081D02*
X0368509Y0312081D01*
X0368509Y0312500D02*
X0363215Y0312500D01*
X0363215Y0312919D02*
X0368509Y0312919D01*
X0368509Y0310953D02*
X0363215Y0310953D01*
X0368509Y0310953D02*
X0368509Y0309693D01*
X0363215Y0309693D01*
X0363215Y0310953D01*
X0363215Y0310112D02*
X0368509Y0310112D01*
X0368509Y0310531D02*
X0363215Y0310531D01*
X0363215Y0310950D02*
X0368509Y0310950D01*
X0368509Y0308985D02*
X0363215Y0308985D01*
X0368509Y0308985D02*
X0368509Y0307725D01*
X0363215Y0307725D01*
X0363215Y0308985D01*
X0363215Y0308144D02*
X0368509Y0308144D01*
X0368509Y0308563D02*
X0363215Y0308563D01*
X0363215Y0308982D02*
X0368509Y0308982D01*
X0368509Y0307016D02*
X0363215Y0307016D01*
X0368509Y0307016D02*
X0368509Y0305756D01*
X0363215Y0305756D01*
X0363215Y0307016D01*
X0363215Y0306175D02*
X0368509Y0306175D01*
X0368509Y0306594D02*
X0363215Y0306594D01*
X0363215Y0307013D02*
X0368509Y0307013D01*
X0368509Y0305048D02*
X0363215Y0305048D01*
X0368509Y0305048D02*
X0368509Y0303788D01*
X0363215Y0303788D01*
X0363215Y0305048D01*
X0363215Y0304207D02*
X0368509Y0304207D01*
X0368509Y0304626D02*
X0363215Y0304626D01*
X0363215Y0305045D02*
X0368509Y0305045D01*
X0368509Y0303079D02*
X0363215Y0303079D01*
X0368509Y0303079D02*
X0368509Y0301819D01*
X0363215Y0301819D01*
X0363215Y0303079D01*
X0363215Y0302238D02*
X0368509Y0302238D01*
X0368509Y0302657D02*
X0363215Y0302657D01*
X0363215Y0303076D02*
X0368509Y0303076D01*
X0368509Y0301111D02*
X0363215Y0301111D01*
X0368509Y0301111D02*
X0368509Y0299851D01*
X0363215Y0299851D01*
X0363215Y0301111D01*
X0363215Y0300270D02*
X0368509Y0300270D01*
X0368509Y0300689D02*
X0363215Y0300689D01*
X0363215Y0301108D02*
X0368509Y0301108D01*
X0368509Y0299142D02*
X0363215Y0299142D01*
X0368509Y0299142D02*
X0368509Y0297882D01*
X0363215Y0297882D01*
X0363215Y0299142D01*
X0363215Y0298301D02*
X0368509Y0298301D01*
X0368509Y0298720D02*
X0363215Y0298720D01*
X0363215Y0299139D02*
X0368509Y0299139D01*
X0368509Y0297174D02*
X0363215Y0297174D01*
X0368509Y0297174D02*
X0368509Y0295914D01*
X0363215Y0295914D01*
X0363215Y0297174D01*
X0363215Y0296333D02*
X0368509Y0296333D01*
X0368509Y0296752D02*
X0363215Y0296752D01*
X0363215Y0297171D02*
X0368509Y0297171D01*
X0368509Y0295205D02*
X0363215Y0295205D01*
X0368509Y0295205D02*
X0368509Y0293945D01*
X0363215Y0293945D01*
X0363215Y0295205D01*
X0363215Y0294364D02*
X0368509Y0294364D01*
X0368509Y0294783D02*
X0363215Y0294783D01*
X0363215Y0295202D02*
X0368509Y0295202D01*
X0368509Y0293237D02*
X0363215Y0293237D01*
X0368509Y0293237D02*
X0368509Y0291977D01*
X0363215Y0291977D01*
X0363215Y0293237D01*
X0363215Y0292396D02*
X0368509Y0292396D01*
X0368509Y0292815D02*
X0363215Y0292815D01*
X0363215Y0293234D02*
X0368509Y0293234D01*
X0368509Y0291268D02*
X0363215Y0291268D01*
X0368509Y0291268D02*
X0368509Y0290008D01*
X0363215Y0290008D01*
X0363215Y0291268D01*
X0363215Y0290427D02*
X0368509Y0290427D01*
X0368509Y0290846D02*
X0363215Y0290846D01*
X0363215Y0291265D02*
X0368509Y0291265D01*
X0368509Y0289300D02*
X0363215Y0289300D01*
X0368509Y0289300D02*
X0368509Y0288040D01*
X0363215Y0288040D01*
X0363215Y0289300D01*
X0363215Y0288459D02*
X0368509Y0288459D01*
X0368509Y0288878D02*
X0363215Y0288878D01*
X0363215Y0289297D02*
X0368509Y0289297D01*
X0368509Y0287331D02*
X0363215Y0287331D01*
X0368509Y0287331D02*
X0368509Y0286071D01*
X0363215Y0286071D01*
X0363215Y0287331D01*
X0363215Y0286490D02*
X0368509Y0286490D01*
X0368509Y0286909D02*
X0363215Y0286909D01*
X0363215Y0287328D02*
X0368509Y0287328D01*
X0368509Y0285363D02*
X0363215Y0285363D01*
X0368509Y0285363D02*
X0368509Y0284103D01*
X0363215Y0284103D01*
X0363215Y0285363D01*
X0363215Y0284522D02*
X0368509Y0284522D01*
X0368509Y0284941D02*
X0363215Y0284941D01*
X0363215Y0285360D02*
X0368509Y0285360D01*
X0368509Y0283394D02*
X0363215Y0283394D01*
X0368509Y0283394D02*
X0368509Y0282134D01*
X0363215Y0282134D01*
X0363215Y0283394D01*
X0363215Y0282553D02*
X0368509Y0282553D01*
X0368509Y0282972D02*
X0363215Y0282972D01*
X0363215Y0283391D02*
X0368509Y0283391D01*
X0368509Y0281426D02*
X0363215Y0281426D01*
X0368509Y0281426D02*
X0368509Y0280166D01*
X0363215Y0280166D01*
X0363215Y0281426D01*
X0363215Y0280585D02*
X0368509Y0280585D01*
X0368509Y0281004D02*
X0363215Y0281004D01*
X0363215Y0281423D02*
X0368509Y0281423D01*
X0368509Y0279457D02*
X0363215Y0279457D01*
X0368509Y0279457D02*
X0368509Y0278197D01*
X0363215Y0278197D01*
X0363215Y0279457D01*
X0363215Y0278616D02*
X0368509Y0278616D01*
X0368509Y0279035D02*
X0363215Y0279035D01*
X0363215Y0279454D02*
X0368509Y0279454D01*
X0368509Y0277489D02*
X0363215Y0277489D01*
X0368509Y0277489D02*
X0368509Y0276229D01*
X0363215Y0276229D01*
X0363215Y0277489D01*
X0363215Y0276648D02*
X0368509Y0276648D01*
X0368509Y0277067D02*
X0363215Y0277067D01*
X0363215Y0277486D02*
X0368509Y0277486D01*
X0368509Y0275520D02*
X0363215Y0275520D01*
X0368509Y0275520D02*
X0368509Y0274260D01*
X0363215Y0274260D01*
X0363215Y0275520D01*
X0363215Y0274679D02*
X0368509Y0274679D01*
X0368509Y0275098D02*
X0363215Y0275098D01*
X0363215Y0275517D02*
X0368509Y0275517D01*
X0368509Y0273552D02*
X0363215Y0273552D01*
X0368509Y0273552D02*
X0368509Y0272292D01*
X0363215Y0272292D01*
X0363215Y0273552D01*
X0363215Y0272711D02*
X0368509Y0272711D01*
X0368509Y0273130D02*
X0363215Y0273130D01*
X0363215Y0273549D02*
X0368509Y0273549D01*
X0368509Y0271583D02*
X0363215Y0271583D01*
X0368509Y0271583D02*
X0368509Y0270323D01*
X0363215Y0270323D01*
X0363215Y0271583D01*
X0363215Y0270742D02*
X0368509Y0270742D01*
X0368509Y0271161D02*
X0363215Y0271161D01*
X0363215Y0271580D02*
X0368509Y0271580D01*
X0368509Y0269615D02*
X0363215Y0269615D01*
X0368509Y0269615D02*
X0368509Y0268355D01*
X0363215Y0268355D01*
X0363215Y0269615D01*
X0363215Y0268774D02*
X0368509Y0268774D01*
X0368509Y0269193D02*
X0363215Y0269193D01*
X0363215Y0269612D02*
X0368509Y0269612D01*
X0368509Y0267646D02*
X0363215Y0267646D01*
X0368509Y0267646D02*
X0368509Y0266386D01*
X0363215Y0266386D01*
X0363215Y0267646D01*
X0363215Y0266805D02*
X0368509Y0266805D01*
X0368509Y0267224D02*
X0363215Y0267224D01*
X0363215Y0267643D02*
X0368509Y0267643D01*
X0368509Y0265678D02*
X0363215Y0265678D01*
X0368509Y0265678D02*
X0368509Y0264418D01*
X0363215Y0264418D01*
X0363215Y0265678D01*
X0363215Y0264837D02*
X0368509Y0264837D01*
X0368509Y0265256D02*
X0363215Y0265256D01*
X0363215Y0265675D02*
X0368509Y0265675D01*
X0368509Y0263709D02*
X0363215Y0263709D01*
X0368509Y0263709D02*
X0368509Y0262449D01*
X0363215Y0262449D01*
X0363215Y0263709D01*
X0363215Y0262868D02*
X0368509Y0262868D01*
X0368509Y0263287D02*
X0363215Y0263287D01*
X0363215Y0263706D02*
X0368509Y0263706D01*
X0368509Y0261741D02*
X0363215Y0261741D01*
X0368509Y0261741D02*
X0368509Y0260481D01*
X0363215Y0260481D01*
X0363215Y0261741D01*
X0363215Y0260900D02*
X0368509Y0260900D01*
X0368509Y0261319D02*
X0363215Y0261319D01*
X0363215Y0261738D02*
X0368509Y0261738D01*
X0368509Y0259772D02*
X0363215Y0259772D01*
X0368509Y0259772D02*
X0368509Y0258512D01*
X0363215Y0258512D01*
X0363215Y0259772D01*
X0363215Y0258931D02*
X0368509Y0258931D01*
X0368509Y0259350D02*
X0363215Y0259350D01*
X0363215Y0259769D02*
X0368509Y0259769D01*
X0368509Y0257804D02*
X0363215Y0257804D01*
X0368509Y0257804D02*
X0368509Y0256544D01*
X0363215Y0256544D01*
X0363215Y0257804D01*
X0363215Y0256963D02*
X0368509Y0256963D01*
X0368509Y0257382D02*
X0363215Y0257382D01*
X0363215Y0257801D02*
X0368509Y0257801D01*
X0368509Y0255835D02*
X0363215Y0255835D01*
X0368509Y0255835D02*
X0368509Y0254575D01*
X0363215Y0254575D01*
X0363215Y0255835D01*
X0363215Y0254994D02*
X0368509Y0254994D01*
X0368509Y0255413D02*
X0363215Y0255413D01*
X0363215Y0255832D02*
X0368509Y0255832D01*
X0368509Y0253867D02*
X0363215Y0253867D01*
X0368509Y0253867D02*
X0368509Y0252607D01*
X0363215Y0252607D01*
X0363215Y0253867D01*
X0363215Y0253026D02*
X0368509Y0253026D01*
X0368509Y0253445D02*
X0363215Y0253445D01*
X0363215Y0253864D02*
X0368509Y0253864D01*
X0368509Y0251898D02*
X0363215Y0251898D01*
X0368509Y0251898D02*
X0368509Y0250638D01*
X0363215Y0250638D01*
X0363215Y0251898D01*
X0363215Y0251057D02*
X0368509Y0251057D01*
X0368509Y0251476D02*
X0363215Y0251476D01*
X0363215Y0251895D02*
X0368509Y0251895D01*
X0368509Y0249929D02*
X0363215Y0249929D01*
X0368509Y0249929D02*
X0368509Y0248669D01*
X0363215Y0248669D01*
X0363215Y0249929D01*
X0363215Y0249088D02*
X0368509Y0249088D01*
X0368509Y0249507D02*
X0363215Y0249507D01*
X0363215Y0249926D02*
X0368509Y0249926D01*
X0368509Y0247961D02*
X0363215Y0247961D01*
X0368509Y0247961D02*
X0368509Y0246701D01*
X0363215Y0246701D01*
X0363215Y0247961D01*
X0363215Y0247120D02*
X0368509Y0247120D01*
X0368509Y0247539D02*
X0363215Y0247539D01*
X0363215Y0247958D02*
X0368509Y0247958D01*
X0359012Y0242498D02*
X0359012Y0237204D01*
X0357752Y0237204D01*
X0357752Y0242498D01*
X0359012Y0242498D01*
X0359012Y0237623D02*
X0357752Y0237623D01*
X0357752Y0238042D02*
X0359012Y0238042D01*
X0359012Y0238461D02*
X0357752Y0238461D01*
X0357752Y0238880D02*
X0359012Y0238880D01*
X0359012Y0239299D02*
X0357752Y0239299D01*
X0357752Y0239718D02*
X0359012Y0239718D01*
X0359012Y0240137D02*
X0357752Y0240137D01*
X0357752Y0240556D02*
X0359012Y0240556D01*
X0359012Y0240975D02*
X0357752Y0240975D01*
X0357752Y0241394D02*
X0359012Y0241394D01*
X0359012Y0241813D02*
X0357752Y0241813D01*
X0357752Y0242232D02*
X0359012Y0242232D01*
X0357043Y0242498D02*
X0357043Y0237204D01*
X0355783Y0237204D01*
X0355783Y0242498D01*
X0357043Y0242498D01*
X0357043Y0237623D02*
X0355783Y0237623D01*
X0355783Y0238042D02*
X0357043Y0238042D01*
X0357043Y0238461D02*
X0355783Y0238461D01*
X0355783Y0238880D02*
X0357043Y0238880D01*
X0357043Y0239299D02*
X0355783Y0239299D01*
X0355783Y0239718D02*
X0357043Y0239718D01*
X0357043Y0240137D02*
X0355783Y0240137D01*
X0355783Y0240556D02*
X0357043Y0240556D01*
X0357043Y0240975D02*
X0355783Y0240975D01*
X0355783Y0241394D02*
X0357043Y0241394D01*
X0357043Y0241813D02*
X0355783Y0241813D01*
X0355783Y0242232D02*
X0357043Y0242232D01*
X0355075Y0242498D02*
X0355075Y0237204D01*
X0353815Y0237204D01*
X0353815Y0242498D01*
X0355075Y0242498D01*
X0355075Y0237623D02*
X0353815Y0237623D01*
X0353815Y0238042D02*
X0355075Y0238042D01*
X0355075Y0238461D02*
X0353815Y0238461D01*
X0353815Y0238880D02*
X0355075Y0238880D01*
X0355075Y0239299D02*
X0353815Y0239299D01*
X0353815Y0239718D02*
X0355075Y0239718D01*
X0355075Y0240137D02*
X0353815Y0240137D01*
X0353815Y0240556D02*
X0355075Y0240556D01*
X0355075Y0240975D02*
X0353815Y0240975D01*
X0353815Y0241394D02*
X0355075Y0241394D01*
X0355075Y0241813D02*
X0353815Y0241813D01*
X0353815Y0242232D02*
X0355075Y0242232D01*
X0353106Y0242498D02*
X0353106Y0237204D01*
X0351846Y0237204D01*
X0351846Y0242498D01*
X0353106Y0242498D01*
X0353106Y0237623D02*
X0351846Y0237623D01*
X0351846Y0238042D02*
X0353106Y0238042D01*
X0353106Y0238461D02*
X0351846Y0238461D01*
X0351846Y0238880D02*
X0353106Y0238880D01*
X0353106Y0239299D02*
X0351846Y0239299D01*
X0351846Y0239718D02*
X0353106Y0239718D01*
X0353106Y0240137D02*
X0351846Y0240137D01*
X0351846Y0240556D02*
X0353106Y0240556D01*
X0353106Y0240975D02*
X0351846Y0240975D01*
X0351846Y0241394D02*
X0353106Y0241394D01*
X0353106Y0241813D02*
X0351846Y0241813D01*
X0351846Y0242232D02*
X0353106Y0242232D01*
X0351138Y0242498D02*
X0351138Y0237204D01*
X0349878Y0237204D01*
X0349878Y0242498D01*
X0351138Y0242498D01*
X0351138Y0237623D02*
X0349878Y0237623D01*
X0349878Y0238042D02*
X0351138Y0238042D01*
X0351138Y0238461D02*
X0349878Y0238461D01*
X0349878Y0238880D02*
X0351138Y0238880D01*
X0351138Y0239299D02*
X0349878Y0239299D01*
X0349878Y0239718D02*
X0351138Y0239718D01*
X0351138Y0240137D02*
X0349878Y0240137D01*
X0349878Y0240556D02*
X0351138Y0240556D01*
X0351138Y0240975D02*
X0349878Y0240975D01*
X0349878Y0241394D02*
X0351138Y0241394D01*
X0351138Y0241813D02*
X0349878Y0241813D01*
X0349878Y0242232D02*
X0351138Y0242232D01*
X0349169Y0242498D02*
X0349169Y0237204D01*
X0347909Y0237204D01*
X0347909Y0242498D01*
X0349169Y0242498D01*
X0349169Y0237623D02*
X0347909Y0237623D01*
X0347909Y0238042D02*
X0349169Y0238042D01*
X0349169Y0238461D02*
X0347909Y0238461D01*
X0347909Y0238880D02*
X0349169Y0238880D01*
X0349169Y0239299D02*
X0347909Y0239299D01*
X0347909Y0239718D02*
X0349169Y0239718D01*
X0349169Y0240137D02*
X0347909Y0240137D01*
X0347909Y0240556D02*
X0349169Y0240556D01*
X0349169Y0240975D02*
X0347909Y0240975D01*
X0347909Y0241394D02*
X0349169Y0241394D01*
X0349169Y0241813D02*
X0347909Y0241813D01*
X0347909Y0242232D02*
X0349169Y0242232D01*
X0347201Y0242498D02*
X0347201Y0237204D01*
X0345941Y0237204D01*
X0345941Y0242498D01*
X0347201Y0242498D01*
X0347201Y0237623D02*
X0345941Y0237623D01*
X0345941Y0238042D02*
X0347201Y0238042D01*
X0347201Y0238461D02*
X0345941Y0238461D01*
X0345941Y0238880D02*
X0347201Y0238880D01*
X0347201Y0239299D02*
X0345941Y0239299D01*
X0345941Y0239718D02*
X0347201Y0239718D01*
X0347201Y0240137D02*
X0345941Y0240137D01*
X0345941Y0240556D02*
X0347201Y0240556D01*
X0347201Y0240975D02*
X0345941Y0240975D01*
X0345941Y0241394D02*
X0347201Y0241394D01*
X0347201Y0241813D02*
X0345941Y0241813D01*
X0345941Y0242232D02*
X0347201Y0242232D01*
X0345232Y0242498D02*
X0345232Y0237204D01*
X0343972Y0237204D01*
X0343972Y0242498D01*
X0345232Y0242498D01*
X0345232Y0237623D02*
X0343972Y0237623D01*
X0343972Y0238042D02*
X0345232Y0238042D01*
X0345232Y0238461D02*
X0343972Y0238461D01*
X0343972Y0238880D02*
X0345232Y0238880D01*
X0345232Y0239299D02*
X0343972Y0239299D01*
X0343972Y0239718D02*
X0345232Y0239718D01*
X0345232Y0240137D02*
X0343972Y0240137D01*
X0343972Y0240556D02*
X0345232Y0240556D01*
X0345232Y0240975D02*
X0343972Y0240975D01*
X0343972Y0241394D02*
X0345232Y0241394D01*
X0345232Y0241813D02*
X0343972Y0241813D01*
X0343972Y0242232D02*
X0345232Y0242232D01*
X0343264Y0242498D02*
X0343264Y0237204D01*
X0342004Y0237204D01*
X0342004Y0242498D01*
X0343264Y0242498D01*
X0343264Y0237623D02*
X0342004Y0237623D01*
X0342004Y0238042D02*
X0343264Y0238042D01*
X0343264Y0238461D02*
X0342004Y0238461D01*
X0342004Y0238880D02*
X0343264Y0238880D01*
X0343264Y0239299D02*
X0342004Y0239299D01*
X0342004Y0239718D02*
X0343264Y0239718D01*
X0343264Y0240137D02*
X0342004Y0240137D01*
X0342004Y0240556D02*
X0343264Y0240556D01*
X0343264Y0240975D02*
X0342004Y0240975D01*
X0342004Y0241394D02*
X0343264Y0241394D01*
X0343264Y0241813D02*
X0342004Y0241813D01*
X0342004Y0242232D02*
X0343264Y0242232D01*
X0341295Y0242498D02*
X0341295Y0237204D01*
X0340035Y0237204D01*
X0340035Y0242498D01*
X0341295Y0242498D01*
X0341295Y0237623D02*
X0340035Y0237623D01*
X0340035Y0238042D02*
X0341295Y0238042D01*
X0341295Y0238461D02*
X0340035Y0238461D01*
X0340035Y0238880D02*
X0341295Y0238880D01*
X0341295Y0239299D02*
X0340035Y0239299D01*
X0340035Y0239718D02*
X0341295Y0239718D01*
X0341295Y0240137D02*
X0340035Y0240137D01*
X0340035Y0240556D02*
X0341295Y0240556D01*
X0341295Y0240975D02*
X0340035Y0240975D01*
X0340035Y0241394D02*
X0341295Y0241394D01*
X0341295Y0241813D02*
X0340035Y0241813D01*
X0340035Y0242232D02*
X0341295Y0242232D01*
X0339327Y0242498D02*
X0339327Y0237204D01*
X0338067Y0237204D01*
X0338067Y0242498D01*
X0339327Y0242498D01*
X0339327Y0237623D02*
X0338067Y0237623D01*
X0338067Y0238042D02*
X0339327Y0238042D01*
X0339327Y0238461D02*
X0338067Y0238461D01*
X0338067Y0238880D02*
X0339327Y0238880D01*
X0339327Y0239299D02*
X0338067Y0239299D01*
X0338067Y0239718D02*
X0339327Y0239718D01*
X0339327Y0240137D02*
X0338067Y0240137D01*
X0338067Y0240556D02*
X0339327Y0240556D01*
X0339327Y0240975D02*
X0338067Y0240975D01*
X0338067Y0241394D02*
X0339327Y0241394D01*
X0339327Y0241813D02*
X0338067Y0241813D01*
X0338067Y0242232D02*
X0339327Y0242232D01*
X0337358Y0242498D02*
X0337358Y0237204D01*
X0336098Y0237204D01*
X0336098Y0242498D01*
X0337358Y0242498D01*
X0337358Y0237623D02*
X0336098Y0237623D01*
X0336098Y0238042D02*
X0337358Y0238042D01*
X0337358Y0238461D02*
X0336098Y0238461D01*
X0336098Y0238880D02*
X0337358Y0238880D01*
X0337358Y0239299D02*
X0336098Y0239299D01*
X0336098Y0239718D02*
X0337358Y0239718D01*
X0337358Y0240137D02*
X0336098Y0240137D01*
X0336098Y0240556D02*
X0337358Y0240556D01*
X0337358Y0240975D02*
X0336098Y0240975D01*
X0336098Y0241394D02*
X0337358Y0241394D01*
X0337358Y0241813D02*
X0336098Y0241813D01*
X0336098Y0242232D02*
X0337358Y0242232D01*
X0335390Y0242498D02*
X0335390Y0237204D01*
X0334130Y0237204D01*
X0334130Y0242498D01*
X0335390Y0242498D01*
X0335390Y0237623D02*
X0334130Y0237623D01*
X0334130Y0238042D02*
X0335390Y0238042D01*
X0335390Y0238461D02*
X0334130Y0238461D01*
X0334130Y0238880D02*
X0335390Y0238880D01*
X0335390Y0239299D02*
X0334130Y0239299D01*
X0334130Y0239718D02*
X0335390Y0239718D01*
X0335390Y0240137D02*
X0334130Y0240137D01*
X0334130Y0240556D02*
X0335390Y0240556D01*
X0335390Y0240975D02*
X0334130Y0240975D01*
X0334130Y0241394D02*
X0335390Y0241394D01*
X0335390Y0241813D02*
X0334130Y0241813D01*
X0334130Y0242232D02*
X0335390Y0242232D01*
X0333421Y0242498D02*
X0333421Y0237204D01*
X0332161Y0237204D01*
X0332161Y0242498D01*
X0333421Y0242498D01*
X0333421Y0237623D02*
X0332161Y0237623D01*
X0332161Y0238042D02*
X0333421Y0238042D01*
X0333421Y0238461D02*
X0332161Y0238461D01*
X0332161Y0238880D02*
X0333421Y0238880D01*
X0333421Y0239299D02*
X0332161Y0239299D01*
X0332161Y0239718D02*
X0333421Y0239718D01*
X0333421Y0240137D02*
X0332161Y0240137D01*
X0332161Y0240556D02*
X0333421Y0240556D01*
X0333421Y0240975D02*
X0332161Y0240975D01*
X0332161Y0241394D02*
X0333421Y0241394D01*
X0333421Y0241813D02*
X0332161Y0241813D01*
X0332161Y0242232D02*
X0333421Y0242232D01*
X0331453Y0242498D02*
X0331453Y0237204D01*
X0330193Y0237204D01*
X0330193Y0242498D01*
X0331453Y0242498D01*
X0331453Y0237623D02*
X0330193Y0237623D01*
X0330193Y0238042D02*
X0331453Y0238042D01*
X0331453Y0238461D02*
X0330193Y0238461D01*
X0330193Y0238880D02*
X0331453Y0238880D01*
X0331453Y0239299D02*
X0330193Y0239299D01*
X0330193Y0239718D02*
X0331453Y0239718D01*
X0331453Y0240137D02*
X0330193Y0240137D01*
X0330193Y0240556D02*
X0331453Y0240556D01*
X0331453Y0240975D02*
X0330193Y0240975D01*
X0330193Y0241394D02*
X0331453Y0241394D01*
X0331453Y0241813D02*
X0330193Y0241813D01*
X0330193Y0242232D02*
X0331453Y0242232D01*
X0329484Y0242498D02*
X0329484Y0237204D01*
X0328224Y0237204D01*
X0328224Y0242498D01*
X0329484Y0242498D01*
X0329484Y0237623D02*
X0328224Y0237623D01*
X0328224Y0238042D02*
X0329484Y0238042D01*
X0329484Y0238461D02*
X0328224Y0238461D01*
X0328224Y0238880D02*
X0329484Y0238880D01*
X0329484Y0239299D02*
X0328224Y0239299D01*
X0328224Y0239718D02*
X0329484Y0239718D01*
X0329484Y0240137D02*
X0328224Y0240137D01*
X0328224Y0240556D02*
X0329484Y0240556D01*
X0329484Y0240975D02*
X0328224Y0240975D01*
X0328224Y0241394D02*
X0329484Y0241394D01*
X0329484Y0241813D02*
X0328224Y0241813D01*
X0328224Y0242232D02*
X0329484Y0242232D01*
X0327516Y0242498D02*
X0327516Y0237204D01*
X0326256Y0237204D01*
X0326256Y0242498D01*
X0327516Y0242498D01*
X0327516Y0237623D02*
X0326256Y0237623D01*
X0326256Y0238042D02*
X0327516Y0238042D01*
X0327516Y0238461D02*
X0326256Y0238461D01*
X0326256Y0238880D02*
X0327516Y0238880D01*
X0327516Y0239299D02*
X0326256Y0239299D01*
X0326256Y0239718D02*
X0327516Y0239718D01*
X0327516Y0240137D02*
X0326256Y0240137D01*
X0326256Y0240556D02*
X0327516Y0240556D01*
X0327516Y0240975D02*
X0326256Y0240975D01*
X0326256Y0241394D02*
X0327516Y0241394D01*
X0327516Y0241813D02*
X0326256Y0241813D01*
X0326256Y0242232D02*
X0327516Y0242232D01*
X0325547Y0242498D02*
X0325547Y0237204D01*
X0324287Y0237204D01*
X0324287Y0242498D01*
X0325547Y0242498D01*
X0325547Y0237623D02*
X0324287Y0237623D01*
X0324287Y0238042D02*
X0325547Y0238042D01*
X0325547Y0238461D02*
X0324287Y0238461D01*
X0324287Y0238880D02*
X0325547Y0238880D01*
X0325547Y0239299D02*
X0324287Y0239299D01*
X0324287Y0239718D02*
X0325547Y0239718D01*
X0325547Y0240137D02*
X0324287Y0240137D01*
X0324287Y0240556D02*
X0325547Y0240556D01*
X0325547Y0240975D02*
X0324287Y0240975D01*
X0324287Y0241394D02*
X0325547Y0241394D01*
X0325547Y0241813D02*
X0324287Y0241813D01*
X0324287Y0242232D02*
X0325547Y0242232D01*
X0323579Y0242498D02*
X0323579Y0237204D01*
X0322319Y0237204D01*
X0322319Y0242498D01*
X0323579Y0242498D01*
X0323579Y0237623D02*
X0322319Y0237623D01*
X0322319Y0238042D02*
X0323579Y0238042D01*
X0323579Y0238461D02*
X0322319Y0238461D01*
X0322319Y0238880D02*
X0323579Y0238880D01*
X0323579Y0239299D02*
X0322319Y0239299D01*
X0322319Y0239718D02*
X0323579Y0239718D01*
X0323579Y0240137D02*
X0322319Y0240137D01*
X0322319Y0240556D02*
X0323579Y0240556D01*
X0323579Y0240975D02*
X0322319Y0240975D01*
X0322319Y0241394D02*
X0323579Y0241394D01*
X0323579Y0241813D02*
X0322319Y0241813D01*
X0322319Y0242232D02*
X0323579Y0242232D01*
X0321610Y0242498D02*
X0321610Y0237204D01*
X0320350Y0237204D01*
X0320350Y0242498D01*
X0321610Y0242498D01*
X0321610Y0237623D02*
X0320350Y0237623D01*
X0320350Y0238042D02*
X0321610Y0238042D01*
X0321610Y0238461D02*
X0320350Y0238461D01*
X0320350Y0238880D02*
X0321610Y0238880D01*
X0321610Y0239299D02*
X0320350Y0239299D01*
X0320350Y0239718D02*
X0321610Y0239718D01*
X0321610Y0240137D02*
X0320350Y0240137D01*
X0320350Y0240556D02*
X0321610Y0240556D01*
X0321610Y0240975D02*
X0320350Y0240975D01*
X0320350Y0241394D02*
X0321610Y0241394D01*
X0321610Y0241813D02*
X0320350Y0241813D01*
X0320350Y0242232D02*
X0321610Y0242232D01*
X0319642Y0242498D02*
X0319642Y0237204D01*
X0318382Y0237204D01*
X0318382Y0242498D01*
X0319642Y0242498D01*
X0319642Y0237623D02*
X0318382Y0237623D01*
X0318382Y0238042D02*
X0319642Y0238042D01*
X0319642Y0238461D02*
X0318382Y0238461D01*
X0318382Y0238880D02*
X0319642Y0238880D01*
X0319642Y0239299D02*
X0318382Y0239299D01*
X0318382Y0239718D02*
X0319642Y0239718D01*
X0319642Y0240137D02*
X0318382Y0240137D01*
X0318382Y0240556D02*
X0319642Y0240556D01*
X0319642Y0240975D02*
X0318382Y0240975D01*
X0318382Y0241394D02*
X0319642Y0241394D01*
X0319642Y0241813D02*
X0318382Y0241813D01*
X0318382Y0242232D02*
X0319642Y0242232D01*
X0317673Y0242498D02*
X0317673Y0237204D01*
X0316413Y0237204D01*
X0316413Y0242498D01*
X0317673Y0242498D01*
X0317673Y0237623D02*
X0316413Y0237623D01*
X0316413Y0238042D02*
X0317673Y0238042D01*
X0317673Y0238461D02*
X0316413Y0238461D01*
X0316413Y0238880D02*
X0317673Y0238880D01*
X0317673Y0239299D02*
X0316413Y0239299D01*
X0316413Y0239718D02*
X0317673Y0239718D01*
X0317673Y0240137D02*
X0316413Y0240137D01*
X0316413Y0240556D02*
X0317673Y0240556D01*
X0317673Y0240975D02*
X0316413Y0240975D01*
X0316413Y0241394D02*
X0317673Y0241394D01*
X0317673Y0241813D02*
X0316413Y0241813D01*
X0316413Y0242232D02*
X0317673Y0242232D01*
X0315705Y0242498D02*
X0315705Y0237204D01*
X0314445Y0237204D01*
X0314445Y0242498D01*
X0315705Y0242498D01*
X0315705Y0237623D02*
X0314445Y0237623D01*
X0314445Y0238042D02*
X0315705Y0238042D01*
X0315705Y0238461D02*
X0314445Y0238461D01*
X0314445Y0238880D02*
X0315705Y0238880D01*
X0315705Y0239299D02*
X0314445Y0239299D01*
X0314445Y0239718D02*
X0315705Y0239718D01*
X0315705Y0240137D02*
X0314445Y0240137D01*
X0314445Y0240556D02*
X0315705Y0240556D01*
X0315705Y0240975D02*
X0314445Y0240975D01*
X0314445Y0241394D02*
X0315705Y0241394D01*
X0315705Y0241813D02*
X0314445Y0241813D01*
X0314445Y0242232D02*
X0315705Y0242232D01*
X0313736Y0242498D02*
X0313736Y0237204D01*
X0312476Y0237204D01*
X0312476Y0242498D01*
X0313736Y0242498D01*
X0313736Y0237623D02*
X0312476Y0237623D01*
X0312476Y0238042D02*
X0313736Y0238042D01*
X0313736Y0238461D02*
X0312476Y0238461D01*
X0312476Y0238880D02*
X0313736Y0238880D01*
X0313736Y0239299D02*
X0312476Y0239299D01*
X0312476Y0239718D02*
X0313736Y0239718D01*
X0313736Y0240137D02*
X0312476Y0240137D01*
X0312476Y0240556D02*
X0313736Y0240556D01*
X0313736Y0240975D02*
X0312476Y0240975D01*
X0312476Y0241394D02*
X0313736Y0241394D01*
X0313736Y0241813D02*
X0312476Y0241813D01*
X0312476Y0242232D02*
X0313736Y0242232D01*
X0311768Y0242498D02*
X0311768Y0237204D01*
X0310508Y0237204D01*
X0310508Y0242498D01*
X0311768Y0242498D01*
X0311768Y0237623D02*
X0310508Y0237623D01*
X0310508Y0238042D02*
X0311768Y0238042D01*
X0311768Y0238461D02*
X0310508Y0238461D01*
X0310508Y0238880D02*
X0311768Y0238880D01*
X0311768Y0239299D02*
X0310508Y0239299D01*
X0310508Y0239718D02*
X0311768Y0239718D01*
X0311768Y0240137D02*
X0310508Y0240137D01*
X0310508Y0240556D02*
X0311768Y0240556D01*
X0311768Y0240975D02*
X0310508Y0240975D01*
X0310508Y0241394D02*
X0311768Y0241394D01*
X0311768Y0241813D02*
X0310508Y0241813D01*
X0310508Y0242232D02*
X0311768Y0242232D01*
X0309799Y0242498D02*
X0309799Y0237204D01*
X0308539Y0237204D01*
X0308539Y0242498D01*
X0309799Y0242498D01*
X0309799Y0237623D02*
X0308539Y0237623D01*
X0308539Y0238042D02*
X0309799Y0238042D01*
X0309799Y0238461D02*
X0308539Y0238461D01*
X0308539Y0238880D02*
X0309799Y0238880D01*
X0309799Y0239299D02*
X0308539Y0239299D01*
X0308539Y0239718D02*
X0309799Y0239718D01*
X0309799Y0240137D02*
X0308539Y0240137D01*
X0308539Y0240556D02*
X0309799Y0240556D01*
X0309799Y0240975D02*
X0308539Y0240975D01*
X0308539Y0241394D02*
X0309799Y0241394D01*
X0309799Y0241813D02*
X0308539Y0241813D01*
X0308539Y0242232D02*
X0309799Y0242232D01*
X0307831Y0242498D02*
X0307831Y0237204D01*
X0306571Y0237204D01*
X0306571Y0242498D01*
X0307831Y0242498D01*
X0307831Y0237623D02*
X0306571Y0237623D01*
X0306571Y0238042D02*
X0307831Y0238042D01*
X0307831Y0238461D02*
X0306571Y0238461D01*
X0306571Y0238880D02*
X0307831Y0238880D01*
X0307831Y0239299D02*
X0306571Y0239299D01*
X0306571Y0239718D02*
X0307831Y0239718D01*
X0307831Y0240137D02*
X0306571Y0240137D01*
X0306571Y0240556D02*
X0307831Y0240556D01*
X0307831Y0240975D02*
X0306571Y0240975D01*
X0306571Y0241394D02*
X0307831Y0241394D01*
X0307831Y0241813D02*
X0306571Y0241813D01*
X0306571Y0242232D02*
X0307831Y0242232D01*
X0305862Y0242498D02*
X0305862Y0237204D01*
X0304602Y0237204D01*
X0304602Y0242498D01*
X0305862Y0242498D01*
X0305862Y0237623D02*
X0304602Y0237623D01*
X0304602Y0238042D02*
X0305862Y0238042D01*
X0305862Y0238461D02*
X0304602Y0238461D01*
X0304602Y0238880D02*
X0305862Y0238880D01*
X0305862Y0239299D02*
X0304602Y0239299D01*
X0304602Y0239718D02*
X0305862Y0239718D01*
X0305862Y0240137D02*
X0304602Y0240137D01*
X0304602Y0240556D02*
X0305862Y0240556D01*
X0305862Y0240975D02*
X0304602Y0240975D01*
X0304602Y0241394D02*
X0305862Y0241394D01*
X0305862Y0241813D02*
X0304602Y0241813D01*
X0304602Y0242232D02*
X0305862Y0242232D01*
X0303894Y0242498D02*
X0303894Y0237204D01*
X0302634Y0237204D01*
X0302634Y0242498D01*
X0303894Y0242498D01*
X0303894Y0237623D02*
X0302634Y0237623D01*
X0302634Y0238042D02*
X0303894Y0238042D01*
X0303894Y0238461D02*
X0302634Y0238461D01*
X0302634Y0238880D02*
X0303894Y0238880D01*
X0303894Y0239299D02*
X0302634Y0239299D01*
X0302634Y0239718D02*
X0303894Y0239718D01*
X0303894Y0240137D02*
X0302634Y0240137D01*
X0302634Y0240556D02*
X0303894Y0240556D01*
X0303894Y0240975D02*
X0302634Y0240975D01*
X0302634Y0241394D02*
X0303894Y0241394D01*
X0303894Y0241813D02*
X0302634Y0241813D01*
X0302634Y0242232D02*
X0303894Y0242232D01*
X0301925Y0242498D02*
X0301925Y0237204D01*
X0300665Y0237204D01*
X0300665Y0242498D01*
X0301925Y0242498D01*
X0301925Y0237623D02*
X0300665Y0237623D01*
X0300665Y0238042D02*
X0301925Y0238042D01*
X0301925Y0238461D02*
X0300665Y0238461D01*
X0300665Y0238880D02*
X0301925Y0238880D01*
X0301925Y0239299D02*
X0300665Y0239299D01*
X0300665Y0239718D02*
X0301925Y0239718D01*
X0301925Y0240137D02*
X0300665Y0240137D01*
X0300665Y0240556D02*
X0301925Y0240556D01*
X0301925Y0240975D02*
X0300665Y0240975D01*
X0300665Y0241394D02*
X0301925Y0241394D01*
X0301925Y0241813D02*
X0300665Y0241813D01*
X0300665Y0242232D02*
X0301925Y0242232D01*
X0299957Y0242498D02*
X0299957Y0237204D01*
X0298697Y0237204D01*
X0298697Y0242498D01*
X0299957Y0242498D01*
X0299957Y0237623D02*
X0298697Y0237623D01*
X0298697Y0238042D02*
X0299957Y0238042D01*
X0299957Y0238461D02*
X0298697Y0238461D01*
X0298697Y0238880D02*
X0299957Y0238880D01*
X0299957Y0239299D02*
X0298697Y0239299D01*
X0298697Y0239718D02*
X0299957Y0239718D01*
X0299957Y0240137D02*
X0298697Y0240137D01*
X0298697Y0240556D02*
X0299957Y0240556D01*
X0299957Y0240975D02*
X0298697Y0240975D01*
X0298697Y0241394D02*
X0299957Y0241394D01*
X0299957Y0241813D02*
X0298697Y0241813D01*
X0298697Y0242232D02*
X0299957Y0242232D01*
X0297988Y0242498D02*
X0297988Y0237204D01*
X0296728Y0237204D01*
X0296728Y0242498D01*
X0297988Y0242498D01*
X0297988Y0237623D02*
X0296728Y0237623D01*
X0296728Y0238042D02*
X0297988Y0238042D01*
X0297988Y0238461D02*
X0296728Y0238461D01*
X0296728Y0238880D02*
X0297988Y0238880D01*
X0297988Y0239299D02*
X0296728Y0239299D01*
X0296728Y0239718D02*
X0297988Y0239718D01*
X0297988Y0240137D02*
X0296728Y0240137D01*
X0296728Y0240556D02*
X0297988Y0240556D01*
X0297988Y0240975D02*
X0296728Y0240975D01*
X0296728Y0241394D02*
X0297988Y0241394D01*
X0297988Y0241813D02*
X0296728Y0241813D01*
X0296728Y0242232D02*
X0297988Y0242232D01*
X0296020Y0242498D02*
X0296020Y0237204D01*
X0294760Y0237204D01*
X0294760Y0242498D01*
X0296020Y0242498D01*
X0296020Y0237623D02*
X0294760Y0237623D01*
X0294760Y0238042D02*
X0296020Y0238042D01*
X0296020Y0238461D02*
X0294760Y0238461D01*
X0294760Y0238880D02*
X0296020Y0238880D01*
X0296020Y0239299D02*
X0294760Y0239299D01*
X0294760Y0239718D02*
X0296020Y0239718D01*
X0296020Y0240137D02*
X0294760Y0240137D01*
X0294760Y0240556D02*
X0296020Y0240556D01*
X0296020Y0240975D02*
X0294760Y0240975D01*
X0294760Y0241394D02*
X0296020Y0241394D01*
X0296020Y0241813D02*
X0294760Y0241813D01*
X0294760Y0242232D02*
X0296020Y0242232D01*
X0294051Y0242498D02*
X0294051Y0237204D01*
X0292791Y0237204D01*
X0292791Y0242498D01*
X0294051Y0242498D01*
X0294051Y0237623D02*
X0292791Y0237623D01*
X0292791Y0238042D02*
X0294051Y0238042D01*
X0294051Y0238461D02*
X0292791Y0238461D01*
X0292791Y0238880D02*
X0294051Y0238880D01*
X0294051Y0239299D02*
X0292791Y0239299D01*
X0292791Y0239718D02*
X0294051Y0239718D01*
X0294051Y0240137D02*
X0292791Y0240137D01*
X0292791Y0240556D02*
X0294051Y0240556D01*
X0294051Y0240975D02*
X0292791Y0240975D01*
X0292791Y0241394D02*
X0294051Y0241394D01*
X0294051Y0241813D02*
X0292791Y0241813D01*
X0292791Y0242232D02*
X0294051Y0242232D01*
X0292083Y0242498D02*
X0292083Y0237204D01*
X0290823Y0237204D01*
X0290823Y0242498D01*
X0292083Y0242498D01*
X0292083Y0237623D02*
X0290823Y0237623D01*
X0290823Y0238042D02*
X0292083Y0238042D01*
X0292083Y0238461D02*
X0290823Y0238461D01*
X0290823Y0238880D02*
X0292083Y0238880D01*
X0292083Y0239299D02*
X0290823Y0239299D01*
X0290823Y0239718D02*
X0292083Y0239718D01*
X0292083Y0240137D02*
X0290823Y0240137D01*
X0290823Y0240556D02*
X0292083Y0240556D01*
X0292083Y0240975D02*
X0290823Y0240975D01*
X0290823Y0241394D02*
X0292083Y0241394D01*
X0292083Y0241813D02*
X0290823Y0241813D01*
X0290823Y0242232D02*
X0292083Y0242232D01*
X0290114Y0242498D02*
X0290114Y0237204D01*
X0288854Y0237204D01*
X0288854Y0242498D01*
X0290114Y0242498D01*
X0290114Y0237623D02*
X0288854Y0237623D01*
X0288854Y0238042D02*
X0290114Y0238042D01*
X0290114Y0238461D02*
X0288854Y0238461D01*
X0288854Y0238880D02*
X0290114Y0238880D01*
X0290114Y0239299D02*
X0288854Y0239299D01*
X0288854Y0239718D02*
X0290114Y0239718D01*
X0290114Y0240137D02*
X0288854Y0240137D01*
X0288854Y0240556D02*
X0290114Y0240556D01*
X0290114Y0240975D02*
X0288854Y0240975D01*
X0288854Y0241394D02*
X0290114Y0241394D01*
X0290114Y0241813D02*
X0288854Y0241813D01*
X0288854Y0242232D02*
X0290114Y0242232D01*
D13*
X0266933Y0260530D03*
X0260933Y0260530D03*
D14*
X0263933Y0260530D03*
D15*
X0263933Y0386780D03*
X0268933Y0386780D03*
X0273933Y0386780D03*
X0278933Y0386780D03*
X0283933Y0386780D03*
X0288933Y0386780D03*
X0293933Y0386780D03*
X0298933Y0386780D03*
X0303933Y0386780D03*
X0308933Y0386780D03*
X0313933Y0386780D03*
X0318933Y0386780D03*
X0323933Y0386780D03*
X0328933Y0386780D03*
X0333933Y0386780D03*
X0338933Y0386780D03*
X0343933Y0386780D03*
X0348933Y0386780D03*
X0353933Y0386780D03*
X0358933Y0386780D03*
X0358933Y0406780D03*
X0353933Y0406780D03*
X0348933Y0406780D03*
X0343933Y0406780D03*
X0338933Y0406780D03*
X0333933Y0406780D03*
X0328933Y0406780D03*
X0323933Y0406780D03*
X0318933Y0406780D03*
X0313933Y0406780D03*
X0308933Y0406780D03*
X0303933Y0406780D03*
X0298933Y0406780D03*
X0293933Y0406780D03*
X0288933Y0406780D03*
X0283933Y0406780D03*
X0278933Y0406780D03*
X0273933Y0406780D03*
X0268933Y0406780D03*
X0263933Y0406780D03*
X0243933Y0406780D03*
X0238933Y0406780D03*
X0233933Y0406780D03*
X0228933Y0406780D03*
X0223933Y0406780D03*
X0218933Y0406780D03*
X0213933Y0406780D03*
X0208933Y0406780D03*
X0203933Y0406780D03*
X0198933Y0406780D03*
X0193933Y0406780D03*
X0188933Y0406780D03*
X0183933Y0406780D03*
X0178933Y0406780D03*
X0173933Y0406780D03*
X0168933Y0406780D03*
X0163933Y0406780D03*
X0158933Y0406780D03*
X0153933Y0406780D03*
X0148933Y0406780D03*
X0148933Y0386780D03*
X0153933Y0386780D03*
X0158933Y0386780D03*
X0163933Y0386780D03*
X0168933Y0386780D03*
X0173933Y0386780D03*
X0178933Y0386780D03*
X0183933Y0386780D03*
X0188933Y0386780D03*
X0193933Y0386780D03*
X0198933Y0386780D03*
X0203933Y0386780D03*
X0208933Y0386780D03*
X0213933Y0386780D03*
X0218933Y0386780D03*
X0223933Y0386780D03*
X0228933Y0386780D03*
X0233933Y0386780D03*
X0238933Y0386780D03*
X0243933Y0386780D03*
X0093933Y0331780D03*
X0093933Y0326780D03*
X0093933Y0321780D03*
X0093933Y0316780D03*
X0093933Y0311780D03*
X0093933Y0306780D03*
X0093933Y0301780D03*
X0093933Y0296780D03*
X0093933Y0291780D03*
X0093933Y0286780D03*
X0093933Y0281780D03*
X0093933Y0276780D03*
X0093933Y0271780D03*
X0093933Y0266780D03*
X0093933Y0261780D03*
X0093933Y0256780D03*
X0093933Y0251780D03*
X0093933Y0246780D03*
X0093933Y0241780D03*
X0093933Y0236780D03*
X0073933Y0236780D03*
X0073933Y0241780D03*
X0073933Y0246780D03*
X0073933Y0251780D03*
X0073933Y0256780D03*
X0073933Y0261780D03*
X0073933Y0266780D03*
X0073933Y0271780D03*
X0073933Y0276780D03*
X0073933Y0281780D03*
X0073933Y0286780D03*
X0073933Y0291780D03*
X0073933Y0296780D03*
X0073933Y0301780D03*
X0073933Y0306780D03*
X0073933Y0311780D03*
X0073933Y0316780D03*
X0073933Y0321780D03*
X0073933Y0326780D03*
X0073933Y0331780D03*
X0073933Y0216780D03*
X0073933Y0211780D03*
X0073933Y0206780D03*
X0073933Y0201780D03*
X0073933Y0196780D03*
X0073933Y0191780D03*
X0073933Y0186780D03*
X0073933Y0181780D03*
X0073933Y0176780D03*
X0073933Y0171780D03*
X0073933Y0166780D03*
X0073933Y0161780D03*
X0073933Y0156780D03*
X0073933Y0151780D03*
X0073933Y0146780D03*
X0073933Y0141780D03*
X0073933Y0136780D03*
X0073933Y0131780D03*
X0073933Y0126780D03*
X0073933Y0121780D03*
X0093933Y0121780D03*
X0093933Y0126780D03*
X0093933Y0131780D03*
X0093933Y0136780D03*
X0093933Y0141780D03*
X0093933Y0146780D03*
X0093933Y0151780D03*
X0093933Y0156780D03*
X0093933Y0161780D03*
X0093933Y0166780D03*
X0093933Y0171780D03*
X0093933Y0176780D03*
X0093933Y0181780D03*
X0093933Y0186780D03*
X0093933Y0191780D03*
X0093933Y0196780D03*
X0093933Y0201780D03*
X0093933Y0206780D03*
X0093933Y0211780D03*
X0093933Y0216780D03*
X0148933Y0066780D03*
X0153933Y0066780D03*
X0158933Y0066780D03*
X0163933Y0066780D03*
X0168933Y0066780D03*
X0173933Y0066780D03*
X0178933Y0066780D03*
X0183933Y0066780D03*
X0188933Y0066780D03*
X0193933Y0066780D03*
X0198933Y0066780D03*
X0203933Y0066780D03*
X0208933Y0066780D03*
X0213933Y0066780D03*
X0218933Y0066780D03*
X0223933Y0066780D03*
X0228933Y0066780D03*
X0233933Y0066780D03*
X0238933Y0066780D03*
X0243933Y0066780D03*
X0243933Y0046780D03*
X0238933Y0046780D03*
X0233933Y0046780D03*
X0228933Y0046780D03*
X0223933Y0046780D03*
X0218933Y0046780D03*
X0213933Y0046780D03*
X0208933Y0046780D03*
X0203933Y0046780D03*
X0198933Y0046780D03*
X0193933Y0046780D03*
X0188933Y0046780D03*
X0183933Y0046780D03*
X0178933Y0046780D03*
X0173933Y0046780D03*
X0168933Y0046780D03*
X0163933Y0046780D03*
X0158933Y0046780D03*
X0153933Y0046780D03*
X0148933Y0046780D03*
X0263933Y0046780D03*
X0268933Y0046780D03*
X0273933Y0046780D03*
X0278933Y0046780D03*
X0283933Y0046780D03*
X0288933Y0046780D03*
X0293933Y0046780D03*
X0298933Y0046780D03*
X0303933Y0046780D03*
X0308933Y0046780D03*
X0313933Y0046780D03*
X0318933Y0046780D03*
X0323933Y0046780D03*
X0328933Y0046780D03*
X0333933Y0046780D03*
X0338933Y0046780D03*
X0343933Y0046780D03*
X0348933Y0046780D03*
X0353933Y0046780D03*
X0358933Y0046780D03*
X0358933Y0066780D03*
X0353933Y0066780D03*
X0348933Y0066780D03*
X0343933Y0066780D03*
X0338933Y0066780D03*
X0333933Y0066780D03*
X0328933Y0066780D03*
X0323933Y0066780D03*
X0318933Y0066780D03*
X0313933Y0066780D03*
X0308933Y0066780D03*
X0303933Y0066780D03*
X0298933Y0066780D03*
X0293933Y0066780D03*
X0288933Y0066780D03*
X0283933Y0066780D03*
X0278933Y0066780D03*
X0273933Y0066780D03*
X0268933Y0066780D03*
X0263933Y0066780D03*
D16*
X0301433Y0356780D03*
X0398933Y0401780D03*
D17*
X0388933Y0401780D03*
X0378933Y0401780D03*
X0378933Y0391780D03*
X0388933Y0391780D03*
X0398933Y0391780D03*
X0301433Y0366780D03*
D18*
X0312774Y0366780D03*
X0312774Y0371780D03*
X0312774Y0376780D03*
X0319467Y0376780D03*
X0319467Y0371780D03*
X0319467Y0366780D03*
X0319467Y0361780D03*
X0312774Y0361780D03*
X0293933Y0342626D03*
X0293933Y0335933D03*
X0287280Y0349280D03*
X0287280Y0354280D03*
X0280587Y0354280D03*
X0280587Y0349280D03*
X0242280Y0356780D03*
X0235587Y0356780D03*
X0217280Y0361780D03*
X0217280Y0366780D03*
X0210587Y0366780D03*
X0210587Y0361780D03*
X0263087Y0296780D03*
X0269780Y0296780D03*
X0269780Y0276780D03*
X0269780Y0271780D03*
X0263087Y0271780D03*
X0263087Y0276780D03*
X0248933Y0265126D03*
X0248933Y0258433D03*
X0271433Y0242626D03*
X0271433Y0235933D03*
X0356433Y0227626D03*
X0356433Y0220933D03*
X0378087Y0259280D03*
X0384780Y0259280D03*
X0384780Y0266780D03*
X0384780Y0271780D03*
X0378087Y0271780D03*
X0378087Y0266780D03*
X0378087Y0281780D03*
X0378087Y0286780D03*
X0378087Y0291780D03*
X0384780Y0291780D03*
X0384780Y0286780D03*
X0384780Y0281780D03*
X0408933Y0288433D03*
X0408933Y0295126D03*
X0347280Y0336467D03*
X0340587Y0336467D03*
X0341433Y0343433D03*
X0346433Y0343433D03*
X0346433Y0350126D03*
X0341433Y0350126D03*
X0348087Y0361780D03*
X0348087Y0366780D03*
X0348712Y0371780D03*
X0348712Y0376780D03*
X0355405Y0376780D03*
X0355405Y0371780D03*
X0354780Y0366780D03*
X0354780Y0361780D03*
X0332280Y0336780D03*
X0325587Y0336780D03*
X0072058Y0097626D03*
X0072058Y0090933D03*
X0078933Y0080751D03*
X0078933Y0074058D03*
D19*
X0241433Y0258433D03*
X0241433Y0265126D03*
X0266433Y0242626D03*
X0266433Y0235933D03*
X0296433Y0227626D03*
X0296433Y0220933D03*
X0301433Y0220933D03*
X0306433Y0220933D03*
X0306433Y0227626D03*
X0301433Y0227626D03*
X0316433Y0227626D03*
X0316433Y0220933D03*
X0323933Y0220933D03*
X0323933Y0227626D03*
X0331433Y0227626D03*
X0331433Y0220933D03*
X0341433Y0220933D03*
X0346433Y0220933D03*
X0351433Y0220933D03*
X0351433Y0227626D03*
X0346433Y0227626D03*
X0341433Y0227626D03*
X0291433Y0197626D03*
X0291433Y0190933D03*
X0378933Y0303433D03*
X0378933Y0310126D03*
X0371433Y0323433D03*
X0371433Y0330126D03*
X0361433Y0335933D03*
X0355183Y0335933D03*
X0355183Y0342626D03*
X0361433Y0342626D03*
X0336433Y0343433D03*
X0331433Y0343433D03*
X0326433Y0343433D03*
X0321433Y0343433D03*
X0321433Y0350126D03*
X0326433Y0350126D03*
X0331433Y0350126D03*
X0336433Y0350126D03*
X0311433Y0342626D03*
X0306433Y0342626D03*
X0301433Y0342626D03*
X0301433Y0335933D03*
X0306433Y0335933D03*
X0311433Y0335933D03*
X0276433Y0330126D03*
X0276433Y0323433D03*
X0257280Y0316780D03*
X0250587Y0316780D03*
X0229780Y0356780D03*
X0223087Y0356780D03*
X0217280Y0371780D03*
X0210587Y0371780D03*
X0251433Y0370126D03*
X0256433Y0370126D03*
X0256433Y0363433D03*
X0251433Y0363433D03*
X0366433Y0381558D03*
X0366433Y0388251D03*
X0416433Y0295126D03*
X0416433Y0288433D03*
D20*
X0221433Y0260205D03*
X0204858Y0236780D03*
X0204858Y0201780D03*
D21*
X0258008Y0201780D03*
X0258008Y0236780D03*
X0221433Y0313355D03*
D22*
X0270808Y0286155D03*
X0273933Y0221780D03*
X0273933Y0214280D03*
X0263933Y0214280D03*
X0263933Y0221780D03*
X0283933Y0221780D03*
X0273933Y0186780D03*
X0263933Y0186780D03*
X0123933Y0209280D03*
X0123933Y0216780D03*
D23*
X0264406Y0354299D03*
X0273461Y0354299D03*
X0273461Y0369260D03*
X0264406Y0369260D03*
D24*
X0253933Y0355520D03*
X0253933Y0348040D03*
D25*
X0282633Y0361680D03*
X0286433Y0361680D03*
X0290233Y0361680D03*
X0290233Y0371880D03*
X0282633Y0371880D03*
D26*
X0268854Y0306780D03*
X0259012Y0306780D03*
D27*
X0424794Y0286898D03*
X0424794Y0284339D03*
X0424794Y0281780D03*
X0424794Y0279221D03*
X0424794Y0276662D03*
D28*
X0424794Y0271937D03*
X0424794Y0291622D03*
D29*
X0435424Y0294378D03*
X0435424Y0269181D03*
D30*
X0435424Y0277843D03*
X0435424Y0285717D03*
D31*
X0190587Y0211780D03*
X0147280Y0211780D03*
D32*
X0266433Y0317469D03*
X0266433Y0336091D03*
D33*
X0248933Y0300559D03*
X0248933Y0273000D03*
D34*
X0245206Y0363879D02*
X0239590Y0363879D01*
X0245206Y0363879D02*
X0245206Y0362003D01*
X0239590Y0362003D01*
X0239590Y0363879D01*
X0239590Y0362101D02*
X0245206Y0362101D01*
X0245206Y0362199D02*
X0239590Y0362199D01*
X0239590Y0362297D02*
X0245206Y0362297D01*
X0245206Y0362395D02*
X0239590Y0362395D01*
X0239590Y0362493D02*
X0245206Y0362493D01*
X0245206Y0362591D02*
X0239590Y0362591D01*
X0239590Y0362689D02*
X0245206Y0362689D01*
X0245206Y0362787D02*
X0239590Y0362787D01*
X0239590Y0362885D02*
X0245206Y0362885D01*
X0245206Y0362983D02*
X0239590Y0362983D01*
X0239590Y0363081D02*
X0245206Y0363081D01*
X0245206Y0363179D02*
X0239590Y0363179D01*
X0239590Y0363277D02*
X0245206Y0363277D01*
X0245206Y0363375D02*
X0239590Y0363375D01*
X0239590Y0363473D02*
X0245206Y0363473D01*
X0245206Y0363571D02*
X0239590Y0363571D01*
X0239590Y0363669D02*
X0245206Y0363669D01*
X0245206Y0363767D02*
X0239590Y0363767D01*
X0239590Y0363865D02*
X0245206Y0363865D01*
X0245206Y0366438D02*
X0239590Y0366438D01*
X0245206Y0366438D02*
X0245206Y0364562D01*
X0239590Y0364562D01*
X0239590Y0366438D01*
X0239590Y0364660D02*
X0245206Y0364660D01*
X0245206Y0364758D02*
X0239590Y0364758D01*
X0239590Y0364856D02*
X0245206Y0364856D01*
X0245206Y0364954D02*
X0239590Y0364954D01*
X0239590Y0365052D02*
X0245206Y0365052D01*
X0245206Y0365150D02*
X0239590Y0365150D01*
X0239590Y0365248D02*
X0245206Y0365248D01*
X0245206Y0365346D02*
X0239590Y0365346D01*
X0239590Y0365444D02*
X0245206Y0365444D01*
X0245206Y0365542D02*
X0239590Y0365542D01*
X0239590Y0365640D02*
X0245206Y0365640D01*
X0245206Y0365738D02*
X0239590Y0365738D01*
X0239590Y0365836D02*
X0245206Y0365836D01*
X0245206Y0365934D02*
X0239590Y0365934D01*
X0239590Y0366032D02*
X0245206Y0366032D01*
X0245206Y0366130D02*
X0239590Y0366130D01*
X0239590Y0366228D02*
X0245206Y0366228D01*
X0245206Y0366326D02*
X0239590Y0366326D01*
X0239590Y0366424D02*
X0245206Y0366424D01*
X0245206Y0368997D02*
X0239590Y0368997D01*
X0245206Y0368997D02*
X0245206Y0367121D01*
X0239590Y0367121D01*
X0239590Y0368997D01*
X0239590Y0367219D02*
X0245206Y0367219D01*
X0245206Y0367317D02*
X0239590Y0367317D01*
X0239590Y0367415D02*
X0245206Y0367415D01*
X0245206Y0367513D02*
X0239590Y0367513D01*
X0239590Y0367611D02*
X0245206Y0367611D01*
X0245206Y0367709D02*
X0239590Y0367709D01*
X0239590Y0367807D02*
X0245206Y0367807D01*
X0245206Y0367905D02*
X0239590Y0367905D01*
X0239590Y0368003D02*
X0245206Y0368003D01*
X0245206Y0368101D02*
X0239590Y0368101D01*
X0239590Y0368199D02*
X0245206Y0368199D01*
X0245206Y0368297D02*
X0239590Y0368297D01*
X0239590Y0368395D02*
X0245206Y0368395D01*
X0245206Y0368493D02*
X0239590Y0368493D01*
X0239590Y0368591D02*
X0245206Y0368591D01*
X0245206Y0368689D02*
X0239590Y0368689D01*
X0239590Y0368787D02*
X0245206Y0368787D01*
X0245206Y0368885D02*
X0239590Y0368885D01*
X0239590Y0368983D02*
X0245206Y0368983D01*
X0245206Y0371556D02*
X0239590Y0371556D01*
X0245206Y0371556D02*
X0245206Y0369680D01*
X0239590Y0369680D01*
X0239590Y0371556D01*
X0239590Y0369778D02*
X0245206Y0369778D01*
X0245206Y0369876D02*
X0239590Y0369876D01*
X0239590Y0369974D02*
X0245206Y0369974D01*
X0245206Y0370072D02*
X0239590Y0370072D01*
X0239590Y0370170D02*
X0245206Y0370170D01*
X0245206Y0370268D02*
X0239590Y0370268D01*
X0239590Y0370366D02*
X0245206Y0370366D01*
X0245206Y0370464D02*
X0239590Y0370464D01*
X0239590Y0370562D02*
X0245206Y0370562D01*
X0245206Y0370660D02*
X0239590Y0370660D01*
X0239590Y0370758D02*
X0245206Y0370758D01*
X0245206Y0370856D02*
X0239590Y0370856D01*
X0239590Y0370954D02*
X0245206Y0370954D01*
X0245206Y0371052D02*
X0239590Y0371052D01*
X0239590Y0371150D02*
X0245206Y0371150D01*
X0245206Y0371248D02*
X0239590Y0371248D01*
X0239590Y0371346D02*
X0245206Y0371346D01*
X0245206Y0371444D02*
X0239590Y0371444D01*
X0239590Y0371542D02*
X0245206Y0371542D01*
X0228277Y0369680D02*
X0222661Y0369680D01*
X0222661Y0371556D01*
X0228277Y0371556D01*
X0228277Y0369680D01*
X0228277Y0369778D02*
X0222661Y0369778D01*
X0222661Y0369876D02*
X0228277Y0369876D01*
X0228277Y0369974D02*
X0222661Y0369974D01*
X0222661Y0370072D02*
X0228277Y0370072D01*
X0228277Y0370170D02*
X0222661Y0370170D01*
X0222661Y0370268D02*
X0228277Y0370268D01*
X0228277Y0370366D02*
X0222661Y0370366D01*
X0222661Y0370464D02*
X0228277Y0370464D01*
X0228277Y0370562D02*
X0222661Y0370562D01*
X0222661Y0370660D02*
X0228277Y0370660D01*
X0228277Y0370758D02*
X0222661Y0370758D01*
X0222661Y0370856D02*
X0228277Y0370856D01*
X0228277Y0370954D02*
X0222661Y0370954D01*
X0222661Y0371052D02*
X0228277Y0371052D01*
X0228277Y0371150D02*
X0222661Y0371150D01*
X0222661Y0371248D02*
X0228277Y0371248D01*
X0228277Y0371346D02*
X0222661Y0371346D01*
X0222661Y0371444D02*
X0228277Y0371444D01*
X0228277Y0371542D02*
X0222661Y0371542D01*
X0222661Y0367121D02*
X0228277Y0367121D01*
X0222661Y0367121D02*
X0222661Y0368997D01*
X0228277Y0368997D01*
X0228277Y0367121D01*
X0228277Y0367219D02*
X0222661Y0367219D01*
X0222661Y0367317D02*
X0228277Y0367317D01*
X0228277Y0367415D02*
X0222661Y0367415D01*
X0222661Y0367513D02*
X0228277Y0367513D01*
X0228277Y0367611D02*
X0222661Y0367611D01*
X0222661Y0367709D02*
X0228277Y0367709D01*
X0228277Y0367807D02*
X0222661Y0367807D01*
X0222661Y0367905D02*
X0228277Y0367905D01*
X0228277Y0368003D02*
X0222661Y0368003D01*
X0222661Y0368101D02*
X0228277Y0368101D01*
X0228277Y0368199D02*
X0222661Y0368199D01*
X0222661Y0368297D02*
X0228277Y0368297D01*
X0228277Y0368395D02*
X0222661Y0368395D01*
X0222661Y0368493D02*
X0228277Y0368493D01*
X0228277Y0368591D02*
X0222661Y0368591D01*
X0222661Y0368689D02*
X0228277Y0368689D01*
X0228277Y0368787D02*
X0222661Y0368787D01*
X0222661Y0368885D02*
X0228277Y0368885D01*
X0228277Y0368983D02*
X0222661Y0368983D01*
X0222661Y0364562D02*
X0228277Y0364562D01*
X0222661Y0364562D02*
X0222661Y0366438D01*
X0228277Y0366438D01*
X0228277Y0364562D01*
X0228277Y0364660D02*
X0222661Y0364660D01*
X0222661Y0364758D02*
X0228277Y0364758D01*
X0228277Y0364856D02*
X0222661Y0364856D01*
X0222661Y0364954D02*
X0228277Y0364954D01*
X0228277Y0365052D02*
X0222661Y0365052D01*
X0222661Y0365150D02*
X0228277Y0365150D01*
X0228277Y0365248D02*
X0222661Y0365248D01*
X0222661Y0365346D02*
X0228277Y0365346D01*
X0228277Y0365444D02*
X0222661Y0365444D01*
X0222661Y0365542D02*
X0228277Y0365542D01*
X0228277Y0365640D02*
X0222661Y0365640D01*
X0222661Y0365738D02*
X0228277Y0365738D01*
X0228277Y0365836D02*
X0222661Y0365836D01*
X0222661Y0365934D02*
X0228277Y0365934D01*
X0228277Y0366032D02*
X0222661Y0366032D01*
X0222661Y0366130D02*
X0228277Y0366130D01*
X0228277Y0366228D02*
X0222661Y0366228D01*
X0222661Y0366326D02*
X0228277Y0366326D01*
X0228277Y0366424D02*
X0222661Y0366424D01*
X0222661Y0362003D02*
X0228277Y0362003D01*
X0222661Y0362003D02*
X0222661Y0363879D01*
X0228277Y0363879D01*
X0228277Y0362003D01*
X0228277Y0362101D02*
X0222661Y0362101D01*
X0222661Y0362199D02*
X0228277Y0362199D01*
X0228277Y0362297D02*
X0222661Y0362297D01*
X0222661Y0362395D02*
X0228277Y0362395D01*
X0228277Y0362493D02*
X0222661Y0362493D01*
X0222661Y0362591D02*
X0228277Y0362591D01*
X0228277Y0362689D02*
X0222661Y0362689D01*
X0222661Y0362787D02*
X0228277Y0362787D01*
X0228277Y0362885D02*
X0222661Y0362885D01*
X0222661Y0362983D02*
X0228277Y0362983D01*
X0228277Y0363081D02*
X0222661Y0363081D01*
X0222661Y0363179D02*
X0228277Y0363179D01*
X0228277Y0363277D02*
X0222661Y0363277D01*
X0222661Y0363375D02*
X0228277Y0363375D01*
X0228277Y0363473D02*
X0222661Y0363473D01*
X0222661Y0363571D02*
X0228277Y0363571D01*
X0228277Y0363669D02*
X0222661Y0363669D01*
X0222661Y0363767D02*
X0228277Y0363767D01*
X0228277Y0363865D02*
X0222661Y0363865D01*
D35*
X0198146Y0241567D03*
X0104720Y0241567D03*
D36*
X0285492Y0076662D03*
D37*
X0277618Y0076662D03*
X0269744Y0076662D03*
X0261870Y0076662D03*
X0253996Y0076662D03*
X0246122Y0076662D03*
X0238248Y0076662D03*
X0230374Y0076662D03*
D38*
X0106161Y0112292D03*
X0106161Y0124103D03*
X0106161Y0135914D03*
X0106161Y0147725D03*
D39*
X0129980Y0195166D03*
X0129980Y0064851D03*
X0385886Y0064851D03*
X0385886Y0195166D03*
D40*
X0413933Y0263768D03*
X0413933Y0274792D03*
D41*
X0339200Y0357674D02*
X0339200Y0360532D01*
X0339200Y0357674D02*
X0338508Y0357674D01*
X0338508Y0360532D01*
X0339200Y0360532D01*
X0339200Y0358365D02*
X0338508Y0358365D01*
X0338508Y0359056D02*
X0339200Y0359056D01*
X0339200Y0359747D02*
X0338508Y0359747D01*
X0338508Y0360438D02*
X0339200Y0360438D01*
X0337232Y0360532D02*
X0337232Y0357674D01*
X0336540Y0357674D01*
X0336540Y0360532D01*
X0337232Y0360532D01*
X0337232Y0358365D02*
X0336540Y0358365D01*
X0336540Y0359056D02*
X0337232Y0359056D01*
X0337232Y0359747D02*
X0336540Y0359747D01*
X0336540Y0360438D02*
X0337232Y0360438D01*
X0335263Y0360532D02*
X0335263Y0357674D01*
X0334571Y0357674D01*
X0334571Y0360532D01*
X0335263Y0360532D01*
X0335263Y0358365D02*
X0334571Y0358365D01*
X0334571Y0359056D02*
X0335263Y0359056D01*
X0335263Y0359747D02*
X0334571Y0359747D01*
X0334571Y0360438D02*
X0335263Y0360438D01*
X0333295Y0360532D02*
X0333295Y0357674D01*
X0332603Y0357674D01*
X0332603Y0360532D01*
X0333295Y0360532D01*
X0333295Y0358365D02*
X0332603Y0358365D01*
X0332603Y0359056D02*
X0333295Y0359056D01*
X0333295Y0359747D02*
X0332603Y0359747D01*
X0332603Y0360438D02*
X0333295Y0360438D01*
X0331326Y0360532D02*
X0331326Y0357674D01*
X0330634Y0357674D01*
X0330634Y0360532D01*
X0331326Y0360532D01*
X0331326Y0358365D02*
X0330634Y0358365D01*
X0330634Y0359056D02*
X0331326Y0359056D01*
X0331326Y0359747D02*
X0330634Y0359747D01*
X0330634Y0360438D02*
X0331326Y0360438D01*
X0329358Y0360532D02*
X0329358Y0357674D01*
X0328666Y0357674D01*
X0328666Y0360532D01*
X0329358Y0360532D01*
X0329358Y0358365D02*
X0328666Y0358365D01*
X0328666Y0359056D02*
X0329358Y0359056D01*
X0329358Y0359747D02*
X0328666Y0359747D01*
X0328666Y0360438D02*
X0329358Y0360438D01*
X0327685Y0361513D02*
X0324827Y0361513D01*
X0324827Y0362205D01*
X0327685Y0362205D01*
X0327685Y0361513D01*
X0327685Y0362204D02*
X0324827Y0362204D01*
X0324827Y0363481D02*
X0327685Y0363481D01*
X0324827Y0363481D02*
X0324827Y0364173D01*
X0327685Y0364173D01*
X0327685Y0363481D01*
X0327685Y0364172D02*
X0324827Y0364172D01*
X0324827Y0365450D02*
X0327685Y0365450D01*
X0324827Y0365450D02*
X0324827Y0366142D01*
X0327685Y0366142D01*
X0327685Y0365450D01*
X0327685Y0366141D02*
X0324827Y0366141D01*
X0324827Y0367418D02*
X0327685Y0367418D01*
X0324827Y0367418D02*
X0324827Y0368110D01*
X0327685Y0368110D01*
X0327685Y0367418D01*
X0327685Y0368109D02*
X0324827Y0368109D01*
X0324827Y0369387D02*
X0327685Y0369387D01*
X0324827Y0369387D02*
X0324827Y0370079D01*
X0327685Y0370079D01*
X0327685Y0369387D01*
X0327685Y0370078D02*
X0324827Y0370078D01*
X0324827Y0371355D02*
X0327685Y0371355D01*
X0324827Y0371355D02*
X0324827Y0372047D01*
X0327685Y0372047D01*
X0327685Y0371355D01*
X0327685Y0372046D02*
X0324827Y0372046D01*
X0328666Y0373028D02*
X0328666Y0375886D01*
X0329358Y0375886D01*
X0329358Y0373028D01*
X0328666Y0373028D01*
X0328666Y0373719D02*
X0329358Y0373719D01*
X0329358Y0374410D02*
X0328666Y0374410D01*
X0328666Y0375101D02*
X0329358Y0375101D01*
X0329358Y0375792D02*
X0328666Y0375792D01*
X0330634Y0375886D02*
X0330634Y0373028D01*
X0330634Y0375886D02*
X0331326Y0375886D01*
X0331326Y0373028D01*
X0330634Y0373028D01*
X0330634Y0373719D02*
X0331326Y0373719D01*
X0331326Y0374410D02*
X0330634Y0374410D01*
X0330634Y0375101D02*
X0331326Y0375101D01*
X0331326Y0375792D02*
X0330634Y0375792D01*
X0332603Y0375886D02*
X0332603Y0373028D01*
X0332603Y0375886D02*
X0333295Y0375886D01*
X0333295Y0373028D01*
X0332603Y0373028D01*
X0332603Y0373719D02*
X0333295Y0373719D01*
X0333295Y0374410D02*
X0332603Y0374410D01*
X0332603Y0375101D02*
X0333295Y0375101D01*
X0333295Y0375792D02*
X0332603Y0375792D01*
X0334571Y0375886D02*
X0334571Y0373028D01*
X0334571Y0375886D02*
X0335263Y0375886D01*
X0335263Y0373028D01*
X0334571Y0373028D01*
X0334571Y0373719D02*
X0335263Y0373719D01*
X0335263Y0374410D02*
X0334571Y0374410D01*
X0334571Y0375101D02*
X0335263Y0375101D01*
X0335263Y0375792D02*
X0334571Y0375792D01*
X0336540Y0375886D02*
X0336540Y0373028D01*
X0336540Y0375886D02*
X0337232Y0375886D01*
X0337232Y0373028D01*
X0336540Y0373028D01*
X0336540Y0373719D02*
X0337232Y0373719D01*
X0337232Y0374410D02*
X0336540Y0374410D01*
X0336540Y0375101D02*
X0337232Y0375101D01*
X0337232Y0375792D02*
X0336540Y0375792D01*
X0338508Y0375886D02*
X0338508Y0373028D01*
X0338508Y0375886D02*
X0339200Y0375886D01*
X0339200Y0373028D01*
X0338508Y0373028D01*
X0338508Y0373719D02*
X0339200Y0373719D01*
X0339200Y0374410D02*
X0338508Y0374410D01*
X0338508Y0375101D02*
X0339200Y0375101D01*
X0339200Y0375792D02*
X0338508Y0375792D01*
X0340181Y0372047D02*
X0343039Y0372047D01*
X0343039Y0371355D01*
X0340181Y0371355D01*
X0340181Y0372047D01*
X0340181Y0372046D02*
X0343039Y0372046D01*
X0343039Y0370079D02*
X0340181Y0370079D01*
X0343039Y0370079D02*
X0343039Y0369387D01*
X0340181Y0369387D01*
X0340181Y0370079D01*
X0340181Y0370078D02*
X0343039Y0370078D01*
X0343039Y0368110D02*
X0340181Y0368110D01*
X0343039Y0368110D02*
X0343039Y0367418D01*
X0340181Y0367418D01*
X0340181Y0368110D01*
X0340181Y0368109D02*
X0343039Y0368109D01*
X0343039Y0366142D02*
X0340181Y0366142D01*
X0343039Y0366142D02*
X0343039Y0365450D01*
X0340181Y0365450D01*
X0340181Y0366142D01*
X0340181Y0366141D02*
X0343039Y0366141D01*
X0343039Y0364173D02*
X0340181Y0364173D01*
X0343039Y0364173D02*
X0343039Y0363481D01*
X0340181Y0363481D01*
X0340181Y0364173D01*
X0340181Y0364172D02*
X0343039Y0364172D01*
X0343039Y0362205D02*
X0340181Y0362205D01*
X0343039Y0362205D02*
X0343039Y0361513D01*
X0340181Y0361513D01*
X0340181Y0362205D01*
X0340181Y0362204D02*
X0343039Y0362204D01*
D42*
X0333933Y0366780D03*
D43*
X0391108Y0365323D03*
X0405675Y0357449D03*
X0412762Y0365323D03*
X0427329Y0357449D03*
X0436778Y0365323D03*
X0432841Y0381662D03*
X0397801Y0381662D03*
X0397801Y0347803D03*
X0397801Y0341662D03*
X0391108Y0325323D03*
X0405675Y0317449D03*
X0412762Y0325323D03*
X0427329Y0317449D03*
X0436778Y0325323D03*
X0432841Y0341662D03*
X0397801Y0307803D03*
D44*
X0423933Y0166780D03*
X0423933Y0091780D03*
D45*
X0433933Y0101780D03*
X0433933Y0081780D03*
X0413933Y0081780D03*
X0413933Y0101780D03*
X0413933Y0156780D03*
X0413933Y0176780D03*
X0433933Y0176780D03*
X0433933Y0156780D03*
D46*
X0379406Y0241622D03*
D47*
X0379406Y0231780D03*
X0379406Y0221937D03*
X0436492Y0221937D03*
X0436492Y0241622D03*
D48*
X0408933Y0231780D03*
D49*
X0413877Y0246718D02*
X0403989Y0246718D01*
X0403989Y0253456D01*
X0413877Y0253456D01*
X0413877Y0246718D01*
X0413877Y0247466D02*
X0403989Y0247466D01*
X0403989Y0248214D02*
X0413877Y0248214D01*
X0413877Y0248962D02*
X0403989Y0248962D01*
X0403989Y0249710D02*
X0413877Y0249710D01*
X0413877Y0250458D02*
X0403989Y0250458D01*
X0403989Y0251206D02*
X0413877Y0251206D01*
X0413877Y0251954D02*
X0403989Y0251954D01*
X0403989Y0252702D02*
X0413877Y0252702D01*
X0413877Y0253450D02*
X0403989Y0253450D01*
X0403989Y0210104D02*
X0413877Y0210104D01*
X0403989Y0210104D02*
X0403989Y0216842D01*
X0413877Y0216842D01*
X0413877Y0210104D01*
X0413877Y0210852D02*
X0403989Y0210852D01*
X0403989Y0211600D02*
X0413877Y0211600D01*
X0413877Y0212348D02*
X0403989Y0212348D01*
X0403989Y0213096D02*
X0413877Y0213096D01*
X0413877Y0213844D02*
X0403989Y0213844D01*
X0403989Y0214592D02*
X0413877Y0214592D01*
X0413877Y0215340D02*
X0403989Y0215340D01*
X0403989Y0216088D02*
X0413877Y0216088D01*
X0413877Y0216836D02*
X0403989Y0216836D01*
D50*
X0092710Y0105700D02*
X0092710Y0101522D01*
X0092710Y0105700D02*
X0094920Y0105700D01*
X0094920Y0101522D01*
X0092710Y0101522D01*
X0092710Y0102073D02*
X0094920Y0102073D01*
X0094920Y0102624D02*
X0092710Y0102624D01*
X0092710Y0103175D02*
X0094920Y0103175D01*
X0094920Y0103726D02*
X0092710Y0103726D01*
X0092710Y0104277D02*
X0094920Y0104277D01*
X0094920Y0104828D02*
X0092710Y0104828D01*
X0092710Y0105379D02*
X0094920Y0105379D01*
X0087789Y0105700D02*
X0087789Y0101522D01*
X0087789Y0105700D02*
X0089999Y0105700D01*
X0089999Y0101522D01*
X0087789Y0101522D01*
X0087789Y0102073D02*
X0089999Y0102073D01*
X0089999Y0102624D02*
X0087789Y0102624D01*
X0087789Y0103175D02*
X0089999Y0103175D01*
X0089999Y0103726D02*
X0087789Y0103726D01*
X0087789Y0104277D02*
X0089999Y0104277D01*
X0089999Y0104828D02*
X0087789Y0104828D01*
X0087789Y0105379D02*
X0089999Y0105379D01*
X0082867Y0105700D02*
X0082867Y0101522D01*
X0082867Y0105700D02*
X0085077Y0105700D01*
X0085077Y0101522D01*
X0082867Y0101522D01*
X0082867Y0102073D02*
X0085077Y0102073D01*
X0085077Y0102624D02*
X0082867Y0102624D01*
X0082867Y0103175D02*
X0085077Y0103175D01*
X0085077Y0103726D02*
X0082867Y0103726D01*
X0082867Y0104277D02*
X0085077Y0104277D01*
X0085077Y0104828D02*
X0082867Y0104828D01*
X0082867Y0105379D02*
X0085077Y0105379D01*
X0077946Y0105700D02*
X0077946Y0101522D01*
X0077946Y0105700D02*
X0080156Y0105700D01*
X0080156Y0101522D01*
X0077946Y0101522D01*
X0077946Y0102073D02*
X0080156Y0102073D01*
X0080156Y0102624D02*
X0077946Y0102624D01*
X0077946Y0103175D02*
X0080156Y0103175D01*
X0080156Y0103726D02*
X0077946Y0103726D01*
X0077946Y0104277D02*
X0080156Y0104277D01*
X0080156Y0104828D02*
X0077946Y0104828D01*
X0077946Y0105379D02*
X0080156Y0105379D01*
X0080156Y0097038D02*
X0080156Y0092860D01*
X0077946Y0092860D01*
X0077946Y0097038D01*
X0080156Y0097038D01*
X0080156Y0093411D02*
X0077946Y0093411D01*
X0077946Y0093962D02*
X0080156Y0093962D01*
X0080156Y0094513D02*
X0077946Y0094513D01*
X0077946Y0095064D02*
X0080156Y0095064D01*
X0080156Y0095615D02*
X0077946Y0095615D01*
X0077946Y0096166D02*
X0080156Y0096166D01*
X0080156Y0096717D02*
X0077946Y0096717D01*
X0089999Y0097038D02*
X0089999Y0092860D01*
X0087789Y0092860D01*
X0087789Y0097038D01*
X0089999Y0097038D01*
X0089999Y0093411D02*
X0087789Y0093411D01*
X0087789Y0093962D02*
X0089999Y0093962D01*
X0089999Y0094513D02*
X0087789Y0094513D01*
X0087789Y0095064D02*
X0089999Y0095064D01*
X0089999Y0095615D02*
X0087789Y0095615D01*
X0087789Y0096166D02*
X0089999Y0096166D01*
X0089999Y0096717D02*
X0087789Y0096717D01*
X0094920Y0097038D02*
X0094920Y0092860D01*
X0092710Y0092860D01*
X0092710Y0097038D01*
X0094920Y0097038D01*
X0094920Y0093411D02*
X0092710Y0093411D01*
X0092710Y0093962D02*
X0094920Y0093962D01*
X0094920Y0094513D02*
X0092710Y0094513D01*
X0092710Y0095064D02*
X0094920Y0095064D01*
X0094920Y0095615D02*
X0092710Y0095615D01*
X0092710Y0096166D02*
X0094920Y0096166D01*
X0094920Y0096717D02*
X0092710Y0096717D01*
D51*
X0085187Y0097010D02*
X0085187Y0092888D01*
X0082757Y0092888D01*
X0082757Y0097010D01*
X0085187Y0097010D01*
X0085187Y0093495D02*
X0082757Y0093495D01*
X0082757Y0094102D02*
X0085187Y0094102D01*
X0085187Y0094709D02*
X0082757Y0094709D01*
X0082757Y0095316D02*
X0085187Y0095316D01*
X0085187Y0095923D02*
X0082757Y0095923D01*
X0082757Y0096530D02*
X0085187Y0096530D01*
D52*
X0088993Y0083915D03*
X0088993Y0074663D03*
D53*
X0088993Y0079289D03*
M02*
